<?xml version="1.0" encoding="UTF-8"?>
<svg width="48px" height="48px" viewBox="0 0 48 48" version="1.1" xmlns="http://www.w3.org/2000/svg" xmlns:xlink="http://www.w3.org/1999/xlink">
    <!-- Generator: Sketch 59.1 (86144) - https://sketch.com -->
    <title>基础图形/回到顶部arrow-left</title>
    <desc>Created with Sketch.</desc>
    <g id="基础图形/回到顶部arrow-left" stroke="none" stroke-width="1" fill="none" fill-rule="evenodd">
        <g id="arrow-to-top" transform="translate(4.000000, 6.000000)" fill="#000000" fill-rule="nonzero">
            <path d="M1.38578644,13.8357864 L18.6357864,-3.41421356 C19.3757272,-4.15415433 20.5512114,-4.19309858 21.3369988,-3.53104631 L21.4642136,-3.41421356 L38.7142136,13.8357864 C39.4952621,14.616835 39.4952621,15.883165 38.7142136,16.6642136 C37.9742728,17.4041543 36.7987886,17.4430986 36.0130012,16.7810463 L35.8857864,16.6642136 L22,2.779 L22,38 C22,39.0543618 21.1841222,39.9181651 20.1492623,39.9945143 L20,40 C18.9456382,40 18.0818349,39.1841222 18.0054857,38.1492623 L18,38 L18,2.877 L4.21421356,16.6642136 C3.4742728,17.4041543 2.29878864,17.4430986 1.51300121,16.7810463 L1.38578644,16.6642136 C0.645845674,15.9242728 0.606901424,14.7487886 1.26895369,13.9630012 L1.38578644,13.8357864 L18.6357864,-3.41421356 L1.38578644,13.8357864 Z" id="形状结合" transform="translate(20.050000, 18.000000) rotate(-90.000000) translate(-20.050000, -18.000000) "></path>
        </g>
    </g>
</svg>