<?xml version="1.0" encoding="UTF-8"?>
<svg width="48px" height="48px" viewBox="0 0 48 48" version="1.1" xmlns="http://www.w3.org/2000/svg" xmlns:xlink="http://www.w3.org/1999/xlink">
    <!-- Generator: Sketch 52.4 (67378) - http://www.bohemiancoding.com/sketch -->
    <title>48</title>
    <desc>Created with Sketch.</desc>
    <g id="Page-1" stroke="none" stroke-width="1" fill="none" fill-rule="evenodd">
        <g id="画板" transform="translate(-438.000000, -233.000000)" fill="#000000" fill-rule="nonzero">
            <g id="arrow-to-top" transform="translate(443.000000, 235.000000)">
                <path d="M21.5,10.3968805 L21.5,44 C21.5,45.1045695 20.6045695,46 19.5,46 C18.3954305,46 17.5,45.1045695 17.5,44 L17.5,10.3968805 L1.3142704,24.5075166 C0.481676034,25.2333681 -0.78169396,25.1468359 -1.50754546,24.3142415 C-2.23339696,23.4816471 -2.14686477,22.2182771 -1.3142704,21.4924256 L18.1857296,4.49242564 C18.9388954,3.83581959 20.0611046,3.83581959 20.8142704,4.49242564 L40.3142704,21.4924256 C41.1468648,22.2182771 41.233397,23.4816471 40.5075455,24.3142415 C39.781694,25.1468359 38.518324,25.2333681 37.6857296,24.5075166 L21.5,10.3968805 Z M1,3 C-0.1045695,3 -1,2.1045695 -1,1 C-1,-0.1045695 -0.1045695,-1 1,-1 L38,-1 C39.1045695,-1 40,-0.1045695 40,1 C40,2.1045695 39.1045695,3 38,3 L1,3 Z" id="合并形状"></path>
            </g>
        </g>
    </g>
</svg>