<?xml version="1.0" encoding="UTF-8"?>
<svg width="48px" height="48px" viewBox="0 0 48 48" version="1.1" xmlns="http://www.w3.org/2000/svg" xmlns:xlink="http://www.w3.org/1999/xlink">
    <!-- Generator: Sketch 59.1 (86144) - https://sketch.com -->
    <title>基础图形/回到顶部arrow-down</title>
    <desc>Created with Sketch.</desc>
    <g id="基础图形/回到顶部arrow-down" stroke="none" stroke-width="1" fill="none" fill-rule="evenodd">
        <g id="arrow-to-top" transform="translate(6.000000, 4.000000)" fill="#000000" fill-rule="nonzero">
            <path d="M17.8507377,-1.78015879 L18,-1.78564453 C19.0543618,-1.78564453 19.9181651,-0.969766741 19.9945143,0.0650931239 L20,0.214355469 L20,35.47 L33.8857864,21.5857864 C34.6257272,20.8458457 35.8012114,20.8069014 36.5869988,21.4689537 L36.7142136,21.5857864 C37.4541543,22.3257272 37.4930986,23.5012114 36.8310463,24.2869988 L36.7142136,24.4142136 L19.4642136,41.6642136 C18.7242728,42.4041543 17.5487886,42.4430986 16.7630012,41.7810463 L16.6357864,41.6642136 L-0.614213562,24.4142136 C-1.39526215,23.633165 -1.39526215,22.366835 -0.614213562,21.5857864 C0.125727201,20.8458457 1.30121136,20.8069014 2.08699879,21.4689537 L2.21421356,21.5857864 L16,35.372 L16,0.214355469 C16,-0.840006326 16.8158778,-1.70380965 17.8507377,-1.78015879 L18,-1.78564453 L17.8507377,-1.78015879 Z" id="形状结合"></path>
        </g>
    </g>
</svg>