<?xml version="1.0" encoding="UTF-8"?>
<svg width="48px" height="48px" viewBox="0 0 48 48" version="1.1" xmlns="http://www.w3.org/2000/svg" xmlns:xlink="http://www.w3.org/1999/xlink">
    <!-- Generator: Sketch 59.1 (86144) - https://sketch.com -->
    <title>基础图形/回到顶部arrow-up</title>
    <desc>Created with Sketch.</desc>
    <g id="基础图形/回到顶部arrow-up" stroke="none" stroke-width="1" fill="none" fill-rule="evenodd">
        <g id="arrow-to-top" transform="translate(6.000000, 4.000000)" fill="#000000" fill-rule="nonzero">
            <path d="M-0.614213562,15.8357864 L16.6357864,-1.41421356 C17.3757272,-2.15415433 18.5512114,-2.19309858 19.3369988,-1.53104631 L19.4642136,-1.41421356 L36.7142136,15.8357864 C37.4952621,16.616835 37.4952621,17.883165 36.7142136,18.6642136 C35.9742728,19.4041543 34.7987886,19.4430986 34.0130012,18.7810463 L33.8857864,18.6642136 L20,4.779 L20,40 C20,41.0543618 19.1841222,41.9181651 18.1492623,41.9945143 L18,42 C16.9456382,42 16.0818349,41.1841222 16.0054857,40.1492623 L16,40 L16,4.877 L2.21421356,18.6642136 C1.4742728,19.4041543 0.298788642,19.4430986 -0.486998795,18.7810463 L-0.614213562,18.6642136 C-1.35415433,17.9242728 -1.39309858,16.7487886 -0.731046314,15.9630012 L-0.614213562,15.8357864 L16.6357864,-1.41421356 L-0.614213562,15.8357864 Z" id="形状结合"></path>
        </g>
    </g>
</svg>