<?xml version="1.0" encoding="UTF-8"?>
<svg width="48px" height="48px" viewBox="0 0 48 48" version="1.1" xmlns="http://www.w3.org/2000/svg" xmlns:xlink="http://www.w3.org/1999/xlink">
    <!-- Generator: Sketch 52.4 (67378) - http://www.bohemiancoding.com/sketch -->
    <title>48</title>
    <desc>Created with Sketch.</desc>
    <g id="Page-1" stroke="none" stroke-width="1" fill="none" fill-rule="evenodd">
        <g id="画板" transform="translate(-352.000000, -457.000000)" fill="#000000" fill-rule="nonzero">
            <g id="bullseye" transform="translate(354.000000, 460.000000)">
                <path d="M7.87298246,36.1955442 C8.65442227,36.9762014 8.65505672,38.2425312 7.87439956,39.023971 C7.09374239,39.8054108 5.82741259,39.8060452 5.04597279,39.0253881 C0.565372513,34.5492753 -2,28.4866473 -2,22.0224298 C-2,8.75566413 8.74470951,-2 22,-2 C35.2552905,-2 46,8.75566413 46,22.0224298 C46,28.5391411 43.3925843,34.6467287 38.8474783,39.1311705 C38.0612001,39.9069542 36.7948987,39.8984467 36.019115,39.1121684 C35.2433314,38.3258902 35.2518389,37.0595888 36.0381171,36.2838052 C39.8289077,32.5436107 42,27.4580633 42,22.0224298 C42,10.9638912 33.0452385,2 22,2 C10.9547615,2 2,10.9638912 2,22.0224298 C2,27.4143262 4.13604897,32.4623534 7.87298246,36.1955442 Z M13.6884963,30.3168386 C14.4913878,31.0754156 14.5273117,32.3412359 13.7687347,33.1441274 C13.0101576,33.9470188 11.7443373,33.9829427 10.9414459,33.2243657 C7.80818759,30.264043 6,26.1743961 6,21.8032418 C6,13.0689663 13.1697308,6 22,6 C30.8302692,6 38,13.0689663 38,21.8032418 C38,26.2292224 36.1459647,30.3653873 32.9435486,33.3319577 C32.1332318,34.0825977 30.8678263,34.0342201 30.1171862,33.2239034 C29.3665462,32.4135866 29.4149237,31.148181 30.2252405,30.397541 C32.6204408,28.178738 34,25.1010814 34,21.8032418 C34,15.2908774 28.6337038,10 22,10 C15.3662962,10 10,15.2908774 10,21.8032418 C10,25.0602375 11.3453135,28.1029843 13.6884963,30.3168386 Z M19.0305989,25.0159217 C19.7508855,25.853335 19.6559355,27.1161002 18.8185222,27.8363868 C17.9811089,28.5566734 16.7183437,28.4617234 15.9980571,27.6243102 C14.7181333,26.1362564 14,24.2222286 14,22.2014265 C14,17.6864115 17.5666744,14 22,14 C26.4333256,14 30,17.6864115 30,22.2014265 C30,24.3277985 29.2045997,26.3339245 27.8021122,27.8481838 C27.0515449,28.658568 25.7861437,28.7070591 24.9757595,27.9564917 C24.1653754,27.2059244 24.1168843,25.9405232 24.8674516,25.1301391 C25.588848,24.3512507 26,23.3142601 26,22.2014265 C26,19.8665349 24.1940914,18 22,18 C19.8059086,18 18,19.8665349 18,22.2014265 C18,23.2596136 18.3714202,24.2495531 19.0305989,25.0159217 Z" id="合并形状"></path>
            </g>
        </g>
    </g>
</svg>