<?xml version="1.0" encoding="UTF-8"?>
<svg width="48px" height="48px" viewBox="0 0 48 48" version="1.1" xmlns="http://www.w3.org/2000/svg" xmlns:xlink="http://www.w3.org/1999/xlink">
    <!-- Generator: Sketch 52.4 (67378) - http://www.bohemiancoding.com/sketch -->
    <title>48</title>
    <desc>Created with Sketch.</desc>
    <g id="Page-1" stroke="none" stroke-width="1" fill="none" fill-rule="evenodd">
        <g id="画板" transform="translate(-702.000000, -458.000000)" fill="#000000" fill-rule="nonzero">
            <g id="calendar" transform="translate(704.000000, 460.000000)">
                <path d="M32.5,6 L32.5,8 C32.5,9.1045695 31.6045695,10 30.5,10 C29.3954305,10 28.5,9.1045695 28.5,8 L28.5,6 L15.5,6 L15.5,8 C15.5,9.1045695 14.6045695,10 13.5,10 C12.3954305,10 11.5,9.1045695 11.5,8 L11.5,6 L4,6 C2.8954305,6 2,6.8954305 2,8 L2,15.5 L42,15.5 L42,8 C42,6.8954305 41.1045695,6 40,6 L32.5,6 Z M32.5,2 L40,2 C43.3137085,2 46,4.6862915 46,8 L46,40 C46,43.3137085 43.3137085,46 40,46 L4,46 C0.686291501,46 -2,43.3137085 -2,40 L-2,8 C-2,4.6862915 0.686291501,2 4,2 L11.5,2 L11.5,0 C11.5,-1.1045695 12.3954305,-2 13.5,-2 C14.6045695,-2 15.5,-1.1045695 15.5,0 L15.5,2 L28.5,2 L28.5,0 C28.5,-1.1045695 29.3954305,-2 30.5,-2 C31.6045695,-2 32.5,-1.1045695 32.5,0 L32.5,2 Z M2,19.5 L2,40 C2,41.1045695 2.8954305,42 4,42 L40,42 C41.1045695,42 42,41.1045695 42,40 L42,19.5 L2,19.5 Z M14,29.5 C12.8954305,29.5 12,28.6045695 12,27.5 C12,26.3954305 12.8954305,25.5 14,25.5 L30,25.5 C31.1045695,25.5 32,26.3954305 32,27.5 C32,28.6045695 31.1045695,29.5 30,29.5 L14,29.5 Z M14,36.5 C12.8954305,36.5 12,35.6045695 12,34.5 C12,33.3954305 12.8954305,32.5 14,32.5 L30,32.5 C31.1045695,32.5 32,33.3954305 32,34.5 C32,35.6045695 31.1045695,36.5 30,36.5 L14,36.5 Z" id="合并形状"></path>
            </g>
        </g>
    </g>
</svg>