<?xml version="1.0" encoding="UTF-8"?>
<svg width="48px" height="48px" viewBox="0 0 48 48" version="1.1" xmlns="http://www.w3.org/2000/svg" xmlns:xlink="http://www.w3.org/1999/xlink">
    <!-- Generator: Sketch 52.4 (67378) - http://www.bohemiancoding.com/sketch -->
    <title>48</title>
    <desc>Created with Sketch.</desc>
    <g id="Page-1" stroke="none" stroke-width="1" fill="none" fill-rule="evenodd">
        <g id="画板" transform="translate(-88.000000, -127.000000)" fill="#000000" fill-rule="nonzero">
            <g id="check-circle" transform="translate(90.000000, 129.000000)">
                <path d="M22,46 C8.745166,46 -2,35.254834 -2,22 C-2,8.745166 8.745166,-2 22,-2 C35.254834,-2 46,8.745166 46,22 C46,35.254834 35.254834,46 22,46 Z M22,42 C33.045695,42 42,33.045695 42,22 C42,10.954305 33.045695,2 22,2 C10.954305,2 2,10.954305 2,22 C2,33.045695 10.954305,42 22,42 Z M18,27.1715729 L32.5857864,12.5857864 C33.366835,11.8047379 34.633165,11.8047379 35.4142136,12.5857864 C36.1952621,13.366835 36.1952621,14.633165 35.4142136,15.4142136 L19.4142136,31.4142136 C18.633165,32.1952621 17.366835,32.1952621 16.5857864,31.4142136 L8.58578644,23.4142136 C7.80473785,22.633165 7.80473785,21.366835 8.58578644,20.5857864 C9.36683502,19.8047379 10.633165,19.8047379 11.4142136,20.5857864 L18,27.1715729 Z" id="合并形状"></path>
            </g>
        </g>
    </g>
</svg>