<?xml version="1.0" encoding="UTF-8"?>
<svg width="48px" height="48px" viewBox="0 0 48 48" version="1.1" xmlns="http://www.w3.org/2000/svg" xmlns:xlink="http://www.w3.org/1999/xlink">
    <!-- Generator: Sketch 59.1 (86144) - https://sketch.com -->
    <title>基础图形/双箭头上double-right</title>
    <desc>Created with Sketch.</desc>
    <g id="基础图形/双箭头上double-right" stroke="none" stroke-width="1" fill="none" fill-rule="evenodd">
        <path d="M3.08578644,22.0857864 C3.86683502,21.3047379 5.13316498,21.3047379 5.91421356,22.0857864 L5.91421356,22.0857864 L24.5,40.6715729 L43.0857864,22.0857864 C43.866835,21.3047379 45.133165,21.3047379 45.9142136,22.0857864 C46.6952621,22.866835 46.6952621,24.133165 45.9142136,24.9142136 L45.9142136,24.9142136 L25.9142136,44.9142136 C25.133165,45.6952621 23.866835,45.6952621 23.0857864,44.9142136 L23.0857864,44.9142136 L3.08578644,24.9142136 C2.30473785,24.133165 2.30473785,22.866835 3.08578644,22.0857864 Z M3.08578644,3.08578644 C3.86683502,2.30473785 5.13316498,2.30473785 5.91421356,3.08578644 L5.91421356,3.08578644 L24.5,21.6715729 L43.0857864,3.08578644 C43.866835,2.30473785 45.133165,2.30473785 45.9142136,3.08578644 C46.6952621,3.86683502 46.6952621,5.13316498 45.9142136,5.91421356 L45.9142136,5.91421356 L25.9142136,25.9142136 C25.133165,26.6952621 23.866835,26.6952621 23.0857864,25.9142136 L23.0857864,25.9142136 L3.08578644,5.91421356 C2.30473785,5.13316498 2.30473785,3.86683502 3.08578644,3.08578644 Z" id="形状结合" fill="#000000" fill-rule="nonzero" transform="translate(24.500000, 24.000000) scale(1, -1) rotate(-90.000000) translate(-24.500000, -24.000000) "></path>
    </g>
</svg>