<?xml version="1.0" encoding="UTF-8"?>
<svg width="48px" height="48px" viewBox="0 0 48 48" version="1.1" xmlns="http://www.w3.org/2000/svg" xmlns:xlink="http://www.w3.org/1999/xlink">
    <!-- Generator: Sketch 59.1 (86144) - https://sketch.com -->
    <title>基础图形/双箭头下double-down</title>
    <desc>Created with Sketch.</desc>
    <g id="基础图形/双箭头下double-down" stroke="none" stroke-width="1" fill="none" fill-rule="evenodd">
        <g id="double-down" transform="translate(4.000000, 5.000000)" stroke="#000000" stroke-linecap="round" stroke-linejoin="round" stroke-width="4">
            <polyline id="Path-131" points="40 19 20 39 0 19"></polyline>
            <polyline id="Path-131" points="40 0 20 20 0 0"></polyline>
        </g>
        <path d="M2.58578644,22.5857864 C3.36683502,21.8047379 4.63316498,21.8047379 5.41421356,22.5857864 L5.41421356,22.5857864 L24,41.1715729 L42.5857864,22.5857864 C43.366835,21.8047379 44.633165,21.8047379 45.4142136,22.5857864 C46.1952621,23.366835 46.1952621,24.633165 45.4142136,25.4142136 L45.4142136,25.4142136 L25.4142136,45.4142136 C24.633165,46.1952621 23.366835,46.1952621 22.5857864,45.4142136 L22.5857864,45.4142136 L2.58578644,25.4142136 C1.80473785,24.633165 1.80473785,23.366835 2.58578644,22.5857864 Z M2.58578644,3.58578644 C3.36683502,2.80473785 4.63316498,2.80473785 5.41421356,3.58578644 L5.41421356,3.58578644 L24,22.1715729 L42.5857864,3.58578644 C43.366835,2.80473785 44.633165,2.80473785 45.4142136,3.58578644 C46.1952621,4.36683502 46.1952621,5.63316498 45.4142136,6.41421356 L45.4142136,6.41421356 L25.4142136,26.4142136 C24.633165,27.1952621 23.366835,27.1952621 22.5857864,26.4142136 L22.5857864,26.4142136 L2.58578644,6.41421356 C1.80473785,5.63316498 1.80473785,4.36683502 2.58578644,3.58578644 Z" id="形状结合" fill="#000000" fill-rule="nonzero"></path>
    </g>
</svg>