<?xml version="1.0" encoding="UTF-8"?>
<svg width="48px" height="48px" viewBox="0 0 48 48" version="1.1" xmlns="http://www.w3.org/2000/svg" xmlns:xlink="http://www.w3.org/1999/xlink">
    <!-- Generator: Sketch 59.1 (86144) - https://sketch.com -->
    <title>基础图形/双箭头下double-left</title>
    <desc>Created with Sketch.</desc>
    <g id="基础图形/双箭头下double-left" stroke="none" stroke-width="1" fill="none" fill-rule="evenodd">
        <path d="M2.08578644,22.0857864 C2.86683502,21.3047379 4.13316498,21.3047379 4.91421356,22.0857864 L4.91421356,22.0857864 L23.5,40.6715729 L42.0857864,22.0857864 C42.866835,21.3047379 44.133165,21.3047379 44.9142136,22.0857864 C45.6952621,22.866835 45.6952621,24.133165 44.9142136,24.9142136 L44.9142136,24.9142136 L24.9142136,44.9142136 C24.133165,45.6952621 22.866835,45.6952621 22.0857864,44.9142136 L22.0857864,44.9142136 L2.08578644,24.9142136 C1.30473785,24.133165 1.30473785,22.866835 2.08578644,22.0857864 Z M2.08578644,3.08578644 C2.86683502,2.30473785 4.13316498,2.30473785 4.91421356,3.08578644 L4.91421356,3.08578644 L23.5,21.6715729 L42.0857864,3.08578644 C42.866835,2.30473785 44.133165,2.30473785 44.9142136,3.08578644 C45.6952621,3.86683502 45.6952621,5.13316498 44.9142136,5.91421356 L44.9142136,5.91421356 L24.9142136,25.9142136 C24.133165,26.6952621 22.866835,26.6952621 22.0857864,25.9142136 L22.0857864,25.9142136 L2.08578644,5.91421356 C1.30473785,5.13316498 1.30473785,3.86683502 2.08578644,3.08578644 Z" id="形状结合" fill="#000000" fill-rule="nonzero" transform="translate(23.500000, 24.000000) rotate(90.000000) translate(-23.500000, -24.000000) "></path>
    </g>
</svg>