<?xml version="1.0" encoding="UTF-8"?>
<svg width="48px" height="48px" viewBox="0 0 48 48" version="1.1" xmlns="http://www.w3.org/2000/svg" xmlns:xlink="http://www.w3.org/1999/xlink">
    <!-- Generator: Sketch 52.4 (67378) - http://www.bohemiancoding.com/sketch -->
    <title>48</title>
    <desc>Created with Sketch.</desc>
    <g id="Page-1" stroke="none" stroke-width="1" fill="none" fill-rule="evenodd">
        <g id="画板" transform="translate(-790.000000, -462.000000)" fill="#000000" fill-rule="nonzero">
            <g id="clock" transform="translate(792.000000, 464.000000)">
                <path d="M22,46 C8.745166,46 -2,35.254834 -2,22 C-2,8.745166 8.745166,-2 22,-2 C35.254834,-2 46,8.745166 46,22 C46,35.254834 35.254834,46 22,46 Z M22,42 C33.045695,42 42,33.045695 42,22 C42,10.954305 33.045695,2 22,2 C10.954305,2 2,10.954305 2,22 C2,33.045695 10.954305,42 22,42 Z M23,22 L30,22 C31.1045695,22 32,22.8954305 32,24 C32,25.1045695 31.1045695,26 30,26 L21,26 C19.8954305,26 19,25.1045695 19,24 L19,11 C19,9.8954305 19.8954305,9 21,9 C22.1045695,9 23,9.8954305 23,11 L23,22 Z" id="合并形状"></path>
            </g>
        </g>
    </g>
</svg>