<?xml version="1.0" encoding="UTF-8"?>
<svg width="48px" height="48px" viewBox="0 0 48 48" version="1.1" xmlns="http://www.w3.org/2000/svg" xmlns:xlink="http://www.w3.org/1999/xlink">
    <!-- Generator: Sketch 61.2 (89653) - https://sketch.com -->
    <title>编辑操作/编辑edit</title>
    <desc>Created with Sketch.</desc>
    <g id="编辑操作/编辑edit" stroke="none" stroke-width="1" fill="none" fill-rule="evenodd">
        <path d="M27,3 C28.1045695,3 29,3.8954305 29,5 C29,6.1045695 28.1045695,7 27,7 L27,7 L8,7 C7.44771525,7 7,7.44771525 7,8 L7,8 L7,40 C7,40.5522847 7.44771525,41 8,41 L8,41 L40,41 C40.5522847,41 41,40.5522847 41,40 L41,40 L41,21.0473633 C41,19.9427938 41.8954305,19.0473633 43,19.0473633 C44.1045695,19.0473633 45,19.9427938 45,21.0473633 L45,21.0473633 L45,40 C45,42.7614237 42.7614237,45 40,45 L40,45 L8,45 C5.23857625,45 3,42.7614237 3,40 L3,40 L3,8 C3,5.23857625 5.23857625,3 8,3 L8,3 Z M41.9792224,3.58878517 C42.7586148,2.80608394 44.0249419,2.80340162 44.8076432,3.58279405 C45.5903444,4.36218648 45.5930267,5.6285136 44.8136343,6.41121483 L44.8136343,6.41121483 L20.4172059,30.9112148 C19.6378135,31.6939161 18.3714864,31.6965984 17.5887852,30.9172059 C16.8060839,30.1378135 16.8034016,28.8714864 17.5827941,28.0887852 L17.5827941,28.0887852 Z" id="edit" fill="#000000" fill-rule="nonzero"></path>
    </g>
</svg>