<?xml version="1.0" encoding="UTF-8"?>
<svg width="48px" height="48px" viewBox="0 0 48 48" version="1.1" xmlns="http://www.w3.org/2000/svg" xmlns:xlink="http://www.w3.org/1999/xlink">
    <!-- Generator: Sketch 52.4 (67378) - http://www.bohemiancoding.com/sketch -->
    <title>48</title>
    <desc>Created with Sketch.</desc>
    <g id="Page-1" stroke="none" stroke-width="1" fill="none" fill-rule="evenodd">
        <g id="画板" transform="translate(-790.000000, -74.000000)" fill="#000000">
            <g id="ellipsis" transform="translate(792.000000, 94.000000)">
                <path d="M40.2068966,7.5862069 C38.1120234,7.5862069 36.4137931,5.88797664 36.4137931,3.79310345 C36.4137931,1.69823026 38.1120234,0 40.2068966,0 C42.3017697,0 44,1.69823026 44,3.79310345 C44,5.88797664 42.3017697,7.5862069 40.2068966,7.5862069 Z M22,7.5862069 C19.9051268,7.5862069 18.2068966,5.88797664 18.2068966,3.79310345 C18.2068966,1.69823026 19.9051268,0 22,0 C24.0948732,0 25.7931034,1.69823026 25.7931034,3.79310345 C25.7931034,5.88797664 24.0948732,7.5862069 22,7.5862069 Z M3.79310345,7.5862069 C1.69823026,7.5862069 0,5.88797664 0,3.79310345 C0,1.69823026 1.69823026,0 3.79310345,0 C5.88797664,0 7.5862069,1.69823026 7.5862069,3.79310345 C7.5862069,5.88797664 5.88797664,7.5862069 3.79310345,7.5862069 Z" id="Combined-Shape-Copy-2"></path>
            </g>
        </g>
    </g>
</svg>