<?xml version="1.0" encoding="UTF-8"?>
<svg width="48px" height="48px" viewBox="0 0 48 48" version="1.1" xmlns="http://www.w3.org/2000/svg" xmlns:xlink="http://www.w3.org/1999/xlink">
    <!-- Generator: Sketch 52.4 (67378) - http://www.bohemiancoding.com/sketch -->
    <title>48</title>
    <desc>Created with Sketch.</desc>
    <g id="Page-1" stroke="none" stroke-width="1" fill="none" fill-rule="evenodd">
        <g id="画板" transform="translate(-176.000000, -450.000000)" fill="#000000" fill-rule="nonzero">
            <g id="envelope" transform="translate(178.000000, 458.000000)">
                <path d="M2,4.64242011 L2,28 C2,29.1045695 2.8954305,30 4,30 L40,30 C41.1045695,30 42,29.1045695 42,28 L42,4.64242011 L25.897697,18.5464209 C23.6531657,20.4845264 20.3468343,20.4845264 18.102303,18.5464208 L2,4.64242011 Z M38.9397981,2 L5.06020189,2 L20.7165096,15.5188931 C21.4594065,16.160369 22.5405935,16.160369 23.2834904,15.5188931 L38.9397981,2 Z M4,-2 L40,-2 C43.3137085,-2 46,0.686291501 46,4 L46,28 C46,31.3137085 43.3137085,34 40,34 L4,34 C0.686291501,34 -2,31.3137085 -2,28 L-2,4 C-2,0.686291501 0.686291501,-2 4,-2 Z" id="合并形状"></path>
            </g>
        </g>
    </g>
</svg>