<?xml version="1.0" encoding="UTF-8"?>
<svg width="48px" height="48px" viewBox="0 0 48 48" version="1.1" xmlns="http://www.w3.org/2000/svg" xmlns:xlink="http://www.w3.org/1999/xlink">
    <!-- Generator: Sketch 59.1 (86144) - https://sketch.com -->
    <title>编辑操作/预览preview</title>
    <desc>Created with Sketch.</desc>
    <g id="编辑操作/预览preview" stroke="none" stroke-width="1" fill="none" fill-rule="evenodd">
        <path d="M24,7 C33.3340022,7 41.657141,13.3718991 45.8407259,23.2178695 C46.0530914,23.7176667 46.0530914,24.2823333 45.8407259,24.7821305 C41.657141,34.6281009 33.3340022,41 24,41 C14.6659978,41 6.34285902,34.6281009 2.15927407,24.7821305 C1.94690864,24.2823333 1.94690864,23.7176667 2.15927407,23.2178695 C6.34285902,13.3718991 14.6659978,7 24,7 Z M24,11 C16.6271769,11 9.86872958,15.9979786 6.18669821,24 C9.86872958,32.0020214 16.6271769,37 24,37 C31.3728231,37 38.1312704,32.0020214 41.8133018,24 C38.1312704,15.9979786 31.3728231,11 24,11 Z M24,15.5 C28.6944204,15.5 32.5,19.3055796 32.5,24 C32.5,24.9862156 32.3311642,25.9521864 32.0046934,26.8644358 C31.6325117,27.904414 30.48773,28.44577 29.4477518,28.0735883 C28.4077737,27.7014066 27.8664177,26.5566249 28.2385994,25.5166467 C28.4108327,25.0353794 28.5,24.5252206 28.5,24 C28.5,21.5147186 26.4852814,19.5 24,19.5 C21.5147186,19.5 19.5,21.5147186 19.5,24 C19.5,26.4852814 21.5147186,28.5 24,28.5 C24.3695083,28.5 24.7315822,28.4558836 25.0817489,28.3696146 C26.1542497,28.1053876 27.2378816,28.760623 27.5021086,29.8331237 C27.7663356,30.9056245 27.1111003,31.9892564 26.0385995,32.2534834 C25.3759384,32.4167401 24.6926055,32.5 24,32.5 C19.3055796,32.5 15.5,28.6944204 15.5,24 C15.5,19.3055796 19.3055796,15.5 24,15.5 Z" id="preview" fill="#000000" fill-rule="nonzero"></path>
    </g>
</svg>