<?xml version="1.0" encoding="UTF-8"?>
<svg width="48px" height="48px" viewBox="0 0 48 48" version="1.1" xmlns="http://www.w3.org/2000/svg" xmlns:xlink="http://www.w3.org/1999/xlink">
    <!-- Generator: Sketch 52.4 (67378) - http://www.bohemiancoding.com/sketch -->
    <title>48</title>
    <desc>Created with Sketch.</desc>
    <g id="Page-1" stroke="none" stroke-width="1" fill="none" fill-rule="evenodd">
        <g id="画板" transform="translate(-616.000000, -458.000000)" fill="#000000" fill-rule="nonzero">
            <g id="file" transform="translate(620.000000, 459.000000)">
                <path d="M24,3 L4,3 C2.8954305,3 2,3.8954305 2,5 L2,41 C2,42.1045695 2.8954305,43 4,43 L36,43 C37.1045695,43 38,42.1045695 38,41 L38,16 L28.8,16 C26.1490332,16 24,13.8509668 24,11.2 L24,3 Z M35.9703022,12 L28,5.09140785 L28,11.2 C28,11.6418278 28.3581722,12 28.8,12 L35.9703022,12 Z M4,-1 L26.3333333,-1 C26.8145657,-1 27.2796628,-0.826484343 27.6433024,-0.511284607 L41.309969,11.3348692 C41.7482291,11.7147494 42,12.2661704 42,12.8461538 L42,41 C42,44.3137085 39.3137085,47 36,47 L4,47 C0.686291501,47 -2,44.3137085 -2,41 L-2,5 C-2,1.6862915 0.686291501,-1 4,-1 Z M8.63131236,28.3333333 C7.52674286,28.3333333 6.63131236,27.4379028 6.63131236,26.3333333 C6.63131236,25.2287638 7.52674286,24.3333333 8.63131236,24.3333333 L32.3725487,24.3333333 C33.4771182,24.3333333 34.3725487,25.2287638 34.3725487,26.3333333 C34.3725487,27.4379028 33.4771182,28.3333333 32.3725487,28.3333333 L8.63131236,28.3333333 Z M8.75,16.3333333 C7.6454305,16.3333333 6.75,15.4379028 6.75,14.3333333 C6.75,13.2287638 7.6454305,12.3333333 8.75,12.3333333 L19.3743687,12.3333333 C20.4789382,12.3333333 21.3743687,13.2287638 21.3743687,14.3333333 C21.3743687,15.4379028 20.4789382,16.3333333 19.3743687,16.3333333 L8.75,16.3333333 Z" id="合并形状"></path>
            </g>
        </g>
    </g>
</svg>