<?xml version="1.0" encoding="UTF-8"?>
<svg width="48px" height="48px" viewBox="0 0 48 48" version="1.1" xmlns="http://www.w3.org/2000/svg" xmlns:xlink="http://www.w3.org/1999/xlink">
    <!-- Generator: Sketch 59.1 (86144) - https://sketch.com -->
    <title>编辑操作/筛选filter</title>
    <desc>Created with Sketch.</desc>
    <g id="编辑操作/筛选filter" stroke="none" stroke-width="1" fill="none" fill-rule="evenodd">
        <g id="filter" transform="translate(2.000000, 4.000000)" fill="#000000" fill-rule="nonzero">
            <path d="M28.646481,19.4815902 L28.646481,39 C28.646481,40.5366087 26.9856416,41.4992272 25.6523196,40.7354086 L16.3593604,35.4117622 C15.7372702,35.0553861 15.3535218,34.3932916 15.3535218,33.6763536 L15.3535218,19.4815902 L0.977073171,5.12260948 C-0.195211672,3.951749 -0.196366352,2.05225442 0.974494122,0.879969573 C1.53720774,0.316571405 2.30082217,0 3.09710359,0 L40.9028992,0 C42.5597535,0 43.9028992,1.34314575 43.9028992,3 C43.9028992,3.79628143 43.5863278,4.55989586 43.0229297,5.12260948 L28.646481,19.4815902 Z M19.3535218,32.5171585 L24.646481,35.5493297 L24.646481,18.6524508 C24.646481,18.1215965 24.8575286,17.6125202 25.2331274,17.2373778 L38.4866087,4 L5.51339414,4 L18.7668754,17.2373778 C19.1424742,17.6125202 19.3535218,18.1215965 19.3535218,18.6524508 L19.3535218,32.5171585 Z" id="Path-2"></path>
        </g>
    </g>
</svg>