<?xml version="1.0" encoding="UTF-8"?>
<svg width="48px" height="48px" viewBox="0 0 48 48" version="1.1" xmlns="http://www.w3.org/2000/svg" xmlns:xlink="http://www.w3.org/1999/xlink">
    <!-- Generator: Sketch 52.4 (67378) - http://www.bohemiancoding.com/sketch -->
    <title>48</title>
    <desc>Created with Sketch.</desc>
    <g id="Page-1" stroke="none" stroke-width="1" fill="none" fill-rule="evenodd">
        <g id="画板" transform="translate(-264.000000, -453.000000)" fill="#000000" fill-rule="nonzero">
            <g id="flag" transform="translate(269.000000, 455.000000)">
                <path d="M4,33.3684211 L4,42 L5,42 C6.1045695,42 7,42.8954305 7,44 C7,45.1045695 6.1045695,46 5,46 L0,46 C-1.1045695,46 -2,45.1045695 -2,44 C-2,42.8954305 -1.1045695,42 0,42 L0,0 C0,-1.1045695 0.8954305,-2 2,-2 C3.1045695,-2 4,-1.1045695 4,0 L24.9090909,0 C25.2187904,0 25.5242585,0.0719225749 25.801424,0.210100118 L28.6527188,1.63157895 L36,1.63157895 C38.209139,1.63157895 40,3.42243995 40,5.63157895 L40,31 C40,33.209139 38.209139,35 36,35 L28.1818182,35 C27.8721187,35 27.5666506,34.9280774 27.2894851,34.7898999 L24.4381903,33.3684211 L4,33.3684211 Z M4,29.3684211 L24.9090909,29.3684211 C25.2187904,29.3684211 25.5242585,29.4403436 25.801424,29.5785212 L28.6527188,31 L36,31 L36,5.63157895 L28.1818182,5.63157895 C27.8721187,5.63157895 27.5666506,5.55965637 27.2894851,5.42147883 L24.4381903,4 L4,4 L4,29.3684211 Z" id="合并形状"></path>
            </g>
        </g>
    </g>
</svg>