<?xml version="1.0" encoding="UTF-8"?>
<svg width="48px" height="48px" viewBox="0 0 48 48" version="1.1" xmlns="http://www.w3.org/2000/svg" xmlns:xlink="http://www.w3.org/1999/xlink">
    <!-- Generator: Sketch 52.4 (67378) - http://www.bohemiancoding.com/sketch -->
    <title>48</title>
    <desc>Created with Sketch.</desc>
    <g id="Page-1" stroke="none" stroke-width="1" fill="none" fill-rule="evenodd">
        <g id="画板" transform="translate(-528.000000, -458.000000)" fill="#000000" fill-rule="nonzero">
            <g id="folder-open" transform="translate(528.000000, 462.000000)">
                <path d="M43,13 L44.9067445,13 C46.5635988,13 47.9067445,14.3431458 47.9067445,16 C47.9067445,16.2547176 47.8743045,16.5083982 47.8102075,16.7549193 L42.0900641,38.7549193 C41.7462983,40.0770625 40.5527043,41 39.1866012,41 L3.50721474,41 C1.85036049,41 0.50721474,39.6568542 0.50721474,38 C0.50721474,37.8367185 0.520545002,37.6738342 0.547012998,37.5129623 C0.195838706,36.75018 2.13162821e-14,35.900764 2.13162821e-14,35.0051972 L2.13162821e-14,5.99480279 C2.13162821e-14,2.68254055 2.68165083,-3.55271368e-15 5.99662193,-3.55271368e-15 L14.5621874,-3.55271368e-15 C16.2415127,-3.55271368e-15 18.2749262,0.92967839 19.3758471,2.1975868 L22.3565783,5.63043478 L36.9954524,5.63043478 C40.3106576,5.63043478 43,8.31273049 43,11.624805 L43,13 Z M39,13 L39,11.624805 C39,10.5242222 38.1038645,9.63043478 36.9954524,9.63043478 L21.4444444,9.63043478 C20.8650606,9.63043478 20.3141487,9.3791821 19.9342854,8.94170118 L16.355529,4.82011959 C16.0134389,4.42614137 15.0813729,4 14.5621874,4 L5.99662193,4 C4.89108692,4 4,4.89138257 4,5.99480279 L4,23.1984389 L5.91120656,15.2948757 C6.2367954,13.9484425 7.44192242,13 8.82716262,13 L39,13 Z M4.862463,36.6501041 C5.18292496,36.8709264 5.57140757,37 5.99040483,37 L38.4133588,37 L43.6134891,17 L9.6141689,17 L4.862463,36.6501041 Z" id="合并形状"></path>
            </g>
        </g>
    </g>
</svg>