<?xml version="1.0" encoding="UTF-8"?>
<svg width="48px" height="48px" viewBox="0 0 48 48" version="1.1" xmlns="http://www.w3.org/2000/svg" xmlns:xlink="http://www.w3.org/1999/xlink">
    <!-- Generator: Sketch 52.4 (67378) - http://www.bohemiancoding.com/sketch -->
    <title>48</title>
    <desc>Created with Sketch.</desc>
    <g id="Page-1" stroke="none" stroke-width="1" fill="none" fill-rule="evenodd">
        <g id="画板" transform="translate(-440.000000, -458.000000)" fill="#000000" fill-rule="nonzero">
            <g id="folder" transform="translate(442.000000, 464.000000)">
                <path d="M2,3.99480279 L2,33.0051972 C2,34.1083886 2.89378543,35 4.00180999,35 L39.99819,35 C41.1026004,35 42,34.102141 42,32.9951599 L42,9.63527485 C42,8.53158348 41.0998806,7.63043478 39.9954524,7.63043478 L24.4444444,7.63043478 C23.8650606,7.63043478 23.3141487,7.3791821 22.9342854,6.94170118 L19.355529,2.82011959 C19.0138487,2.42661324 18.0786282,2 17.5546688,2 L4.00454757,2 C2.89312535,2 2,2.89181814 2,3.99480279 Z M25.3565783,3.63043478 L39.9954524,3.63043478 C43.3100436,3.63043478 46,6.32346717 46,9.63527485 L46,32.9951599 C46,36.3108218 43.3121979,39 39.99819,39 L4.00180999,39 C0.686824125,39 -2,36.3197111 -2,33.0051972 L-2,3.99480279 C-2,0.681366538 0.685296829,-2 4.00454757,-2 L17.5546688,-2 C19.2375125,-2 21.2745165,-1.07079349 22.3758471,0.197586798 L25.3565783,3.63043478 Z" id="Rectangle-4-Copy-2"></path>
            </g>
        </g>
    </g>
</svg>