<?xml version="1.0" encoding="UTF-8"?>
<svg width="48px" height="48px" viewBox="0 0 48 48" version="1.1" xmlns="http://www.w3.org/2000/svg" xmlns:xlink="http://www.w3.org/1999/xlink">
    <!-- Generator: Sketch 52.4 (67378) - http://www.bohemiancoding.com/sketch -->
    <title>48</title>
    <desc>Created with Sketch.</desc>
    <g id="Page-1" stroke="none" stroke-width="1" fill="none" fill-rule="evenodd">
        <g id="画板" transform="translate(-88.000000, -454.000000)" fill="#000000" fill-rule="nonzero">
            <g id="home" transform="translate(90.000000, 458.000000)">
                <path d="M34,38 C35.1045695,38 36,37.1045695 36,36 L36,20 C36,18.8954305 36.8954305,18 38,18 L38.8267863,18 L22,2.70292159 L5.17321375,18 L6,18 C7.1045695,18 8,18.8954305 8,20 L8,36 C8,37.1045695 8.8954305,38 10,38 L15,38 L15,30 C15,27.790861 16.790861,26 19,26 L25,26 C27.209139,26 29,27.790861 29,30 L29,38 L34,38 Z M40,22 L40,36 C40,39.3137085 37.3137085,42 34,42 L27,42 C25.8954305,42 25,41.1045695 25,40 L25,30 L19,30 L19,40 C19,41.1045695 18.1045695,42 17,42 L10,42 C6.6862915,42 4,39.3137085 4,36 L4,22 L-7.10542736e-15,22 C-1.82806433,22 -2.69800364,19.749809 -1.34534559,18.5201199 L19.3093088,-0.256838703 C20.8349937,-1.64382498 23.1650063,-1.64382498 24.6906912,-0.256838703 L45.3453456,18.5201199 C46.6980036,19.749809 45.8280643,22 44,22 L40,22 Z" id="合并形状"></path>
            </g>
        </g>
    </g>
</svg>