<?xml version="1.0" encoding="UTF-8"?>
<svg width="40px" height="34px" viewBox="0 0 40 34" version="1.1" xmlns="http://www.w3.org/2000/svg" xmlns:xlink="http://www.w3.org/1999/xlink">
    <!-- Generator: Sketch 61.2 (89653) - https://sketch.com -->
    <title>icon</title>
    <desc>Created with Sketch.</desc>
    <g id="图标" stroke="none" stroke-width="1" fill="none" fill-rule="evenodd">
        <g id="上传/添加图片image-add" transform="translate(0.000000, -2.000000)">
            <g id="icon">
                <rect id="矩形" fill="#F4F4F4" opacity="0" x="0" y="0" width="40" height="40"></rect>
                <path d="M27,6.5 L27,7.5 L4,7.5 C2.6745166,7.5 1.58996133,8.53153594 1.50531768,9.83562431 L1.5,10 L1.5,32 C1.5,33.3254834 2.53153594,34.4100387 3.83562431,34.4946823 L4,34.5 L32,34.5 C33.3254834,34.5 34.4100387,33.4684641 34.4946823,32.1643757 L34.5,32 L34.5,15 L35.5,15 L35.5,32 C35.5,33.8685634 34.0357224,35.3951264 32.1920352,35.4948211 L32,35.5 L4,35.5 C2.1314366,35.5 0.604873551,34.0357224 0.505178863,32.1920352 L0.5,32 L0.5,10 C0.5,8.1314366 1.9642776,6.60487355 3.8079648,6.50517886 L4,6.5 L27,6.5 Z M14.4336559,18.4395075 C14.6129833,18.5650368 14.7747861,18.71339 14.9150898,18.8805927 L15.0480798,19.0539315 L20.004,26.134 L22.9656663,21.9878346 C23.7681888,20.8643032 25.329564,20.604074 26.4530955,21.4065964 C26.6214621,21.5268583 26.7740289,21.6673989 26.9074367,21.824859 L27.0343337,21.9878346 L30.4068667,26.7093809 C30.5673712,26.9340872 30.5153254,27.2463622 30.2906191,27.4068667 C30.0908802,27.5495374 29.8219511,27.5242671 29.6519276,27.3590716 L29.5931333,27.2906191 L26.2206002,22.5690728 C26.1243907,22.4343795 26.0065506,22.3165394 25.8718573,22.2203299 C25.2373925,21.7671407 24.370219,21.8787912 23.868953,22.455512 L23.7793998,22.5690728 L20.4068667,27.2906191 C20.3456593,27.3763096 20.2623808,27.4368911 20.1703042,27.4701517 C20.0442595,27.5159063 19.9064388,27.5082552 19.7879107,27.452882 C19.7816626,27.4499561 19.7751907,27.4467485 19.7687676,27.4433885 C19.7489039,27.4330763 19.7300149,27.4215877 19.7118628,27.4087947 C19.7113031,27.4082347 19.7103412,27.4075527 19.7093809,27.4068667 C19.6578036,27.3700258 19.6153229,27.3251888 19.5824212,27.2752501 L14.2288479,19.6273938 C14.1284245,19.4839318 14.0036555,19.3591628 13.8601935,19.2587394 C13.2214416,18.8116131 12.3553707,18.9315169 11.8596198,19.5129853 L11.7711521,19.6273938 L6.40961596,27.2867312 C6.25125871,27.5129558 5.93949348,27.5679732 5.71326883,27.409616 C5.51218025,27.268854 5.44636654,27.0068807 5.54544321,26.7915174 L5.59038404,26.7132688 L10.9519202,19.0539315 C11.7437065,17.9228082 13.3025326,17.6477212 14.4336559,18.4395075 Z M27,11 C28.6568542,11 30,12.3431458 30,14 C30,15.6568542 28.6568542,17 27,17 C25.3431458,17 24,15.6568542 24,14 C24,12.3431458 25.3431458,11 27,11 Z M35,2.5 C35.2761424,2.5 35.5,2.72385763 35.5,3 L35.5,7 L39.5,7 C39.7761424,7 40,7.22385763 40,7.5 C40,7.77614237 39.7761424,8 39.5,8 L35.5,8 L35.5,12 C35.5,12.2761424 35.2761424,12.5 35,12.5 C34.7238576,12.5 34.5,12.2761424 34.5,12 L34.5,8 L30.5,8 C30.2238576,8 30,7.77614237 30,7.5 C30,7.22385763 30.2238576,7 30.5,7 L34.5,7 L34.5,3 C34.5,2.72385763 34.7238576,2.5 35,2.5 Z" id="形状结合" fill="#333333" fill-rule="nonzero"></path>
            </g>
        </g>
    </g>
</svg>