<?xml version="1.0" encoding="UTF-8"?>
<svg width="48px" height="48px" viewBox="0 0 48 48" version="1.1" xmlns="http://www.w3.org/2000/svg" xmlns:xlink="http://www.w3.org/1999/xlink">
    <!-- Generator: Sketch 61.2 (89653) - https://sketch.com -->
    <title>编辑操作/图库</title>
    <desc>Created with Sketch.</desc>
    <g id="编辑操作/图库" stroke="none" stroke-width="1" fill="none" fill-rule="evenodd">
        <g id="message" transform="translate(2.000000, 6.000000)" fill="#000000" fill-rule="nonzero">
            <path d="M39,0 C41.7614237,0 44,2.23857625 44,5 L44,31 C44,33.7614237 41.7614237,36 39,36 L5,36 C2.23857625,36 0,33.7614237 0,31 L0,5 C0,2.23857625 2.23857625,0 5,0 L39,0 Z M39,4 L5,4 C4.44771525,4 4,4.44771525 4,5 L4,31 C4,31.5522847 4.44771525,32 5,32 L39,32 C39.5522847,32 40,31.5522847 40,31 L40,5 C40,4.44771525 39.5522847,4 39,4 Z M17.4482446,15.3873936 C17.671264,15.5171051 17.8755307,15.6771821 18.0540162,15.8642904 L18.1829366,16.0096379 L23.0349438,21.8980097 L26.4836569,17.904205 C27.2710675,16.9921191 28.5938894,16.7593818 29.6536112,17.2543759 L29.8186329,17.3385875 C30.0283384,17.4550116 30.22194,17.5999167 30.3926801,17.7710103 L30.5163431,17.904205 L35.5138923,23.6930455 C36.2357033,24.5291451 36.1430541,25.7920812 35.3069545,26.5138923 C34.5126599,27.1996128 33.3331453,27.1502829 32.5983168,26.4267847 L32.4861077,26.3069545 L28.5,21.689703 L24.5149589,26.3062116 L24.3994517,26.4289848 L24.2799438,26.535 L24.273,26.541 L24.2719081,26.5434538 L24.342259,26.4829576 C24.2807836,26.5387408 24.2165271,26.5900771 24.1499323,26.6369342 C24.129395,26.6509244 24.1092904,26.6645323 24.0890144,26.6777292 C24.0638372,26.694495 24.0379508,26.7104809 24.0117756,26.7258293 C23.9928181,26.7366912 23.9735175,26.747612 23.9540901,26.758182 C23.9286872,26.7721498 23.9031211,26.7853016 23.8773291,26.7978725 C23.8476367,26.81233 23.8177214,26.8260426 23.787575,26.8389694 C23.7700286,26.8463958 23.7522711,26.8536847 23.7344282,26.8607099 C23.6980314,26.8752251 23.6613999,26.8884501 23.624513,26.9005607 C23.6147874,26.9034992 23.6047408,26.9067042 23.594673,26.9098286 C23.5524322,26.9232244 23.5101922,26.9348266 23.4677148,26.945008 C23.4603493,26.946463 23.4526597,26.948259 23.4449612,26.9500092 C23.4038462,26.9596614 23.3627876,26.9676344 23.3215866,26.9743057 L23.2939211,26.9783189 C23.258128,26.9838608 23.2226981,26.9881138 23.1872147,26.9914173 L23.1589743,26.9936973 L23.1589743,26.9936973 L23.1304118,26.9957441 C23.1113695,26.9971169 23.0927088,26.9980552 23.0740453,26.998733 L23.0211506,26.9999263 L22.9677725,26.9997888 C22.9545538,26.9995568 22.9418525,26.9992223 22.9291569,26.9987677 C22.8927958,26.997558 22.855993,26.9952714 22.8192495,26.9919684 L22.7590998,26.9854426 C22.7301547,26.9821621 22.7011777,26.9780301 22.6722757,26.9732582 C22.643467,26.9682283 22.6143765,26.9627527 22.5854076,26.9566339 C22.564343,26.9524913 22.5433965,26.9477189 22.5225108,26.942603 C22.4912114,26.9346201 22.4601508,26.9262135 22.4292832,26.9170546 C22.410892,26.9118907 22.392886,26.9062598 22.3749421,26.9003659 C22.3397769,26.8885692 22.3042567,26.8758153 22.2690714,26.8620405 C22.256597,26.8573385 22.2443469,26.8523873 22.2321343,26.8473084 C22.1930807,26.8309591 22.1544194,26.8134691 22.1162647,26.7947092 C22.1068651,26.7900677 22.0972787,26.7852437 22.0877216,26.7803367 C22.0656112,26.7690727 22.0437519,26.757365 22.0220827,26.7452299 C21.9454544,26.7020788 21.8708742,26.6534579 21.7989245,26.5992972 L21.6930455,26.5138923 L21.5709224,26.3993184 L21.487,26.306 L21.5410338,26.3682342 C21.5093518,26.3345334 21.47904,26.2999554 21.4501041,26.2645759 L16,19.6504182 L10.5434538,26.2719081 C9.84099834,27.1243341 8.58051786,27.2459093 7.72809186,26.5434538 C6.91828715,25.8761211 6.76807536,24.7051708 7.35734645,23.8588954 L7.45654619,23.7280919 L13.8170634,16.0096379 C14.6989594,14.9394617 16.2664338,14.7000337 17.4482446,15.3873936 Z M30.5,7 C32.4329966,7 34,8.56700338 34,10.5 C34,12.4329966 32.4329966,14 30.5,14 C28.5670034,14 27,12.4329966 27,10.5 C27,8.56700338 28.5670034,7 30.5,7 Z" id="形状结合"></path>
        </g>
    </g>
</svg>