<?xml version="1.0" encoding="UTF-8"?>
<svg width="41px" height="34px" viewBox="0 0 41 34" version="1.1" xmlns="http://www.w3.org/2000/svg" xmlns:xlink="http://www.w3.org/1999/xlink">
    <!-- Generator: Sketch 59.1 (86144) - https://sketch.com -->
    <title>icon</title>
    <desc>Created with Sketch.</desc>
    <g id="Data-Entry-数据输入" stroke="none" stroke-width="1" fill="none" fill-rule="evenodd">
        <g id="数据输入-Upload-上传" transform="translate(-233.000000, -5036.000000)">
            <g id="---标注---" transform="translate(35.000000, 4040.000000)">
                <g id="--图片上传--" transform="translate(1.000000, 820.000000)">
                    <g id="pic-upload-1">
                        <g id="icon" transform="translate(197.000000, 174.000000)">
                            <rect id="矩形" fill="#F4F4F4" opacity="0" x="0" y="0" width="40" height="40"></rect>
                            <path d="M27.335443,6.5 C27.6150809,6.5 27.8417722,6.72385763 27.8417722,7 C27.8417722,7.27614237 27.6150809,7.5 27.335443,7.5 L27.335443,7.5 L4.0443038,7.5 C2.64611456,7.5 1.51265823,8.61928813 1.51265823,10 L1.51265823,10 L1.51265823,32 C1.51265823,33.3807119 2.64611456,34.5 4.0443038,34.5 L4.0443038,34.5 L32.3987342,34.5 C33.7969234,34.5 34.9303797,33.3807119 34.9303797,32 L34.9303797,32 L34.9303797,15 C34.9303797,14.7238576 35.157071,14.5 35.4367089,14.5 C35.7163467,14.5 35.943038,14.7238576 35.943038,15 L35.943038,15 L35.943038,32 C35.943038,33.9329966 34.3561991,35.5 32.3987342,35.5 L32.3987342,35.5 L4.0443038,35.5 C2.08683886,35.5 0.5,33.9329966 0.5,32 L0.5,32 L0.5,10 C0.5,8.06700338 2.08683886,6.5 4.0443038,6.5 L4.0443038,6.5 Z M21.2108053,19.0539315 C22.0126141,17.9228082 23.5911723,17.6477212 24.7366135,18.4395075 C24.9787435,18.6068798 25.189324,18.8148282 25.358815,19.0539315 L25.358815,19.0539315 L30.7882187,26.7132688 C30.9485805,26.9394935 30.8928667,27.2512587 30.6637784,27.409616 C30.4346902,27.5679732 30.1189785,27.5129558 29.9586167,27.2867312 L29.9586167,27.2867312 L24.529213,19.6273938 C24.4275185,19.4839318 24.3011701,19.3591628 24.1558922,19.2587394 C23.4686274,18.7836677 22.5214925,18.9487199 22.0404072,19.6273938 L22.0404072,19.6273938 L16.6110035,27.2867312 C16.6032566,27.2976599 16.5951471,27.3081891 16.5867023,27.3183139 C16.5601951,27.3503621 16.5276818,27.3806405 16.4905004,27.4068667 L16.5558199,27.3520924 C16.5426477,27.3652432 16.528852,27.377552 16.5145133,27.3890047 L16.4905004,27.4068667 C16.4895402,27.407544 16.4885785,27.4082174 16.4876152,27.4088871 C16.356619,27.500192 16.1872476,27.5250007 16.0340656,27.473809 C15.9895972,27.4589312 15.9468148,27.4378722 15.9073852,27.4108444 C15.8992965,27.4050915 15.8928926,27.4004417 15.8866313,27.3956724 C15.8484261,27.3666793 15.8137614,27.3315077 15.7841856,27.2906191 L15.8396002,27.3550703 C15.8267537,27.3425188 15.8147009,27.3293944 15.8034547,27.3157682 L15.7841856,27.2906191 L12.3689622,22.5690728 C12.2715349,22.4343795 12.1522031,22.3165394 12.0158049,22.2203299 C11.3331528,21.7388164 10.3844691,21.8949539 9.89686055,22.5690728 L9.89686055,22.5690728 L6.4816372,27.2906191 C6.319101,27.5153254 6.00287311,27.5673712 5.77532243,27.4068667 C5.54777176,27.2463622 5.49506711,26.9340872 5.65760331,26.7093809 L5.65760331,26.7093809 L9.07282666,21.9878346 C9.88550764,20.8643032 11.4666471,20.604074 12.6044005,21.4065964 C12.8317309,21.5669456 13.0306172,21.7633458 13.1929961,21.9878346 L13.1929961,21.9878346 L16.192,26.134 Z M10.1202532,13.5 C11.5184424,13.5 12.6518987,14.6192881 12.6518987,16 C12.6518987,17.3807119 11.5184424,18.5 10.1202532,18.5 C8.72206392,18.5 7.58860759,17.3807119 7.58860759,16 C7.58860759,14.6192881 8.72206392,13.5 10.1202532,13.5 Z M10.1202532,14.5 C9.28133962,14.5 8.60126582,15.1715729 8.60126582,16 C8.60126582,16.8284271 9.28133962,17.5 10.1202532,17.5 C10.9591667,17.5 11.6392405,16.8284271 11.6392405,16 C11.6392405,15.1715729 10.9591667,14.5 10.1202532,14.5 Z M35.443038,2.5 C35.7191803,2.5 35.943038,2.72385763 35.943038,3 L35.943,7 L40,7 C40.2761424,7 40.5,7.22385763 40.5,7.5 C40.5,7.77614237 40.2761424,8 40,8 L35.943,8 L35.943038,12 C35.943038,12.2761424 35.7191803,12.5 35.443038,12.5 L35.4303797,12.5 C35.1542374,12.5 34.9303797,12.2761424 34.9303797,12 L34.93,8 L30.8734177,8 C30.5972753,8 30.3734177,7.77614237 30.3734177,7.5 C30.3734177,7.22385763 30.5972753,7 30.8734177,7 L34.93,7 L34.9303797,3 C34.9303797,2.72385763 35.1542374,2.5 35.4303797,2.5 L35.443038,2.5 Z" id="形状结合" fill="#333333" fill-rule="nonzero"></path>
                        </g>
                    </g>
                </g>
            </g>
        </g>
    </g>
</svg>