<?xml version="1.0" encoding="UTF-8"?>
<svg width="48px" height="48px" viewBox="0 0 48 48" version="1.1" xmlns="http://www.w3.org/2000/svg" xmlns:xlink="http://www.w3.org/1999/xlink">
    <!-- Generator: Sketch 52.4 (67378) - http://www.bohemiancoding.com/sketch -->
    <title>48</title>
    <desc>Created with Sketch.</desc>
    <g id="Page-1" stroke="none" stroke-width="1" fill="none" fill-rule="evenodd">
        <g id="画板" transform="translate(-176.000000, -17.000000)" fill="#000000" fill-rule="nonzero">
            <g id="plus" transform="translate(179.000000, 20.000000)">
                <path d="M19,19 L19,0 C19,-1.1045695 19.8954305,-2 21,-2 C22.1045695,-2 23,-1.1045695 23,0 L23,19 L42,19 C43.1045695,19 44,19.8954305 44,21 C44,22.1045695 43.1045695,23 42,23 L23,23 L23,42 C23,43.1045695 22.1045695,44 21,44 C19.8954305,44 19,43.1045695 19,42 L19,23 L0,23 C-1.1045695,23 -2,22.1045695 -2,21 C-2,19.8954305 -1.1045695,19 0,19 L19,19 Z" id="合并形状"></path>
            </g>
        </g>
    </g>
</svg>