<?xml version="1.0" encoding="UTF-8"?>
<svg width="48px" height="48px" viewBox="0 0 48 48" version="1.1" xmlns="http://www.w3.org/2000/svg" xmlns:xlink="http://www.w3.org/1999/xlink">
    <!-- Generator: Sketch 52.4 (67378) - http://www.bohemiancoding.com/sketch -->
    <title>48</title>
    <desc>Created with Sketch.</desc>
    <g id="Page-1" stroke="none" stroke-width="1" fill="none" fill-rule="evenodd">
        <g id="画板" transform="translate(-352.000000, -236.000000)" fill="#000000" fill-rule="nonzero">
            <g id="question-circle" transform="translate(354.000000, 238.000000)">
                <path d="M22,46 C8.745166,46 -2,35.254834 -2,22 C-2,8.745166 8.745166,-2 22,-2 C35.254834,-2 46,8.745166 46,22 C46,35.254834 35.254834,46 22,46 Z M22,42 C33.045695,42 42,33.045695 42,22 C42,10.954305 33.045695,2 22,2 C10.954305,2 2,10.954305 2,22 C2,33.045695 10.954305,42 22,42 Z M24,24.3081862 L24,28.3222526 C24,29.4268221 23.1045695,30.3222526 22,30.3222526 C20.8954305,30.3222526 20,29.4268221 20,28.3222526 L20,22.5255768 C20,21.4210073 20.8954305,20.5255768 22,20.5255768 C24.7765578,20.5255768 27,18.3774813 27,15.7627884 C27,13.1480956 24.7765578,11 22,11 C19.2234422,11 17,13.1480956 17,15.7627884 C17,16.8673579 16.1045695,17.7627884 15,17.7627884 C13.8954305,17.7627884 13,16.8673579 13,15.7627884 C13,10.9075115 17.0445714,7 22,7 C26.9554286,7 31,10.9075115 31,15.7627884 C31,19.9449953 27.9990723,23.4239942 24,24.3081862 Z M20,34 C20,32.8954305 20.8954305,32 22,32 C23.1045695,32 24,32.8954305 24,34 L24,35 C24,36.1045695 23.1045695,37 22,37 C20.8954305,37 20,36.1045695 20,35 L20,34 Z" id="合并形状"></path>
            </g>
        </g>
    </g>
</svg>