<?xml version="1.0" encoding="UTF-8"?>
<svg width="48px" height="48px" viewBox="0 0 48 48" version="1.1" xmlns="http://www.w3.org/2000/svg" xmlns:xlink="http://www.w3.org/1999/xlink">
    <!-- Generator: Sketch 59.1 (86144) - https://sketch.com -->
    <title>编辑操作/重新上传reupload</title>
    <desc>Created with Sketch.</desc>
    <g id="编辑操作/重新上传reupload" stroke="none" stroke-width="1" fill="none" fill-rule="evenodd">
        <g id="刷新" transform="translate(3.000000, 3.000000)" fill="#000000" fill-rule="nonzero">
            <path d="M21,0 C26.3887175,0 31.4567497,2.04191597 35.3049572,5.62543453 L35.3047601,2.20007735 C35.3047601,1.09550786 36.2001906,0.200077355 37.3047601,0.200077355 C38.4093296,0.200077355 39.3047601,1.09550786 39.3047601,2.20007735 L39.3047601,2.20007735 L39.3047601,11.5047601 C39.3047601,12.6093296 38.4093296,13.5047601 37.3047601,13.5047601 L37.3047601,13.5047601 L27.9999226,13.5047601 C26.8953531,13.5047601 25.9999226,12.6093296 25.9999226,11.5047601 C25.9999226,10.4001906 26.8953531,9.5047601 27.9999226,9.5047601 L27.9999226,9.5047601 L33.633296,9.50577285 C33.4821189,9.41658434 33.340268,9.30586171 33.2122312,9.17367651 C30.0288161,5.88711738 25.6670659,4 21,4 C11.6111593,4 4,11.6111593 4,21 C4,30.3888407 11.6111593,38 21,38 C29.576576,38 36.7819749,31.6120134 37.8613223,23.1833109 C38.0016236,22.0876881 39.003538,21.313247 40.0991608,21.4535482 C41.1947836,21.5938495 41.9692247,22.5957639 41.8289235,23.6913867 C40.4947081,34.1103715 31.5955159,42 21,42 C9.40202025,42 2.13162821e-14,32.5979797 2.13162821e-14,21 C2.13162821e-14,9.40202025 9.40202025,0 21,0 Z" id="形状结合"></path>
        </g>
    </g>
</svg>