<?xml version="1.0" encoding="UTF-8"?>
<svg width="48px" height="48px" viewBox="0 0 48 48" version="1.1" xmlns="http://www.w3.org/2000/svg" xmlns:xlink="http://www.w3.org/1999/xlink">
    <!-- Generator: Sketch 52.4 (67378) - http://www.bohemiancoding.com/sketch -->
    <title>48</title>
    <desc>Created with Sketch.</desc>
    <g id="Page-1" stroke="none" stroke-width="1" fill="none" fill-rule="evenodd">
        <g id="画板" transform="translate(-176.000000, -237.000000)" fill="#000000" fill-rule="nonzero">
            <g id="search" transform="translate(178.000000, 239.000000)">
                <path d="M37.7615218,34.9330946 L45.4142136,42.5857864 C46.1952621,43.366835 46.1952621,44.633165 45.4142136,45.4142136 C44.633165,46.1952621 43.366835,46.1952621 42.5857864,45.4142136 L34.9330946,37.7615218 C31.02644,41.0315323 25.9931002,43 20.5,43 C8.07359313,43 -2,32.9264069 -2,20.5 C-2,8.07359313 8.07359313,-2 20.5,-2 C32.9264069,-2 43,8.07359313 43,20.5 C43,25.9931002 41.0315323,31.02644 37.7615218,34.9330946 Z M20.5,39 C30.7172679,39 39,30.7172679 39,20.5 C39,10.2827321 30.7172679,2 20.5,2 C10.2827321,2 2,10.2827321 2,20.5 C2,30.7172679 10.2827321,39 20.5,39 Z" id="合并形状"></path>
            </g>
        </g>
    </g>
</svg>