<?xml version="1.0" encoding="UTF-8"?>
<svg width="48px" height="48px" viewBox="0 0 48 48" version="1.1" xmlns="http://www.w3.org/2000/svg" xmlns:xlink="http://www.w3.org/1999/xlink">
    <!-- Generator: Sketch 59.1 (86144) - https://sketch.com -->
    <title>编辑操作/排序sort</title>
    <desc>Created with Sketch.</desc>
    <g id="编辑操作/排序sort" stroke="none" stroke-width="1" fill="none" fill-rule="evenodd">
        <path d="M16.9999993,2 C18.1045695,2 18.9999993,2.8954305 18.9999993,4 L18.9999993,4 L18.9999993,44 C18.9999993,45.7716058 16.8667797,46.6684901 15.6008567,45.4291249 L15.6008567,45.4291249 L2.60085671,32.7018522 C1.81157281,31.9291267 1.79814957,30.6628679 2.57087507,29.873584 C3.34360057,29.0843001 4.60985938,29.0708768 5.39914329,29.8436023 L5.39914329,29.8436023 L14.9999993,39.2430425 L14.9999993,4 C14.9999993,2.8954305 15.8954305,2 16.9999993,2 Z M29,4 C29,2.22839422 31.1332203,1.33150991 32.3991433,2.57087507 L32.3991433,2.57087507 L45.3991433,15.2981478 C46.1884272,16.0708733 46.2018504,17.3371321 45.4291249,18.126416 C44.6563994,18.9156999 43.3901406,18.9291232 42.6008567,18.1563977 L42.6008567,18.1563977 L33,8.75695752 L33,44 C33,45.1045695 32.1045695,46 31,46 C29.8954305,46 29,45.1045695 29,44 L29,44 Z" id="sort" fill="#000000" fill-rule="nonzero"></path>
    </g>
</svg>