<?xml version="1.0" encoding="UTF-8"?>
<svg width="48px" height="48px" viewBox="0 0 48 48" version="1.1" xmlns="http://www.w3.org/2000/svg" xmlns:xlink="http://www.w3.org/1999/xlink">
    <!-- Generator: Sketch 52.4 (67378) - http://www.bohemiancoding.com/sketch -->
    <title>48</title>
    <desc>Created with Sketch.</desc>
    <g id="Page-1" stroke="none" stroke-width="1" fill="none" fill-rule="evenodd">
        <g id="画板" transform="translate(-88.000000, -236.000000)" fill="#000000" fill-rule="nonzero">
            <g id="sync-alt" transform="translate(90.000000, 239.000000)">
                <path d="M2.5,33.2020741 L2.5,38 C2.5,39.1045695 1.6045695,40 0.5,40 C-0.6045695,40 -1.5,39.1045695 -1.5,38 L-1.5,21 C-1.5,19.8954305 -0.6045695,19 0.5,19 C0.584665087,19 0.66810144,19.0052608 0.75,19.0154734 C0.83189856,19.0052608 0.915334913,19 1,19 C2.1045695,19 3,19.8954305 3,21 C3,31.4934103 11.5065897,40 22,40 C29.557426,40 36.3018838,35.5478206 39.3434576,28.7718817 C39.795794,27.7641785 40.9793899,27.3139648 41.987093,27.7663012 C42.9947961,28.2186375 43.4450099,29.4022334 42.9926735,30.4099365 C39.3116557,38.6104119 31.1471489,44 22,44 C13.7798983,44 6.56697288,39.6877659 2.5,33.2020741 Z M41.5,8.79792593 L41.5,4 C41.5,2.8954305 42.3954305,2 43.5,2 C44.6045695,2 45.5,2.8954305 45.5,4 L45.5,21 C45.5,22.1045695 44.6045695,23 43.5,23 C43.4153349,23 43.3318986,22.9947392 43.25,22.9845266 C43.1681014,22.9947392 43.0846651,23 43,23 C41.8954305,23 41,22.1045695 41,21 C41,10.5065897 32.4934103,2 22,2 C14.442574,2 7.69811619,6.45217941 4.65654231,13.2281183 C4.20420596,14.2358215 3.0206101,14.6860352 2.01290696,14.2336988 C1.00520383,13.7813625 0.554990108,12.5977666 1.00732646,11.5900635 C4.68834425,3.38958812 12.8528511,-2 22,-2 C30.2201017,-2 37.4330271,2.31223408 41.5,8.79792593 Z" id="合并形状"></path>
            </g>
        </g>
    </g>
</svg>