<?xml version="1.0" encoding="UTF-8"?>
<svg width="48px" height="48px" viewBox="0 0 48 48" version="1.1" xmlns="http://www.w3.org/2000/svg" xmlns:xlink="http://www.w3.org/1999/xlink">
    <!-- Generator: Sketch 52.4 (67378) - http://www.bohemiancoding.com/sketch -->
    <title>48</title>
    <desc>Created with Sketch.</desc>
    <g id="Page-1" stroke="none" stroke-width="1" fill="none" fill-rule="evenodd">
        <g id="画板" transform="translate(-176.000000, -128.000000)" fill="#000000" fill-rule="nonzero">
            <g id="error-circle" transform="translate(178.000000, 130.000000)">
                <path d="M22.5,19.6715729 L30.5857864,11.5857864 C31.366835,10.8047379 32.633165,10.8047379 33.4142136,11.5857864 C34.1952621,12.366835 34.1952621,13.633165 33.4142136,14.4142136 L25.3284271,22.5 L33.4142136,30.5857864 C34.1952621,31.366835 34.1952621,32.633165 33.4142136,33.4142136 C32.633165,34.1952621 31.366835,34.1952621 30.5857864,33.4142136 L22.5,25.3284271 L14.4142136,33.4142136 C13.633165,34.1952621 12.366835,34.1952621 11.5857864,33.4142136 C10.8047379,32.633165 10.8047379,31.366835 11.5857864,30.5857864 L19.6715729,22.5 L11.5857864,14.4142136 C10.8047379,13.633165 10.8047379,12.366835 11.5857864,11.5857864 C12.366835,10.8047379 13.633165,10.8047379 14.4142136,11.5857864 L22.5,19.6715729 Z M22,46 C8.745166,46 -2,35.254834 -2,22 C-2,8.745166 8.745166,-2 22,-2 C35.254834,-2 46,8.745166 46,22 C46,35.254834 35.254834,46 22,46 Z M22,42 C33.045695,42 42,33.045695 42,22 C42,10.954305 33.045695,2 22,2 C10.954305,2 2,10.954305 2,22 C2,33.045695 10.954305,42 22,42 Z" id="合并形状"></path>
            </g>
        </g>
    </g>
</svg>