<?xml version="1.0" encoding="UTF-8"?>
<svg width="48px" height="48px" viewBox="0 0 48 48" version="1.1" xmlns="http://www.w3.org/2000/svg" xmlns:xlink="http://www.w3.org/1999/xlink">
    <!-- Generator: Sketch 52.4 (67378) - http://www.bohemiancoding.com/sketch -->
    <title>48</title>
    <desc>Created with Sketch.</desc>
    <g id="Page-1" stroke="none" stroke-width="1" fill="none" fill-rule="evenodd">
        <g id="画板" transform="translate(-352.000000, -15.000000)" fill="#000000" fill-rule="nonzero">
            <g id="close" transform="translate(356.000000, 19.000000)">
                <path d="M19.8972168,17.0687897 L38.38022,-1.41421356 C39.1612686,-2.19526215 40.4275986,-2.19526215 41.2086472,-1.41421356 C41.9896957,-0.633164979 41.9896957,0.633164979 41.2086472,1.41421356 L22.7256439,19.8972168 L41.2086472,38.38022 C41.9896957,39.1612686 41.9896957,40.4275986 41.2086472,41.2086472 C40.4275986,41.9896957 39.1612686,41.9896957 38.38022,41.2086472 L19.8972168,22.7256439 L1.41421356,41.2086472 C0.633164979,41.9896957 -0.633164979,41.9896957 -1.41421356,41.2086472 C-2.19526215,40.4275986 -2.19526215,39.1612686 -1.41421356,38.38022 L17.0687897,19.8972168 L-1.41421356,1.41421356 C-2.19526215,0.633164979 -2.19526215,-0.633164979 -1.41421356,-1.41421356 C-0.633164979,-2.19526215 0.633164979,-2.19526215 1.41421356,-1.41421356 L19.8972168,17.0687897 Z" id="合并形状"></path>
            </g>
        </g>
    </g>
</svg>