<?xml version="1.0" encoding="UTF-8"?>
<svg width="48px" height="48px" viewBox="0 0 48 48" version="1.1" xmlns="http://www.w3.org/2000/svg" xmlns:xlink="http://www.w3.org/1999/xlink">
    <!-- Generator: Sketch 59.1 (86144) - https://sketch.com -->
    <title>编辑操作/删除delete</title>
    <desc>Created with Sketch.</desc>
    <g id="编辑操作/删除delete" stroke="none" stroke-width="1" fill="none" fill-rule="evenodd">
        <path d="M42,15 C43.1045695,15 44,15.8954305 44,17 L44,17 L44,39.5 C44,43.0898509 41.0898509,46 37.5,46 L37.5,46 L10.5,46 C6.91014913,46 4,43.0898509 4,39.5 L4,39.5 L4,17 C4,15.8954305 4.8954305,15 6,15 C7.1045695,15 8,15.8954305 8,17 L8,17 L8,39.5 C8,40.8807119 9.11928813,42 10.5,42 L10.5,42 L37.5,42 C38.8807119,42 40,40.8807119 40,39.5 L40,39.5 L40,17 C40,15.8954305 40.8954305,15 42,15 Z M18,17.5226837 C19.1045695,17.5226837 20,18.4181142 20,19.5226837 L20,19.5226837 L20,36 C20,37.1045695 19.1045695,38 18,38 C16.8954305,38 16,37.1045695 16,36 L16,36 L16,19.5226837 C16,18.4181142 16.8954305,17.5226837 18,17.5226837 Z M30,17.5226837 C31.1045695,17.5226837 32,18.4181142 32,19.5226837 L32,19.5226837 L32,36 C32,37.1045695 31.1045695,38 30,38 C28.8954305,38 28,37.1045695 28,36 L28,36 L28,19.5226837 C28,18.4181142 28.8954305,17.5226837 30,17.5226837 Z M28.9803346,2 C30.9671226,2 32.7289305,3.31805667 33.123799,5.22998929 L33.123799,5.22998929 L33.1443905,5.34719654 L33.3843146,7 L44,7 C45.1045695,7 46,7.8954305 46,9 C46,10.1045695 45.1045695,11 44,11 L44,11 L31.6536763,11 C30.6600902,11 29.8171559,10.2705928 29.674421,9.28731249 L29.674421,9.28731249 L29.2033659,6.04228009 C29.1875305,6.04161491 29.1133604,6 28.9803346,6 L28.9803346,6 L17.9080084,6 C17.7749826,6 17.7008125,6.04161491 17.6849771,6.04228009 L17.6849771,6.04228009 L17.213922,9.28731249 C17.0711871,10.2705928 16.2282528,11 15.2346667,11 L15.2346667,11 L4,11 C2.8954305,11 2,10.1045695 2,9 C2,7.8954305 2.8954305,7 4,7 L4,7 L13.5040284,7 L13.7439525,5.34719654 L13.764544,5.22998929 C14.1594125,3.31805667 15.9212204,2 17.9080084,2 L17.9080084,2 Z" id="delete" fill="#000000" fill-rule="nonzero"></path>
    </g>
</svg>