<?xml version="1.0" encoding="UTF-8"?>
<svg width="48px" height="48px" viewBox="0 0 48 48" version="1.1" xmlns="http://www.w3.org/2000/svg" xmlns:xlink="http://www.w3.org/1999/xlink">
    <!-- Generator: Sketch 59.1 (86144) - https://sketch.com -->
    <title>基础图形/上传upload</title>
    <desc>Created with Sketch.</desc>
    <g id="基础图形/上传upload" stroke="none" stroke-width="1" fill="none" fill-rule="evenodd">
        <path d="M42,27 C43.1045695,27 44,27.8954305 44,29 L44,43 C44,44.1045695 43.1045695,45 42,45 C41.9154035,45 41.8320337,44.9947477 41.7501989,44.9845514 L41.6492623,44.9945143 L41.6492623,44.9945143 L41.5,45 L6.5,45 C6.41540346,45 6.33203366,44.9947477 6.25019891,44.9845514 C6.16864412,44.9947049 6.08494043,45 6,45 C4.8954305,45 4,44.1045695 4,43 L4,29 C4,27.8954305 4.8954305,27 6,27 C7.1045695,27 8,27.8954305 8,29 L8,41 L40,41 L40,29 C40,27.8954305 40.8954305,27 42,27 Z M25.4142136,4.58578644 L39.4142136,18.5857864 C40.1952621,19.366835 40.1952621,20.633165 39.4142136,21.4142136 C38.633165,22.1952621 37.366835,22.1952621 36.5857864,21.4142136 L25.9919575,10.8194154 C25.9972809,10.8788986 26,10.9391318 26,11 L26,33 C26,34.1045695 25.1045695,35 24,35 C22.8954305,35 22,34.1045695 22,33 L22,11 C22,10.9394756 22.0026885,10.8795792 22.0079525,10.8204236 L11.4142136,21.4142136 C10.633165,22.1952621 9.36683502,22.1952621 8.58578644,21.4142136 C7.80473785,20.633165 7.80473785,19.366835 8.58578644,18.5857864 L22.5857864,4.58578644 C23.366835,3.80473785 24.633165,3.80473785 25.4142136,4.58578644 Z M24,8.82842712 L23.8204236,9.00795252 C23.8795792,9.00268848 23.9394756,9 24,9 C24.0608682,9 24.1211014,9.00271911 24.1805846,9.0080425 L24,8.82842712 Z" id="形状结合" fill="#000000" fill-rule="nonzero"></path>
    </g>
</svg>