<?xml version="1.0" encoding="UTF-8"?>
<svg width="16px" height="16px" viewBox="0 0 16 16" version="1.1" xmlns="http://www.w3.org/2000/svg" xmlns:xlink="http://www.w3.org/1999/xlink">
    <!-- Generator: Sketch 43.1 (39012) - http://www.bohemiancoding.com/sketch -->
    <title>arrows-left</title>
    <desc>Created with Sketch.</desc>
    <defs></defs>
    <g id="V3" stroke="none" stroke-width="1" fill="none" fill-rule="evenodd">
        <g id="Dux-Icon-V2-@16-预览版" transform="translate(-160.000000, -1488.000000)" fill-rule="nonzero" fill="#000000">
            <g id="arrows-left" transform="translate(160.000000, 1488.000000)">
                <path d="M7.71005718,6.70773943 L6.41548113,8 L7.71005718,9.29226057 C8.10093087,9.68243515 8.10149762,10.3155999 7.71132304,10.7064736 C7.32114847,11.0973473 6.68798374,11.097914 6.29711005,10.7077394 L4.29352643,8.70773943 C3.90215786,8.31707086 3.90215786,7.68292915 4.29352643,7.29226057 L6.29711005,5.29226057 C6.68798374,4.902086 7.32114847,4.90265274 7.71132304,5.29352644 C8.10149762,5.68440013 8.10093087,6.31756486 7.71005718,6.70773943 Z M11.7100572,6.70773943 L10.4154811,8 L11.7100572,9.29226057 C12.1009309,9.68243515 12.1014976,10.3155999 11.711323,10.7064736 C11.3211485,11.0973473 10.6879837,11.097914 10.29711,10.7077394 L8.29352643,8.70773943 C7.90215786,8.31707086 7.90215786,7.68292915 8.29352643,7.29226057 L10.29711,5.29226057 C10.6879837,4.902086 11.3211485,4.90265274 11.711323,5.29352644 C12.1014976,5.68440013 12.1009309,6.31756486 11.7100572,6.70773943 Z" id="Combined-Shape"></path>
            </g>
        </g>
    </g>
</svg>