<?xml version="1.0" encoding="UTF-8"?>
<svg width="16px" height="16px" viewBox="0 0 16 16" version="1.1" xmlns="http://www.w3.org/2000/svg" xmlns:xlink="http://www.w3.org/1999/xlink">
    <!-- Generator: Sketch 43.1 (39012) - http://www.bohemiancoding.com/sketch -->
    <title>arrow-l-down</title>
    <desc>Created with Sketch.</desc>
    <defs></defs>
    <g id="V3" stroke="none" stroke-width="1" fill="none" fill-rule="evenodd">
        <g id="Dux-Icon-V2-@16-预览版" transform="translate(-224.000000, -1456.000000)" fill-rule="nonzero" fill="#000000">
            <g id="arrow-l-down" transform="translate(232.000000, 1464.000000) scale(-1, 1) rotate(90.000000) translate(-232.000000, -1464.000000) translate(224.000000, 1456.000000)">
                <path d="M3.29289322,11.2928932 L6.58578644,8 L3.29289322,4.70710678 C2.90236893,4.31658249 2.90236893,3.68341751 3.29289322,3.29289322 C3.68341751,2.90236893 4.31658249,2.90236893 4.70710678,3.29289322 L8.70710678,7.29289322 C9.09763107,7.68341751 9.09763107,8.31658249 8.70710678,8.70710678 L4.70710678,12.7071068 C4.31658249,13.0976311 3.68341751,13.0976311 3.29289322,12.7071068 C2.90236893,12.3165825 2.90236893,11.6834175 3.29289322,11.2928932 Z M10,3.99381275 C10,3.44494512 10.4477153,3 11,3 C11.5522847,3 12,3.44494512 12,3.99381275 L12,12.0061873 C12,12.5550549 11.5522847,13 11,13 C10.4477153,13 10,12.5550549 10,12.0061873 L10,3.99381275 Z" id="Combined-Shape"></path>
            </g>
        </g>
    </g>
</svg>