<?xml version="1.0" encoding="UTF-8"?>
<svg width="16px" height="16px" viewBox="0 0 16 16" version="1.1" xmlns="http://www.w3.org/2000/svg" xmlns:xlink="http://www.w3.org/1999/xlink">
    <!-- Generator: Sketch 43.1 (39012) - http://www.bohemiancoding.com/sketch -->
    <title>arrow-down</title>
    <desc>Created with Sketch.</desc>
    <defs></defs>
    <g id="V3" stroke="none" stroke-width="1" fill="none" fill-rule="evenodd">
        <g id="Dux-Icon-V2-@16-预览版" transform="translate(-160.000000, -1248.000000)" fill="#000000">
            <g id="arrow-down" transform="translate(168.000000, 1256.000000) scale(1, -1) translate(-168.000000, -1256.000000) translate(160.000000, 1248.000000)">
                <path d="M7.26246214,1.32541536 C7.44466574,1.12536136 7.70672175,1 8,1 C8.27297778,1 8.52040893,1.10992375 8.70085808,1.28835337 C8.85476352,1.33381786 8.99925928,1.41673365 9.11922033,1.5366947 L13.366061,5.78353541 C13.7554255,6.1728999 13.757208,6.802402 13.363961,7.19564896 C12.9734367,7.58617325 12.3365092,7.5824107 11.9518475,7.19774897 L9,4.24590149 L9,13.9931545 C9,14.5492199 8.55613518,15 8,15 C7.44771525,15 7,14.5500512 7,13.9931545 L7,4.3169693 L4.11922033,7.19774897 C3.72985585,7.58711346 3.10035374,7.58889592 2.70710678,7.19564896 C2.31658249,6.80512467 2.32034505,6.16819713 2.70500677,5.78353541 L6.95184748,1.5366947 C7.04403244,1.44450974 7.1496781,1.37405035 7.26246214,1.32541535 Z" id="Combined-Shape"></path>
            </g>
        </g>
    </g>
</svg>