<?xml version="1.0" encoding="UTF-8"?>
<svg width="16px" height="16px" viewBox="0 0 16 16" version="1.1" xmlns="http://www.w3.org/2000/svg" xmlns:xlink="http://www.w3.org/1999/xlink">
    <!-- Generator: Sketch 43.1 (39012) - http://www.bohemiancoding.com/sketch -->
    <title>calendar</title>
    <desc>Created with Sketch.</desc>
    <defs></defs>
    <g id="V3" stroke="none" stroke-width="1" fill="none" fill-rule="evenodd">
        <g id="Dux-Icon-V2-@16-预览版" transform="translate(-384.000000, -1472.000000)" fill="#000000">
            <g id="calendar" transform="translate(384.000000, 1472.000000)">
                <path d="M12,2 L12.9975267,2 C14.6522171,2 16,3.34756565 16,4.99539757 L16,13.0046024 C16,14.6618879 14.6459333,16 12.9975267,16 L3.00247329,16 C1.34778288,16 0,14.6524344 0,13.0046024 L0,4.99539757 C0,3.3381121 1.35406674,2 3.00247329,2 L4,2 L4,0.999807492 C4,0.447629061 4.44386482,0 5,0 C5.55228475,0 6,0.443716645 6,0.999807492 L6,2 L10,2 L10,0.999807492 C10,0.447629061 10.4438648,0 11,0 C11.5522847,0 12,0.443716645 12,0.999807492 L12,2 Z M12,4.00019251 C12,4.55237094 11.5561352,5 11,5 C10.4477153,5 10,4.55628335 10,4.00019251 L6,4 C6,4.55237094 5.55613518,5 5,5 C4.44771525,5 4,4.55628335 4,4.00019251 L3.00247329,4 C2.45576096,4 2,4.44565467 2,4.99539757 L2,13.0046024 C2,13.5443356 2.44882258,14 3.00247329,14 L12.9975267,14 C13.544239,14 14,13.5543453 14,13.0046024 L14,4.99539757 C14,4.4556644 13.5511774,4 12.9975267,4 L12,4 Z M10,2 L10,4 L9,4 L9,2 L10,2 Z M12,2 L12,4 L13,4 L13,2 L12,2 Z M4,2 L3,2 L3,4 L4,4 L4,2 Z M6,2 L7,2 L7,4 L6,4 L6,2 Z M5,9 C4.44771525,9 4,8.55228475 4,8 C4,7.44771525 4.44771525,7 5,7 C5.55228475,7 6,7.44771525 6,8 C6,8.55228475 5.55228475,9 5,9 Z M5,12 C4.44771525,12 4,11.5522847 4,11 C4,10.4477153 4.44771525,10 5,10 C5.55228475,10 6,10.4477153 6,11 C6,11.5522847 5.55228475,12 5,12 Z M8,9 C7.44771525,9 7,8.55228475 7,8 C7,7.44771525 7.44771525,7 8,7 C8.55228475,7 9,7.44771525 9,8 C9,8.55228475 8.55228475,9 8,9 Z M8,12 C7.44771525,12 7,11.5522847 7,11 C7,10.4477153 7.44771525,10 8,10 C8.55228475,10 9,10.4477153 9,11 C9,11.5522847 8.55228475,12 8,12 Z M11,9 C10.4477153,9 10,8.55228475 10,8 C10,7.44771525 10.4477153,7 11,7 C11.5522847,7 12,7.44771525 12,8 C12,8.55228475 11.5522847,9 11,9 Z M11,12 C10.4477153,12 10,11.5522847 10,11 C10,10.4477153 10.4477153,10 11,10 C11.5522847,10 12,10.4477153 12,11 C12,11.5522847 11.5522847,12 11,12 Z"></path>
            </g>
        </g>
    </g>
</svg>