<?xml version="1.0" encoding="UTF-8"?>
<svg width="16px" height="16px" viewBox="0 0 16 16" version="1.1" xmlns="http://www.w3.org/2000/svg" xmlns:xlink="http://www.w3.org/1999/xlink">
    <!-- Generator: Sketch 43.1 (39012) - http://www.bohemiancoding.com/sketch -->
    <title>circle_ok</title>
    <desc>Created with Sketch.</desc>
    <defs></defs>
    <g id="V3" stroke="none" stroke-width="1" fill="none" fill-rule="evenodd">
        <g id="Dux-Icon-V2-@16-预览版" transform="translate(-416.000000, -1344.000000)" fill-rule="nonzero" fill="#000000">
            <g id="circle_ok" transform="translate(416.000000, 1344.000000)">
                <path d="M8,14 C11.3137085,14 14,11.3137085 14,8 C14,4.6862915 11.3137085,2 8,2 C4.6862915,2 2,4.6862915 2,8 C2,11.3137085 4.6862915,14 8,14 Z M8,16 C3.581722,16 0,12.418278 0,8 C0,3.581722 3.581722,0 8,0 C12.418278,0 16,3.581722 16,8 C16,12.418278 12.418278,16 8,16 Z M5.70899894,7.73096848 C5.31952244,7.3393992 4.68635974,7.33770265 4.29479045,7.72717914 C3.90322116,8.11665563 3.90152462,8.74981834 4.29100111,9.14138763 L6.11804969,10.9782536 C6.51153374,11.373852 7.15264536,11.3709122 7.54248496,10.9717219 L11.7154364,6.69867835 C12.1013055,6.30355376 12.0938025,5.67043324 11.6986779,5.28456409 C11.3035533,4.89869493 10.6704328,4.90619794 10.2845637,5.30132253 L6.82051625,8.84845838 L5.70899894,7.73096848 Z" id="Oval"></path>
            </g>
        </g>
    </g>
</svg>