<?xml version="1.0" encoding="UTF-8"?>
<svg width="16px" height="16px" viewBox="0 0 16 16" version="1.1" xmlns="http://www.w3.org/2000/svg" xmlns:xlink="http://www.w3.org/1999/xlink">
    <!-- Generator: Sketch 43.1 (39012) - http://www.bohemiancoding.com/sketch -->
    <title>circle_del</title>
    <desc>Created with Sketch.</desc>
    <defs></defs>
    <g id="V3" stroke="none" stroke-width="1" fill="none" fill-rule="evenodd">
        <g id="Dux-Icon-V2-@16-预览版" transform="translate(-384.000000, -1344.000000)" fill="#000000">
            <g id="circle_del" transform="translate(384.000000, 1344.000000)">
                <path d="M9.53235494,7.8815282 L10.9496839,9.29885719 C11.3343457,9.68351892 11.3385628,10.3199918 10.9485993,10.7099553 C10.5559171,11.1026376 9.9268657,11.1004044 9.53750121,10.7110399 L8.12017222,9.29371092 L6.70284323,10.7110399 C6.31347874,11.1004044 5.68442734,11.1026376 5.2917451,10.7099553 C4.90178161,10.3199918 4.90599878,9.68351892 5.29066051,9.29885719 L6.7079895,7.8815282 L5.29066051,6.46419921 C4.90599878,6.07953748 4.90178161,5.44306457 5.2917451,5.05310108 C5.68442734,4.66041883 6.31347874,4.662652 6.70284323,5.05201649 L8.12017222,6.46934548 L9.53750121,5.05201649 C9.9268657,4.662652 10.5559171,4.66041883 10.9485993,5.05310108 C11.3385628,5.44306457 11.3343457,6.07953748 10.9496839,6.46419921 L9.53235494,7.8815282 Z M8,16 C3.581722,16 0,12.418278 0,8 C0,3.581722 3.581722,-5.32907052e-14 8,-5.32907052e-14 C12.418278,-5.32907052e-14 16,3.581722 16,8 C16,12.418278 12.418278,16 8,16 Z M8,14 C11.3137085,14 14,11.3137085 14,8 C14,4.6862915 11.3137085,2 8,2 C4.6862915,2 2,4.6862915 2,8 C2,11.3137085 4.6862915,14 8,14 Z" id="Combined-Shape"></path>
            </g>
        </g>
    </g>
</svg>