<?xml version="1.0" encoding="UTF-8"?>
<svg width="16px" height="16px" viewBox="0 0 16 16" version="1.1" xmlns="http://www.w3.org/2000/svg" xmlns:xlink="http://www.w3.org/1999/xlink">
    <!-- Generator: Sketch 43.1 (39012) - http://www.bohemiancoding.com/sketch -->
    <title>download</title>
    <desc>Created with Sketch.</desc>
    <defs></defs>
    <g id="V3" stroke="none" stroke-width="1" fill="none" fill-rule="evenodd">
        <g id="Dux-Icon-V2-@16-预览版" transform="translate(-160.000000, -1312.000000)" fill="#000000">
            <g id="download" transform="translate(160.000000, 1312.000000)">
                <path d="M7,7.55075149 L7,0.995577499 C7,0.444836974 7.44771525,1.42108547e-14 8,1.42108547e-14 C8.55613518,1.42108547e-14 9,0.445735229 9,0.995577499 L9,7.64261932 L10.3420579,6.30056141 C10.7237561,5.91886319 11.3592262,5.91655808 11.7497505,6.30708237 C12.1429975,6.70032932 12.1431943,7.3278521 11.7562715,7.71477497 L8.91480243,10.556244 C8.84804501,10.6230014 8.77352506,10.6781538 8.69391065,10.7216292 C8.5140838,10.8940836 8.26949098,11 8,11 C7.63760633,11 7.3228849,10.8107319 7.14758612,10.5267224 C7.14573902,10.5249035 7.14389728,10.5230759 7.14206097,10.5212396 L4.30059192,7.67977054 C3.91889371,7.29807233 3.91658859,6.66260223 4.30711288,6.27207794 C4.70035984,5.87883098 5.32788262,5.87863411 5.71480549,6.26555698 L7,7.55075149 Z M0,10 C0,9.44771525 0.44771525,9 1,9 C1.55228475,9 2,9.44771525 2,10 L2,12.9822123 C2,13.52981 2.44995603,13.9784546 2.99815173,13.9784546 L13.0522023,13.9784546 C13.6052473,13.9784546 14.050354,13.5343425 14.050354,12.9822123 L14.050354,10 C14.050354,9.44771525 14.4980693,9 15.050354,9 C15.6026388,9 16.0161438,9.44771525 16.0161438,10 L16.0161438,12.9822123 C16.0161438,14.6399149 14.7088164,15.9784546 13.0522023,15.9784546 L2.99815173,15.9784546 C1.34669125,15.9784546 0,14.6356885 0,12.9822123 L0,10 Z" id="Combined-Shape"></path>
            </g>
        </g>
    </g>
</svg>