<?xml version="1.0" encoding="UTF-8"?>
<svg width="16px" height="16px" viewBox="0 0 16 16" version="1.1" xmlns="http://www.w3.org/2000/svg" xmlns:xlink="http://www.w3.org/1999/xlink">
    <!-- Generator: Sketch 43.1 (39012) - http://www.bohemiancoding.com/sketch -->
    <title>download-left</title>
    <desc>Created with Sketch.</desc>
    <defs></defs>
    <g id="V3" stroke="none" stroke-width="1" fill="none" fill-rule="evenodd">
        <g id="Dux-Icon-V2-@16-预览版" transform="translate(-256.000000, -1312.000000)" fill="#000000">
            <g id="download-left" transform="translate(256.000000, 1311.000000)">
                <path d="M7,8.54760208 L7,1.9955775 C7,1.44573523 7.44386482,1 8,1 C8.55228475,1 9,1.44483697 9,1.9955775 L9,8.58578644 L10.2491616,7.33662479 C10.6308599,6.95492658 11.26633,6.95262146 11.6568542,7.34314575 C12.0501012,7.73639271 12.0502981,8.36391549 11.6633752,8.75083835 L8.82190616,11.5923074 C8.80566645,11.6085471 8.78896737,11.6241001 8.77184733,11.6389652 C8.58907295,11.8595031 8.31223042,12 8,12 C7.63728089,12 7.31966627,11.8081262 7.14436388,11.5203931 L4.30374134,8.67977054 C3.92204312,8.29807233 3.91973801,7.66260223 4.3102623,7.27207794 C4.70350925,6.87883098 5.33103203,6.87863411 5.7179549,7.26555698 L7,8.54760208 Z M0,11 C0,10.4477153 0.44771525,10 1,10 C1.55228475,10 2,10.4477153 2,11 L2,13.9822123 C2,14.52981 2.44995603,14.9784546 2.99815173,14.9784546 L13.015564,14.9784546 C13.568609,14.9784546 13.9827271,14.5343425 13.9827271,13.9822123 L13.9827271,11 C13.9827271,10.4477153 14.4406962,10 14.992981,10 C15.5452657,10 16,10.4477153 16,11 L16,13.9822123 C16,15.6399149 14.6721781,16.9784546 13.015564,16.9784546 L2.99815173,16.9784546 C1.34669125,16.9784546 0,15.6356885 0,13.9822123 L0,11 Z" id="Combined-Shape" transform="translate(8.000000, 8.989227) rotate(90.000000) translate(-8.000000, -8.989227) "></path>
            </g>
        </g>
    </g>
</svg>