<?xml version="1.0" encoding="UTF-8"?>
<svg width="16px" height="16px" viewBox="0 0 16 16" version="1.1" xmlns="http://www.w3.org/2000/svg" xmlns:xlink="http://www.w3.org/1999/xlink">
    <!-- Generator: Sketch 43.1 (39012) - http://www.bohemiancoding.com/sketch -->
    <title>download-right</title>
    <desc>Created with Sketch.</desc>
    <defs></defs>
    <g id="V3" stroke="none" stroke-width="1" fill="none" fill-rule="evenodd">
        <g id="Dux-Icon-V2-@16-预览版" transform="translate(-224.000000, -1312.000000)" fill="#000000">
            <g id="download-right" transform="translate(232.000000, 1320.000000) scale(1, -1) rotate(90.000000) translate(-232.000000, -1320.000000) translate(224.000000, 1312.000000)">
                <path d="M7.14271128,5.48125951 C7.31701064,5.19281979 7.6342219,5 8,5 C8.30887906,5 8.58504998,5.13913991 8.76848462,5.35812846 C8.78678222,5.37386953 8.80460489,5.39039132 8.82190616,5.4076926 L11.6633752,8.24916165 C12.0502981,8.63608451 12.0501012,9.26360729 11.6568542,9.65685425 C11.26633,10.0473785 10.6308599,10.0450734 10.2491616,9.66337521 L9,8.41421356 L9,15.0044225 C9,15.5542648 8.55613518,16 8,16 C7.44771525,16 7,15.555163 7,15.0044225 L7,8.45239792 L5.7179549,9.73444302 C5.33103203,10.1213659 4.70350925,10.121169 4.3102623,9.72792206 C3.91973801,9.33739777 3.92204312,8.70192767 4.30374134,8.32022946 L7.14271128,5.48125951 Z M16,5.97845459 C16,6.53073934 15.5522847,6.97845459 15,6.97845459 C14.4477153,6.97845459 14,6.53073934 14,5.97845459 L14,2.9962423 C14,2.44864457 13.550044,2 13.0018483,2 L2.98443604,2 C2.43139104,2 2.01727295,2.44411205 2.01727295,2.9962423 L2.01727295,5.97845459 C2.01727295,6.53073934 1.55930379,6.97845459 1.00701904,6.97845459 C0.454734293,6.97845459 0,6.53073934 0,5.97845459 L0,2.9962423 C0,1.33853967 1.32782194,0 2.98443604,0 L13.0018483,8.8817842e-16 C14.6533087,8.8817842e-16 16,1.34276613 16,2.9962423 L16,5.97845459 Z" id="Combined-Shape"></path>
            </g>
        </g>
    </g>
</svg>