<?xml version="1.0" encoding="UTF-8"?>
<svg width="16px" height="16px" viewBox="0 0 16 16" version="1.1" xmlns="http://www.w3.org/2000/svg" xmlns:xlink="http://www.w3.org/1999/xlink">
    <!-- Generator: Sketch 43.1 (39012) - http://www.bohemiancoding.com/sketch -->
    <title>search</title>
    <desc>Created with Sketch.</desc>
    <defs></defs>
    <g id="V3" stroke="none" stroke-width="1" fill="none" fill-rule="evenodd">
        <g id="Dux-Icon-V2-@16-预览版" transform="translate(-352.000000, -1472.000000)" fill-rule="nonzero" fill="#000000">
            <g id="search" transform="translate(352.000000, 1472.000000)">
                <path d="M14.2491616,13.4207345 C14.6360845,13.8076574 14.6358876,14.4351802 14.2426407,14.8284271 L14.2426407,14.8284271 C13.8521164,15.2189514 13.2166463,15.2166463 12.8349481,14.8349481 L9.99347904,11.993479 C9.60655617,11.6065562 9.60675304,10.9790334 10,10.5857864 L10,10.5857864 C10.3905243,10.1952621 11.0259944,10.1975673 11.4076926,10.5792655 L14.2491616,13.4207345 Z M7,11 C9.209139,11 11,9.209139 11,7 C11,4.790861 9.209139,3 7,3 C4.790861,3 3,4.790861 3,7 C3,9.209139 4.790861,11 7,11 Z M7,13 C3.6862915,13 1,10.3137085 1,7 C1,3.6862915 3.6862915,1 7,1 C10.3137085,1 13,3.6862915 13,7 C13,10.3137085 10.3137085,13 7,13 Z"></path>
            </g>
        </g>
    </g>
</svg>