<?xml version="1.0" encoding="UTF-8"?>
<svg width="16px" height="16px" viewBox="0 0 16 16" version="1.1" xmlns="http://www.w3.org/2000/svg" xmlns:xlink="http://www.w3.org/1999/xlink">
    <!-- Generator: Sketch 43.1 (39012) - http://www.bohemiancoding.com/sketch -->
    <title>solid_del</title>
    <desc>Created with Sketch.</desc>
    <defs></defs>
    <g id="V3" stroke="none" stroke-width="1" fill="none" fill-rule="evenodd">
        <g id="Dux-Icon-V2-@16-预览版" transform="translate(-384.000000, -1312.000000)" fill="#000000">
            <g id="solid_del" transform="translate(384.000000, 1312.000000)">
                <path d="M9.41421356,8 L10.8305271,6.58368643 C11.2151889,6.1990247 11.2189514,5.56209717 10.8284271,5.17157288 C10.4351802,4.77832592 9.80567806,4.78010838 9.41631357,5.16947287 L8,6.58578644 L6.58368643,5.16947287 C6.19432194,4.78010838 5.56481983,4.77832592 5.17157288,5.17157288 C4.78104858,5.56209717 4.78481114,6.1990247 5.16947287,6.58368643 L6.58578644,8 L5.16947287,9.41631357 C4.78481114,9.8009753 4.78104858,10.4379028 5.17157288,10.8284271 C5.56481983,11.2216741 6.19432194,11.2198916 6.58368643,10.8305271 L8,9.41421356 L9.41631357,10.8305271 C9.80567806,11.2198916 10.4351802,11.2216741 10.8284271,10.8284271 C11.2189514,10.4379028 11.2151889,9.8009753 10.8305271,9.41631357 L9.41421356,8 Z M8,16 C3.581722,16 0,12.418278 0,8 C0,3.581722 3.581722,0 8,0 C12.418278,0 16,3.581722 16,8 C16,12.418278 12.418278,16 8,16 Z" id="Combined-Shape"></path>
            </g>
        </g>
    </g>
</svg>