<?xml version="1.0" encoding="UTF-8"?>
<svg width="16px" height="16px" viewBox="0 0 16 16" version="1.1" xmlns="http://www.w3.org/2000/svg" xmlns:xlink="http://www.w3.org/1999/xlink">
    <!-- Generator: Sketch 43.1 (39012) - http://www.bohemiancoding.com/sketch -->
    <title>solid_wenhao</title>
    <desc>Created with Sketch.</desc>
    <defs></defs>
    <g id="V3" stroke="none" stroke-width="1" fill="none" fill-rule="evenodd">
        <g id="Dux-Icon-V2-@16-预览版" transform="translate(-416.000000, -1392.000000)" fill="#000000">
            <g id="solid_wenhao" transform="translate(416.000000, 1392.000000)">
                <path d="M8,16 C3.581722,16 0,12.418278 0,8 C0,3.581722 3.581722,0 8,0 C12.418278,0 16,3.581722 16,8 C16,12.418278 12.418278,16 8,16 Z M8.1012576,9.58117647 C8.1012576,9.58117647 8.5704291,9.58117647 8.5704291,9.21411765 C8.5704291,8.78117647 8.71160557,8.53647059 9.10689969,8.28235294 C9.92572322,7.77411765 10.0198409,7.70823529 10.2457232,7.50117647 C10.6410173,7.13411765 10.8292526,6.69176471 10.8292526,6.11764706 C10.8292526,4.81882353 9.74689969,4 8.01513499,4 C6.93278205,4 6.09513499,4.32 5.54925263,4.94117647 C5.19160557,5.33647059 5.09411793,5.57176471 5.00000028,6.24941176 C5.00000028,6.24941176 4.99652127,6.88783663 5.7673953,7.03058824 C6.53826932,7.17333984 6.86689969,6.43463135 6.86689969,6.43463135 C6.90454675,6.14286664 6.96101734,6.13647059 7.05513499,5.98588235 C7.23395852,5.69411765 7.54454675,5.54352941 7.96807616,5.54352941 C8.53278205,5.54352941 8.86219381,5.80705882 8.86219381,6.24941176 C8.86219381,6.56 8.71160557,6.75764706 8.2504291,7.03058824 C7.58219381,7.43529412 7.50689969,7.49176471 7.28101734,7.75529412 C6.97984087,8.12235294 6.86689969,8.49882353 6.86689969,9.14823529 C6.86689969,9.58117647 7.28101734,9.58117647 7.28101734,9.58117647 L8.1012576,9.58117647 Z M7.78219381,10.2211765 C7.22990906,10.2211765 6.78219381,10.6650413 6.78219381,11.2211765 C6.78219381,11.7734612 7.22605863,12.2211765 7.78219381,12.2211765 C8.33447856,12.2211765 8.78219381,11.7773116 8.78219381,11.2211765 C8.78219381,10.6688917 8.33832899,10.2211765 7.78219381,10.2211765 Z" id="Combined-Shape"></path>
            </g>
        </g>
    </g>
</svg>