<?xml version="1.0" encoding="UTF-8"?>
<svg width="16px" height="16px" viewBox="0 0 16 16" version="1.1" xmlns="http://www.w3.org/2000/svg" xmlns:xlink="http://www.w3.org/1999/xlink">
    <!-- Generator: Sketch 43.1 (39012) - http://www.bohemiancoding.com/sketch -->
    <title>up</title>
    <desc>Created with Sketch.</desc>
    <defs></defs>
    <g id="V3" stroke="none" stroke-width="1" fill="none" fill-rule="evenodd">
        <g id="Dux-Icon-V2-@16-预览版" transform="translate(-192.000000, -1280.000000)" fill="#000000">
            <g id="up" transform="translate(192.000000, 1280.000000)">
                <path d="M7.26033415,4.32633595 C7.44262232,4.12579238 7.70557805,4 8,4 C8.27179571,4 8.51826556,4.11038148 8.69851013,4.2876629 C8.85329374,4.33297578 8.99864944,4.41612381 9.11922033,4.5366947 L13.366061,8.78353541 C13.7554255,9.1728999 13.757208,9.802402 13.363961,10.195649 C12.9734367,10.5861733 12.3365092,10.5824107 11.9518475,10.197749 L9,7.24590149 L9,14.9975267 C9,15.5511774 8.55613518,16 8,16 C7.44771525,16 7,15.544239 7,14.9975267 L7,7.3169693 L4.11922033,10.197749 C3.72985585,10.5871135 3.10035374,10.5888959 2.70710678,10.195649 C2.31658249,9.80512467 2.32034505,9.16819713 2.70500677,8.78353541 L6.95184748,4.5366947 C7.04345243,4.44508975 7.14834923,4.37493784 7.26033415,4.32633595 Z M1,1 C1,0.44771525 1.44994876,0 2.00684547,0 L13.9931545,0 C14.5492199,0 15,0.443864822 15,1 C15,1.55228475 14.5500512,2 13.9931545,2 L2.00684547,2 C1.45078007,2 1,1.55613518 1,1 Z" id="Combined-Shape"></path>
            </g>
        </g>
    </g>
</svg>