<?xml version="1.0" encoding="UTF-8"?>
<svg width="16px" height="16px" viewBox="0 0 16 16" version="1.1" xmlns="http://www.w3.org/2000/svg" xmlns:xlink="http://www.w3.org/1999/xlink">
    <!-- Generator: Sketch 43.1 (39012) - http://www.bohemiancoding.com/sketch -->
    <title>upload-left</title>
    <desc>Created with Sketch.</desc>
    <defs></defs>
    <g id="V3" stroke="none" stroke-width="1" fill="none" fill-rule="evenodd">
        <g id="Dux-Icon-V2-@16-预览版" transform="translate(-256.000000, -1344.000000)" fill="#000000">
            <g id="upload-left" transform="translate(264.000000, 1352.000000) scale(-1, -1) rotate(90.000000) translate(-264.000000, -1352.000000) translate(256.000000, 1344.000000)">
                <path d="M7.14271128,0.481259514 C7.31701064,0.192819795 7.6342219,0 8,0 C8.30887906,0 8.58504998,0.139139906 8.76848462,0.358128463 C8.78678222,0.373869528 8.80460489,0.390391324 8.82190616,0.407692602 L11.6633752,3.24916165 C12.0502981,3.63608451 12.0501012,4.26360729 11.6568542,4.65685425 C11.26633,5.04737854 10.6308599,5.04507342 10.2491616,4.66337521 L9,3.41421356 L9,10.0044225 C9,10.5542648 8.55613518,11 8,11 C7.44771525,11 7,10.555163 7,10.0044225 L7,3.45239792 L5.7179549,4.73444302 C5.33103203,5.12136589 4.70350925,5.12116902 4.3102623,4.72792206 C3.91973801,4.33739777 3.92204312,3.70192767 4.30374134,3.32022946 L7.14271128,0.481259514 Z M0,10 C0,9.44771525 0.44771525,9 1,9 C1.55228475,9 2,9.44771525 2,10 L2,12.9822123 C2,13.52981 2.44995603,13.9784546 2.99815173,13.9784546 L13.0522023,13.9784546 C13.6052473,13.9784546 13.9962463,13.5343425 13.9962463,12.9822123 L13.9962463,10 C13.9962463,9.44771525 14.4447245,9 14.9970093,9 C15.549294,9 16,9.44771525 16,10 L16,12.9822123 C16,14.6399149 14.7088164,15.9784546 13.0522023,15.9784546 L2.99815173,15.9784546 C1.34669125,15.9784546 0,14.6356885 0,12.9822123 L0,10 Z" id="Combined-Shape"></path>
            </g>
        </g>
    </g>
</svg>