<?xml version="1.0" encoding="UTF-8"?>
<svg width="16px" height="16px" viewBox="0 0 16 16" version="1.1" xmlns="http://www.w3.org/2000/svg" xmlns:xlink="http://www.w3.org/1999/xlink">
    <!-- Generator: Sketch 43.1 (39012) - http://www.bohemiancoding.com/sketch -->
    <title>upload-down</title>
    <desc>Created with Sketch.</desc>
    <defs></defs>
    <g id="V3" stroke="none" stroke-width="1" fill="none" fill-rule="evenodd">
        <g id="Dux-Icon-V2-@16-预览版" transform="translate(-160.000000, -1344.000000)" fill="#000000">
            <g id="upload-down" transform="translate(168.000000, 1352.000000) scale(1, -1) translate(-168.000000, -1352.000000) translate(160.000000, 1344.000000)">
                <path d="M7.14758612,0.47327763 C7.3228849,0.189268103 7.63760633,0 8,0 C8.30887906,0 8.58504998,0.139139906 8.76848462,0.358128463 C8.78678222,0.373869528 8.80460489,0.390391324 8.82190616,0.407692602 L11.6633752,3.24916165 C12.0502981,3.63608451 12.0501012,4.26360729 11.6568542,4.65685425 C11.26633,5.04737854 10.6308599,5.04507342 10.2491616,4.66337521 L9,3.41421356 L9,10.0044225 C9,10.5542648 8.55613518,11 8,11 C7.44771525,11 7,10.555163 7,10.0044225 L7,3.44924851 L5.71480549,4.73444302 C5.32788262,5.12136589 4.70035984,5.12116902 4.30711288,4.72792206 C3.91658859,4.33739777 3.91889371,3.70192767 4.30059192,3.32022946 L7.14206097,0.478760414 C7.14389728,0.4769241 7.14573902,0.475096505 7.14758612,0.47327763 Z M0,10 C0,9.44771525 0.44771525,9 1,9 C1.55228475,9 2,9.44771525 2,10 L2,12.9822123 C2,13.52981 2.44995603,13.9784546 2.99815173,13.9784546 L13.0104065,13.9784546 C13.5634515,13.9784546 14.0076904,13.5343425 14.0076904,12.9822123 L14.0076904,10 C14.0076904,9.44771525 14.4512248,9 15.0035095,9 C15.5557943,9 15.9992065,9.44771525 15.9992065,10 L15.9992065,12.9822123 C15.9992065,14.6399149 14.6670206,15.9784546 13.0104065,15.9784546 L2.99815173,15.9784546 C1.34669125,15.9784546 0,14.6356885 0,12.9822123 L0,10 Z" id="Combined-Shape"></path>
            </g>
        </g>
    </g>
</svg>