<?xml version="1.0" encoding="UTF-8"?>
<svg width="16px" height="16px" viewBox="0 0 16 16" version="1.1" xmlns="http://www.w3.org/2000/svg" xmlns:xlink="http://www.w3.org/1999/xlink">
    <!-- Generator: Sketch 43.1 (39012) - http://www.bohemiancoding.com/sketch -->
    <title>upload</title>
    <desc>Created with Sketch.</desc>
    <defs></defs>
    <g id="V3" stroke="none" stroke-width="1" fill="none" fill-rule="evenodd">
        <g id="Dux-Icon-V2-@16-预览版" transform="translate(-192.000000, -1344.000000)" fill="#000000">
            <g id="upload" transform="translate(200.000000, 1352.500000) scale(1, -1) translate(-200.000000, -1352.500000) translate(192.000000, 1344.000000)">
                <path d="M8.06583047,1.0021187 C8.19971428,1.01076418 8.32641497,1.04559301 8.44079918,1.10153484 C8.58094525,1.14820272 8.71195446,1.22667309 8.82190616,1.33662479 L11.6633752,4.17809384 C12.0502981,4.5650167 12.0501012,5.19253948 11.6568542,5.58578644 C11.26633,5.97631073 10.6308599,5.97400561 10.2491616,5.5923074 L9,4.34314575 L9,11.0044225 C9,11.5542648 8.55613518,12 8,12 C7.44771525,12 7,11.555163 7,11.0044225 L7,4.23604507 L5.71480549,5.52123959 C5.32788262,5.90816245 4.70035984,5.90796558 4.30711288,5.51471863 C3.91658859,5.12419433 3.91889371,4.48872424 4.30059192,4.10702602 L7.14206097,1.26555698 C7.39219756,1.01542039 7.74288855,0.927073539 8.06583047,1.0021187 Z M0,11 C0,10.4477153 0.44771525,10 1,10 C1.55228475,10 2,10.4477153 2,11 L2,13.9822123 C2,14.52981 2.44995603,14.9784546 2.99815173,14.9784546 L13.0104065,14.9784546 C13.5634515,14.9784546 14.0076904,14.5343425 14.0076904,13.9822123 L14.0076904,11 C14.0076904,10.4477153 14.4512248,10 15.0035095,10 C15.5557943,10 15.9992065,10.4477153 15.9992065,11 L15.9992065,13.9822123 C15.9992065,15.6399149 14.6670206,16.9784546 13.0104065,16.9784546 L2.99815173,16.9784546 C1.34669125,16.9784546 0,15.6356885 0,13.9822123 L0,11 Z" id="Combined-Shape" transform="translate(7.999603, 8.977351) scale(1, -1) translate(-7.999603, -8.977351) "></path>
            </g>
        </g>
    </g>
</svg>