<?xml version="1.0" encoding="UTF-8"?>
<svg width="96px" height="96px" viewBox="0 0 96 96" version="1.1" xmlns="http://www.w3.org/2000/svg" xmlns:xlink="http://www.w3.org/1999/xlink">
    <!-- Generator: Sketch 41.1 (35376) - http://www.bohemiancoding.com/sketch -->
    <title>right</title>
    <desc>Created with Sketch.</desc>
    <defs></defs>
    <g id="Page-1" stroke="none" stroke-width="1" fill="none" fill-rule="evenodd">
        <g id="Desktop-HD" transform="translate(-1440.000000, -480.000000)" fill="#000000">
            <g id="right" transform="translate(1440.000000, 480.000000)">
                <path d="M43.4642334,25.5784912 C44.2910767,24.680481 46.2334683,24 48,24 C49.6307743,24 51.8707275,24.6859741 52.8128662,25.5784912 C53.7058508,26.3525138 53.9918966,26.4967429 54.715322,27.2201682 L80.196366,52.7012125 C82.532553,55.0373994 82.543248,58.814412 80.183766,61.173894 C77.8406202,63.5170398 74.0190552,63.4944642 71.711085,61.186494 L54,43.4754089 L54,89.9851602 C54,93.3070644 51.3368111,96 48,96 C44.6862915,96 42,93.265434 42,89.9851602 L42,43.9018158 L24.715322,61.186494 C22.3791351,63.522681 18.6021224,63.5333754 16.2426407,61.173894 C13.8994949,58.830748 13.9220703,55.0091828 16.2300406,52.7012125 L41.7110849,27.2201682 C42.2607146,26.6705385 42.916687,26.1195068 43.4642334,25.5784912 Z M6,6 C6,2.6862915 8.69969256,0 12.0410728,0 L83.958927,0 C87.2953194,0 90,2.66318893 90,6 C90,9.3137085 87.3003072,12 83.958927,12 L12.0410728,12 C8.70468042,12 6,9.33681108 6,6 Z" id="Combined-Shape" transform="translate(48.000000, 48.000000) rotate(90.000000) translate(-48.000000, -48.000000) "></path>
            </g>
        </g>
    </g>
</svg>