<?xml version="1.0" encoding="UTF-8"?>
<svg width="16px" height="16px" viewBox="0 0 16 16" version="1.1" xmlns="http://www.w3.org/2000/svg" xmlns:xlink="http://www.w3.org/1999/xlink">
    <!-- Generator: Sketch 46.1 (44463) - http://www.bohemiancoding.com/sketch -->
    <title>成功16</title>
    <desc>Created with Sketch.</desc>
    <defs></defs>
    <g id="【未公示】" stroke="none" stroke-width="1" fill="none" fill-rule="evenodd">
        <g id="【供序章用规范】组件-图标-魏博嘉" transform="translate(-360.000000, -1388.000000)" fill-rule="nonzero" fill="#333333">
            <path d="M368,1389 C364.134418,1389 361,1392.13442 361,1396 C361,1399.86541 364.134515,1403 368,1403 C371.865315,1403 375,1399.86532 375,1396 C375,1392.13452 371.865413,1389 368,1389 Z M368,1388 C372.4176,1388 376,1391.58213 376,1396 C376,1400.4176 372.4176,1404 368,1404 C363.582133,1404 360,1400.4176 360,1396 C360,1391.58213 363.582133,1388 368,1388 Z M367.066371,1393 L364.5,1395.81094 L365.478365,1396.86608 L367.066371,1395.11666 L370.475686,1399 L371.5,1397.9179 L367.066371,1393 Z" id="成功16" transform="translate(368.000000, 1396.000000) scale(1, -1) translate(-368.000000, -1396.000000) "></path>
        </g>
    </g>
</svg>