<?xml version="1.0" encoding="UTF-8"?>
<svg width="30px" height="30px" viewBox="0 0 30 30" version="1.1" xmlns="http://www.w3.org/2000/svg" xmlns:xlink="http://www.w3.org/1999/xlink">
    <!-- Generator: Sketch 46.2 (44496) - http://www.bohemiancoding.com/sketch -->
    <title>step_ok_normal</title>
    <desc>Created with Sketch.</desc>
    <defs></defs>
    <g id="Page-1" stroke="none" stroke-width="1" fill="none" fill-rule="evenodd">
        <g id="组件-对话框-邓科" transform="translate(-333.000000, -1609.000000)" fill="#5BC49F">
            <g id="创建成功弹窗" transform="translate(173.000000, 1579.000000)">
                <g id="step_ok_normal" transform="translate(160.000000, 30.000000)">
                    <g id="Combined-Shape">
                        <path d="M15,29 C22.7319865,29 29,22.7319865 29,15 C29,7.2680135 22.7319865,1 15,1 C7.2680135,1 1,7.2680135 1,15 C1,22.7319865 7.2680135,29 15,29 Z M15,30 C6.71572875,30 0,23.2842712 0,15 C0,6.71572875 6.71572875,0 15,0 C23.2842712,0 30,6.71572875 30,15 C30,23.2842712 23.2842712,30 15,30 Z M13.4847962,21.0722046 L23.1199999,11.0779419 L22.0490215,10 L13.4847962,18.9636841 L9.02293574,14.0728149 L8,15.1239014 L13.4847962,21.0722046 Z" fill-rule="nonzero"></path>
                    </g>
                </g>
            </g>
        </g>
    </g>
</svg>