<?xml version="1.0" encoding="UTF-8"?>
<svg width="12px" height="12px" viewBox="0 0 12 12" version="1.1" xmlns="http://www.w3.org/2000/svg" xmlns:xlink="http://www.w3.org/1999/xlink">
    <!-- Generator: Sketch 46.1 (44463) - http://www.bohemiancoding.com/sketch -->
    <title>文件12</title>
    <desc>Created with Sketch.</desc>
    <defs></defs>
    <g id="【未公示】" stroke="none" stroke-width="1" fill="none" fill-rule="evenodd">
        <g id="【供序章用规范】组件-图标-魏博嘉" transform="translate(-160.000000, -1392.000000)" fill-rule="nonzero" fill="#333333">
            <g id="文件12" transform="translate(159.000000, 1391.000000)">
                <path d="M5,6.5 L5,4.5 C5,3.11928813 6.11928813,2 7.5,2 C8.88071187,2 10,3.11928813 10,4.5 L10,7.5 L9,7.5 L9,4.5 C9,3.67157288 8.32842712,3 7.5,3 C6.67157288,3 6,3.67157288 6,4.5 L6,7.5 L5,7.5 L5,6.5 L5,5.5 L6,5.5 L6,8.5 C6,8.77614237 6.22385763,9 6.5,9 C6.77614237,9 7,8.77614237 7,8.5 L7,5.02502441 L8,5.02502441 L8,8.5 C8,9.32842712 7.32842712,10 6.5,10 C5.67157288,10 5,9.32842712 5,8.5 L5,6.5 Z M9,5.5 L10,5.5 L10,8.5 C10,10.4329966 8.43299662,12 6.5,12 C4.56700338,12 3,10.4329966 3,8.5 L3,3.99499512 L4,3.99499512 L4,8.5 C4,9.88071187 5.11928813,11 6.5,11 C7.88071187,11 9,9.88071187 9,8.5 L9,5.5 Z" transform="translate(6.500000, 7.000000) rotate(40.000000) translate(-6.500000, -7.000000) "></path>
            </g>
        </g>
    </g>
</svg>