<?xml version="1.0" encoding="UTF-8"?>
<svg width="16px" height="16px" viewBox="0 0 16 16" version="1.1" xmlns="http://www.w3.org/2000/svg" xmlns:xlink="http://www.w3.org/1999/xlink">
    <!-- Generator: Sketch 46.1 (44463) - http://www.bohemiancoding.com/sketch -->
    <title>错误16</title>
    <desc>Created with Sketch.</desc>
    <defs></defs>
    <g id="【未公示】" stroke="none" stroke-width="1" fill="none" fill-rule="evenodd">
        <g id="【供序章用规范】组件-图标-魏博嘉" transform="translate(-360.000000, -1338.000000)" fill-rule="nonzero" fill="#333333">
            <path d="M368,1339 C364.134418,1339 361,1342.13442 361,1346 C361,1349.86541 364.134515,1353 368,1353 C371.865315,1353 375,1349.86532 375,1346 C375,1342.13452 371.865413,1339 368,1339 Z M368,1338 C372.4176,1338 376,1341.58213 376,1346 C376,1350.4176 372.4176,1354 368,1354 C363.582133,1354 360,1350.4176 360,1346 C360,1341.58213 363.582133,1338 368,1338 Z M371.166667,1342 L372,1342.83333 L364.833333,1350 L364,1349.16667 L371.166667,1342 Z M364.833333,1342 L372,1349.16667 L371.166667,1350 L364,1342.83333 L364.833333,1342 Z" id="错误16"></path>
        </g>
    </g>
</svg>