<?xml version="1.0" encoding="UTF-8"?>
<svg width="30px" height="30px" viewBox="0 0 30 30" version="1.1" xmlns="http://www.w3.org/2000/svg" xmlns:xlink="http://www.w3.org/1999/xlink">
    <!-- Generator: Sketch 46.1 (44463) - http://www.bohemiancoding.com/sketch -->
    <title>错误特殊</title>
    <desc>Created with Sketch.</desc>
    <defs></defs>
    <g id="【未公示】" stroke="none" stroke-width="1" fill="none" fill-rule="evenodd">
        <g id="【供序章用规范】组件-图标-魏博嘉" transform="translate(-460.000000, -1324.000000)" fill-rule="nonzero" fill="#333333">
            <path d="M475,1353 C482.731986,1353 489,1346.73199 489,1339 C489,1331.26801 482.731986,1325 475,1325 C467.268014,1325 461,1331.26801 461,1339 C461,1346.73199 467.268014,1353 475,1353 Z M475,1354 C466.715729,1354 460,1347.28427 460,1339 C460,1330.71573 466.715729,1324 475,1324 C483.284271,1324 490,1330.71573 490,1339 C490,1347.28427 483.284271,1354 475,1354 Z M469.857143,1333 L481,1344.14286 L480.142857,1345 L469,1333.85714 L469.857143,1333 Z M469,1344.14286 L480.142857,1333 L481,1333.85714 L469.857143,1345 L469,1344.14286 Z" id="错误特殊"></path>
        </g>
    </g>
</svg>