<?xml version="1.0" encoding="UTF-8"?>
<svg width="30px" height="30px" viewBox="0 0 30 30" version="1.1" xmlns="http://www.w3.org/2000/svg" xmlns:xlink="http://www.w3.org/1999/xlink">
    <!-- Generator: Sketch 46.2 (44496) - http://www.bohemiancoding.com/sketch -->
    <title>step_no_normal</title>
    <desc>Created with Sketch.</desc>
    <defs></defs>
    <g id="Page-1" stroke="none" stroke-width="1" fill="none" fill-rule="evenodd">
        <g id="组件-对话框-邓科" transform="translate(-703.000000, -1609.000000)" fill="#FE5B5B">
            <g id="创建失败弹窗" transform="translate(543.000000, 1579.000000)">
                <g id="step_no_normal" transform="translate(160.000000, 30.000000)">
                    <g id="Combined-Shape">
                        <path d="M15,29 C22.7319865,29 29,22.7319865 29,15 C29,7.2680135 22.7319865,1 15,1 C7.2680135,1 1,7.2680135 1,15 C1,22.7319865 7.2680135,29 15,29 Z M15,14.1428571 L9.85714286,9 L9,9.85714286 L14.1428571,15 L9,20.1428571 L9.85714286,21 L15,15.8571429 L20.1428571,21 L21,20.1428571 L15.8571429,15 L21,9.85714286 L20.1428571,9 L15,14.1428571 Z M15,30 C6.71572875,30 0,23.2842712 0,15 C0,6.71572875 6.71572875,0 15,0 C23.2842712,0 30,6.71572875 30,15 C30,23.2842712 23.2842712,30 15,30 Z" fill-rule="nonzero"></path>
                    </g>
                </g>
            </g>
        </g>
    </g>
</svg>