<?xml version="1.0" encoding="UTF-8"?>
<svg width="96px" height="96px" viewBox="0 0 96 96" version="1.1" xmlns="http://www.w3.org/2000/svg" xmlns:xlink="http://www.w3.org/1999/xlink">
    <!-- Generator: Sketch 41.1 (35376) - http://www.bohemiancoding.com/sketch -->
    <title>solid_del</title>
    <desc>Created with Sketch.</desc>
    <defs></defs>
    <g id="Page-1" stroke="none" stroke-width="1" fill="none" fill-rule="evenodd">
        <g id="Desktop-HD" transform="translate(-96.000000, -96.000000)" fill="#000000">
            <g id="solid_del" transform="translate(96.000000, 96.000000)">
                <path d="M56.4852814,48 L64.9831626,39.5021186 C67.2911334,37.1941482 67.3137084,33.372583 64.9705626,31.0294373 C62.6110812,28.6699555 58.8340684,28.6806503 56.4978814,31.0168372 L48,39.5147186 L39.5021186,31.0168372 C37.1659316,28.6806503 33.388919,28.6699555 31.0294373,31.0294373 C28.6862915,33.372583 28.7088668,37.1941482 31.0168372,39.5021186 L39.5147186,48 L31.0168372,56.4978814 C28.7088668,58.8058518 28.6862915,62.6274168 31.0294373,64.9705626 C33.388919,67.3300446 37.1659316,67.3193496 39.5021186,64.9831626 L48,56.4852814 L56.4978814,64.9831626 C58.8340684,67.3193496 62.6110812,67.3300446 64.9705626,64.9705626 C67.3137084,62.6274168 67.2911334,58.8058518 64.9831626,56.4978814 L56.4852814,48 Z M48,96 C21.490332,96 0,74.509668 0,48 C0,21.490332 21.490332,0 48,0 C74.509668,0 96,21.490332 96,48 C96,74.509668 74.509668,96 48,96 Z" id="Combined-Shape"></path>
            </g>
        </g>
    </g>
</svg>