<?xml version="1.0" encoding="UTF-8"?>
<svg width="96px" height="96px" viewBox="0 0 96 96" version="1.1" xmlns="http://www.w3.org/2000/svg" xmlns:xlink="http://www.w3.org/1999/xlink">
    <!-- Generator: Sketch 41.1 (35376) - http://www.bohemiancoding.com/sketch -->
    <title>download</title>
    <desc>Created with Sketch.</desc>
    <defs></defs>
    <g id="Page-1" stroke="none" stroke-width="1" fill="none" fill-rule="evenodd">
        <g id="Desktop-HD" transform="translate(-1632.000000, -672.000000)" fill="#000000">
            <g id="download" transform="translate(1632.000000, 672.000000)">
                <path d="M42.8562677,32.8875571 C44.4709473,31.359375 45.8053314,30 48,30 C49.8532744,30 51.8308291,31.1322243 52.931437,32.4461556 C53.0412226,32.540602 69.9802512,49.4949699 69.9802512,49.4949699 C72.3017886,51.8165071 72.6453707,55.910601 70.2858887,58.2700828 C67.9427435,60.6132283 64.0560703,60.5602719 61.7658805,58.2700828 L54,49.9213768 L54,90.026535 C54,93.3255888 51.3368111,96 48,96 C44.6862915,96 42,93.330978 42,90.026535 L42,49.9213768 L34.3077294,58.4066581 C32.0327148,60.6567383 27.887085,60.4041748 25.8615738,58.3675324 C23.8360626,56.3308899 23.5322587,52.211566 25.822448,49.9213768 L42.8562677,32.8875571 Z M96,35.8707275 C96,39.184436 93.3137082,41.8707275 90,41.8707275 C86.6862918,41.8707275 84,39.184436 84,35.8707275 L84,17.9774538 C84,14.6918674 81.300264,12 78.0110898,12 L17.9066162,12 C14.5883462,12 12.1036377,14.6646723 12.1036377,17.9774538 L12.1036377,35.8707275 C12.1036377,39.184436 9.35582274,41.8707275 6.04211424,41.8707275 C2.72840576,41.8707275 0,39.184436 0,35.8707275 L0,17.9774538 C0,8.03123802 7.96693164,-2.84217094e-14 17.9066162,-2.84217094e-14 L78.0110898,-2.30926389e-14 C87.9198522,-2.30926389e-14 96,8.05659678 96,17.9774538 L96,35.8707275 Z" id="Combined-Shape" transform="translate(48.000000, 48.000000) scale(-1, -1) translate(-48.000000, -48.000000) "></path>
            </g>
        </g>
    </g>
</svg>