<?xml version="1.0" encoding="UTF-8"?>
<svg width="96px" height="96px" viewBox="0 0 96 96" version="1.1" xmlns="http://www.w3.org/2000/svg" xmlns:xlink="http://www.w3.org/1999/xlink">
    <!-- Generator: Sketch 41.1 (35376) - http://www.bohemiancoding.com/sketch -->
    <title>download-left</title>
    <desc>Created with Sketch.</desc>
    <defs></defs>
    <g id="Page-1" stroke="none" stroke-width="1" fill="none" fill-rule="evenodd">
        <g id="Desktop-HD" transform="translate(-1056.000000, -672.000000)" fill="#000000">
            <g id="download-left" transform="translate(1056.000000, 672.000000)">
                <path d="M42.8562677,32.8875571 C44.4709473,31.359375 45.8053314,30 48,30 C49.8532744,30 51.8308291,31.1322243 52.931437,32.4461556 C53.0412226,32.540602 69.9802512,49.4949699 69.9802512,49.4949699 C72.3017886,51.8165071 72.3006072,55.5816437 69.9411252,57.9411255 C67.59798,60.284271 63.7851594,60.2704404 61.4949696,57.9802513 L54,50.4852814 L54,90.026535 C54,93.3255888 51.3368111,96 48,96 C44.6862915,96 42,93.330978 42,90.026535 L42,50.4852814 L34.3077294,58.4066581 C31.9861922,60.7281954 28.2210555,60.727014 25.8615738,58.3675324 C23.5184281,56.0243866 23.5322587,52.211566 25.822448,49.9213768 L42.8562677,32.8875571 Z M96,35.8707275 C96,39.184436 93.3137082,41.8707275 90,41.8707275 C86.6862918,41.8707275 84,39.184436 84,35.8707275 L84,17.9774538 C84,14.6918674 81.300264,12 78.0110898,12 L17.9066162,12 C14.5883462,12 12.1036377,14.6646723 12.1036377,17.9774538 L12.1036377,35.8707275 C12.1036377,39.184436 9.35582274,41.8707275 6.04211424,41.8707275 C2.72840576,41.8707275 0,39.184436 0,35.8707275 L0,17.9774538 C0,8.03123802 7.96693164,7.10542736e-15 17.9066162,7.10542736e-15 L78.0110898,1.24344979e-14 C87.9198522,1.24344979e-14 96,8.05659678 96,17.9774538 L96,35.8707275 Z" id="Combined-Shape" transform="translate(48.000000, 48.000000) scale(-1, 1) rotate(90.000000) translate(-48.000000, -48.000000) "></path>
            </g>
        </g>
    </g>
</svg>