<?xml version="1.0" encoding="UTF-8"?>
<svg width="12px" height="12px" viewBox="0 0 12 12" version="1.1" xmlns="http://www.w3.org/2000/svg" xmlns:xlink="http://www.w3.org/1999/xlink">
    <!-- Generator: Sketch 46.1 (44463) - http://www.bohemiancoding.com/sketch -->
    <title>警告12</title>
    <desc>Created with Sketch.</desc>
    <defs></defs>
    <g id="【未公示】" stroke="none" stroke-width="1" fill="none" fill-rule="evenodd">
        <g id="【供序章用规范】组件-图标-魏博嘉" transform="translate(-160.000000, -1292.000000)" fill-rule="nonzero" fill="#333333">
            <path d="M166,1292.75 C163.100814,1292.75 160.75,1295.10081 160.75,1298 C160.75,1300.89906 163.100886,1303.25 166,1303.25 C168.898986,1303.25 171.25,1300.89899 171.25,1298 C171.25,1295.10089 168.899059,1292.75 166,1292.75 Z M166,1292 C169.3132,1292 172,1294.6866 172,1298 C172,1301.3132 169.3132,1304 166,1304 C162.6866,1304 160,1301.3132 160,1298 C160,1294.6866 162.6866,1292 166,1292 Z M165.142857,1294.57143 L165.142857,1298.32143 L166.642857,1298.32143 L166.642857,1294.57143 L165.142857,1294.57143 Z M166,1301.54286 C166.414214,1301.54286 166.75,1301.20707 166.75,1300.79286 C166.75,1300.37864 166.414214,1300.04286 166,1300.04286 C165.585786,1300.04286 165.25,1300.37864 165.25,1300.79286 C165.25,1301.20707 165.585786,1301.54286 166,1301.54286 Z" id="警告12"></path>
        </g>
    </g>
</svg>