<?xml version="1.0" encoding="UTF-8"?>
<svg width="16px" height="16px" viewBox="0 0 16 16" version="1.1" xmlns="http://www.w3.org/2000/svg" xmlns:xlink="http://www.w3.org/1999/xlink">
    <!-- Generator: Sketch 46.1 (44463) - http://www.bohemiancoding.com/sketch -->
    <title>警告16</title>
    <desc>Created with Sketch.</desc>
    <defs></defs>
    <g id="【未公示】" stroke="none" stroke-width="1" fill="none" fill-rule="evenodd">
        <g id="【供序章用规范】组件-图标-魏博嘉" transform="translate(-360.000000, -1288.000000)" fill-rule="nonzero" fill="#333333">
            <path d="M368,1289 C364.134418,1289 361,1292.13442 361,1296 C361,1299.86541 364.134515,1303 368,1303 C371.865315,1303 375,1299.86532 375,1296 C375,1292.13452 371.865413,1289 368,1289 Z M368,1288 C372.4176,1288 376,1291.58213 376,1296 C376,1300.4176 372.4176,1304 368,1304 C363.582133,1304 360,1300.4176 360,1296 C360,1291.58213 363.582133,1288 368,1288 Z M367,1294.86667 L367,1299.86667 L369,1299.86667 L369,1294.86667 L367,1294.86667 Z M368,1293.86667 C368.552285,1293.86667 369,1293.41895 369,1292.86667 C369,1292.31438 368.552285,1291.86667 368,1291.86667 C367.447715,1291.86667 367,1292.31438 367,1292.86667 C367,1293.41895 367.447715,1293.86667 368,1293.86667 Z" id="警告16" transform="translate(368.000000, 1296.000000) scale(1, -1) translate(-368.000000, -1296.000000) "></path>
        </g>
    </g>
</svg>