<?xml version="1.0" encoding="UTF-8"?>
<svg width="14px" height="14px" viewBox="0 0 14 14" version="1.1" xmlns="http://www.w3.org/2000/svg" xmlns:xlink="http://www.w3.org/1999/xlink">
    <!-- Generator: Sketch 46.1 (44463) - http://www.bohemiancoding.com/sketch -->
    <title>退出14</title>
    <desc>Created with Sketch.</desc>
    <defs></defs>
    <g id="【未公示】" stroke="none" stroke-width="1" fill="none" fill-rule="evenodd">
        <path d="M13.8496237,6.646 L10.2170912,3.11 C10.0170894,2.915 9.69158653,2.915 9.49108474,3.11 C9.29058295,3.305 9.29058295,3.622 9.49108474,3.817 L12.2461093,6.499 L3.65003259,6.499 C3.36653006,6.499 3.136528,6.723 3.136528,6.999 C3.136528,7.275 3.36653006,7.499 3.65003259,7.499 L12.2461093,7.499 L9.49108474,10.181 C9.29058295,10.376 9.29058295,10.693 9.49108474,10.888 C9.69158653,11.083 10.0170894,11.083 10.2170912,10.888 L13.8496237,7.352 C14.0501254,7.158 14.0501254,6.842 13.8496237,6.646 M1.02750917,11.5 L1.02750917,2.5 C1.02750917,1.672 1.71751533,1 2.56852293,1 L9.74558701,1 L9.74558701,0 L2.05501835,0 C0.91950821,0 0,0.895 0,2 L0,12 C0,13.1045 0.91950821,14 2.05501835,14 L9.74558701,14 L9.74558701,13 L2.56852293,13 C1.71651533,13 1.02750917,12.328 1.02750917,11.5" id="退出14" fill="#333333"></path>
    </g>
</svg>