<?xml version="1.0" encoding="UTF-8"?>
<svg width="12px" height="12px" viewBox="0 0 12 12" version="1.1" xmlns="http://www.w3.org/2000/svg" xmlns:xlink="http://www.w3.org/1999/xlink">
    <!-- Generator: Sketch 46.1 (44463) - http://www.bohemiancoding.com/sketch -->
    <title>筛选12</title>
    <desc>Created with Sketch.</desc>
    <defs></defs>
    <g id="【未公示】" stroke="none" stroke-width="1" fill="none" fill-rule="evenodd">
        <path d="M11.934281,0.326038175 C11.8517686,0.12882063 11.6590254,0.000325129899 11.4452429,1.27368837e-05 L0.53463539,1.27368837e-05 C0.319947416,-0.00146922862 0.125494468,0.126485284 0.0419079674,0.324238715 C-0.0416785332,0.521992147 0.00205295604,0.750622554 0.152719885,0.903568947 L3.99186892,5.0242131 L3.99186892,9.97309757 L5.00503948,9.97309757 L5.00503948,5.0242131 C5.00503948,4.70914963 4.88161476,4.46346089 4.78622844,4.36469772 L1.56644085,0.992566375 L10.5273783,0.992566375 L7.21486329,4.36469772 C7.11947698,4.46346089 6.98642376,4.7223027 6.98642376,5.0242131 L6.98642376,11.9912389 L7.98800933,11.9912389 L7.98800933,5.0242131 L11.8318159,0.903568947 C11.977712,0.748529875 12.0179375,0.521804314 11.934281,0.326038175 Z" id="筛选12" fill="#333333" fill-rule="nonzero"></path>
    </g>
</svg>