<?xml version="1.0" encoding="UTF-8"?>
<svg width="16px" height="16px" viewBox="0 0 16 16" version="1.1" xmlns="http://www.w3.org/2000/svg" xmlns:xlink="http://www.w3.org/1999/xlink">
    <!-- Generator: Sketch 46.1 (44463) - http://www.bohemiancoding.com/sketch -->
    <title>信息16</title>
    <desc>Created with Sketch.</desc>
    <defs></defs>
    <g id="【未公示】" stroke="none" stroke-width="1" fill="none" fill-rule="evenodd">
        <g id="【供序章用规范】组件-图标-魏博嘉" transform="translate(-360.000000, -1438.000000)" fill-rule="nonzero" fill="#333333">
            <path d="M368,1439 C364.134418,1439 361,1442.13442 361,1446 C361,1449.86541 364.134515,1453 368,1453 C371.865315,1453 375,1449.86532 375,1446 C375,1442.13452 371.865413,1439 368,1439 Z M368,1438 C372.4176,1438 376,1441.58213 376,1446 C376,1450.4176 372.4176,1454 368,1454 C363.582133,1454 360,1450.4176 360,1446 C360,1441.58213 363.582133,1438 368,1438 Z M367,1444.86667 L367,1449.86667 L369,1449.86667 L369,1444.86667 L367,1444.86667 Z M368,1443.86667 C368.552285,1443.86667 369,1443.41895 369,1442.86667 C369,1442.31438 368.552285,1441.86667 368,1441.86667 C367.447715,1441.86667 367,1442.31438 367,1442.86667 C367,1443.41895 367.447715,1443.86667 368,1443.86667 Z" id="信息16"></path>
        </g>
    </g>
</svg>