<?xml version="1.0" encoding="UTF-8"?>
<svg width="12px" height="12px" viewBox="0 0 12 12" version="1.1" xmlns="http://www.w3.org/2000/svg" xmlns:xlink="http://www.w3.org/1999/xlink">
    <!-- Generator: Sketch 46.1 (44463) - http://www.bohemiancoding.com/sketch -->
    <title>加载12</title>
    <desc>Created with Sketch.</desc>
    <defs></defs>
    <g id="【未公示】" stroke="none" stroke-width="1" fill="none" fill-rule="evenodd">
        <g id="【供序章用规范】组件-图标-魏博嘉" transform="translate(-160.000000, -2342.000000)" fill-rule="nonzero" fill="#000000">
            <g id="加载12" transform="translate(160.000000, 2342.000000)">
                <path d="M10.0422518,8.33484163 C8.85303886,10.2420814 7.24059283,10.8640354 5.77110258,10.8770879 C3.24581742,10.8995183 1.04626662,8.43041785 1.05736321,6 C1.0684598,3.56958215 3.43930934,1.00184624 5.77110258,1.01472314 C7.06400859,1.02186297 8.78042278,1.89023027 9.56678956,2.99864168 C9.78722344,3.32369357 9.9265232,3.56309544 9.98468884,3.71684729 C10.2707537,4.23070815 11.1370087,3.84815065 10.949996,3.27500374 C10.825321,2.8929058 10.5227396,2.41900491 10.0422518,1.85330105 C9.97888201,1.75847294 9.46381973,1.26923077 8.85303886,0.882352941 C7.93358379,0.305429864 6.88277799,0 5.81226958,0 C5.03073276,0 4.26889856,0.156108597 3.55303711,0.475113122 C2.8634458,0.773755656 2.23952986,1.2081448 1.70755942,1.75791855 C1.16902145,2.31447964 0.748699132,2.95248869 0.459727537,3.66515837 C0.15762087,4.40497738 0,5.18552036 0,6 C0,6.80769231 0.151053334,7.59502262 0.459727537,8.33484163 C0.748699132,9.04072398 1.16902145,9.68552036 1.70099189,10.2420814 C2.23296232,10.7918552 2.85031073,11.219457 3.54646957,11.5248869 C4.26233102,11.8371041 5.01759769,12 5.80570204,12 C6.88277799,12 7.94671886,11.6877828 8.86617393,11.0972851 C9.7659264,10.5135747 10.5371957,9.78397614 11.0166258,8.82696256 C11.0998468,8.58100008 10.6518308,7.82608223 10.0422518,8.33484163 Z"></path>
            </g>
        </g>
    </g>
</svg>