<?xml version="1.0" encoding="UTF-8"?>
<svg width="96px" height="96px" viewBox="0 0 96 96" version="1.1" xmlns="http://www.w3.org/2000/svg" xmlns:xlink="http://www.w3.org/1999/xlink">
    <!-- Generator: Sketch 41.1 (35376) - http://www.bohemiancoding.com/sketch -->
    <title>loarding</title>
    <desc>Created with Sketch.</desc>
    <defs></defs>
    <g id="Page-1" stroke="none" stroke-width="1" fill="none" fill-rule="evenodd">
        <g id="Desktop-HD" transform="translate(-672.000000, -1632.000000)" fill="#000000">
            <g id="loarding" transform="translate(672.000000, 1632.000000)">
                <path d="M96,48 C96,21.490332 74.509668,0 48,0 C21.490332,0 0,21.490332 0,48 C0,74.509668 21.490332,96 48,96 C57.517746,96 66.6373522,93.2183377 74.4158451,88.0830376 C77.1812531,86.2573369 77.9430363,82.5355081 76.1173357,79.7701001 C74.291635,77.0046922 70.5698061,76.2429089 67.8043981,78.0686096 C61.9729054,81.9185155 55.1488133,84 48,84 C28.117749,84 12,67.882251 12,48 C12,28.117749 28.117749,12 48,12 C67.882251,12 84,28.117749 84,48 C84,51.3137085 86.6862915,54 90,54 C93.3137085,54 96,51.3137085 96,48 Z" id="Oval-2"></path>
            </g>
        </g>
    </g>
</svg>