<?xml version="1.0" encoding="UTF-8"?>
<svg width="24px" height="24px" viewBox="0 0 24 24" version="1.1" xmlns="http://www.w3.org/2000/svg" xmlns:xlink="http://www.w3.org/1999/xlink">
    <!-- Generator: Sketch 46.1 (44463) - http://www.bohemiancoding.com/sketch -->
    <title>服务市场</title>
    <desc>Created with Sketch.</desc>
    <defs></defs>
    <g id="【未公示】" stroke="none" stroke-width="1" fill="none" fill-rule="evenodd">
        <path d="M4.28879781,6 C4.49478143,5.2170799 4.87924411,4.27689165 5.51383173,3.33535085 C6.9174319,1.25282234 9.08566338,0 12.0882256,0 C15.0955721,0 17.2399709,1.25819792 18.5949842,3.35039043 C19.2009103,4.28596363 19.5607467,5.21934109 19.7485139,6 L22.9993054,6 C23.5519738,6 24,6.44494629 24,6.99339768 L24,23.0066023 C24,23.5552407 23.5525308,24 22.9993054,24 L1.00069463,24 C0.448026248,24 0,23.5550537 0,23.0066023 L0,6.99339768 C0,6.44475929 0.44746922,6 1.00069463,6 L4.28879781,6 Z M6.15870789,6 L17.8950853,6 C17.7223732,5.48808617 17.486194,4.98025648 17.1778799,4.50420767 C16.1483392,2.91455732 14.5276676,1.96364953 12.0882256,1.96364953 C9.64399945,1.96364953 7.9889813,2.9199329 6.9110619,4.51924725 C6.59310372,4.99100338 6.34490854,5.49341275 6.15870789,6 Z M2,9.00684547 L2,20.9931545 C2,21.5500512 2.44404538,22 2.99180311,22 L21.0081969,22 C21.5446944,22 22,21.5492199 22,20.9931545 L22,9.00684547 C22,8.44994876 21.5559546,8 21.0081969,8 L2.99180311,8 C2.45530558,8 2,8.45078007 2,9.00684547 Z M6,10 L8,10 L8,12 L6,12 L6,10 Z M16,10 L18,10 L18,12 L16,12 L16,10 Z" id="服务市场" fill="#333333"></path>
    </g>
</svg>