<?xml version="1.0" encoding="UTF-8"?>
<svg width="14px" height="14px" viewBox="0 0 14 14" version="1.1" xmlns="http://www.w3.org/2000/svg" xmlns:xlink="http://www.w3.org/1999/xlink">
    <!-- Generator: Sketch 46.1 (44463) - http://www.bohemiancoding.com/sketch -->
    <title>更多14</title>
    <desc>Created with Sketch.</desc>
    <defs></defs>
    <g id="【未公示】" stroke="none" stroke-width="1" fill="none" fill-rule="evenodd">
        <path d="M9.5451,6.3437 C9.1936,6.3437 8.9091,6.6377 8.9091,6.9997 C8.9091,7.3627 9.1936,7.6562 9.5451,7.6562 C9.8966,7.6562 10.1811,7.3627 10.1811,6.9997 C10.1811,6.6377 9.8966,6.3437 9.5451,6.3437 M6.9996,6.3437 C6.6481,6.3437 6.3636,6.6377 6.3636,6.9997 C6.3636,7.3627 6.6481,7.6562 6.9996,7.6562 C7.3511,7.6562 7.6361,7.3627 7.6361,6.9997 C7.6361,6.6377 7.3511,6.3437 6.9996,6.3437 M4.4541,6.3437 C4.1026,6.3437 3.8181,6.6377 3.8181,6.9997 C3.8181,7.3627 4.1026,7.6562 4.4541,7.6562 C4.8056,7.6562 5.0906,7.3627 5.0906,6.9997 C5.0906,6.6377 4.8056,6.3437 4.4541,6.3437 M6.9996,13.2007 C3.5801,13.2007 0.7986,10.4192 0.7986,6.9997 C0.7986,3.5807 3.5801,0.7992 6.9996,0.7992 C10.4191,0.7992 13.2006,3.5807 13.2006,6.9997 C13.2006,10.4192 10.4191,13.2007 6.9996,13.2007 M6.9996,0.0002 C3.1401,0.0002 -0.000400000004,3.1407 -0.000400000004,6.9997 C-0.000400000004,10.8597 3.1401,13.9997 6.9996,13.9997 C10.8591,13.9997 13.9996,10.8597 13.9996,6.9997 C13.9996,3.1407 10.8591,0.0002 6.9996,0.0002" id="更多14" fill="#333333"></path>
    </g>
</svg>