<?xml version="1.0" encoding="UTF-8"?>
<svg width="12px" height="12px" viewBox="0 0 12 12" version="1.1" xmlns="http://www.w3.org/2000/svg" xmlns:xlink="http://www.w3.org/1999/xlink">
  <title>pin</title>
  <path fill="#000" d="M5.067 4.733L6.353 3.2c.888-1.057 2.464-1.195 3.522-.307 1.058.887 1.196 2.464.308 3.522L8.255 8.713 7.49 8.07l1.927-2.298c.533-.635.45-1.58-.185-2.113-.634-.54-1.58-.45-2.113.18l-1.93 2.3-.77-.65.64-.768.64-.766.765.643L4.54 6.9c-.18.21-.15.527.06.704.21.177.526.15.704-.063l2.232-2.66.766.645L6.08 8.19c-.534.636-1.48.72-2.114.186-.635-.533-.718-1.48-.185-2.114L5.07 4.73zm3.707 1.805l.766.643-1.928 2.3c-1.242 1.48-3.45 1.68-4.93.43C1.2 8.67 1.006 6.46 2.25 4.98l2.896-3.452.766.643-2.896 3.46c-.888 1.06-.75 2.638.308 3.525s2.635.75 3.522-.31l1.928-2.3z"/>
</svg>
