<?xml version="1.0" encoding="UTF-8"?>
<svg width="12px" height="12px" viewBox="0 0 12 12" version="1.1" xmlns="http://www.w3.org/2000/svg" xmlns:xlink="http://www.w3.org/1999/xlink">
    <!-- Generator: Sketch 46.1 (44463) - http://www.bohemiancoding.com/sketch -->
    <title>重做</title>
    <desc>Created with Sketch.</desc>
    <defs></defs>
    <g id="Page-1" stroke="none" stroke-width="1" fill="none" fill-rule="evenodd">
        <g id="图标" transform="translate(-1105.000000, -68.000000)" fill-rule="nonzero" fill="#000000">
            <g id="重做" transform="translate(1105.000000, 68.000000)">
                <path d="M10.1583557,8.09881592 C9.44030762,9.45925903 7.27562683,10.4724989 5.80861467,10.4851074 C3.28758806,10.5067749 0.919372559,8.10327148 0.930450439,5.75552368 C0.94152832,3.40777588 3.4396561,0.907330398 5.76751709,0.919769287 C7.0582428,0.92666626 9.15856934,2.0512085 10.0314636,3.00009155 L8.14271478,3.0703125 C7.98535972,3.0703125 7.78900146,3.18850708 7.78793335,3.48486328 C7.78686523,3.78121948 7.98535972,3.96725464 8.14271478,3.96725464 L10.6400146,3.96725464 C11.0653687,3.96725464 10.9816624,3.48486328 10.9816624,3.25016065 L10.9816624,0.706253783 C10.9816624,0.548898719 10.7243042,0.332275391 10.5019226,0.336669922 C10.279541,0.341064453 10.0314636,0.548898719 10.0314636,0.706253783 L9.99588013,1.80099487 C9.93261719,1.70939232 9.45400698,1.23732712 8.84425611,0.863608847 C7.92635157,0.306309662 6.87731781,0.0112689173 5.80861467,0.0112689173 C5.02839581,0.0112689173 4.26784633,0.16206752 3.55319208,0.470221187 C2.86476368,0.758705471 2.24189988,1.17831898 1.71082654,1.70939232 C1.17319674,2.24702212 0.753583236,2.86332945 0.465098952,3.55175786 C0.163501746,4.26641211 0.00614668219,5.02040512 0.00614668219,5.80718044 C0.00614668219,6.5873993 0.156945285,7.34794878 0.465098952,8.06260303 C0.753583236,8.74447497 1.17319674,9.36733877 1.70427008,9.90496857 C2.23534342,10.4360419 2.85165076,10.849099 3.54663562,11.1441397 C4.26128987,11.4457369 5.01528289,11.603092 5.80205821,11.603092 C6.87731781,11.603092 7.93946449,11.3014948 8.85736903,10.7310827 C9.75560419,10.167227 10.4768149,9.38700815 10.9554366,8.46254715 C11.0275576,8.31830501 10.8936776,8.09472978 10.7494354,8.01605225 C10.5682526,7.92614746 10.2423859,7.95652771 10.1583557,8.09881592 Z" id="Shape"></path>
            </g>
        </g>
    </g>
</svg>