<?xml version="1.0" encoding="UTF-8"?>
<svg width="12px" height="12px" viewBox="0 0 12 12" version="1.1" xmlns="http://www.w3.org/2000/svg" xmlns:xlink="http://www.w3.org/1999/xlink">
    <!-- Generator: Sketch 46.1 (44463) - http://www.bohemiancoding.com/sketch -->
    <title>重试12</title>
    <desc>Created with Sketch.</desc>
    <defs></defs>
    <g id="【未公示】" stroke="none" stroke-width="1" fill="none" fill-rule="evenodd">
        <g id="【供序章用规范】组件-图标-魏博嘉" transform="translate(-160.000000, -1442.000000)" fill-rule="nonzero" fill="#000000">
            <g id="重试12" transform="translate(160.000000, 1442.000000)">
                <path d="M10.6197061,8.31447964 C10.5474632,8.34162896 10.2021959,8.30445636 10.1693583,8.37232967 C9.45009722,9.78067737 7.28175983,10.8295959 5.81226958,10.8426484 C3.28698442,10.8650789 0.914768507,8.37694212 0.925865101,5.94652428 C0.936961695,3.51610643 3.43930934,0.927614037 5.77110258,0.94049093 C7.06400859,0.947630762 9.16788303,2.11177093 10.0422518,3.09406652 L8.15031248,3.16676012 C7.99269161,3.16676012 7.78377401,3.55631661 7.78377401,3.71921254 C7.78377401,3.88210847 7.99269161,4.09528583 8.15031248,4.09528583 L10.6518308,4.09528583 C10.8094517,4.09528583 10.9940557,3.5158371 10.9940557,3.35294118 L10.9940557,0.719457014 C10.9940557,0.556561086 10.8561374,0.414027149 10.6985165,0.414027149 C10.5408957,0.414027149 10.0422518,0.556561086 10.0422518,0.719457014 L10.0066082,1.85274666 C9.94323841,1.75791855 9.46381973,1.26923077 8.85303886,0.882352941 C7.93358379,0.305429864 6.88277799,0 5.81226958,0 C5.03073276,0 4.26889856,0.156108597 3.55303711,0.475113122 C2.8634458,0.773755656 2.23952986,1.2081448 1.70755942,1.75791855 C1.16902145,2.31447964 0.748699132,2.95248869 0.459727537,3.66515837 C0.15762087,4.40497738 0,5.18552036 0,6 C0,6.80769231 0.151053334,7.59502262 0.459727537,8.33484163 C0.748699132,9.04072398 1.16902145,9.68552036 1.70099189,10.2420814 C2.23296232,10.7918552 2.85031073,11.219457 3.54646957,11.5248869 C4.26233102,11.8371041 5.01759769,12 5.80570204,12 C6.88277799,12 7.94671886,11.6877828 8.86617393,11.0972851 C9.7659264,10.5135747 10.4883554,9.70588235 10.9677855,8.74886878 C11.0400284,8.59954751 10.9874881,8.41628959 10.8430023,8.33484163 C10.7707594,8.29411765 10.691949,8.28733032 10.6197061,8.31447964 Z"></path>
            </g>
        </g>
    </g>
</svg>