<?xml version="1.0" encoding="UTF-8"?>
<svg width="14px" height="14px" viewBox="0 0 14 14" version="1.1" xmlns="http://www.w3.org/2000/svg" xmlns:xlink="http://www.w3.org/1999/xlink">
    <!-- Generator: Sketch 46.1 (44463) - http://www.bohemiancoding.com/sketch -->
    <title>搜索14</title>
    <desc>Created with Sketch.</desc>
    <defs></defs>
    <g id="【未公示】" stroke="none" stroke-width="1" fill="none" fill-rule="evenodd">
        <path d="M13.7602398,13.5787276 C13.350679,13.9977313 13.3237403,14.1874676 12.7972609,13.7528906 L10.3269222,11.5085118 C9.50451899,12.5351348 7.65099889,12.8749806 6.29216139,12.8749806 C2.81767821,12.8749806 0,9.99233811 0,6.43723325 C0,2.88212839 2.81767821,0 6.29216139,0 C9.76714709,0 12.5848253,2.88212839 12.5848253,6.43723325 C12.5848253,7.82740007 11.8918049,9.74062331 11.1290281,10.4772691 L13.6024213,12.6387445 C14.0124846,13.0577482 14.1703032,13.1602381 13.7602398,13.5787276 Z M6.29211232,1.30735759 C3.52309335,1.30735759 1.27844609,3.60437187 1.27844609,6.43723325 C1.27844609,9.27009464 3.52309335,11.5671089 6.29211232,11.5671089 C9.0611313,11.5671089 11.3063792,9.27009464 11.3063792,6.43723325 C11.3063792,3.60437187 9.0611313,1.30735759 6.29211232,1.30735759 Z" id="搜索14" fill="#333333"></path>
    </g>
</svg>