<?xml version="1.0" encoding="UTF-8"?>
<svg width="14px" height="14px" viewBox="0 0 14 14" version="1.1" xmlns="http://www.w3.org/2000/svg" xmlns:xlink="http://www.w3.org/1999/xlink">
    <!-- Generator: Sketch 46.1 (44463) - http://www.bohemiancoding.com/sketch -->
    <title>收起14</title>
    <desc>Created with Sketch.</desc>
    <defs></defs>
    <g id="【未公示】" stroke="none" stroke-width="1" fill="none" fill-rule="evenodd">
        <g id="【供序章用规范】组件-图标-魏博嘉" transform="translate(-260.000000, -1040.000000)" fill="#333333">
            <g id="收起14" transform="translate(260.000000, 1040.000000)">
                <path d="M1.90493156,7.5 L3.56579803,9.16086647 L2.85869125,9.86797325 L0.722238845,7.73152084 L0.707106781,7.74665291 L-1.84297022e-13,7.03954613 L0.0151320641,7.02441406 L-1.84297022e-13,7.009282 L0.707106781,6.30217522 L0.722238845,6.31730728 L2.85869125,4.18085487 L3.56579803,4.88796165 L1.95375969,6.5 L13.9999976,6.5 L13.9999976,7.5 L1.90493156,7.5 Z M5.91439777,1.5 L13.9999976,1.5 L13.9999976,2.5 L5.91439777,2.5 L5.91439777,1.5 Z M5.91439777,11.5 L13.9999976,11.5 L13.9999976,12.5 L5.91439777,12.5 L5.91439777,11.5 Z"></path>
            </g>
        </g>
    </g>
</svg>