<?xml version="1.0" encoding="UTF-8"?>
<svg width="20px" height="22px" viewBox="0 0 20 22" version="1.1" xmlns="http://www.w3.org/2000/svg" xmlns:xlink="http://www.w3.org/1999/xlink">
    <!-- Generator: Sketch 46.1 (44463) - http://www.bohemiancoding.com/sketch -->
    <title>置顶特殊</title>
    <desc>Created with Sketch.</desc>
    <defs></defs>
    <g id="【未公示】" stroke="none" stroke-width="1" fill="none" fill-rule="evenodd">
        <path d="M9,18.5857864 L9,4 L11,4 L11,18.4852814 L18.4852814,11 L19.8994949,12.4142136 L10.9230682,21.3906403 C10.7727944,21.7485887 10.418129,22 10,22 C9.82250664,22 9.65581376,21.9540436 9.51131168,21.8734646 L9.48528137,21.8994949 L9.32794827,21.7421618 C9.30243025,21.7191386 9.27811552,21.694824 9.25510821,21.6693218 L-6.66133815e-16,12.4142136 L1.41421356,11 L9,18.5857864 Z M2,0 L18,0 L18,2 L2,2 L2,0 Z" id="置顶特殊" fill="#333333" transform="translate(9.949747, 11.000000) scale(1, -1) translate(-9.949747, -11.000000) "></path>
    </g>
</svg>