<?xml version="1.0" encoding="UTF-8"?>
<svg width="14px" height="14px" viewBox="0 0 14 14" version="1.1" xmlns="http://www.w3.org/2000/svg" xmlns:xlink="http://www.w3.org/1999/xlink">
    <!-- Generator: Sketch 46.1 (44463) - http://www.bohemiancoding.com/sketch -->
    <title>上传14</title>
    <desc>Created with Sketch.</desc>
    <defs></defs>
    <g id="【未公示】" stroke="none" stroke-width="1" fill="none" fill-rule="evenodd">
        <path d="M7.50215122,1.38827462 L7.50215122,10.8000002 L6.50215122,10.8000002 L6.50215122,1.44759625 L3.70710678,4.24264069 L3,3.53553391 L6.50215122,0.0333826858 L6.50215122,0 L7.50215122,0 L7.50215122,0.0400085747 L7.53512498,0.00703481478 L11.0706589,3.54256872 L10.3635521,4.2496755 L7.50215122,1.38827462 Z M0.874257483,8 L0.874257483,13 L13.1138622,13 L13.1138622,8 L13.1162183,8 C14.1680604,8 13.9883424,8.33977723 13.9883424,8.7477726 L13.9883424,13.2522274 C13.9883424,13.6652108 13.5996205,14 13.1133229,14 L0.875242206,14 C0.39198226,14 0.000222669318,13.6602228 0.000222669318,13.2522274 L0.000222669318,8.7477726 C0.000222669318,8.3347892 -0.0375565237,8 0.871074802,8 L0.874257483,8 Z" id="上传14" fill="#333333"></path>
    </g>
</svg>