<?xml version="1.0" encoding="UTF-8"?>
<svg width="96px" height="96px" viewBox="0 0 96 96" version="1.1" xmlns="http://www.w3.org/2000/svg" xmlns:xlink="http://www.w3.org/1999/xlink">
    <!-- Generator: Sketch 41.1 (35376) - http://www.bohemiancoding.com/sketch -->
    <title>upload-left</title>
    <desc>Created with Sketch.</desc>
    <defs></defs>
    <g id="Page-1" stroke="none" stroke-width="1" fill="none" fill-rule="evenodd">
        <g id="Desktop-HD" transform="translate(-96.000000, -672.000000)" fill="#000000">
            <g id="upload-left" transform="translate(144.000000, 720.000000) scale(-1, -1) translate(-144.000000, -720.000000) translate(96.000000, 672.000000)">
                <path d="M42.8562677,93.1124429 C44.4709473,94.640625 45.8053314,96 48,96 C49.8532744,96 51.8308291,94.8677757 52.931437,93.5538444 C53.0412226,93.459398 69.9802512,76.5050301 69.9802512,76.5050301 C72.3017886,74.1834929 72.6453707,70.089399 70.2858887,67.7299172 C67.9427435,65.3867717 64.0560703,65.4397281 61.7658805,67.7299172 L54.0062256,76.0786232 L54,35.973465 C54,32.6744112 51.3368111,30 48,30 C44.6862915,30 42,32.669022 42,35.973465 L41.9593506,76.0786232 L34.3077294,67.5933419 C32.0327148,65.3432617 27.8120102,65.4574563 25.6494141,67.5933419 C23.4868179,69.7292275 23.5322587,73.788434 25.822448,76.0786232 L42.8562677,93.1124429 Z M96,35.8707275 C96,39.184436 93.3137082,41.8707275 90,41.8707275 C86.6862918,41.8707275 84,39.184436 84,35.8707275 L84,17.9774538 C84,14.6918674 81.300264,12 78.0110898,12 L17.9066162,12 C14.5883462,12 12.1036377,14.6646723 12.1036377,17.9774538 L12.1036377,35.8707275 C12.1036377,39.184436 9.35582274,41.8707275 6.04211424,41.8707275 C2.72840576,41.8707275 0,39.184436 0,35.8707275 L0,17.9774538 C0,8.03123802 7.96693164,1.42108547e-14 17.9066162,1.42108547e-14 L78.0110898,1.95399252e-14 C87.9198522,1.95399252e-14 96,8.05659678 96,17.9774538 L96,35.8707275 Z" id="Combined-Shape" transform="translate(48.000000, 48.000000) scale(-1, 1) rotate(90.000000) translate(-48.000000, -48.000000) "></path>
            </g>
        </g>
    </g>
</svg>