<?xml version="1.0" encoding="UTF-8"?>
<svg width="14px" height="14px" viewBox="0 0 14 14" version="1.1" xmlns="http://www.w3.org/2000/svg" xmlns:xlink="http://www.w3.org/1999/xlink">
    <!-- Generator: Sketch 46.1 (44463) - http://www.bohemiancoding.com/sketch -->
    <title>账户14</title>
    <desc>Created with Sketch.</desc>
    <defs></defs>
    <g id="【未公示】" stroke="none" stroke-width="1" fill="none" fill-rule="evenodd">
        <path d="M6.9997,6.7385 C6.0832,6.7385 5.3402,5.9955 5.3402,5.0785 C5.3402,4.162 6.0832,3.419 6.9997,3.419 C7.9162,3.419 8.6592,4.162 8.6592,5.0785 C8.6592,5.9955 7.9167,6.7385 6.9997,6.7385 M8.3632,7.1185 C9.0207,6.6785 9.4537,5.9295 9.4537,5.0785 C9.4537,3.7235 8.3552,2.625 6.9997,2.625 C5.6447,2.625 4.5462,3.7235 4.5462,5.0785 C4.5462,5.9295 4.9792,6.6785 5.6367,7.1185 C4.2567,7.6625 3.2797,9.007 3.2797,10.5805 L3.2797,10.589 L3.2797,10.5915 C3.2797,10.8065 3.4537,10.9805 3.6682,10.9805 C3.8832,10.9805 4.0572,10.8065 4.0572,10.5915 C4.0572,10.587 4.0557,10.582 4.0557,10.5775 C4.0572,8.953 5.3747,7.636 6.9997,7.636 C8.6257,7.636 9.9442,8.9545 9.9442,10.5805 C9.9442,10.582 9.9457,10.7175 10.0012,10.8035 C10.0732,10.914 10.2137,10.9805 10.3337,10.9805 C10.5472,10.9805 10.7202,10.8075 10.7202,10.5935 C10.7202,10.593 10.7197,10.5925 10.7197,10.5915 C10.7197,10.5875 10.7202,10.584 10.7202,10.5805 C10.7202,9.007 9.7427,7.6625 8.3632,7.1185 M6.9997,13.2005 C3.5802,13.2005 0.7992,10.419 0.7992,7 C0.7992,3.5805 3.5802,0.799 6.9997,0.799 C10.4192,0.799 13.2007,3.5805 13.2007,7 C13.2007,10.419 10.4192,13.2005 6.9997,13.2005 M6.9997,0 C3.1402,0 0.000200000002,3.1405 0.000200000002,7 C0.000200000002,10.8595 3.1402,13.9995 6.9997,13.9995 C10.8597,13.9995 13.9997,10.8595 13.9997,7 C13.9997,3.1405 10.8597,0 6.9997,0" id="账户14" fill="#333333"></path>
    </g>
</svg>