<?xml version="1.0" encoding="UTF-8"?>
<svg width="14px" height="14px" viewBox="0 0 14 14" version="1.1" xmlns="http://www.w3.org/2000/svg" xmlns:xlink="http://www.w3.org/1999/xlink">
    <!-- Generator: Sketch 46.1 (44463) - http://www.bohemiancoding.com/sketch -->
    <title>可见14</title>
    <desc>Created with Sketch.</desc>
    <defs></defs>
    <g id="【未公示】" stroke="none" stroke-width="1" fill="none" fill-rule="evenodd">
        <g id="【供序章用规范】组件-图标-魏博嘉" transform="translate(-260.000000, -790.000000)" fill-rule="nonzero" fill="#333333">
            <g id="可见14" transform="translate(260.000000, 790.000000)">
                <path d="M7,11.5 C9.7570683,11.5 12.1613599,9.65235114 12.9897077,7 C12.1613599,4.34764886 9.7570683,2.5 7,2.5 C4.2429317,2.5 1.83864012,4.34764886 1.01029228,7 C1.83864012,9.65235114 4.2429317,11.5 7,11.5 Z M7,1.5 C10.3396176,1.5 13.152643,3.82881299 14,7 C13.152643,10.171187 10.3396176,12.5 7,12.5 C3.66038237,12.5 0.847356974,10.171187 4.40257615e-13,7 C0.847356974,3.82881299 3.66038237,1.5 7,1.5 Z M7.03864349,9.5 C8.37536138,9.5 9.45898533,8.38071187 9.45898533,7 C9.45898533,5.61928813 8.37536138,4.5 7.03864349,4.5 C5.70192561,4.5 4.61830166,5.61928813 4.61830166,7 C4.61830166,8.38071187 5.70192561,9.5 7.03864349,9.5 Z M7.03864349,8.5 C6.23661276,8.5 5.58643839,7.82842712 5.58643839,7 C5.58643839,6.17157288 6.23661276,5.5 7.03864349,5.5 C7.84067422,5.5 8.49084859,6.17157288 8.49084859,7 C8.49084859,7.82842712 7.84067422,8.5 7.03864349,8.5 Z"></path>
            </g>
        </g>
    </g>
</svg>