<?xml version="1.0" encoding="UTF-8"?>
<svg width="96px" height="96px" viewBox="0 0 96 96" version="1.1" xmlns="http://www.w3.org/2000/svg" xmlns:xlink="http://www.w3.org/1999/xlink">
    <!-- Generator: Sketch 41.1 (35376) - http://www.bohemiancoding.com/sketch -->
    <title>arrow-l-up</title>
    <desc>Created with Sketch.</desc>
    <defs></defs>
    <g id="Page-1" stroke="none" stroke-width="1" fill="none" fill-rule="evenodd">
        <g id="Desktop-HD" transform="translate(-288.000000, -864.000000)" fill="#000000">
            <g id="arrow-l-up" transform="translate(336.000000, 912.000000) scale(-1, 1) translate(-336.000000, -912.000000) translate(288.000000, 864.000000)">
                <path d="M22.7573593,67.7573592 L42.5147186,48 L22.7573593,28.2426407 C20.4142136,25.8994949 20.4142136,22.1005051 22.7573593,19.7573593 C25.1005051,17.4142136 28.8994949,17.4142136 31.2426407,19.7573593 L55.2426407,43.7573593 C57.5857864,46.1005051 57.5857864,49.8994949 55.2426407,52.2426407 L31.2426407,76.2426408 C28.8994949,78.5857866 25.1005051,78.5857866 22.7573593,76.2426408 C20.4142136,73.899495 20.4142136,70.100505 22.7573593,67.7573592 Z M63,23.9628765 C63,20.6696707 65.6862918,18 69,18 C72.3137082,18 75,20.6696707 75,23.9628765 L75,72.0371238 C75,75.3303294 72.3137082,78 69,78 C65.6862918,78 63,75.3303294 63,72.0371238 L63,23.9628765 Z" id="Combined-Shape" transform="translate(48.000000, 48.000000) scale(1, -1) rotate(90.000000) translate(-48.000000, -48.000000) "></path>
            </g>
        </g>
    </g>
</svg>