<?xml version="1.0" encoding="UTF-8"?>
<svg width="96px" height="96px" viewBox="0 0 96 96" version="1.1" xmlns="http://www.w3.org/2000/svg" xmlns:xlink="http://www.w3.org/1999/xlink">
    <!-- Generator: Sketch 41.1 (35376) - http://www.bohemiancoding.com/sketch -->
    <title>calendar</title>
    <desc>Created with Sketch.</desc>
    <defs></defs>
    <g id="Page-1" stroke="none" stroke-width="1" fill="none" fill-rule="evenodd">
        <g id="Desktop-HD" transform="translate(-480.000000, -1632.000000)" fill="#000000">
            <g id="calendar" transform="translate(480.000000, 1632.000000)">
                <path d="M72,12 L77.9851602,12 C87.9133026,12 96,20.0853939 96,29.9723854 L96,78.0276144 C96,87.9713274 87.8755998,96 77.9851602,96 L18.0148397,96 C8.08669728,96 0,87.9146064 0,78.0276144 L0,29.9723854 C0,20.0286726 8.12440044,12 18.0148397,12 L24,12 L24,5.99884495 C24,2.68577437 26.6631889,0 30,0 C33.3137085,0 36,2.66229987 36,5.99884495 L36,12 L60,12 L60,5.99884495 C60,2.68577437 62.6631888,0 66,0 C69.3137082,0 72,2.66229987 72,5.99884495 L72,12 Z M72,24.0011551 C72,27.3142256 69.3368112,30 66,30 C62.6862918,30 60,27.3377001 60,24.0011551 L36,24 C36,27.3142256 33.3368111,30 30,30 C26.6862915,30 24,27.3377001 24,24.0011551 L18.0148397,24 C14.7345658,24 12,26.673928 12,29.9723854 L12,78.0276144 C12,81.2660136 14.6929355,84 18.0148397,84 L77.9851602,84 C81.265434,84 84,81.3260718 84,78.0276144 L84,29.9723854 C84,26.7339864 81.3070644,24 77.9851602,24 L72,24 L72,24.0011551 Z M60,12 L60,24 L54,24 L54,12 L60,12 Z M72,12 L72,24 L78,24 L78,12 L72,12 Z M24,12 L18,12 L18,24 L24,24 L24,12 Z M36,12 L42,12 L42,24 L36,24 L36,12 Z M30,54 C26.6862915,54 24,51.3137085 24,48 C24,44.6862915 26.6862915,42 30,42 C33.3137085,42 36,44.6862915 36,48 C36,51.3137085 33.3137085,54 30,54 Z M30,72 C26.6862915,72 24,69.3137082 24,66 C24,62.6862918 26.6862915,60 30,60 C33.3137085,60 36,62.6862918 36,66 C36,69.3137082 33.3137085,72 30,72 Z M48,54 C44.6862915,54 42,51.3137085 42,48 C42,44.6862915 44.6862915,42 48,42 C51.3137085,42 54,44.6862915 54,48 C54,51.3137085 51.3137085,54 48,54 Z M48,72 C44.6862915,72 42,69.3137082 42,66 C42,62.6862918 44.6862915,60 48,60 C51.3137085,60 54,62.6862918 54,66 C54,69.3137082 51.3137085,72 48,72 Z M66,54 C62.6862918,54 60,51.3137085 60,48 C60,44.6862915 62.6862918,42 66,42 C69.3137082,42 72,44.6862915 72,48 C72,51.3137085 69.3137082,54 66,54 Z M66,72 C62.6862918,72 60,69.3137082 60,66 C60,62.6862918 62.6862918,60 66,60 C69.3137082,60 72,62.6862918 72,66 C72,69.3137082 69.3137082,72 66,72 Z" id="Shape"></path>
            </g>
        </g>
    </g>
</svg>