<?xml version="1.0" encoding="UTF-8"?>
<svg width="96px" height="96px" viewBox="0 0 96 96" version="1.1" xmlns="http://www.w3.org/2000/svg" xmlns:xlink="http://www.w3.org/1999/xlink">
    <!-- Generator: Sketch 41.1 (35376) - http://www.bohemiancoding.com/sketch -->
    <title>solid_minus</title>
    <desc>Created with Sketch.</desc>
    <defs></defs>
    <g id="Page-1" stroke="none" stroke-width="1" fill="none" fill-rule="evenodd">
        <g id="Desktop-HD" transform="translate(-480.000000, -96.000000)" fill="#000000">
            <g id="solid_minus" transform="translate(480.000000, 96.000000)">
                <path d="M48,96 C21.490332,96 0,74.509668 0,48 C0,21.490332 21.490332,0 48,0 C74.509668,0 96,21.490332 96,48 C96,74.509668 74.509668,96 48,96 Z M29.9821808,42 C26.6783136,42 24,44.6631889 24,48 C24,51.3137085 26.7182179,54 29.9821808,54 L66.0178194,54 C69.3216864,54 72,51.3368111 72,48 C72,44.6862915 69.2817822,42 66.0178194,42 L29.9821808,42 Z" id="Combined-Shape"></path>
            </g>
        </g>
    </g>
</svg>