<?xml version="1.0" encoding="UTF-8"?>
<svg width="12px" height="12px" viewBox="0 0 12 12" version="1.1" xmlns="http://www.w3.org/2000/svg" xmlns:xlink="http://www.w3.org/1999/xlink">
    <!-- Generator: Sketch 46.1 (44463) - http://www.bohemiancoding.com/sketch -->
    <title>pin</title>
    <desc>Created with Sketch.</desc>
    <defs></defs>
    <g id="Page-1" stroke="none" stroke-width="1" fill="none" fill-rule="evenodd">
        <g id="图标" transform="translate(-966.000000, -68.000000)">
            <g id="Group-3" transform="translate(966.000000, 68.000000)">
                <rect id="Rectangle-9" x="0" y="0" width="12" height="12"></rect>
                <path d="M4.3950936,5.57997885 L4.3950936,3.57997885 C4.3950936,2.19926697 5.51438172,1.07997885 6.8950936,1.07997885 C8.27580547,1.07997885 9.3950936,2.19926697 9.3950936,3.57997885 L9.3950936,6.57997885 L8.3950936,6.57997885 L8.3950936,3.57997885 C8.3950936,2.75155172 7.72352072,2.07997885 6.8950936,2.07997885 C6.06666647,2.07997885 5.3950936,2.75155172 5.3950936,3.57997885 L5.3950936,6.57997885 L4.3950936,6.57997885 L4.3950936,5.57997885 L4.3950936,4.57997885 L5.3950936,4.57997885 L5.3950936,7.57997885 C5.3950936,7.85612122 5.61895122,8.07997885 5.8950936,8.07997885 C6.17123597,8.07997885 6.3950936,7.85612122 6.3950936,7.57997885 L6.3950936,4.10500326 L7.3950936,4.10500326 L7.3950936,7.57997885 C7.3950936,8.40840597 6.72352072,9.07997885 5.8950936,9.07997885 C5.06666647,9.07997885 4.3950936,8.40840597 4.3950936,7.57997885 L4.3950936,5.57997885 Z M8.3950936,4.57997885 L9.3950936,4.57997885 L9.3950936,7.57997885 C9.3950936,9.51297547 7.82809022,11.0799788 5.8950936,11.0799788 C3.96209697,11.0799788 2.3950936,9.51297547 2.3950936,7.57997885 L2.3950936,3.07497397 L3.3950936,3.07497397 L3.3950936,7.57997885 C3.3950936,8.96069072 4.51438172,10.0799788 5.8950936,10.0799788 C7.27580547,10.0799788 8.3950936,8.96069072 8.3950936,7.57997885 L8.3950936,4.57997885 Z" id="Combined-Shape" fill="#333333" fill-rule="nonzero" transform="translate(5.895094, 6.079979) rotate(40.000000) translate(-5.895094, -6.079979) "></path>
            </g>
        </g>
    </g>
</svg>