<?xml version="1.0" encoding="UTF-8"?>
<svg width="96px" height="96px" viewBox="0 0 96 96" version="1.1" xmlns="http://www.w3.org/2000/svg" xmlns:xlink="http://www.w3.org/1999/xlink">
    <!-- Generator: Sketch 41.1 (35376) - http://www.bohemiancoding.com/sketch -->
    <title>plus</title>
    <desc>Created with Sketch.</desc>
    <defs></defs>
    <g id="Page-1" stroke="none" stroke-width="1" fill="none" fill-rule="evenodd">
        <g id="Desktop-HD" transform="translate(-96.000000, -1248.000000)" fill="#000000">
            <g id="plus" transform="translate(96.000000, 1248.000000)">
                <path d="M54,54 L83.958927,54 C87.3003072,54 90,51.3137085 90,48 C90,44.6631889 87.2953194,42 83.958927,42 L54,42 L54,12.0410728 C54,8.70468042 51.3368111,6 48,6 C44.6862915,6 42,8.69969256 42,12.0410728 L42,42 L12.0410728,42 C8.69969256,42 6,44.6862915 6,48 C6,51.3368111 8.70468042,54 12.0410728,54 L42,54 L42,83.958927 C42,87.2953194 44.6631889,90 48,90 C51.3137085,90 54,87.3003072 54,83.958927 L54,54 Z" id="Combined-Shape"></path>
            </g>
        </g>
    </g>
</svg>