<?xml version="1.0" encoding="UTF-8"?>
<svg width="96px" height="96px" viewBox="0 0 96 96" version="1.1" xmlns="http://www.w3.org/2000/svg" xmlns:xlink="http://www.w3.org/1999/xlink">
    <!-- Generator: Sketch 41.1 (35376) - http://www.bohemiancoding.com/sketch -->
    <title>plus_s</title>
    <desc>Created with Sketch.</desc>
    <defs></defs>
    <g id="Page-1" stroke="none" stroke-width="1" fill="none" fill-rule="evenodd">
        <g id="Desktop-HD" transform="translate(-1056.000000, -1248.000000)" fill="#000000">
            <g id="plus_s" transform="translate(1056.000000, 1248.000000)">
                <path d="M54,54 L72.0276144,54 C75.2660136,54 78,51.3137085 78,48 C78,44.6631889 75.3260718,42 72.0276144,42 L54,42 L54,23.9723854 C54,20.673928 51.3368111,18 48,18 C44.6862915,18 42,20.7339864 42,23.9723854 L42,42 L23.9723854,42 C20.7339864,42 18,44.6862915 18,48 C18,51.3368111 20.673928,54 23.9723854,54 L42,54 L42,72.0276144 C42,75.3260718 44.6631889,78 48,78 C51.3137085,78 54,75.2660136 54,72.0276144 L54,54 Z" id="Combined-Shape"></path>
            </g>
        </g>
    </g>
</svg>
