<?xml version="1.0" encoding="UTF-8"?>
<svg width="96px" height="96px" viewBox="0 0 96 96" version="1.1" xmlns="http://www.w3.org/2000/svg" xmlns:xlink="http://www.w3.org/1999/xlink">
    <!-- Generator: Sketch 41.1 (35376) - http://www.bohemiancoding.com/sketch -->
    <title>arrow-l-right</title>
    <desc>Created with Sketch.</desc>
    <defs></defs>
    <g id="Page-1" stroke="none" stroke-width="1" fill="none" fill-rule="evenodd">
        <g id="Desktop-HD" transform="translate(-480.000000, -864.000000)" fill="#000000">
            <g id="arrow-l-right" transform="translate(528.000000, 912.000000) scale(-1, 1) translate(-528.000000, -912.000000) translate(480.000000, 864.000000)">
                <path d="M22.7573593,67.7573591 L42.5147186,47.9999999 L22.7573593,28.2426406 C20.4142136,25.8994949 20.4142136,22.100505 22.7573593,19.7573592 C25.1005051,17.4142135 28.8994949,17.4142135 31.2426407,19.7573592 L55.2426407,43.7573592 C57.5857864,46.100505 57.5857864,49.8994949 55.2426407,52.2426406 L31.2426407,76.2426407 C28.8994949,78.5857865 25.1005051,78.5857865 22.7573593,76.2426407 C20.4142136,73.8994949 20.4142136,70.1005049 22.7573593,67.7573591 Z M63,23.9628764 C63,20.6696706 65.6862918,17.9999999 69,17.9999999 C72.3137082,17.9999999 75,20.6696706 75,23.9628764 L75,72.0371237 C75,75.3303293 72.3137082,77.9999999 69,77.9999999 C65.6862918,77.9999999 63,75.3303293 63,72.0371237 L63,23.9628764 Z" id="Combined-Shape" transform="translate(48.000000, 48.000000) scale(-1, 1) translate(-48.000000, -48.000000) "></path>
            </g>
        </g>
    </g>
</svg>