<?xml version="1.0" encoding="UTF-8"?>
<svg width="96px" height="96px" viewBox="0 0 96 96" version="1.1" xmlns="http://www.w3.org/2000/svg" xmlns:xlink="http://www.w3.org/1999/xlink">
    <!-- Generator: Sketch 41.1 (35376) - http://www.bohemiancoding.com/sketch -->
    <title>arrow-l-left</title>
    <desc>Created with Sketch.</desc>
    <defs></defs>
    <g id="Page-1" stroke="none" stroke-width="1" fill="none" fill-rule="evenodd">
        <g id="Desktop-HD" transform="translate(-96.000000, -864.000000)" fill="#000000">
            <g id="arrow-l-left" transform="translate(144.000000, 912.000000) scale(-1, 1) translate(-144.000000, -912.000000) translate(96.000000, 864.000000)">
                <path d="M19.7573593,67.7573592 L39.5147186,48 L19.7573593,28.2426407 C17.4142136,25.8994949 17.4142136,22.1005051 19.7573593,19.7573593 C22.1005051,17.4142136 25.8994949,17.4142136 28.2426407,19.7573593 L52.2426407,43.7573593 C54.5857864,46.1005051 54.5857864,49.8994949 52.2426407,52.2426407 L28.2426407,76.2426408 C25.8994949,78.5857866 22.1005051,78.5857866 19.7573593,76.2426408 C17.4142136,73.899495 17.4142136,70.100505 19.7573593,67.7573592 Z M60,23.9628765 C60,20.6696707 62.6862918,18 66,18 C69.3137082,18 72,20.6696707 72,23.9628765 L72,72.0371238 C72,75.3303294 69.3137082,78 66,78 C62.6862918,78 60,75.3303294 60,72.0371238 L60,23.9628765 Z" id="Combined-Shape"></path>
            </g>
        </g>
    </g>
</svg>