<?xml version="1.0" encoding="UTF-8"?>
<svg width="96px" height="96px" viewBox="0 0 96 96" version="1.1" xmlns="http://www.w3.org/2000/svg" xmlns:xlink="http://www.w3.org/1999/xlink">
    <!-- Generator: Sketch 41.1 (35376) - http://www.bohemiancoding.com/sketch -->
    <title>arrow-up</title>
    <desc>Created with Sketch.</desc>
    <defs></defs>
    <g id="Page-1" stroke="none" stroke-width="1" fill="none" fill-rule="evenodd">
        <g id="Desktop-HD" transform="translate(-288.000000, -480.000000)" fill="#000000">
            <g id="arrow-up" transform="translate(288.000000, 480.000000)">
                <path d="M43.9508057,7.21044922 C45.2254639,6.33312988 46.2403305,6 48,6 C49.6378667,6 51.4881592,6.49731445 52.3928223,7.21044922 C53.296875,7.94592285 53.9955557,8.5004019 54.715322,9.2201682 L80.196366,34.7012125 C82.532553,37.0373994 82.543248,40.814412 80.183766,43.1738938 C77.8406202,45.5170395 74.0190552,45.4944642 71.711085,43.1864938 L54,25.9018158 L54,83.958927 C54,87.2953194 51.3368111,90 48,90 C44.6862915,90 42,87.3003072 42,83.958927 L42,25.9018158 L24.715322,43.1864938 C22.3791351,45.5226808 18.6021224,45.5333755 16.2426407,43.1738938 C13.8994949,40.830748 13.9220703,37.0091828 16.2300406,34.7012125 L41.7110849,9.2201682 C42.2641946,8.66705844 43.3218994,7.78662109 43.9508057,7.21044922 Z" id="Combined-Shape"></path>
            </g>
        </g>
    </g>
</svg>