<?xml version="1.0" encoding="UTF-8"?>
<svg width="96px" height="96px" viewBox="0 0 96 96" version="1.1" xmlns="http://www.w3.org/2000/svg" xmlns:xlink="http://www.w3.org/1999/xlink">
    <!-- Generator: Sketch 41.1 (35376) - http://www.bohemiancoding.com/sketch -->
    <title>arrow-down</title>
    <desc>Created with Sketch.</desc>
    <defs></defs>
    <g id="Page-1" stroke="none" stroke-width="1" fill="none" fill-rule="evenodd">
        <g id="Desktop-HD" transform="translate(-672.000000, -480.000000)" fill="#000000">
            <g id="arrow-down" transform="translate(672.000000, 480.000000)">
                <path d="M43.8791504,7.24316406 C44.7960205,6.38696289 46.2403305,6 48,6 C49.6378667,6 51.1783447,6.40539551 52.2272949,7.24316406 C53.0170898,7.85961914 53.9955557,8.5004019 54.715322,9.2201682 L80.196366,34.7012125 C82.532553,37.0373994 82.543248,40.814412 80.183766,43.1738938 C77.8406202,45.5170395 74.0190552,45.4944642 71.711085,43.1864938 L54,25.9018158 L54,83.958927 C54,87.2953194 51.3368111,90 48,90 C44.6862915,90 42,87.3003072 42,83.958927 L42,25.9018158 L24.715322,43.1864938 C22.3791351,45.5226808 18.6021224,45.5333755 16.2426407,43.1738938 C13.8994949,40.830748 13.9220703,37.0091828 16.2300406,34.7012125 L41.7110849,9.2201682 C42.2641946,8.66705844 43.2071533,7.90380859 43.8791504,7.24316406 Z" id="Combined-Shape" transform="translate(48.221556, 48.000000) scale(1, -1) translate(-48.221556, -48.000000) "></path>
            </g>
        </g>
    </g>
</svg>