<?xml version="1.0" encoding="UTF-8"?>
<svg width="96px" height="96px" viewBox="0 0 96 96" version="1.1" xmlns="http://www.w3.org/2000/svg" xmlns:xlink="http://www.w3.org/1999/xlink">
    <!-- Generator: Sketch 41.1 (35376) - http://www.bohemiancoding.com/sketch -->
    <title>circle_ok</title>
    <desc>Created with Sketch.</desc>
    <defs></defs>
    <g id="Page-1" stroke="none" stroke-width="1" fill="none" fill-rule="evenodd">
        <g id="Desktop-HD" transform="translate(-1056.000000, -288.000000)" fill="#000000">
            <g id="circle_ok" transform="translate(1056.000000, 288.000000)">
                <path d="M48,84 C67.882251,84 84,67.882251 84,48 C84,28.117749 67.882251,12 48,12 C28.117749,12 12,28.117749 12,48 C12,67.882251 28.117749,84 48,84 Z M48,96 C21.490332,96 0,74.509668 0,48 C0,21.490332 21.490332,0 48,0 C74.509668,0 96,21.490332 96,48 C96,74.509668 74.509668,96 48,96 Z M34.2539936,46.3858109 C31.9171346,44.0363952 28.1181584,44.0262159 25.7687427,46.3630748 C23.419327,48.6999338 23.4091477,52.49891 25.7460067,54.8483258 L36.7082981,65.8695216 C39.0692024,68.243112 42.9158722,68.2254732 45.2549098,65.8303314 L70.2926184,40.1920701 C72.607833,37.8213226 72.562815,34.0225994 70.1920674,31.7073845 C67.8213198,29.3921696 64.0225968,29.4371876 61.7073822,31.8079352 L40.9230975,53.0907503 L34.2539936,46.3858109 Z" id="Oval"></path>
            </g>
        </g>
    </g>
</svg>