<?xml version="1.0" encoding="UTF-8"?>
<svg width="96px" height="96px" viewBox="0 0 96 96" version="1.1" xmlns="http://www.w3.org/2000/svg" xmlns:xlink="http://www.w3.org/1999/xlink">
    <!-- Generator: Sketch 41.1 (35376) - http://www.bohemiancoding.com/sketch -->
    <title>solid_warning</title>
    <desc>Created with Sketch.</desc>
    <defs></defs>
    <g id="Page-1" stroke="none" stroke-width="1" fill="none" fill-rule="evenodd">
        <g id="Desktop-HD" transform="translate(-864.000000, -96.000000)" fill="#000000">
            <g id="solid_warning" transform="translate(864.000000, 96.000000)">
                <path d="M48,96 C21.490332,96 0,74.509668 0,48 C0,21.490332 21.490332,0 48,0 C74.509668,0 96,21.490332 96,48 C96,74.509668 74.509668,96 48,96 Z M42,66 C42,69.3368112 44.6862915,72 48,72 C51.3368111,72 54,69.3137082 54,66 C54,62.6631888 51.3137085,60 48,60 C44.6631889,60 42,62.6862918 42,66 Z M42,29.9988449 L42,48.0011551 C42,51.3377001 44.6862915,54 48,54 C51.3368111,54 54,51.3142256 54,48.0011551 L54,29.9988449 C54,26.6622999 51.3137085,24 48,24 C44.6631889,24 42,26.6857744 42,29.9988449 Z" id="Combined-Shape"></path>
            </g>
        </g>
    </g>
</svg>