<?xml version="1.0" encoding="UTF-8"?>
<svg width="96px" height="96px" viewBox="0 0 96 96" version="1.1" xmlns="http://www.w3.org/2000/svg" xmlns:xlink="http://www.w3.org/1999/xlink">
    <!-- Generator: Sketch 41.1 (35376) - http://www.bohemiancoding.com/sketch -->
    <title>message</title>
    <desc>Created with Sketch.</desc>
    <defs></defs>
    <g id="Page-1" stroke="none" stroke-width="1" fill="none" fill-rule="evenodd">
        <g id="Desktop-HD" transform="translate(-864.000000, -1632.000000)" fill="#000000">
            <g id="message" transform="translate(864.000000, 1632.000000)">
                <path d="M78.0029983,76 C87.9414833,76 96,67.945736 96,58.0090386 L96,23.9909614 C96,14.0535055 87.9459236,6 78.0094834,6 L17.9905166,6 C8.06484327,6 0,14.0586322 0,23.9909614 L0,58.0090386 C0,67.9471318 8.05725974,76 17.996205,76 L29.625,76 C32.9387085,76 35.625,73.3137085 35.625,70 C35.625,66.6862915 32.9387085,64 29.625,64 L17.996205,64 C14.6832127,64 12,61.3182498 12,58.0090386 L12,23.9909614 C12,20.6881197 14.6901915,18 17.9905166,18 L78.0094834,18 C81.318697,18 84,20.6811129 84,23.9909614 L84,58.0090386 C84,61.3169006 81.3154839,64 78.0029983,64 L56.1401367,64 C54.8544263,64 53.6027184,64.4130008 52.5694663,65.1781422 L29.4747397,82.280193 C26.8117012,84.2522198 26.2515255,88.0096827 28.2235523,90.6727212 C30.1955792,93.3357597 33.953042,93.8959354 36.6160806,91.9239086 L58.1198359,76 L78.0029983,76 Z M27,48 C30.3137085,48 33,45.3137085 33,42 C33,38.6862915 30.3137085,36 27,36 C23.6862915,36 21,38.6862915 21,42 C21,45.3137085 23.6862915,48 27,48 Z M49,48 C52.3137085,48 55,45.3137085 55,42 C55,38.6862915 52.3137085,36 49,36 C45.6862915,36 43,38.6862915 43,42 C43,45.3137085 45.6862915,48 49,48 Z M70,48 C73.3137085,48 76,45.3137085 76,42 C76,38.6862915 73.3137085,36 70,36 C66.6862915,36 64,38.6862915 64,42 C64,45.3137085 66.6862915,48 70,48 Z" id="Combined-Shape"></path>
            </g>
        </g>
    </g>
</svg>