<?xml version="1.0" encoding="UTF-8"?>
<svg width="96px" height="96px" viewBox="0 0 96 96" version="1.1" xmlns="http://www.w3.org/2000/svg" xmlns:xlink="http://www.w3.org/1999/xlink">
    <!-- Generator: Sketch 41.1 (35376) - http://www.bohemiancoding.com/sketch -->
    <title>search</title>
    <desc>Created with Sketch.</desc>
    <defs></defs>
    <g id="Page-1" stroke="none" stroke-width="1" fill="none" fill-rule="evenodd">
        <g id="Desktop-HD" transform="translate(-96.000000, -1632.000000)" fill="#000000">
            <g id="search" transform="translate(96.000000, 1632.000000)">
                <path d="M42,66 C55.254834,66 66,55.254834 66,42 C66,28.745166 55.254834,18 42,18 C28.745166,18 18,28.745166 18,42 C18,55.254834 28.745166,66 42,66 Z M69.820253,64.8496904 C74.9313384,58.6340098 78,50.6753671 78,42 C78,22.117749 61.882251,6 42,6 C22.117749,6 6,22.117749 6,42 C6,61.882251 22.117749,78 42,78 C48.8659797,78 55.2830264,76.0778897 60.7424048,72.7424045 L77.0096886,89.0096886 C79.2998778,91.2998778 83.1126984,91.3137084 85.4558442,88.9705626 C87.8153256,86.6110812 87.816507,82.8459444 85.4949696,80.524407 L69.820253,64.8496904 Z" id="Shape"></path>
            </g>
        </g>
    </g>
</svg>