<?xml version="1.0" encoding="UTF-8"?>
<svg width="48px" height="48px" viewBox="0 0 48 48" version="1.1" xmlns="http://www.w3.org/2000/svg" xmlns:xlink="http://www.w3.org/1999/xlink">
    <!-- Generator: Sketch 49.3 (51167) - http://www.bohemiancoding.com/sketch -->
    <title>abstract/account-info</title>
    <desc>Created with Sketch.</desc>
    <defs></defs>
    <g id="abstract/account-info" stroke="none" stroke-width="1" fill="none" fill-rule="evenodd">
        <path d="M24,48 C22.8954305,48 22,47.1045695 22,46 C22,44.8954305 22.8954305,44 24,44 C35.045695,44 44,35.045695 44,24 C44,12.954305 35.045695,4 24,4 C12.954305,4 4,12.954305 4,24 C4,25.1045695 3.1045695,26 2,26 C0.8954305,26 0,25.1045695 0,24 C0,10.745166 10.745166,0 24,0 C37.254834,0 48,10.745166 48,24 C48,37.254834 37.254834,48 24,48 Z M13.9714148,45.8108552 C8.76954825,43.4151031 4.57339202,39.2153177 2.18156719,34.0098512 L2.00128912,33.2598063 L2.10884075,32.5240231 L2.36482227,32.023854 C2.91981716,31.4746294 2.91981716,31.4746294 3.12560326,31.3770274 C3.38569962,31.2686487 3.38569962,31.2686487 3.48453165,31.2431954 C3.61234122,31.2125392 3.61234122,31.2125392 3.6635808,31.2036802 C3.73618257,31.1918231 3.73618257,31.1918231 3.77945532,31.1860038 C3.86199835,31.1754706 3.86199835,31.1754706 3.95794051,31.1644663 C4.08961013,31.1495663 4.28173574,31.1291087 4.53680993,31.102795 C5.03886827,31.0510023 5.79047193,30.9759508 6.79284964,30.8775098 C8.79359798,30.6810213 11.7963422,30.3910663 15.8016922,30.007584 C17.0534094,29.8877414 18.1038795,30.9390396 17.9830507,32.190662 C17.5962875,36.197002 17.3041602,39.2004174 17.1066146,41.2014488 C17.0076666,42.2037399 16.9323848,42.9551911 16.8806539,43.4568917 C16.8544186,43.7113285 16.8341094,43.9028287 16.8194657,44.0336042 C16.8087302,44.1283052 16.8087302,44.1283052 16.7988355,44.2075958 C16.7934948,44.2483618 16.7934948,44.2483618 16.7831537,44.3144482 C16.775532,44.3606564 16.775532,44.3606564 16.7496674,44.475854 C16.7283805,44.5649144 16.7283805,44.5649144 16.636153,44.806056 C16.5540731,44.9990955 16.5540731,44.9990955 16.1957704,45.4346541 L16.0323152,45.5759037 L15.5056327,45.868729 L14.6803046,45.9901966 L13.9714148,45.8108552 Z M7.20026285,34.856742 C8.73539844,37.2271976 10.7589058,39.2527797 13.127753,40.7903624 C13.2829386,39.2182047 13.4964179,37.0282982 13.7681646,34.2209037 C10.9611848,34.490472 8.77178591,34.7024279 7.20026285,34.856742 Z M25.1946001,33.9216121 C24.0986436,34.0592823 23.0985916,33.2824377 22.9609214,32.1864811 C22.8232513,31.0905246 23.6000959,30.0904726 24.6960524,29.9528025 C27.6753915,29.5785485 29.9381436,27.0320879 29.9381436,24 C29.9381436,20.6862915 27.2518521,18 23.9381436,18 C20.9039652,18 18.3563628,20.2657994 17.9846387,23.2477047 C17.8480008,24.3437904 16.8486808,25.1215765 15.7525951,24.9849385 C14.6565094,24.8483006 13.8787233,23.8489806 14.0153613,22.7528949 C14.6359466,17.7746681 18.8800795,14 23.9381436,14 C29.4609911,14 33.9381436,18.4771525 33.9381436,24 C33.9381436,29.0545801 30.1685607,33.2968009 25.1946001,33.9216121 Z" id="account-info" fill="#000000" fill-rule="nonzero"></path>
    </g>
</svg>