<?xml version="1.0" encoding="UTF-8"?>
<svg width="48px" height="48px" viewBox="0 0 48 48" version="1.1" xmlns="http://www.w3.org/2000/svg" xmlns:xlink="http://www.w3.org/1999/xlink">
    <!-- Generator: Sketch 49.3 (51167) - http://www.bohemiancoding.com/sketch -->
    <title>abstract/ad</title>
    <desc>Created with Sketch.</desc>
    <defs></defs>
    <g id="abstract/ad" stroke="none" stroke-width="1" fill="none" fill-rule="evenodd">
        <path d="M18.7877747,29.4285714 L11.8798376,29.4285714 L10.3134803,33.4758731 C9.9717651,34.3588291 8.97897284,34.7975915 8.09601676,34.4558763 C7.21306069,34.1141611 6.77429829,33.1213688 7.11601353,32.2384127 L13.7505174,15.0955556 C14.3164651,13.6332066 16.3863065,13.6353311 16.949251,15.0988389 L23.543324,32.241696 C23.8832259,33.1253517 23.4424264,34.1172412 22.5587707,34.4571431 C21.675115,34.797045 20.6832256,34.3562455 20.3433236,33.4725898 L18.7877747,29.4285714 Z M17.4689601,26 L15.3443626,20.4766047 L13.2067383,26 L17.4689601,26 Z M6,0 L42,0 C45.3137085,0 48,2.6862915 48,6 L48,42 C48,45.3137085 45.3137085,48 42,48 L6,48 C2.6862915,48 0,45.3137085 0,42 L0,6 C0,2.6862915 2.6862915,0 6,0 Z M6,4 C4.8954305,4 4,4.8954305 4,6 L4,42 C4,43.1045695 4.8954305,44 6,44 L42,44 C43.1045695,44 44,43.1045695 44,42 L44,6 C44,4.8954305 43.1045695,4 42,4 L6,4 Z M26,15.7169245 C26,14.7791311 26.7535499,14.0153903 27.6912587,14.0027935 C36.3266831,13.8867884 41.0857146,17.384949 41.0857146,24.2855921 C41.0857146,31.1862352 36.3266831,34.6843958 27.6912587,34.5683907 C26.7535499,34.5557939 26,33.7920531 26,32.8542597 L26,15.7169245 Z M29.4285714,31.1129889 C35.1391295,30.8347315 37.6571432,28.6128568 37.6571432,24.2855921 C37.6571432,19.9583274 35.1391295,17.7364527 29.4285714,17.4581953 L29.4285714,31.1129889 Z" id="ad" fill="#000000"></path>
    </g>
</svg>