<?xml version="1.0" encoding="UTF-8"?>
<svg width="48px" height="48px" viewBox="0 0 48 48" version="1.1" xmlns="http://www.w3.org/2000/svg" xmlns:xlink="http://www.w3.org/1999/xlink">
    <!-- Generator: Sketch 49.3 (51167) - http://www.bohemiancoding.com/sketch -->
    <title>brand/baidu</title>
    <desc>Created with Sketch.</desc>
    <defs></defs>
    <g id="brand/baidu" stroke="none" stroke-width="1" fill="none" fill-rule="evenodd">
        <path class="noStroke" d="M40.2424106,33.5029708 C40.2424106,33.5029708 44.6823113,36.9622797 41.8449524,43.6315542 C39.0067158,50.3017036 28.6296876,46.8371455 28.6296876,46.8371455 C28.6296876,46.8371455 24.8032463,45.6105519 20.362468,46.5921767 C15.9199345,47.5834253 12.0917379,47.2072233 12.0917379,47.2072233 C12.0917379,47.2072233 6.89795803,47.3340821 5.41916131,40.7881668 C3.94036458,34.238752 10.6024096,30.654334 11.0991449,30.042787 C11.5923697,29.4224911 15.0510865,27.0786651 17.2697204,23.3735125 C19.4980082,19.66836 26.1626861,16.7033631 30.8527097,23.989434 C34.3140594,28.9308038 40.2424106,33.5029708 40.2424106,33.5029708 Z M35.050386,43.382211 L35.050386,31.9185478 L31.7013723,31.9185478 L31.7013723,40.5291998 L28.5015545,40.5291998 C28.5015545,40.5291998 27.4791224,40.3804688 27.2869227,39.5615732 L27.2869227,31.8678044 L24.1362519,31.9185478 L24.1362519,40.4784564 C24.1362519,40.4784564 24.2793046,42.6088097 27.2869227,43.382211 L35.050386,43.382211 Z M22.4845632,43.4285801 L22.4845632,27.1757777 L19.4277982,27.1294085 L19.4277982,31.5292225 L15.8365602,31.5292225 C15.8365602,31.5292225 12.245322,31.8214352 10.9859314,35.8835422 C10.5488746,38.5930717 11.3729636,40.1862436 11.5177716,40.5291998 C11.6652125,40.8669068 12.8254316,42.8502788 15.7391439,43.4285801 L22.4845632,43.4285801 Z M14.3850575,35.9806548 C14.526355,35.5449604 15.1582444,34.5309647 16.4659044,34.1416394 L19.3769838,34.1416394 L19.3769838,40.7654197 L16.6598594,40.7654197 C16.6598594,40.7654197 14.7677017,40.6674322 14.1867145,38.4959591 C13.893588,37.5274576 14.2332285,36.4154744 14.3850575,35.9806548 Z M18.5083114,14.8560362 C15.6455014,14.8560362 13.3233078,11.5673305 13.3233078,7.50084906 C13.3233078,3.43786716 15.6455014,0.150036423 18.5083114,0.150036423 C21.3746319,0.150036423 23.6906821,3.43786716 23.6906821,7.50084906 C23.6906821,11.5673305 21.3746319,14.8560362 18.5083114,14.8560362 Z M30.8525341,15.3422116 C27.0296033,14.8505244 26.1625106,11.3955899 26.5319904,7.93628103 C26.840914,5.10601694 30.2346868,0.765695415 32.9535664,1.3868662 C35.6654251,2.00278766 38.1376924,5.58808047 37.6383242,8.67206221 C37.1486099,11.7612932 34.6851188,15.8373985 30.8525341,15.3422116 Z M8.87419212,25.2256513 C3.69620954,26.3376345 1.76806924,20.3621465 2.3367697,17.5651282 C2.3367697,17.5651282 2.950229,11.5161495 7.15053826,11.1408224 C10.4890206,10.853859 12.9472459,14.4942698 13.2026345,16.578254 C13.357974,17.9308316 14.0635838,24.1136681 8.87419212,25.2256513 Z M46.0412245,20.5291628 C46.0412245,22.0155981 46.6634601,28.3112954 40.9782108,28.4355295 C35.2947166,28.5615134 35.0551252,24.6052679 35.0551252,21.7706294 C35.0551252,18.801258 35.6659516,14.6009187 40.2427617,14.6009187 C44.8107955,14.6009187 46.0412245,19.052351 46.0412245,20.5291628 Z" id="baidu" fill="#000000" fill-rule="nonzero"></path>
    </g>
</svg>
