<?xml version="1.0" encoding="UTF-8"?>
<svg width="48px" height="48px" viewBox="0 0 48 48" version="1.1" xmlns="http://www.w3.org/2000/svg" xmlns:xlink="http://www.w3.org/1999/xlink">
    <!-- Generator: Sketch 51.2 (57519) - http://www.bohemiancoding.com/sketch -->
    <title>others/basketball-clothes</title>
    <desc>Created with Sketch.</desc>
    <defs></defs>
    <g id="others/basketball-clothes" stroke="none" stroke-width="1" fill="none" fill-rule="evenodd" stroke-linejoin="round">
        <g transform="translate(5.000000, 2.000000)" stroke="#000000" stroke-width="4">
            <path d="M13,0 C13,3.3137085 15.6862915,6 19,6 C22.3137085,6 25,3.3137085 25,0 L30,0 C30,0 30,10 31,13 C32,16 38,20 38,20 L38,44 L0,44 L0,20 C0,20 6,16 7,13 C8,10 8,0 8,0 L13,0 Z" id="Combined-Shape"></path>
            <rect id="Rectangle" x="19" y="22" width="8" height="14"></rect>
            <path d="M11,22 L11,36" id="Path-2" stroke-linecap="round"></path>
        </g>
    </g>
</svg>