<?xml version="1.0" encoding="UTF-8"?>
<svg width="48px" height="48px" viewBox="0 0 48 48" version="1.1" xmlns="http://www.w3.org/2000/svg" xmlns:xlink="http://www.w3.org/1999/xlink">
    <!-- Generator: Sketch 50.2 (55047) - http://www.bohemiancoding.com/sketch -->
    <title>others/remind</title>
    <desc>Created with Sketch.</desc>
    <defs></defs>
    <g id="others/remind" stroke="none" stroke-width="1" fill="none" fill-rule="evenodd" stroke-linecap="round" stroke-linejoin="round">
        <path class="fillColor" d="M35,19 C35,12.9248678 30.0751322,8 24,8 C17.9248678,8 13,12.9248678 13,19" id="Oval-5" stroke="#000000" stroke-width="4"></path>
        <path class="innerFillColor" d="M17,39 C17,42.8659932 20.1340068,46 24,46 C27.8659932,46 31,42.8659932 31,39 L17,39 Z" id="Oval-3" stroke="#000000" stroke-width="4"></path>
        <path class="fillColor" d="M35,19 L35,29 C41,31.6666667 44,35 44,39 L4,39 C4,35 7,31.6666667 13,29 L13,19" id="Combined-Shape" stroke="#000000" stroke-width="4"></path>
        <path class="innerFillColor" d="M28,8 L28,6 C28,3.790861 26.209139,2 24,2 C21.790861,2 20,3.790861 20,6 L20,8" id="Oval-4" stroke="#000000" stroke-width="4"></path>
    </g>
</svg>
