<?xml version="1.0" encoding="UTF-8"?>
<svg width="48px" height="48px" viewBox="0 0 48 48" version="1.1" xmlns="http://www.w3.org/2000/svg" xmlns:xlink="http://www.w3.org/1999/xlink">
    <!-- Generator: Sketch 49.3 (51167) - http://www.bohemiancoding.com/sketch -->
    <title>abstract/bran-reputation</title>
    <desc>Created with Sketch.</desc>
    <defs></defs>
    <g id="abstract/bran-reputation" stroke="none" stroke-width="1" fill="none" fill-rule="evenodd">
        <path d="M6,4 C4.8954305,4 4,4.8954305 4,6 L4,42 C4,43.1045695 4.8954305,44 6,44 L42,44 C43.1045695,44 44,43.1045695 44,42 L44,6 C44,4.8954305 43.1045695,4 42,4 L6,4 Z M6,0 L42,0 C45.3137085,-1.33226763e-15 48,2.6862915 48,6 L48,42 C48,45.3137085 45.3137085,48 42,48 L6,48 C2.6862915,48 4.4408921e-16,45.3137085 0,42 L4.4408921e-16,6 C-4.4408921e-16,2.6862915 2.6862915,2.22044605e-16 6,0 Z M17.4715731,33.3829753 C16.0043183,34.1543568 14.2894534,32.9084345 14.5696742,31.2746223 L15.7951421,24.129596 L10.6039766,19.0694603 C9.41694258,17.9123881 10.0719627,15.8964435 11.7124034,15.6580735 L18.8864176,14.6156283 L22.0947343,8.11486858 C22.8283617,6.62837714 24.9480512,6.62837714 25.6816786,8.11486858 L28.8899953,14.6156283 L36.0640095,15.6580735 C37.7044502,15.8964435 38.3594703,17.9123881 37.1724363,19.0694603 L31.9812708,24.129596 L33.2067388,31.2746223 C33.4869595,32.9084345 31.7720946,34.1543568 30.3048399,33.3829753 L23.8882065,30.0095515 L17.4715731,33.3829753 Z M22.9575242,25.9797372 C23.5401722,25.6734209 24.2362407,25.6734209 24.8188887,25.9797372 L28.5792601,27.9566814 L27.861093,23.7694463 C27.7498172,23.1206582 27.9649141,22.4586578 28.4362863,21.9991835 L31.4784906,19.0337672 L27.2742676,18.4228578 C26.6228473,18.3282009 26.0597162,17.9190622 25.7683921,17.3287752 L23.8882065,13.5191029 L22.0080208,17.3287752 C21.7166968,17.9190622 21.1535656,18.3282009 20.5021453,18.4228578 L16.2979223,19.0337672 L19.3401266,21.9991835 C19.8114988,22.4586578 20.0265957,23.1206582 19.9153199,23.7694463 L19.1971529,27.9566814 L22.9575242,25.9797372 Z M17.7142857,37 L31.4285714,37 C32.3753453,37 33.1428571,37.7675119 33.1428571,38.7142857 C33.1428571,39.6610596 32.3753453,40.4285714 31.4285714,40.4285714 L17.7142857,40.4285714 C16.7675119,40.4285714 16,39.6610596 16,38.7142857 C16,37.7675119 16.7675119,37 17.7142857,37 Z" id="bran-reputation" fill="#000000" fill-rule="nonzero"></path>
    </g>
</svg>