<?xml version="1.0" encoding="UTF-8"?>
<svg width="48px" height="48px" viewBox="0 0 48 48" version="1.1" xmlns="http://www.w3.org/2000/svg" xmlns:xlink="http://www.w3.org/1999/xlink">
    <!-- Generator: Sketch 49.3 (51167) - http://www.bohemiancoding.com/sketch -->
    <title>abstract/bulletin-manage</title>
    <desc>Created with Sketch.</desc>
    <defs></defs>
    <g id="abstract/bulletin-manage" stroke="none" stroke-width="1" fill="none" fill-rule="evenodd">
        <path d="M12.1579841,14.9999082 L35.5145659,14.9999082 C30.407458,9.58731664 27.0483598,6.15795596 25.4799151,4.75163904 C24.373913,3.75996277 23.5475187,3.74170937 22.3158244,4.74207373 L12.1579841,14.9999082 Z M6.53033588,14.9999082 C6.54616163,14.9827841 6.56234192,14.9658686 6.57887679,14.949171 L19.5451182,1.85528923 L19.6863799,1.72569407 C22.4590549,-0.583317927 25.5217253,-0.583317927 28.1502269,1.77347938 C30.0883333,3.51124668 34.3476057,7.89574777 40.9943592,14.9888951 C40.9977904,14.9925567 41.0012051,14.9962278 41.0046034,14.9999082 L42,14.9999082 C45.3137085,14.9999082 48,17.6861997 48,20.9999082 L48,31.4999082 C48,32.6044777 47.1045695,33.4999082 46,33.4999082 C44.8954305,33.4999082 44,32.6044777 44,31.4999082 L44,20.9999082 C44,19.8953387 43.1045695,18.9999082 42,18.9999082 L6,18.9999082 C4.8954305,18.9999082 4,19.8953387 4,20.9999082 L4,41.9999082 C4,43.1044777 4.8954305,43.9999082 6,43.9999082 L32.0745749,43.9999082 C33.1791444,43.9999082 34.0745749,44.8953387 34.0745749,45.9999082 C34.0745749,47.1044777 33.1791444,47.9999082 32.0745749,47.9999082 L6,47.9999082 C2.6862915,47.9999082 0,45.3136167 0,41.9999082 L0,20.9999082 C0,17.6861997 2.6862915,14.9999082 6,14.9999082 L6.53033588,14.9999082 Z M42,47.9999082 C38.6862915,47.9999082 36,45.3136167 36,41.9999082 C36,38.6861997 38.6862915,35.9999082 42,35.9999082 C45.3137085,35.9999082 48,38.6861997 48,41.9999082 C48,45.3136167 45.3137085,47.9999082 42,47.9999082 Z M42,43.9999082 C43.1045695,43.9999082 44,43.1044777 44,41.9999082 C44,40.8953387 43.1045695,39.9999082 42,39.9999082 C40.8954305,39.9999082 40,40.8953387 40,41.9999082 C40,43.1044777 40.8954305,43.9999082 42,43.9999082 Z M20,24.9999082 L39,24.9999082 C40.1045695,24.9999082 41,25.8953387 41,26.9999082 C41,28.1044777 40.1045695,28.9999082 39,28.9999082 L20,28.9999082 C18.8954305,28.9999082 18,28.1044777 18,26.9999082 C18,25.8953387 18.8954305,24.9999082 20,24.9999082 Z M9,33.9999082 L33,33.9999082 C34.1045695,33.9999082 35,34.8953387 35,35.9999082 C35,37.1044777 34.1045695,37.9999082 33,37.9999082 L9,37.9999082 C7.8954305,37.9999082 7,37.1044777 7,35.9999082 C7,34.8953387 7.8954305,33.9999082 9,33.9999082 Z M9,24.9999082 L13,24.9999082 C14.1045695,24.9999082 15,25.8953387 15,26.9999082 C15,28.1044777 14.1045695,28.9999082 13,28.9999082 L9,28.9999082 C7.8954305,28.9999082 7,28.1044777 7,26.9999082 C7,25.8953387 7.8954305,24.9999082 9,24.9999082 Z" id="bulletin-manage" fill="#000000" fill-rule="nonzero"></path>
    </g>
</svg>