<?xml version="1.0" encoding="UTF-8"?>
<svg width="48px" height="48px" viewBox="0 0 48 48" version="1.1" xmlns="http://www.w3.org/2000/svg" xmlns:xlink="http://www.w3.org/1999/xlink">
    <!-- Generator: Sketch 50.2 (55047) - http://www.bohemiancoding.com/sketch -->
    <title>charts/chart-gauge</title>
    <desc>Created with Sketch.</desc>
    <defs></defs>
    <g id="charts/chart-gauge" stroke="none" stroke-width="1" fill="none" fill-rule="evenodd">
        <path d="M35.0257556,4.95813037 C31.7840348,3.07703186 28.0177945,2 24,2 C11.8497355,2 2,11.8497355 2,24 C2,36.1502645 11.8497355,46 24,46 C36.1502645,46 46,36.1502645 46,24 C46,20.0099648 44.9377993,16.2680198 43.0807444,13.0415115" id="Oval-36" stroke="#000000" stroke-width="4" stroke-linecap="round" stroke-linejoin="round"></path>
        <path class="noStroke fillColor" d="M21.1715729,26.8284271 C19.6094757,25.26633 19.6094757,22.73367 21.1715729,21.1715729 C22.73367,19.6094757 39.9425049,5.94250488 41,7 C42.0574951,8.05749512 28.3905243,25.26633 26.8284271,26.8284271 C25.26633,28.3905243 22.73367,28.3905243 21.1715729,26.8284271 Z" id="Path" fill="#000000"></path>
    </g>
</svg>
