<?xml version="1.0" encoding="UTF-8"?>
<svg width="48px" height="48px" viewBox="0 0 48 48" version="1.1" xmlns="http://www.w3.org/2000/svg" xmlns:xlink="http://www.w3.org/1999/xlink">
    <!-- Generator: Sketch 49.3 (51167) - http://www.bohemiancoding.com/sketch -->
    <title>abstract/cloud-atlas</title>
    <desc>Created with Sketch.</desc>
    <defs></defs>
    <g id="abstract/cloud-atlas" stroke="none" stroke-width="1" fill="none" fill-rule="evenodd">
        <path d="M17.84,41.68 C7.98724006,41.68 0,33.6927599 0,23.84 C0,13.9872401 7.98724006,6 17.84,6 C25.0036375,6 31.3479293,10.2605843 34.1607081,16.6245004 C34.5837859,16.5816208 35.0106183,16.56 35.44,16.56 C42.3766965,16.56 48,22.1833035 48,29.12 C48,36.0566965 42.3766965,41.68 35.44,41.68 C35.1694178,41.68 34.8997342,41.6714145 34.6312377,41.6543096 C34.4612205,41.6714013 34.2899138,41.68 34.1178295,41.68 L18.2821705,41.68 C18.2309433,41.68 18.1797742,41.6792348 18.1286767,41.6777064 C18.0325363,41.679235 17.9363086,41.68 17.84,41.68 Z M18.1089924,37.6774456 L18.2333776,37.6789502 C18.244148,37.6794158 23.5389653,37.6797657 34.1178295,37.68 C34.1745949,37.68 34.2300527,37.6758553 34.2841688,37.6677318 L34.5119502,37.633539 L34.7415411,37.6520203 C34.9727891,37.670635 35.2057157,37.68 35.44,37.68 C40.1675575,37.68 44,33.8475575 44,29.12 C44,24.3924425 40.1675575,20.56 35.44,20.56 C34.733013,20.56 34.03889,20.6452842 33.3673047,20.8121593 L31.5671965,21.2594488 L30.9858005,19.4980754 C29.1297311,13.8750028 23.8569704,10 17.84,10 C10.1963791,10 4,16.1963791 4,23.84 C4,31.4836209 10.1963791,37.68 17.84,37.68 C17.9297814,37.68 18.019448,37.6791478 18.1089924,37.6774456 Z M15,27 L34,27 C35.1045695,27 36,27.8954305 36,29 C36,30.1045695 35.1045695,31 34,31 L15,31 C13.8954305,31 13,30.1045695 13,29 C13,27.8954305 13.8954305,27 15,27 Z M15,20 L22,20 C23.1045695,20 24,20.8954305 24,22 C24,23.1045695 23.1045695,24 22,24 L15,24 C13.8954305,24 13,23.1045695 13,22 C13,20.8954305 13.8954305,20 15,20 Z" id="cloud-atlas" fill="#000000" fill-rule="nonzero"></path>
    </g>
</svg>