<?xml version="1.0" encoding="UTF-8"?>
<svg width="48px" height="48px" viewBox="0 0 48 48" version="1.1" xmlns="http://www.w3.org/2000/svg" xmlns:xlink="http://www.w3.org/1999/xlink">
    <!-- Generator: Sketch 50.2 (55047) - http://www.bohemiancoding.com/sketch -->
    <title>weather/cloudy</title>
    <desc>Created with Sketch.</desc>
    <defs></defs>
    <g id="weather/cloudy" stroke="none" stroke-width="1" fill="none" fill-rule="evenodd" stroke-linecap="round" stroke-linejoin="round">
        <path class="fillColor" d="M15,41 C7.82029825,41 2,35.1797017 2,28 C2,20.8202983 7.82029825,15 15,15 C20.5790339,15 25.3372372,18.5143939 27.1815589,23.4501309 C28.0681347,23.1580398 29.0156113,23 30,23 C34.9705627,23 39,27.0294373 39,32 C39,36.9705627 34.9705627,41 30,41 L15,41 Z" id="Combined-Shape" stroke="#000000" stroke-width="4"></path>
        <path class="innerFillColor" d="M38.4461384,28.8844303 C37.1785909,25.4493541 33.8753341,23 30,23 C29.0156113,23 28.0681347,23.1580398 27.1815589,23.4501309 C25.3372372,18.5143939 20.5790339,15 15,15 C12.8389594,15 10.8010765,15.5273006 9.00799549,16.4602576 C9.00267985,16.3074937 9,16.1540598 9,16 C9,8.82029825 14.8202983,3 22,3 C27.5790339,3 32.3372372,6.51439391 34.1815589,11.4501309 C35.0681347,11.1580398 36.0156113,11 37,11 C41.9705627,11 46,15.0294373 46,20 C46,24.4782854 42.7291787,28.1926296 38.4461384,28.8844303 Z" id="Combined-Shape" stroke="#000000" stroke-width="4"></path>
    </g>
</svg>
