<?xml version="1.0" encoding="UTF-8"?>
<svg width="48px" height="48px" viewBox="0 0 48 48" version="1.1" xmlns="http://www.w3.org/2000/svg" xmlns:xlink="http://www.w3.org/1999/xlink">
    <!-- Generator: Sketch 50.2 (55047) - http://www.bohemiancoding.com/sketch -->
    <title>base/chat</title>
    <desc>Created with Sketch.</desc>
    <defs></defs>
    <g id="base/chat" stroke="none" stroke-width="1" fill="none" fill-rule="evenodd" stroke-linecap="round" stroke-linejoin="round">
        <path class="fillColor" d="M21,36 L11,44 L11,36 L4,36 C2.8954305,36 2,35.1045695 2,34 L2,14 C2,12.8954305 2.8954305,12 4,12 L36,12 C37.1045695,12 38,12.8954305 38,14 L38,34 C38,35.1045695 37.1045695,36 36,36 L21,36 Z" id="Combined-Shape" stroke="#000000" stroke-width="4"></path>
        <path d="M10,10 L10,6 C10,4.8954305 10.8954305,4 12,4 L44,4 C45.1045695,4 46,4.8954305 46,6 L46,28 C46,29.1045695 45.1045695,30 44,30 L38,30" id="Path-2" stroke="#000000" stroke-width="4"></path>
        <path class="innerStrokeColor" d="M11,24 L11,25" id="Path-69" stroke="#000000" stroke-width="4"></path>
        <path class="innerStrokeColor" d="M20,24 L20,25" id="Path-69" stroke="#000000" stroke-width="4"></path>
        <path class="innerStrokeColor" d="M29,24 L29,25" id="Path-69" stroke="#000000" stroke-width="4"></path>
    </g>
</svg>
