<?xml version="1.0" encoding="UTF-8"?>
<svg width="48px" height="48px" viewBox="0 0 48 48" version="1.1" xmlns="http://www.w3.org/2000/svg" xmlns:xlink="http://www.w3.org/1999/xlink">
    <!-- Generator: Sketch 50.2 (55047) - http://www.bohemiancoding.com/sketch -->
    <title>others/command</title>
    <desc>Created with Sketch.</desc>
    <defs></defs>
    <g id="others/command" stroke="none" stroke-width="1" fill="none" fill-rule="evenodd" stroke-linecap="round" stroke-linejoin="round">
        <path class="fillColor" d="M8,14 C9.15251945,14 11.1525195,14 14,14 C14,11.0566195 14,9.05661955 14,8 C14,4.6862915 11.3137085,2 8,2 C4.6862915,2 2,4.6862915 2,8 C2,11.3137085 4.6862915,14 8,14 Z" id="Oval" stroke="#000000" stroke-width="4"></path>
        <path class="fillColor" d="M8,34 L14,34 L14,40 C14,43.3137085 11.3137085,46 8,46 C4.6862915,46 2,43.3137085 2,40 C2,36.6862915 4.6862915,34 8,34 Z" id="Oval-Copy-2" stroke="#000000" stroke-width="4"></path>
        <rect id="Rectangle" stroke="#000000" stroke-width="4" x="14" y="14" width="20" height="20"></rect>
        <path class="fillColor" d="M40,14 L34,14 L34,8 C34,4.6862915 36.6862915,2 40,2 C43.3137085,2 46,4.6862915 46,8 C46,11.3137085 43.3137085,14 40,14 Z" id="Oval-Copy" stroke="#000000" stroke-width="4"></path>
        <path class="fillColor" d="M40,34 C43.3137085,34 46,36.6862915 46,40 C46,43.3137085 43.3137085,46 40,46 C36.6862915,46 34,43.3137085 34,40 L34,34 L40,34 Z" id="Oval-Copy-3" stroke="#000000" stroke-width="4"></path>
    </g>
</svg>
