<?xml version="1.0" encoding="UTF-8"?>
<svg width="48px" height="48px" viewBox="0 0 48 48" version="1.1" xmlns="http://www.w3.org/2000/svg" xmlns:xlink="http://www.w3.org/1999/xlink">
    <!-- Generator: Sketch 49.3 (51167) - http://www.bohemiancoding.com/sketch -->
    <title>abstract/company</title>
    <desc>Created with Sketch.</desc>
    <defs></defs>
    <g id="abstract/company" stroke="none" stroke-width="1" fill="none" fill-rule="evenodd">
        <path d="M23.2618266,30.9788665 L23.2618266,44 L42,44 C43.1045695,44 44,43.1045695 44,42 L44,24 C44,22.8954305 44.8954305,22 46,22 C47.1045695,22 48,22.8954305 48,24 L48,42 C48,45.3137085 45.3137085,48 42,48 L6,48 C2.6862915,48 0,45.3137085 0,42 L0,24.1510075 C0,23.046438 0.8954305,22.1510075 2,22.1510075 C3.1045695,22.1510075 4,23.046438 4,24.1510075 L4,42 C4,43.1045695 4.8954305,44 6,44 L19.2618266,44 L19.2618266,16 C19.2618266,14.8954305 20.1572571,14 21.2618266,14 C22.3663961,14 23.2618266,14.8954305 23.2618266,16 L23.2618266,26.9788665 L33,26.9788665 C34.1045695,26.9788665 35,27.874297 35,28.9788665 C35,30.083436 34.1045695,30.9788665 33,30.9788665 L23.2618266,30.9788665 Z M24.2185699,4.15662731 L3.32492561,16.2409768 C2.36872596,16.7940182 1.14531676,16.4670686 0.592364683,15.5107144 C0.0394126084,14.5543603 0.366309363,13.3307534 1.32250902,12.7777119 L22.7181228,0.403036166 C23.6494394,-0.135613545 24.7978369,-0.134256859 25.7278786,0.406591812 L47.0052956,12.7800824 C47.9601863,13.3353815 48.284192,14.5597574 47.7289826,15.5148024 C47.1737732,16.4698474 45.9495951,16.7939055 44.9947044,16.2386063 L24.2185699,4.15662731 Z" id="company" fill="#000000" fill-rule="nonzero"></path>
    </g>
</svg>