<?xml version="1.0" encoding="UTF-8"?>
<svg width="48px" height="48px" viewBox="0 0 48 48" version="1.1" xmlns="http://www.w3.org/2000/svg" xmlns:xlink="http://www.w3.org/1999/xlink">
    <!-- Generator: Sketch 49.3 (51167) - http://www.bohemiancoding.com/sketch -->
    <title>abstract/data</title>
    <desc>Created with Sketch.</desc>
    <defs></defs>
    <g id="abstract/data" stroke="none" stroke-width="1" fill="none" fill-rule="evenodd">
        <path d="M2,44 L46,44 C47.1045695,44 48,44.8954305 48,46 C48,47.1045695 47.1045695,48 46,48 L2,48 C0.8954305,48 1.3527075e-16,47.1045695 0,46 C-1.3527075e-16,44.8954305 0.8954305,44 2,44 Z M8,38 C8,39.1045695 7.1045695,40 6,40 C4.8954305,40 4,39.1045695 4,38 L4,18 C4,16.8954305 4.8954305,16 6,16 C7.1045695,16 8,16.8954305 8,18 L8,38 Z M20,38 C20,39.1045695 19.1045695,40 18,40 C16.8954305,40 16,39.1045695 16,38 L16,2 C16,0.8954305 16.8954305,0 18,0 C19.1045695,0 20,0.8954305 20,2 L20,38 Z M32,38 C32,39.1045695 31.1045695,40 30,40 C28.8954305,40 28,39.1045695 28,38 L28,26 C28,24.8954305 28.8954305,24 30,24 C31.1045695,24 32,24.8954305 32,26 L32,38 Z M44,38 C44,39.1045695 43.1045695,40 42,40 C40.8954305,40 40,39.1045695 40,38 L40,9 C40,7.8954305 40.8954305,7 42,7 C43.1045695,7 44,7.8954305 44,9 L44,38 Z" id="data" fill="#000000"></path>
    </g>
</svg>