<?xml version="1.0" encoding="UTF-8"?>
<svg width="48px" height="48px" viewBox="0 0 48 48" version="1.1" xmlns="http://www.w3.org/2000/svg" xmlns:xlink="http://www.w3.org/1999/xlink">
    <!-- Generator: Sketch 50.2 (55047) - http://www.bohemiancoding.com/sketch -->
    <title>others/data-all</title>
    <desc>Created with Sketch.</desc>
    <defs></defs>
    <g id="others/data-all" stroke="none" stroke-width="1" fill="none" fill-rule="evenodd" stroke-linecap="round" stroke-linejoin="round">
        <path class="fillColor" d="M3.44454772,33.5 C6.60758922,36.1313702 14.6179574,38 24,38 C33.3820426,38 41.3924108,36.1313702 44.5554523,33.5 C45.4887246,34.2763999 46,35.1192021 46,36 C46,39.8659932 36.1502645,43 24,43 C11.8497355,43 2,39.8659932 2,36 C2,35.1192021 2.5112754,34.2763999 3.44454772,33.5 Z" id="Combined-Shape" stroke="#000000" stroke-width="4" fill="#000000"></path>
        <path class="fillColor" d="M3.44454772,21.5 C6.60758922,24.1313702 14.6179574,26 24,26 C33.3820426,26 41.3924108,24.1313702 44.5554523,21.5 C45.4887246,22.2763999 46,23.1192021 46,24 C46,27.8659932 36.1502645,31 24,31 C11.8497355,31 2,27.8659932 2,24 C2,23.1192021 2.5112754,22.2763999 3.44454772,21.5 Z" id="Combined-Shape-Copy" stroke="#000000" stroke-width="4" fill="#000000"></path>
        <ellipse class="fillColor" id="Oval-2" stroke="#000000" stroke-width="4" fill="#000000" cx="24" cy="12" rx="22" ry="7"></ellipse>
    </g>
</svg>
