<?xml version="1.0" encoding="UTF-8"?>
<svg width="48px" height="48px" viewBox="0 0 48 48" version="1.1" xmlns="http://www.w3.org/2000/svg" xmlns:xlink="http://www.w3.org/1999/xlink">
    <!-- Generator: Sketch 49.3 (51167) - http://www.bohemiancoding.com/sketch -->
    <title>abstract/diagnosis</title>
    <desc>Created with Sketch.</desc>
    <defs></defs>
    <g id="abstract/diagnosis" stroke="none" stroke-width="1" fill="none" fill-rule="evenodd">
        <path d="M40,23.747965 L40,33.9772949 C40,41.7092814 33.7319865,47.9772949 26,47.9772949 C18.2680135,47.9772949 12,41.7092814 12,33.9772949 L12,33.8340831 C6.32457332,32.8819269 2,27.9459926 2,22 L2,3 C2,1.34314575 3.34314575,0 5,0 L7.94580078,0 C9.05037028,0 9.94580078,0.8954305 9.94580078,2 C9.94580078,3.1045695 9.05037028,4 7.94580078,4 L6,4 L6,22 C6,26.418278 9.581722,30 14,30 C18.418278,30 22,26.418278 22,22 L22,4 L20.0610352,4 C18.9564657,4 18.0610352,3.1045695 18.0610352,2 C18.0610352,0.8954305 18.9564657,0 20.0610352,0 L23,0 C24.6568542,0 26,1.34314575 26,3 L26,22 C26,27.9459926 21.6754267,32.8819269 16,33.8340831 L16,33.9772949 C16,39.5001424 20.4771525,43.9772949 26,43.9772949 C31.5228475,43.9772949 36,39.5001424 36,33.9772949 L36,23.747965 C32.5495456,22.8598794 30,19.7276789 30,16 C30,11.581722 33.581722,8 38,8 C42.418278,8 46,11.581722 46,16 C46,19.7276789 43.4504544,22.8598794 40,23.747965 Z M38,20 C40.209139,20 42,18.209139 42,16 C42,13.790861 40.209139,12 38,12 C35.790861,12 34,13.790861 34,16 C34,18.209139 35.790861,20 38,20 Z" id="diagnosis" fill="#000000" fill-rule="nonzero"></path>
    </g>
</svg>