<?xml version="1.0" encoding="UTF-8"?>
<svg width="48px" height="48px" viewBox="0 0 48 48" version="1.1" xmlns="http://www.w3.org/2000/svg" xmlns:xlink="http://www.w3.org/1999/xlink">
    <!-- Generator: Sketch 50.2 (55047) - http://www.bohemiancoding.com/sketch -->
    <title>others/document-file</title>
    <desc>Created with Sketch.</desc>
    <defs></defs>
    <g id="others/document-file" stroke="none" stroke-width="1" fill="none" fill-rule="evenodd" stroke-linecap="round" stroke-linejoin="round">
        <path d="M26,41 L2,41 C2,43.7614237 4.23857625,46 7,46 C8.84094917,46 16.1742825,46 31,46" id="Oval-7" stroke="#000000" stroke-width="4"></path>
        <path d="M26,41 C26,43.7614237 28.2385763,46 31,46 C33.7614237,46 36,43.7614237 36,41 C36,39.1590508 36,27.8257175 36,7" id="Oval-7-Copy" stroke="#000000" stroke-width="4"></path>
        <path d="M12,41 L12,7 C12,4.23857625 14.2385763,2 17,2 L41,2" id="Oval-7" stroke="#000000" stroke-width="4"></path>
        <path d="M36,7 C36,4.23857625 38.2385763,2 41,2 C43.7614237,2 46,4.23857625 46,7 L46,9 L36,9 L36,7 Z" id="Oval-7-Copy" stroke="#000000" stroke-width="4"></path>
        <path d="M18,9 L30,9" id="Path-18" stroke="#000000" stroke-width="4"></path>
        <path d="M18,16 L30,16" id="Path-18-Copy" stroke="#000000" stroke-width="4"></path>
        <path d="M18,23 L30,23" id="Path-18-Copy-2" stroke="#000000" stroke-width="4"></path>
    </g>
</svg>