<?xml version="1.0" encoding="UTF-8"?>
<svg width="48px" height="48px" viewBox="0 0 48 48" version="1.1" xmlns="http://www.w3.org/2000/svg" xmlns:xlink="http://www.w3.org/1999/xlink">
    <!-- Generator: Sketch 49.3 (51167) - http://www.bohemiancoding.com/sketch -->
    <title>abstract/dynamics</title>
    <desc>Created with Sketch.</desc>
    <defs></defs>
    <g id="abstract/dynamics" stroke="none" stroke-width="1" fill="none" fill-rule="evenodd">
        <path d="M43.7617517,9.05167312 C43.2364961,8.07998367 43.5984023,6.86646998 44.5700918,6.34121444 C45.5417812,5.81595889 46.7552949,6.17786508 47.2805505,7.14955453 C47.7502569,8.01848162 48,8.99344636 48,10 L48,42 C48,45.3137085 45.3137085,48 42,48 L6,48 C2.6862915,48 4.4408921e-16,45.3137085 0,42 L0,10 C0,9.06628243 0.21488697,8.15908079 0.621972631,7.33776878 C1.11250635,6.34809689 2.31245008,5.94346545 3.30212197,6.43399917 C4.29179386,6.92453289 4.6964253,8.12447662 4.20589158,9.11414851 C4.07098647,9.3863251 4,9.68601309 4,10 L4,42 C4,43.1045695 4.8954305,44 6,44 L42,44 C43.1045695,44 44,43.1045695 44,42 L44,10 C44,9.66174853 43.9175576,9.33990429 43.7617517,9.05167312 Z M13,0 L35,0 C38.3137085,-4.4408921e-16 41,2.6862915 41,6 C41,9.3137085 38.3137085,12 35,12 L13,12 C9.6862915,12 7,9.3137085 7,6 C7,2.6862915 9.6862915,6.66133815e-16 13,0 Z M13,4 C11.8954305,4 11,4.8954305 11,6 C11,7.1045695 11.8954305,8 13,8 L35,8 C36.1045695,8 37,7.1045695 37,6 C37,4.8954305 36.1045695,4 35,4 L13,4 Z M28.6152295,31.3339092 L19.722381,28.6709132 L11.2786307,35.6912096 C10.4292779,36.3973778 9.16827898,36.2813038 8.46211072,35.431951 C7.75594246,34.5825983 7.87201647,33.3215993 8.72136926,32.615431 L17.989924,24.9093763 C18.5050863,24.4810605 19.2004881,24.3391352 19.8422901,24.5313252 L28.6898539,27.1807606 L37.2625158,19.5095943 C38.0856441,18.7730255 39.3500284,18.843196 40.0865971,19.6663244 C40.8231659,20.4894527 40.7529954,21.753837 39.9298671,22.4904057 L30.5226405,30.9083745 C30.0041413,31.3723487 29.2817685,31.5335067 28.6152295,31.3339092 Z" id="dynamics" fill="#000000" fill-rule="nonzero"></path>
    </g>
</svg>