<?xml version="1.0" encoding="UTF-8"?>
<svg width="48px" height="48px" viewBox="0 0 48 48" version="1.1" xmlns="http://www.w3.org/2000/svg" xmlns:xlink="http://www.w3.org/1999/xlink">
    <!-- Generator: Sketch 50.2 (55047) - http://www.bohemiancoding.com/sketch -->
    <title>others/more-vertical</title>
    <desc>Created with Sketch.</desc>
    <defs></defs>
    <g id="others/more-vertical" stroke="none" stroke-width="1" fill="none" fill-rule="evenodd">
        <path class="noStroke fillColor" d="M25,41 C23.3431458,41 22,39.6568542 22,38 C22,36.3431458 23.3431458,35 25,35 C26.6568542,35 28,36.3431458 28,38 C28,39.6568542 26.6568542,41 25,41 Z M25,27 C23.3431458,27 22,25.6568542 22,24 C22,22.3431458 23.3431458,21 25,21 C26.6568542,21 28,22.3431458 28,24 C28,25.6568542 26.6568542,27 25,27 Z M25,13 C23.3431458,13 22,11.6568542 22,10 C22,8.34314575 23.3431458,7 25,7 C26.6568542,7 28,8.34314575 28,10 C28,11.6568542 26.6568542,13 25,13 Z" id="more-vertical" fill="#000000"></path>
    </g>
</svg>
