<?xml version="1.0" encoding="UTF-8"?>
<svg width="48px" height="48px" viewBox="0 0 48 48" version="1.1" xmlns="http://www.w3.org/2000/svg" xmlns:xlink="http://www.w3.org/1999/xlink">
    <!-- Generator: Sketch 50.2 (55047) - http://www.bohemiancoding.com/sketch -->
    <title>others/more-horizontal</title>
    <desc>Created with Sketch.</desc>
    <defs></defs>
    <g id="others/more-horizontal" stroke="none" stroke-width="1" fill="none" fill-rule="evenodd">
        <path class="noStroke fillColor" d="M10,27 C8.34314575,27 7,25.6568542 7,24 C7,22.3431458 8.34314575,21 10,21 C11.6568542,21 13,22.3431458 13,24 C13,25.6568542 11.6568542,27 10,27 Z M24,27 C22.3431458,27 21,25.6568542 21,24 C21,22.3431458 22.3431458,21 24,21 C25.6568542,21 27,22.3431458 27,24 C27,25.6568542 25.6568542,27 24,27 Z M38,27 C36.3431458,27 35,25.6568542 35,24 C35,22.3431458 36.3431458,21 38,21 C39.6568542,21 41,22.3431458 41,24 C41,25.6568542 39.6568542,27 38,27 Z" id="more-horizontal" fill="#000000"></path>
    </g>
</svg>
