<?xml version="1.0" encoding="UTF-8"?>
<svg width="48px" height="48px" viewBox="0 0 48 48" version="1.1" xmlns="http://www.w3.org/2000/svg" xmlns:xlink="http://www.w3.org/1999/xlink">
    <!-- Generator: Sketch 50.2 (55047) - http://www.bohemiancoding.com/sketch -->
    <title>base/invisible</title>
    <desc>Created with Sketch.</desc>
    <defs></defs>
    <g id="base/invisible" stroke="none" stroke-width="1" fill="none" fill-rule="evenodd" stroke-linecap="round" stroke-linejoin="round">
        <path d="M40.2172497,15.7827503 C42.1975594,18.0736597 44.1251429,20.8127429 46,24 C39.3333333,35.3333333 32,41 24,41 C21.491577,41 19.0486976,40.4428794 16.6713619,39.3286381 M7.78275035,32.2172497 C5.80244056,29.9263403 3.87485711,27.1872571 2,24 C8.66666667,12.6666667 16,7 24,7 C26.508423,7 28.9513024,7.55712062 31.3286381,8.67136187" id="Combined-Shape" stroke="#000000" stroke-width="4"></path>
        <path d="M24,32 C28.418278,32 32,28.418278 32,24 M16,24 C16,19.581722 19.581722,16 24,16" id="Combined-Shape" stroke="#000000" stroke-width="4"></path>
        <path d="M46,2 L2,46" id="Path-111" stroke="#000000" stroke-width="4"></path>
    </g>
</svg>