<?xml version="1.0" encoding="UTF-8"?>
<svg width="48px" height="48px" viewBox="0 0 48 48" version="1.1" xmlns="http://www.w3.org/2000/svg" xmlns:xlink="http://www.w3.org/1999/xlink">
    <!-- Generator: Sketch 47 (45396) - http://www.bohemiancoding.com/sketch -->
    <title>sem</title>
    <desc>Created with Sketch.</desc>
    <defs></defs>
    <g id="Page-1" stroke="none" stroke-width="1" fill="none" fill-rule="evenodd">
        <g class="noStroke" id="sem" fill="#333333">
            <path d="M23.1669103,30.9818533 L28.6314811,30.9818533 L28.6314811,25.5140985 L23.1669103,25.5140985 L23.1669103,30.9818533 Z M16.6588821,28.2479276 C16.6588821,28.6197709 16.6807836,28.9860181 16.7237183,29.3461869 C17.1377243,32.8478231 19.5075253,35.7497246 22.7099696,36.9276784 C23.7039314,37.2934432 24.7785525,37.4930653 25.8991957,37.4930653 C28.7979133,37.4930653 31.3847032,36.1578452 33.0785485,34.0681327 C34.3670711,32.4794533 35.1395093,30.4536121 35.1395093,28.2479276 C35.1395093,27.0403538 34.9082409,25.8869065 34.4870952,24.8295558 C33.1286228,21.4158151 29.7954449,19.0022111 25.8991957,19.0022111 C25.2232399,19.0022111 24.5641686,19.0747658 23.9291213,19.2127357 C19.8745444,20.0938131 16.813061,23.637805 16.6644781,27.9225889 C16.6609082,28.0308422 16.6588821,28.1390955 16.6588821,28.2479276 L16.6588821,28.2479276 Z M18.4991133,19.7274563 L18.4891133,19.7168563 L18.4875133,19.7295563 L18.4991133,19.7274563 Z M18.4875133,19.7148864 L18.4891133,19.7169864 L18.4896133,19.7132864 L18.4875133,19.7148864 Z M45.953258,28.7290854 C45.953258,21.5087276 40.1038188,15.6559116 32.8876098,15.6559116 C32.5807957,15.6559116 32.2760077,15.6666211 31.9743072,15.6875578 C32.4894268,15.9143879 32.9866972,16.1738291 33.4639957,16.4629869 C34.8852781,17.3737809 36.1314449,18.5359116 37.1396861,19.8849286 C37.8289565,20.8069146 38.4073686,21.8172784 38.8549505,22.8950834 C38.9949464,23.2312281 39.1220138,23.5739337 39.2353806,23.9229106 L39.2364419,23.9264804 C39.5232841,24.8061106 39.7249324,25.7235618 39.8326067,26.6700543 C39.8918469,27.195208 39.9225283,27.7284663 39.9225283,28.2698291 C39.9225283,28.7959477 39.8933907,29.3155055 39.8372379,29.8268623 C39.6928037,31.1355497 39.3681404,32.390593 38.8882369,33.5654593 L38.887658,33.5654593 C37.3934349,37.2274492 34.3941826,40.1151678 30.659252,41.4595538 C30.5637344,41.493805 30.467252,41.5274774 30.3707696,41.559606 C28.9719675,42.0291859 27.4740781,42.2834171 25.9170449,42.2834171 C19.6336278,42.2834171 14.3165786,38.1427779 12.5430389,32.439606 L12.5420741,32.4366151 C12.1326027,31.120209 11.9120439,29.7211176 11.9120439,28.2698291 C11.9120439,27.5925226 11.9599957,26.9268905 12.0530047,26.2756342 C12.3618449,24.1082533 13.1659294,22.1013226 14.3477424,20.3722613 C14.5095434,20.1347216 14.679063,19.9022955 14.8551434,19.6760442 C16.256068,17.9253709 17.7477826,17.521399 18.1138369,17.4457568 C18.1423957,17.4407397 18.171051,17.4355296 18.1991273,17.4305126 C18.217459,17.4268462 18.2357907,17.422794 18.2542188,17.4197065 C18.3072841,17.408997 18.3603495,17.3987698 18.4135113,17.3875779 C18.4385002,17.3824643 18.4630067,17.3767719 18.4875133,17.3717548 C18.5340178,17.3620101 18.5804258,17.3517829 18.6269304,17.3410734 C18.653463,17.3348985 18.6795133,17.3293025 18.7060459,17.3226452 L18.7091334,17.3221628 C18.7529364,17.3124181 18.7963535,17.301805 18.8397706,17.290999 C18.8678469,17.2843417 18.8968881,17.277202 18.9249645,17.2700623 C18.9674168,17.2593528 19.0092902,17.2486432 19.0516459,17.2378372 C19.0806871,17.2302151 19.1093424,17.222593 19.1379012,17.2148744 C19.1797746,17.2036824 19.2210691,17.1919116 19.2629424,17.1807196 C19.2915977,17.1725186 19.3201565,17.1643176 19.3482329,17.1561166 C19.3905887,17.1438633 19.432462,17.1316101 19.4743354,17.1188744 C19.5019294,17.1106734 19.5295233,17.1030513 19.5570208,17.0943678 C19.6014992,17.0805709 19.64646,17.0667739 19.6907454,17.0519156 C19.715252,17.0448724 19.7392761,17.0371538 19.7633002,17.0289528 C19.8219615,17.0100422 19.8802369,16.9906492 19.9384158,16.9706774 C19.9486429,16.9676864 19.9582912,16.964599 19.9680359,16.9610291 C20.0353806,16.9380663 20.1022429,16.9140422 20.1691052,16.8900181 C20.1936118,16.8808523 20.2181183,16.8716864 20.2427213,16.8629065 C20.2850771,16.8470834 20.3279153,16.8312603 20.3702711,16.8154372 C20.3988299,16.8041487 20.4269062,16.7929568 20.4545002,16.7822472 C20.4932861,16.7674854 20.5321686,16.7521447 20.5704721,16.736804 C20.5995133,16.7250332 20.628651,16.7132623 20.6576922,16.7014915 C20.6950309,16.6856683 20.7322731,16.6709065 20.768454,16.6555658 C20.7985565,16.6428302 20.8282731,16.6305769 20.8573143,16.6177447 C20.8935917,16.6019216 20.9298691,16.5865809 20.9655675,16.5702754 C20.9951876,16.5574432 21.0248077,16.5442251 21.053849,16.531393 C21.0901263,16.5150874 21.1263072,16.4986854 21.1621022,16.4818975 C21.1912399,16.4691618 21.2202811,16.4553648 21.2488399,16.4420503 C21.2851173,16.4246834 21.3213947,16.407799 21.3576721,16.3904322 C21.3851696,16.3766352 21.4138248,16.3634171 21.4414188,16.3495236 C21.4791434,16.331192 21.516868,16.3122814 21.5546892,16.2933709 C21.5801605,16.2801528 21.6062108,16.267803 21.6317786,16.2545849 C21.6751957,16.2325869 21.7186128,16.2101065 21.7619334,16.1871437 C21.7813263,16.1769166 21.8008158,16.1666894 21.8201123,16.1564623 C21.8824399,16.1238513 21.9441887,16.0900824 22.005455,16.0559276 C22.0228218,16.0466653 22.0391273,16.0370171 22.0564942,16.0272724 C22.101455,16.0021869 22.1458369,15.977198 22.1907977,15.9521126 C22.2142429,15.9384121 22.2377846,15.9246151 22.2607474,15.9108181 C22.2984721,15.8888201 22.3367756,15.8663397 22.3741143,15.8444382 C22.3991032,15.8290975 22.4240922,15.8142392 22.4490811,15.7988985 C22.4847796,15.7774794 22.5205746,15.7560603 22.5557907,15.7335799 C22.5813585,15.7182392 22.6068299,15.7019337 22.6323977,15.6860141 C22.6671314,15.664595 22.7017686,15.6421146 22.7360198,15.6201166 C22.7615876,15.6038111 22.7865766,15.5875055 22.8121444,15.5711035 C22.8462992,15.5486231 22.8805505,15.5261427 22.9147052,15.5031799 C22.9396942,15.4868744 22.9647796,15.4699899 22.9891897,15.4531055 C23.0239233,15.4301427 23.0581746,15.4066975 23.0923294,15.3831558 C23.1158711,15.3667538 23.1403776,15.3493869 23.1643052,15.3330814 C23.1996178,15.3085749 23.2348339,15.283007 23.2694711,15.2580181 C23.2919515,15.2420985 23.3144319,15.2262754 23.3369123,15.2104523 C23.3751193,15.1823759 23.4134228,15.1537206 23.4517263,15.1256442 C23.4701545,15.1118472 23.4884861,15.0986291 23.5069143,15.0848322 C23.5635495,15.0424764 23.6197022,15.0000241 23.6753726,14.956607 C23.6871434,14.9479236 23.6983354,14.9386613 23.7101062,14.9294955 C23.7769686,14.8779739 23.842866,14.8257769 23.908667,14.7716503 L23.9091495,14.7716503 C24.0741344,14.6378291 24.2353565,14.4999558 24.3931052,14.3584161 C24.4013062,14.350794 24.4099897,14.3435578 24.4177082,14.3359357 C25.241668,13.5927317 25.9696278,12.7448442 26.5801686,11.8130171 C26.2738369,11.9729849 25.960462,12.1210854 25.6403334,12.2564503 L25.639851,12.2564503 C24.6463716,12.6768241 23.5895997,12.9766915 22.4869022,13.1365628 C21.8753002,13.2255196 21.2499012,13.2719276 20.6137927,13.2719276 C19.6096037,13.2719276 18.6319474,13.1570171 17.6942349,12.9399317 C17.5889726,12.9159075 17.4838067,12.8898573 17.3797022,12.8633246 C17.2372942,12.8264683 17.0963334,12.7876824 16.9565304,12.745809 L16.947268,12.7433005 L16.9436982,12.7422392 L16.9432158,12.7422392 C16.8906329,12.7253548 16.8523294,12.6758593 16.8523294,12.6171015 C16.8523294,12.5629749 16.8845545,12.5169528 16.9309625,12.4964985 L16.9304801,12.4960161 L16.9329887,12.4955337 C18.0091535,12.0587578 19.2976761,11.890203 20.077254,11.8258492 C20.3125746,11.8161045 20.5474128,11.8033688 20.7807072,11.786002 L20.7812861,11.786002 C21.9717826,11.6981065 23.1342027,11.509194 24.2604419,11.2276583 C25.3861022,10.9457367 26.4755816,10.5712884 27.5195213,10.1130935 C27.559851,10.0952442 27.600663,10.0772985 27.6409927,10.0589668 C27.6522811,10.0543357 27.6634731,10.0492221 27.6747615,10.0441085 C27.7012942,10.0323377 27.7273444,10.0206633 27.7538771,10.0083136 L27.7661304,10.0027176 C27.778866,9.99712161 27.7911193,9.99104322 27.803855,9.98544724 C27.8135997,9.98081608 27.8233444,9.97666734 27.8329927,9.97213266 C27.8411937,9.96856281 27.8488158,9.96499296 27.8564379,9.96142312 C27.8733223,9.95418693 27.8896278,9.94656482 27.9060299,9.93894271 C27.9417283,9.92205829 27.9769444,9.90565628 28.0126429,9.88886834 C28.0188178,9.88520201 28.0254751,9.88269347 28.03165,9.87960603 L28.0321324,9.87960603 C28.0464118,9.87246633 28.0606912,9.86532663 28.0755495,9.85876583 C28.1081605,9.84332864 28.140868,9.82750553 28.1734791,9.81168241 C28.1923897,9.80299899 28.2117826,9.79383317 28.2306932,9.78457085 C28.2449726,9.77743116 28.2593485,9.77087035 28.2741103,9.76421307 L28.2827937,9.7590995 C28.3189746,9.74173266 28.3547696,9.72388342 28.390468,9.70603417 C28.4053263,9.69879799 28.4200881,9.69117588 28.43485,9.68403618 L28.4445947,9.67940503 C28.4681364,9.66763417 28.4910027,9.65644221 28.514062,9.64418894 C28.5359635,9.6334794 28.5569002,9.62325226 28.5778369,9.61244623 C28.5834329,9.60945528 28.5891253,9.60636784 28.5942389,9.60376281 L28.6029223,9.59971055 C28.6355334,9.58234372 28.6687233,9.5654593 28.7019133,9.54809246 L28.7141665,9.54249648 C30.4259575,8.77681206 31.2774148,8.47646231 31.5536439,8.38557588 L31.5638711,8.38248844 L31.5700459,8.38036583 C31.5796942,8.37737487 31.58886,8.37428744 31.5975434,8.37168241 L31.608253,8.36811256 C31.616454,8.36560402 31.6240761,8.36309548 31.6322771,8.36049045 C31.6485826,8.3558593 31.6567836,8.35335075 31.6567836,8.35335075 C32.2652982,8.16685025 32.8922409,8.0233809 33.5339454,7.92680201 C34.1761324,7.8297407 34.8331776,7.77966633 35.5024761,7.77966633 C35.6310871,7.77966633 35.7592158,7.78121005 35.8869585,7.78535879 C36.3279796,7.79809447 36.7635012,7.83234573 37.1933304,7.88743719 C37.1345726,7.84556382 37.0759113,7.80426935 37.0166711,7.76278191 L37.014066,7.76133467 C36.4479072,7.36797588 35.8501022,7.01813065 35.2237384,6.7167196 C34.6907696,6.46026935 34.1373464,6.23855276 33.5671354,6.05465729 C33.1725223,5.92749347 32.7697082,5.81866131 32.3591756,5.72931859 C32.0130932,5.65367638 31.6613183,5.59144523 31.3054912,5.5433005 C30.5484902,5.42279397 29.7714208,5.35998392 28.9795897,5.35998392 C26.4918871,5.35998392 24.1486188,5.98113769 22.0968238,7.07727437 L22.0968238,7.07679196 C22.0426972,7.10795578 21.9799836,7.12590151 21.9131213,7.12590151 C21.7083856,7.12590151 21.5419535,6.95937286 21.5419535,6.7545407 C21.5419535,6.69829146 21.5546892,6.64474372 21.577652,6.59659899 L21.5797746,6.59158191 C21.5929927,6.56755779 21.6082369,6.54401608 21.6257002,6.52259698 C21.6384359,6.50677387 21.6527153,6.49143317 21.6674771,6.47657487 L21.6685384,6.47609246 C21.6761605,6.46847035 21.6843615,6.46181307 21.6925625,6.45467337 L21.7026932,6.44550754 L21.7079032,6.44184121 C21.7267173,6.4270794 21.7466892,6.41328241 21.7655032,6.39842412 C21.8415314,6.34072764 21.9181384,6.28399598 21.9962892,6.22842211 L21.9967716,6.22842211 C23.3180017,5.28279799 24.838854,4.59786935 26.4832037,4.24995377 L26.4832037,4.24947136 C27.1897444,4.09982714 27.9193444,4.01241407 28.6661183,3.99253869 C28.7723454,3.98993367 28.879055,3.98848643 28.9862469,3.98848643 C29.4646067,3.98848643 29.9368881,4.01656281 30.4008721,4.07117186 L30.4034771,4.07117186 C30.7378851,4.13504322 31.076249,4.18916985 31.4173143,4.23470955 L31.4177967,4.23470955 C31.9033927,4.29848442 32.3949706,4.34296281 32.8917585,4.36746935 C33.0188258,4.37354774 33.1459897,4.37875779 33.2735394,4.38174874 C33.4450851,4.38686231 33.6171133,4.38946734 33.7902027,4.38946734 C34.249652,4.38946734 34.705049,4.3721005 35.1562972,4.33833166 C35.3799434,4.32144724 35.6025283,4.30060704 35.824052,4.2750392 C36.5857806,4.18974874 37.3341947,4.05689246 38.0642771,3.87868945 C38.7987977,3.69990754 39.5161444,3.47606834 40.2125545,3.20996985 C40.2125545,3.20996985 40.2982309,3.18083216 40.4227897,3.13336281 C40.5473485,3.08579698 40.7107897,3.01999598 40.8664158,2.94589749 C40.8797304,2.93972261 40.8925625,2.93460905 40.9057806,2.92901307 L40.9026932,2.92804824 C41.0700902,2.84623116 41.2237866,2.75582714 41.3033846,2.67053668 C41.3033846,2.67053668 41.1636781,2.70748945 40.890054,2.70748945 C40.6358228,2.70748945 40.2660057,2.67555377 39.7851374,2.55253869 C39.6161967,2.49995578 39.4461947,2.4488201 39.2757103,2.39980704 L39.2710791,2.39826332 C38.503851,2.17712563 37.721668,1.9896603 36.9268459,1.83895477 C35.8032118,1.6254392 34.6539133,1.4838995 33.4843535,1.42012462 C33.4522248,1.4185809 33.4205786,1.41655477 33.38845,1.41491457 L33.3873887,1.41491457 C32.9392278,1.39204824 32.4878831,1.38027739 32.0340299,1.38027739 C31.0824238,1.38027739 30.1430711,1.43131658 29.2180942,1.53098291 C28.9153324,1.56311156 28.6141143,1.60093266 28.3149223,1.64386734 C27.7860057,1.71893065 27.2622992,1.81039598 26.7440922,1.91758794 C26.2544439,2.0182191 25.7695233,2.13322613 25.2906811,2.26087236 C22.7707535,2.93412663 20.4009525,3.97517186 18.2430268,5.32322412 L18.2424479,5.32322412 C16.0523937,6.69163417 14.0797143,8.37534874 12.3883776,10.3123296 C12.3072359,10.4047598 12.227059,10.4982513 12.147461,10.5922251 C11.8799153,10.9074332 11.6195093,11.2287196 11.3673042,11.5566633 C9.79753538,13.4043015 8.5099776,15.4996101 7.57168614,17.7752442 C6.43936855,20.5209407 5.81445197,23.5290693 5.81445197,26.6832724 C5.81445197,28.7031317 6.07070925,30.6635578 6.55215649,32.5330975 L6.5532178,32.5366673 C7.08001177,34.820599 7.99842785,36.9552724 9.23494644,38.8651417 C9.66786302,39.5348261 10.1400479,40.1768201 10.6480278,40.7878432 L10.6486067,40.7883256 L10.6490892,40.788808 C14.3105002,45.1945809 19.8301625,48 26.0048439,48 C34.6769726,48 42.0570088,42.4679879 44.8127394,34.7377206 C45.2073525,33.6308744 45.5071233,32.4789709 45.7020178,31.2918513 L45.7020178,31.2908864 C45.8614067,30.4920121 45.9470831,29.6665085 45.9527756,28.8220945 C45.9527756,28.8174633 45.953258,28.8134111 45.953258,28.8087799 L45.9527756,28.8092623 C45.953258,28.7827296 45.953258,28.7556181 45.953258,28.7290854 L45.953258,28.7290854 Z M37.6144761,12.5879638 L37.6139937,12.5879638 L37.6129324,12.5874814 C37.2377123,12.5251538 36.9717103,12.3984724 36.5158309,12.3212864 C36.238058,12.2814392 35.9543032,12.260599 35.6658208,12.260599 C35.1936359,12.260599 34.7340902,12.3156905 34.2935515,12.4203739 C32.7176077,12.7937608 31.3795897,13.7970814 30.5453062,15.1553608 C30.4861625,15.2518432 30.4295273,15.3499658 30.3754007,15.4500181 C30.5086429,15.3739899 30.6434289,15.3003739 30.7802409,15.2304241 C32.2122329,14.4922372 33.8310148,14.0769769 35.5448319,14.0769769 C36.090054,14.0769769 36.6256278,14.1188503 37.1483696,14.2000884 C37.3474128,14.2312523 37.5133625,14.2633809 37.7385525,14.309403 C37.7676902,14.3129729 37.7941263,14.3165427 37.8192118,14.3201126 C38.009861,14.345198 38.1025806,14.3554251 38.2506811,14.3554251 C38.2988258,14.3554251 38.352856,14.3543638 38.4179816,14.3523377 C38.9632037,14.3349709 39.4900942,14.2706171 39.9868821,14.1178854 C40.6882128,13.9028261 41.3305927,13.546806 41.8809283,13.0824362 C42.4413947,12.6099618 42.9075012,12.0250854 43.2459615,11.3614794 C42.6818289,11.7425849 42.0671394,12.0511357 41.4142429,12.2753608 C40.6229907,12.5465729 39.7759716,12.6937085 38.895859,12.6937085 C38.4599515,12.6937085 38.0315696,12.6579136 37.6144761,12.5879638 L37.6144761,12.5879638 Z M8.32772232,13.453797 L8.33341478,13.4446312 C8.35686001,13.4037226 8.38088413,13.363393 8.40481177,13.3224844 C8.49212835,13.1728402 8.58098865,13.0252221 8.67139267,12.877604 C8.73208011,12.7785166 8.79334644,12.6799116 8.85509518,12.5818854 C8.9301585,12.4618613 9.00676554,12.342802 9.08385498,12.2243216 L9.08385498,12.2232603 C10.3207595,10.3255477 11.7803454,8.58674171 13.4262389,7.04466332 L13.4268178,7.0441809 C14.5999474,5.9448603 15.8680158,4.94520603 17.2168399,4.05949749 L17.2208922,4.05689246 C19.169065,2.7768603 21.2861786,1.73378894 23.5319032,0.96800804 L23.5323856,0.96800804 C23.9331736,0.831099497 24.3390751,0.703356784 24.7479675,0.584876382 C25.0532379,0.495533668 25.3606309,0.412269347 25.6704359,0.333539698 C26.149857,0.212068342 26.6338128,0.103236181 27.1223997,0.00665728643 C26.9553887,0.00202613065 26.7879917,0 26.6204982,0 C25.8695756,0 25.1287836,0.0438994975 24.4013062,0.130251256 L24.4008238,0.130251256 C24.010263,0.176755779 23.6227897,0.235031156 23.2399474,0.304980905 C22.7283977,0.398472362 22.2239876,0.513382915 21.728261,0.64720402 L21.7271997,0.64720402 C19.8153042,1.16521809 18.025459,1.97895075 16.4087032,3.03678392 L16.4082208,3.03630151 C16.3953887,3.04450251 16.3806268,3.04903719 16.3642248,3.04903719 C16.3193605,3.04903719 16.2826007,3.0127598 16.2826007,2.96789548 C16.2826007,2.94744121 16.2897404,2.92959196 16.3019937,2.91521608 C16.6638992,2.52089246 17.0422067,2.14239196 17.4363374,1.78019698 C17.8044178,1.44260503 18.1858128,1.11919598 18.5804258,0.811706533 C18.6085022,0.789226131 18.6365786,0.767807035 18.664655,0.745809045 C18.7887314,0.649809045 18.9143515,0.555835176 19.0409364,0.462826131 C18.8796178,0.495051256 18.7187816,0.531232161 18.5594892,0.569632161 L18.557463,0.570114573 L18.5559193,0.570596985 C16.8548379,0.983831156 15.2855515,1.73272764 13.9214831,2.74357387 C13.8602168,2.78602613 13.7994329,2.82886432 13.7392278,2.87228141 C11.6149746,4.39602814 9.89758765,6.45255075 8.7836982,8.8473407 C8.78061076,8.8534191 8.77800574,8.85959397 8.77501478,8.86615477 C8.77038363,8.8758995 8.76575247,8.88564422 8.76170021,8.89587136 L8.7606389,8.89683618 C8.71625699,8.96987337 8.636659,9.01840402 8.54519368,9.01840402 C8.40635549,9.01840402 8.29404996,8.9055196 8.29404996,8.76658492 L8.29356755,8.76658492 C8.29404996,8.75587538 8.29453237,8.74516583 8.29511126,8.73493869 L8.29559368,8.73339497 C8.30012835,8.70319598 8.30475951,8.67309347 8.30987307,8.64289447 L8.30987307,8.64192965 C8.41967006,7.96057085 8.58253237,7.29696482 8.79489016,6.65535678 C8.96537458,6.13637789 9.16856654,5.63225729 9.4013786,5.14492462 L9.37995951,5.16634372 C6.33883388,8.34669347 4.08896051,12.2901226 2.94641579,16.6805548 C2.39453639,18.654392 2.09997559,20.7354211 2.09997559,22.8854352 C2.09997559,22.9539377 2.10055448,23.0223437 2.1015193,23.0908462 C2.13924393,27.4898653 3.41146101,31.5947095 5.58829719,35.0749266 C6.18262885,36.0255678 6.84469116,36.9291256 7.56705498,37.7797146 C5.90331227,34.3209166 4.9710992,30.4434814 4.9710992,26.3481889 C4.9710992,21.6650291 6.19025096,17.2669749 8.32772232,13.453797 L8.32772232,13.453797 Z"></path>
        </g>
    </g>
</svg>
