<svg width="48px" height="44px" viewBox="0 0 48 44" version="1.1" xmlns="http://www.w3.org/2000/svg" xmlns:xlink="http://www.w3.org/1999/xlink">
    <!-- Generator: Sketch 50.2 (55047) - http://www.bohemiancoding.com/sketch -->
    <desc>Created with Sketch.</desc>
    <defs></defs>
    <g id="Symbols" stroke="none" stroke-width="1" fill="none" fill-rule="evenodd" stroke-linecap="round" stroke-linejoin="round">
        <g id="base/movie" transform="translate(0.000000, -2.000000)" stroke="#000000" stroke-width="4">
            <rect class="fillColor" id="Rectangle-43" x="2" y="4" width="44" height="40" rx="2"></rect>
            <polygon class="innerFillColor innerStrokeColor" id="Rectangle" points="20 18 30 24 20 30"></polygon>
            <g class="innerFillColor">
            <path d="M4,4 L10,4 L10,44 L4,44 C2.8954305,44 2,43.1045695 2,42 L2,6 C2,4.8954305 2.8954305,4 4,4 Z" id="left"></path>
            <path d="M38,4 L44,4 C45.1045695,4 46,4.8954305 46,6 L46,42 C46,43.1045695 45.1045695,44 44,44 L38,44 L38,4 Z" id="right"></path>
            <path d="M2,12 L10,12" id="Path-94"></path>
            <path d="M38,12 L46,12" id="Path-94-Copy-4"></path>
            <path d="M2,20 L10,20" id="Path-94-Copy"></path>
            <path d="M38,20 L46,20" id="Path-94-Copy-5"></path>
            <path d="M2,28 L10,28" id="Path-94-Copy-2"></path>
            <path d="M38,28 L46,28" id="Path-94-Copy-6"></path>
            <path d="M2,36 L10,36" id="Path-94-Copy-3"></path>
            <path d="M38,36 L46,36" id="Path-94-Copy-7"></path>
          </g>
        </g>
    </g>
</svg>
