<?xml version="1.0" encoding="UTF-8"?>
<svg width="48px" height="48px" viewBox="0 0 48 48" version="1.1" xmlns="http://www.w3.org/2000/svg" xmlns:xlink="http://www.w3.org/1999/xlink">
    <!-- Generator: Sketch 50.2 (55047) - http://www.bohemiancoding.com/sketch -->
    <title>others/financing</title>
    <desc>Created with Sketch.</desc>
    <defs></defs>
    <g id="others/financing" stroke="none" stroke-width="1" fill="none" fill-rule="evenodd" stroke-linecap="round" stroke-linejoin="round">
        <path class="fillColor" d="M24,46 C35.045695,46 44,39.9411255 44,30 C44,24.7277024 39.3333333,18.4083722 30,11.0420091 L18,11.0420091 C8.66666667,17.0532527 4,23.372583 4,30 C4,39.9411255 12.954305,46 24,46 Z" id="Oval-7" stroke="#000000" stroke-width="4"></path>
        <polygon class="fillColor" id="Path-9" stroke="#000000" stroke-width="4" points="18 11 14 2 20 4 24 2 28 4 34 2 30 11"></polygon>
        <polyline class="innerStrokeColor" id="Path-359" stroke="#000000" stroke-width="4" points="19 19 24 24 29 19"></polyline>
        <path class="innerStrokeColor" d="M18,26 L30,26" id="Path-360" stroke="#000000" stroke-width="4"></path>
        <path class="innerStrokeColor" d="M18,32 L30,32" id="Path-360-Copy" stroke="#000000" stroke-width="4"></path>
        <path class="innerStrokeColor" d="M24,26 L24,38" id="Path-361" stroke="#000000" stroke-width="4"></path>
    </g>
</svg>
