<?xml version="1.0" encoding="UTF-8"?>
<svg width="48px" height="48px" viewBox="0 0 48 48" version="1.1" xmlns="http://www.w3.org/2000/svg" xmlns:xlink="http://www.w3.org/1999/xlink">
    <!-- Generator: Sketch 50.2 (55047) - http://www.bohemiancoding.com/sketch -->
    <desc>Created with Sketch.</desc>
    <defs></defs>
    <g id="Symbols" stroke="none" stroke-width="1" fill="none" fill-rule="evenodd" stroke-linecap="round" stroke-linejoin="round">
        <g id="weather/fog" stroke="#000000" stroke-width="4">
            <path d="M2.85352854,22 C2.30077111,20.4361054 2,18.7531771 2,17 C2,8.71572875 8.71572875,2 17,2 C23.9267933,2 29.7569769,6.69514477 31.481679,13.0765628 C32.8387832,12.3880399 34.3740758,12 36,12 C41.5228475,12 46,16.4771525 46,22" id="Combined-Shape"></path>
            <path d="M4,38 L10,38" id="Path-31"></path>
            <path d="M18,38 L30,38" id="Path-31-Copy-3"></path>
            <path d="M38,38 L44,38" id="Path-31-Copy-5"></path>
            <path d="M4,30 L27,30" id="Path-31-Copy-2"></path>
            <path d="M35,30 L44,30" id="Path-31-Copy-4"></path>
            <path d="M4,46 L13,46" id="Path-31-Copy-6"></path>
            <path d="M21,46 L44,46" id="Path-31-Copy"></path>
            <path d="M11,22 L38,22" id="Path-459"></path>
        </g>
    </g>
</svg>
