<?xml version="1.0" encoding="UTF-8"?>
<svg width="48px" height="48px" viewBox="0 0 48 48" version="1.1" xmlns="http://www.w3.org/2000/svg" xmlns:xlink="http://www.w3.org/1999/xlink">
    <!-- Generator: Sketch 50.2 (55047) - http://www.bohemiancoding.com/sketch -->
    <desc>Created with Sketch.</desc>
    <defs></defs>
    <g id="Symbols" stroke="none" stroke-width="1" fill="none" fill-rule="evenodd" stroke-linecap="round" stroke-linejoin="round">
        <g id="others/football" stroke="#000000" stroke-width="4">
            <circle id="Oval" cx="24" cy="24" r="22"></circle>
            <polyline id="Path-374" points="31 4 24 9 24 14 33 21 38 19 41 11"></polyline>
            <polyline id="Path-375" points="17 4 24 9 24 14 15 21 10 19 7 11"></polyline>
            <polyline id="Path-376" points="3 22 10 19 15 21 18 32 15 36 6 36"></polyline>
            <polyline id="Path-377" points="15 43 15 36 18 32 30 32 33 36 33 43"></polyline>
            <polyline id="Path-378" points="42 36 33 36 30 32 33 21 38 19 46 23"></polyline>
        </g>
    </g>
</svg>
