<?xml version="1.0" encoding="UTF-8"?>
<svg width="45px" height="45px" viewBox="0 0 45 45" version="1.1" xmlns="http://www.w3.org/2000/svg" xmlns:xlink="http://www.w3.org/1999/xlink">
    <!-- Generator: Sketch 47 (45396) - http://www.bohemiancoding.com/sketch -->
    <title>资源竞拍</title>
    <desc>Created with Sketch.</desc>
    <defs></defs>
    <g id="Page-1" stroke="none" stroke-width="1" fill="none" fill-rule="evenodd">
        <g id="备注" transform="translate(-627.000000, -915.000000)" stroke="#333333" stroke-width="4">
            <g id="资源竞拍" transform="translate(627.000000, 914.000000)">
                <g id="Group-3" transform="translate(28.207107, 28.000000) rotate(-45.000000) translate(-28.207107, -28.000000) translate(8.207107, 8.500000)">
                    <rect id="Rectangle-3" x="9.31296086" y="6.42850438" width="20.6231447" height="11.6562701"></rect>
                    <path d="M23.8333333,19.5405405 L23.8333333,34.3568914 L23.8333333,34.3568914 C23.8333333,36.7451498 21.8932339,38.6812157 19.5,38.6812157 L19.5,38.6812157 L19.5,38.6812157 C17.1067661,38.6812157 15.1666667,36.7451498 15.1666667,34.3568914 L15.1666667,19.5405405 L15.1666667,19.5405405" id="Rectangle-3-Copy-3"></path>
                    <path d="M9.24695167,19.013164 C8.53984489,21.1344843 6.99772306,22.8559828 4.60448914,22.8559828 C2.21125523,22.8559828 9.39171691e-13,20.7666368 9.38878604e-13,18.3783784 L9.37916411e-13,4.32432432 C9.37623325e-13,1.93606595 1.94009942,-4.61372682e-13 4.33333333,-4.61852778e-13 C6.72656725,-4.62332875e-13 9.22565668,2.50406497 9.22565668,4.89232334" id="Rectangle-3-Copy"></path>
                    <path d="M39.2469517,19.3535534 C39.2469517,22.1819805 36.7507714,23.8559828 34.3575375,23.8559828 C31.9643036,23.8559828 29.7530483,21.7666368 29.7530483,19.3783784 L29.7530483,5.32432432 C29.7530483,2.93606595 31.6931477,1 34.0863817,1 C36.4796156,1 38.978705,3.50406497 38.978705,5.89232334" id="Rectangle-3-Copy-4" transform="translate(34.500000, 12.427991) scale(-1, 1) translate(-34.500000, -12.427991) "></path>
                </g>
            </g>
        </g>
    </g>
</svg>