<?xml version="1.0" encoding="UTF-8"?>
<svg width="48px" height="48px" viewBox="0 0 48 48" version="1.1" xmlns="http://www.w3.org/2000/svg" xmlns:xlink="http://www.w3.org/1999/xlink">
    <!-- Generator: Sketch 47 (45396) - http://www.bohemiancoding.com/sketch -->
    <title>hi-in</title>
    <desc>Created with Sketch.</desc>
    <defs></defs>
    <g id="【已公示】图标" stroke="none" stroke-width="1" fill="none" fill-rule="evenodd">
        <g class="noStroke" id="图标-通用" transform="translate(-420.000000, -1438.000000)" fill-rule="nonzero" fill="#333333">
            <g class="noStroke" id="hi实心" transform="translate(419.000000, 1438.000000)">
                <path class="noStroke" d="M5.326192,16.3984476 C5.326192,16.3984476 -4.05957758,10.3857541 4.61203878,2.79355082 C4.61203878,2.79355082 11.7534342,-2.40388531 16.4462849,5.29025929 C16.4462849,5.29025929 22.9245869,1.26484092 32.7694159,5.18831802 C32.7694159,5.18831802 37.3092923,-1.9453884 44.399628,2.94629208 C44.399628,2.94629208 48.7354703,5.85076581 47.2051811,11.8124545 C47.2051811,11.8124545 46.5420877,14.9207425 43.787526,16.3984476 C43.787526,16.3984476 47.4602065,24.1435288 43.787526,33.2645103 C43.787526,33.2645103 41.7471175,37.1371191 44.0936112,40.2452706 C44.0936112,40.2452706 44.9608753,41.9777265 47.970394,43.047803 C47.970394,43.047803 51.1839468,44.4745716 45.8789258,45.5955162 C45.8789258,45.5955162 43.0223813,46.0541497 39.6047262,44.5255081 L35.1158412,42.8949251 C35.1158412,42.8949251 26.2911822,48.6527995 15.6811402,43.8630603 C5.07109825,39.0733211 1.39841766,26.6403738 5.326192,16.3984476 Z M16.3795053,14.6815459 C15.4857041,14.6815459 14.7611351,15.4061149 14.7611351,16.2999161 L14.7611351,31.5514368 C14.7611351,32.445238 15.4857041,33.169807 16.3795053,33.169807 C17.2733065,33.169807 17.9978755,32.445238 17.9978755,31.5514368 L17.9978755,24.8319638 L26.4134005,24.8319638 L26.4134005,31.5514368 C26.4134005,32.445238 27.1379695,33.169807 28.0317707,33.169807 C28.9255719,33.169807 29.6501409,32.445238 29.6501409,31.5514368 L29.6501409,16.2999161 C29.6501409,15.4061149 28.9255719,14.6815459 28.0317707,14.6815459 C27.1379695,14.6815459 26.4134005,15.4061149 26.4134005,16.2999161 L26.4134005,22.0354201 L17.9978755,22.0354201 L17.9978755,16.2999161 C17.9978755,15.4061149 17.2733065,14.6815459 16.3795053,14.6815459 Z M33.8547732,14.6815459 C33.082529,14.6815459 32.4565014,15.3075735 32.4565014,16.0798177 C32.4565014,16.852062 33.082529,17.4780896 33.8547732,17.4780896 L34.0101368,17.4780896 C34.782381,17.4780896 35.4084086,16.852062 35.4084086,16.0798177 C35.4084086,15.3075735 34.782381,14.6815459 34.0101368,14.6815459 L33.8547732,14.6815459 Z M33.932455,19.3382212 C33.1173083,19.3382212 32.4565014,19.9990282 32.4565014,20.8141749 L32.4565014,31.2494259 C32.4565014,32.0645725 33.1173083,32.7253795 33.932455,32.7253795 C34.7476017,32.7253795 35.4084086,32.0645725 35.4084086,31.2494259 L35.4084086,20.8141749 C35.4084086,19.9990282 34.7476017,19.3382212 33.932455,19.3382212 Z" id="hi-in"></path>
            </g>
        </g>
    </g>
</svg>
