<?xml version="1.0" encoding="UTF-8"?>
<svg width="48px" height="48px" viewBox="0 0 48 48" version="1.1" xmlns="http://www.w3.org/2000/svg" xmlns:xlink="http://www.w3.org/1999/xlink">
    <!-- Generator: Sketch 47 (45396) - http://www.bohemiancoding.com/sketch -->
    <title>hi</title>
    <desc>Created with Sketch.</desc>
    <defs></defs>
    <g id="【已公示】图标" stroke="none" stroke-width="1" fill="none" fill-rule="evenodd">
        <g id="图标-通用" transform="translate(-300.000000, -1438.000000)" fill-rule="nonzero" fill="#333333">
            <g id="hi" transform="translate(300.000000, 1438.000000)">
                <path class="noStroke" d="M40.2835556,40.6063211 C40.0555845,40.3365098 39.883822,40.0917423 39.7613807,39.8844118 C39.3332774,39.2926908 39.0098397,38.6560585 38.7869845,37.9854307 C38.2022043,36.2256787 38.3355459,34.430276 38.8874559,32.7334552 C39.044635,32.2502154 39.2069901,31.8634252 39.3416438,31.5914779 C40.9939812,27.436304 40.9876484,23.3344594 39.9826448,19.6766445 C39.837023,19.1466391 39.6823519,18.6784038 39.5299143,18.2791556 C39.4440929,18.0543816 39.3830056,17.9121999 39.3581363,17.8597545 L38.5426886,16.140109 L40.2197942,15.2404132 C40.7310697,14.9661357 41.1619446,14.572327 41.5213941,14.0786308 C41.8002214,13.6956673 42.0194904,13.2757559 42.1807211,12.8568805 C42.2728413,12.6175535 42.3209892,12.4497124 42.3516228,12.3142039 C42.8827403,10.2450805 42.501947,8.63865946 41.5471296,7.34514704 C41.1613404,6.82250972 40.7916764,6.49049325 40.5889372,6.35445736 C37.976148,4.55187272 35.9192311,4.85076162 34.027214,6.46930999 C33.6619418,6.78178643 33.3389516,7.11966531 33.0660964,7.45490188 C32.9109088,7.6455692 32.8146504,7.78067288 32.7825466,7.8311189 L31.8933401,9.22836804 L30.3548207,8.61521919 C25.8367107,6.81460881 21.913931,6.83299019 18.7163952,7.91366713 C17.9469137,8.17373019 17.4420907,8.41888813 17.232279,8.54925869 L15.5193594,9.61361441 L14.4692557,7.89192091 C13.6519126,6.55184935 12.7593682,5.73959172 11.8085718,5.33011301 C10.5263295,4.77789077 9.06259473,4.94425626 7.59146375,5.60755746 C7.13380916,5.81390404 6.78885215,6.01444425 6.60112839,6.14134273 C3.23485201,9.12538348 3.34370022,11.4916735 5.49844936,13.9043365 C5.85820444,14.3071526 6.248049,14.6689536 6.63608309,14.9795013 C6.8603487,15.1589835 7.02323081,15.2744763 7.09235365,15.3187576 L8.46431739,16.1976624 L7.88089641,17.7189703 C4.48862086,26.5645487 7.99270568,36.5309112 16.3003191,40.2812547 C21.0231538,42.4133053 25.6404626,42.2398652 29.7959237,40.661964 C30.473439,40.4046996 31.0744916,40.1306433 31.589239,39.8596659 C31.882756,39.7051503 32.0718423,39.5932581 32.1468759,39.5443005 L32.9835829,38.9983697 L38.0252265,40.8297416 L38.158978,40.8838641 C39.3435814,41.413711 40.4811968,41.6668789 41.476111,41.733024 C41.0074543,41.3739857 40.6114259,40.9943663 40.2835556,40.6063211 Z M2.5150586,16.5688026 C-1.03164523,12.5975742 -1.22577197,7.67710721 4.04335218,3.06386556 L4.18391702,2.95155435 C4.55680847,2.68016768 5.15806756,2.31693778 5.94734177,1.96107108 C8.34694212,0.879143087 10.9097928,0.587854034 13.3907573,1.65632901 C14.6723107,2.20825454 15.8310394,3.09987238 16.8447217,4.33616476 C17.0304971,4.2654867 17.2275389,4.19458443 17.4356757,4.12424006 C21.1428583,2.87131684 25.5472111,2.74347187 30.4308604,4.38352647 C30.7186045,4.07412902 31.0505595,3.75178668 31.4269953,3.42976025 C34.5985451,0.716620515 38.6149478,0.133000324 42.8377741,3.0465907 C43.3734661,3.40543754 44.0774599,4.03773497 44.7653284,4.96960577 C46.4023931,7.18737391 47.0720939,10.0125842 46.2448081,13.2287301 C46.0609455,14.0905963 45.6127073,15.255114 44.755099,16.4330209 C44.4081724,16.9095171 44.016852,17.3471958 43.5789618,17.7375858 C43.6651654,18.0069973 43.7527658,18.3004624 43.8397077,18.6168965 C45.0660959,23.0804639 45.0660959,28.084437 43.0204995,33.1646084 L42.9346778,33.3498477 C42.8905777,33.4335479 42.7942921,33.6540537 42.6913,33.970698 C42.3803819,34.926601 42.3082653,35.8976268 42.5828833,36.7240219 C42.6849542,37.0311792 42.8349937,37.3194466 43.041202,37.5925889 L43.1514899,37.7386756 L43.2334275,37.9023551 C43.2165104,37.8685613 43.2478696,37.9169426 43.3389468,38.0247355 C43.5436728,38.2670353 43.8330566,38.5253234 44.222986,38.779583 C44.6229945,39.0404148 45.09834,39.2755152 45.6582214,39.4745888 L45.7997633,39.5310784 C46.0322409,39.634295 46.3160821,39.7883507 46.618888,40.012515 C47.3593988,40.560708 47.8751849,41.2501659 47.8695769,42.2860349 C47.8626944,43.5573315 47.0380846,44.4035895 45.782668,44.9574246 C45.1877,45.2198985 44.432979,45.4450739 43.3937402,45.6622064 C43.3010488,45.6770885 43.1647606,45.6941422 42.9881254,45.7094774 C41.1591202,45.8682689 38.9339862,45.5983077 36.5941012,44.565612 L33.4308801,43.4165751 C32.8468658,43.723043 32.1035576,44.0643791 31.2158715,44.401449 C26.140307,46.3287296 20.4483857,46.5425354 14.6545124,43.926981 C4.77873806,39.4687156 0.413511219,28.0866963 3.65356806,17.704359 C3.28779704,17.3805416 2.90165984,17.0016783 2.5150586,16.5688026 Z M15.3795053,14.6815459 L15.3795053,14.6815459 L15.3795053,14.6815459 C16.2733065,14.6815459 16.9978755,15.4061149 16.9978755,16.2999161 L16.9978755,22.0354201 L25.4134005,22.0354201 L25.4134005,16.2999161 L25.4134005,16.2999161 C25.4134005,15.4061149 26.1379695,14.6815459 27.0317707,14.6815459 L27.0317707,14.6815459 L27.0317707,14.6815459 C27.9255719,14.6815459 28.6501409,15.4061149 28.6501409,16.2999161 L28.6501409,31.5514368 L28.6501409,31.5514368 C28.6501409,32.445238 27.9255719,33.169807 27.0317707,33.169807 L27.0317707,33.169807 L27.0317707,33.169807 C26.1379695,33.169807 25.4134005,32.445238 25.4134005,31.5514368 L25.4134005,24.8319638 L16.9978755,24.8319638 L16.9978755,31.5514368 L16.9978755,31.5514368 C16.9978755,32.445238 16.2733065,33.169807 15.3795053,33.169807 L15.3795053,33.169807 L15.3795053,33.169807 C14.4857041,33.169807 13.7611351,32.445238 13.7611351,31.5514368 L13.7611351,16.2999161 L13.7611351,16.2999161 C13.7611351,15.4061149 14.4857041,14.6815459 15.3795053,14.6815459 Z M32.8547732,14.6815459 L33.0101368,14.6815459 L33.0101368,14.6815459 C33.782381,14.6815459 34.4084086,15.3075735 34.4084086,16.0798177 L34.4084086,16.0798177 L34.4084086,16.0798177 C34.4084086,16.852062 33.782381,17.4780896 33.0101368,17.4780896 L32.8547732,17.4780896 L32.8547732,17.4780896 C32.082529,17.4780896 31.4565014,16.852062 31.4565014,16.0798177 L31.4565014,16.0798177 L31.4565014,16.0798177 C31.4565014,15.3075735 32.082529,14.6815459 32.8547732,14.6815459 Z M32.932455,19.3382212 L32.932455,19.3382212 L32.932455,19.3382212 C33.7476017,19.3382212 34.4084086,19.9990282 34.4084086,20.8141749 L34.4084086,31.2494259 L34.4084086,31.2494259 C34.4084086,32.0645725 33.7476017,32.7253795 32.932455,32.7253795 L32.932455,32.7253795 L32.932455,32.7253795 C32.1173083,32.7253795 31.4565014,32.0645725 31.4565014,31.2494259 L31.4565014,20.8141749 L31.4565014,20.8141749 C31.4565014,19.9990282 32.1173083,19.3382212 32.932455,19.3382212 Z"></path>
            </g>
        </g>
    </g>
</svg>
