<?xml version="1.0" encoding="UTF-8"?>
<svg width="48px" height="48px" viewBox="0 0 48 48" version="1.1" xmlns="http://www.w3.org/2000/svg" xmlns:xlink="http://www.w3.org/1999/xlink">
    <!-- Generator: Sketch 49.3 (51167) - http://www.bohemiancoding.com/sketch -->
    <title>abstract/intelligence</title>
    <desc>Created with Sketch.</desc>
    <defs></defs>
    <g id="abstract/intelligence" stroke="none" stroke-width="1" fill="none" fill-rule="evenodd">
        <path d="M42,48 L6,48 C2.6862915,48 0,45.3137085 0,42 L0,6 C0,2.6862915 2.6862915,0 6,0 L32,0 C35.3137085,0 38,2.6862915 38,6 L38,34.1027832 C38,35.2073527 37.1045695,36.1027832 36,36.1027832 C34.8954305,36.1027832 34,35.2073527 34,34.1027832 L34,6 C34,4.8954305 33.1045695,4 32,4 L6,4 C4.8954305,4 4,4.8954305 4,6 L4,42 C4,43.1045695 4.8954305,44 6,44 L42,44 C43.1045695,44 44,43.1045695 44,42 L44,6 C44,4.8954305 44.8954305,4 46,4 C47.1045695,4 48,4.8954305 48,6 L48,42 C48,45.3137085 45.3137085,48 42,48 Z M11,16 C9.8954305,16 9,15.1045695 9,14 C9,12.8954305 9.8954305,12 11,12 L27,12 C28.1045695,12 29,12.8954305 29,14 C29,15.1045695 28.1045695,16 27,16 L11,16 Z M11,26 C9.8954305,26 9,25.1045695 9,24 C9,22.8954305 9.8954305,22 11,22 L27,22 C28.1045695,22 29,22.8954305 29,24 C29,25.1045695 28.1045695,26 27,26 L11,26 Z M11,36 C9.8954305,36 9,35.1045695 9,34 C9,32.8954305 9.8954305,32 11,32 L19,32 C20.1045695,32 21,32.8954305 21,34 C21,35.1045695 20.1045695,36 19,36 L11,36 Z" id="intelligence" fill="#000000" fill-rule="nonzero"></path>
    </g>
</svg>