<?xml version="1.0" encoding="UTF-8"?>
<svg width="48px" height="48px" viewBox="0 0 48 48" version="1.1" xmlns="http://www.w3.org/2000/svg" xmlns:xlink="http://www.w3.org/1999/xlink">
    <!-- Generator: Sketch 50.2 (55047) - http://www.bohemiancoding.com/sketch -->
    <title>hardware/keyboard</title>
    <desc>Created with Sketch.</desc>
    <defs></defs>
    <g id="hardware/keyboard" stroke="none" stroke-width="1" fill="none" fill-rule="evenodd">
        <rect class="fillColor" id="Rectangle-2" stroke="#000000" stroke-width="4" stroke-linecap="round" stroke-linejoin="round" x="2" y="10" width="44" height="28"></rect>
        <rect class="noStroke innerFillColor" id="Path" fill="#000000" x="6" y="16" width="4" height="4" rx="1"></rect>
        <rect class="noStroke innerFillColor" id="Path" fill="#000000" x="22" y="16" width="4" height="4" rx="1"></rect>
        <rect class="noStroke innerFillColor" id="Path" fill="#000000" x="30" y="16" width="4" height="4" rx="1"></rect>
        <rect class="noStroke innerFillColor" id="Path" fill="#000000" x="14" y="16" width="4" height="4" rx="1"></rect>
        <rect class="noStroke innerFillColor" id="Path" fill="#000000" x="6" y="22" width="8" height="4" rx="1"></rect>
        <rect class="noStroke innerFillColor" id="Path" fill="#000000" x="18" y="22" width="4" height="4" rx="1"></rect>
        <rect class="noStroke innerFillColor" id="Path" fill="#000000" x="26" y="22" width="4" height="4" rx="1"></rect>
        <path class="noStroke innerFillColor" d="M35,22 L41,22 C41.5522847,22 42,22.4477153 42,23 L42,25 C42,25.5522847 41.5522847,26 41,26 L35,26 C34.4477153,26 34,25.5522847 34,25 L34,23 C34,22.4477153 34.4477153,22 35,22 Z" id="Path" fill="#000000"></path>
        <rect class="noStroke innerFillColor" id="Path" fill="#000000" x="34" y="28" width="8" height="4" rx="1"></rect>
        <path class="noStroke innerFillColor" d="M39,16 L41,16 C41.5522847,16 42,16.4477153 42,17 L42,25 C42,25.5522847 41.5522847,26 41,26 L39,26 C38.4477153,26 38,25.5522847 38,25 L38,17 C38,16.4477153 38.4477153,16 39,16 Z" id="Path" fill="#000000"></path>
        <rect class="noStroke innerFillColor" id="Path" fill="#000000" x="6" y="28" width="4" height="4" rx="1"></rect>
        <rect class="noStroke innerFillColor" id="Path" fill="#000000" x="14" y="28" width="16" height="4" rx="1"></rect>
    </g>
</svg>
