<?xml version="1.0" encoding="UTF-8"?>
<svg width="48px" height="48px" viewBox="0 0 48 48" version="1.1" xmlns="http://www.w3.org/2000/svg" xmlns:xlink="http://www.w3.org/1999/xlink">
    <!-- Generator: Sketch 49.3 (51167) - http://www.bohemiancoding.com/sketch -->
    <title>abstract/lightning</title>
    <desc>Created with Sketch.</desc>
    <defs></defs>
    <g id="abstract/lightning" stroke="none" stroke-width="1" fill="none" fill-rule="evenodd">
        <path d="M18.2782716,4 L13.4369505,23.5609045 L22.7658412,23.5609045 C22.9294663,23.5609045 23.0926209,23.5776469 23.2527957,23.6108474 C24.5607241,23.8819569 25.3839384,25.1588587 25.1326014,26.4512721 L22.9937994,37.4493395 L33.3206908,20.8826368 L25.7427934,20.8826368 C25.2709485,20.8826368 24.8105752,20.7435147 24.4179853,20.4840036 C23.3190864,19.7576076 23.0066521,18.2868203 23.696487,17.1744873 L31.866898,4 L18.2782716,4 Z M20.8418746,27.5609045 L11.4115921,27.5609045 C10.065179,27.5609045 9,26.4612013 9,25.135972 C9,24.938621 9.0239557,24.7419302 9.07139089,24.5502709 L14.69237,1.83923127 C14.9575486,0.767802447 15.9151722,0 17.0325712,0 L34.7083661,0 C36.0547792,0 37.1199583,1.09970308 37.1199583,2.42493249 C37.1199583,2.87773144 36.9938738,3.32244569 36.7546725,3.7081495 L28.5842615,16.8826368 L36.1698031,16.8826368 C37.5162163,16.8826368 38.5813953,17.9823399 38.5813953,19.3075693 C38.5813953,19.7622542 38.4542588,20.2087519 38.2131679,20.5955175 L21.8392957,46.8629646 C21.1231695,48.0117947 19.6016559,48.3524658 18.4663854,47.5981756 C17.6465619,47.0534721 17.2427027,46.0684282 17.429171,45.1095809 L20.8418746,27.5609045 Z" id="lightning" fill="#000000" fill-rule="nonzero"></path>
    </g>
</svg>