<?xml version="1.0" encoding="UTF-8"?>
<svg width="48px" height="48px" viewBox="0 0 48 48" version="1.1" xmlns="http://www.w3.org/2000/svg" xmlns:xlink="http://www.w3.org/1999/xlink">
    <!-- Generator: Sketch 50.2 (55047) - http://www.bohemiancoding.com/sketch -->
    <title>base/copy-link</title>
    <desc>Created with Sketch.</desc>
    <defs></defs>
    <g id="base/copy-link" stroke="none" stroke-width="1" fill="none" fill-rule="evenodd" stroke-linecap="round" stroke-linejoin="round">
        <g id="Group" transform="translate(24.000000, 24.000000) rotate(-45.000000) translate(-24.000000, -24.000000) translate(16.000000, -3.000000)" stroke="#000000" stroke-width="4">
            <path d="M16,22 L16,8 C16,3.581722 12.418278,0 8,0 C3.581722,0 0,3.581722 0,8 L0,20" id="Oval"></path>
            <path d="M16,52 L16,40 C16,35.581722 12.418278,32 8,32 C3.581722,32 0,35.581722 0,40 L0,54" id="Oval-Copy-2" transform="translate(8.000000, 43.000000) scale(1, -1) translate(-8.000000, -43.000000) "></path>
            <path d="M8,30 C12.418278,30 16,26.418278 16,22" id="Oval-Copy"></path>
            <path d="M0,32 C4.418278,32 8,28.418278 8,24" id="Oval-Copy-3" transform="translate(4.000000, 28.000000) scale(-1, -1) translate(-4.000000, -28.000000) "></path>
        </g>
    </g>
</svg>