<?xml version="1.0" encoding="UTF-8"?>
<svg width="48px" height="48px" viewBox="0 0 48 48" version="1.1" xmlns="http://www.w3.org/2000/svg" xmlns:xlink="http://www.w3.org/1999/xlink">
    <!-- Generator: Sketch 49.3 (51167) - http://www.bohemiancoding.com/sketch -->
    <title>abstract/list-expense</title>
    <desc>Created with Sketch.</desc>
    <defs></defs>
    <g id="abstract/list-expense" stroke="none" stroke-width="1" fill="none" fill-rule="evenodd">
        <path d="M24,48 C10.745166,48 0,37.254834 0,24 C0,10.745166 10.745166,0 24,0 C37.254834,0 48,10.745166 48,24 C48,37.254834 37.254834,48 24,48 Z M24,44 C35.045695,44 44,35.045695 44,24 C44,12.954305 35.045695,4 24,4 C12.954305,4 4,12.954305 4,24 C4,35.045695 12.954305,44 24,44 Z M25.4142136,14.1005051 L33.8994949,22.5857864 C34.6805435,23.366835 34.6805435,24.633165 33.8994949,25.4142136 L25.4142136,33.8994949 C24.633165,34.6805435 23.366835,34.6805435 22.5857864,33.8994949 L14.1005051,25.4142136 C13.3194565,24.633165 13.3194565,23.366835 14.1005051,22.5857864 L22.5857864,14.1005051 C23.366835,13.3194565 24.633165,13.3194565 25.4142136,14.1005051 Z M18.3431458,24 L24,29.6568542 L29.6568542,24 L24,18.3431458 L18.3431458,24 Z" id="list-expense" fill="#000000" fill-rule="nonzero"></path>
    </g>
</svg>