<?xml version="1.0" encoding="UTF-8"?>
<svg width="48px" height="48px" viewBox="0 0 48 48" version="1.1" xmlns="http://www.w3.org/2000/svg" xmlns:xlink="http://www.w3.org/1999/xlink">
    <!-- Generator: Sketch 49.3 (51167) - http://www.bohemiancoding.com/sketch -->
    <title>abstract/list</title>
    <desc>Created with Sketch.</desc>
    <defs></defs>
    <g id="abstract/list" stroke="none" stroke-width="1" fill="none" fill-rule="evenodd">
        <path d="M6,0 L41,0 C44.8659932,0 48,3.13400675 48,7 C48,8.89531339 47.2404966,10.6751258 45.9187673,11.9805357 C45.1328822,12.7567176 43.8665767,12.7488516 43.0903948,11.9629664 C42.3142129,11.1770813 42.3220789,9.91077577 43.1079641,9.13459389 C43.6763523,8.57322353 44,7.81479085 44,7 C44,5.34314575 42.6568542,4 41,4 L39.6585886,4 C39.8796916,4.62555785 40,5.29872915 40,6 L40,42 C40,45.3137085 37.3137085,48 34,48 L6,48 C2.6862915,48 0,45.3137085 0,42 L0,6 C0,2.6862915 2.6862915,0 6,0 Z M6,4 C4.8954305,4 4,4.8954305 4,6 L4,42 C4,43.1045695 4.8954305,44 6,44 L34,44 C35.1045695,44 36,43.1045695 36,42 L36,6 C36,4.8954305 35.1045695,4 34,4 L6,4 Z M14,16 C12.8954305,16 12,15.1045695 12,14 C12,12.8954305 12.8954305,12 14,12 L26,12 C27.1045695,12 28,12.8954305 28,14 C28,15.1045695 27.1045695,16 26,16 L14,16 Z M14,26 C12.8954305,26 12,25.1045695 12,24 C12,22.8954305 12.8954305,22 14,22 L26,22 C27.1045695,22 28,22.8954305 28,24 C28,25.1045695 27.1045695,26 26,26 L14,26 Z M14,36 C12.8954305,36 12,35.1045695 12,34 C12,32.8954305 12.8954305,32 14,32 L26,32 C27.1045695,32 28,32.8954305 28,34 C28,35.1045695 27.1045695,36 26,36 L14,36 Z" id="list" fill="#000000" fill-rule="nonzero"></path>
    </g>
</svg>