<?xml version="1.0" encoding="UTF-8"?>
<svg width="48px" height="48px" viewBox="0 0 48 48" version="1.1" xmlns="http://www.w3.org/2000/svg" xmlns:xlink="http://www.w3.org/1999/xlink">
    <!-- Generator: Sketch 49.3 (51167) - http://www.bohemiancoding.com/sketch -->
    <title>abstract/list-audit</title>
    <desc>Created with Sketch.</desc>
    <defs></defs>
    <g id="abstract/list-audit" stroke="none" stroke-width="1" fill="none" fill-rule="evenodd">
        <path d="M6,4 C4.8954305,4 4,4.8954305 4,6 L4,42 C4,43.1045695 4.8954305,44 6,44 L42,44 C43.1045695,44 44,43.1045695 44,42 L44,6 C44,4.8954305 43.1045695,4 42,4 L6,4 Z M6,0 L42,0 C45.3137085,-4.4408921e-16 48,2.6862915 48,6 L48,42 C48,45.3137085 45.3137085,48 42,48 L6,48 C2.6862915,48 4.4408921e-16,45.3137085 0,42 L0,6 C-4.4408921e-16,2.6862915 2.6862915,6.66133815e-16 6,0 Z M11,12 L12,12 C13.1045695,12 14,12.8954305 14,14 C14,15.1045695 13.1045695,16 12,16 L11,16 C9.8954305,16 9,15.1045695 9,14 C9,12.8954305 9.8954305,12 11,12 Z M29,22 L38,22 C39.1045695,22 40,22.8954305 40,24 C40,25.1045695 39.1045695,26 38,26 L29,26 C27.8954305,26 27,25.1045695 27,24 C27,22.8954305 27.8954305,22 29,22 Z M34,32 L38,32 C39.1045695,32 40,32.8954305 40,34 C40,35.1045695 39.1045695,36 38,36 L34,36 C32.8954305,36 32,35.1045695 32,34 C32,32.8954305 32.8954305,32 34,32 Z M19,12 L38,12 C39.1045695,12 40,12.8954305 40,14 C40,15.1045695 39.1045695,16 38,16 L19,16 C17.8954305,16 17,15.1045695 17,14 C17,12.8954305 17.8954305,12 19,12 Z M11,22 L22,22 C23.1045695,22 24,22.8954305 24,24 C24,25.1045695 23.1045695,26 22,26 L11,26 C9.8954305,26 9,25.1045695 9,24 C9,22.8954305 9.8954305,22 11,22 Z M11,32 L27,32 C28.1045695,32 29,32.8954305 29,34 C29,35.1045695 28.1045695,36 27,36 L11,36 C9.8954305,36 9,35.1045695 9,34 C9,32.8954305 9.8954305,32 11,32 Z" id="list-audit" fill="#000000" fill-rule="nonzero"></path>
    </g>
</svg>