<?xml version="1.0" encoding="UTF-8"?>
<svg width="48px" height="48px" viewBox="0 0 48 48" version="1.1" xmlns="http://www.w3.org/2000/svg" xmlns:xlink="http://www.w3.org/1999/xlink">
    <!-- Generator: Sketch 49.3 (51167) - http://www.bohemiancoding.com/sketch -->
    <title>abstract/list-frozen</title>
    <desc>Created with Sketch.</desc>
    <defs></defs>
    <g id="abstract/list-frozen" stroke="none" stroke-width="1" fill="none" fill-rule="evenodd">
        <path d="M15.8284271,24.3137085 L24.3137085,32.7989899 L32.7989899,24.3137085 L24.3137085,15.8284271 L15.8284271,24.3137085 Z M36.1421356,22 L46,22 C47.1045695,22 48,22.8954305 48,24 C48,25.1045695 47.1045695,26 46,26 L36.7695526,26 L26,36.7695526 L26,46 C26,47.1045695 25.1045695,48 24,48 C22.8954305,48 22,47.1045695 22,46 L22,36.1421356 L11.8578644,26 L2,26 C0.8954305,26 0,25.1045695 0,24 C0,22.8954305 0.8954305,22 2,22 L12,22 C12.1502182,22 12.2965683,22.0165612 12.4373241,22.0479573 L22.0479573,12.4373241 C22.0165612,12.2965683 22,12.1502182 22,12 L22,2 C22,0.8954305 22.8954305,0 24,0 C25.1045695,0 26,0.8954305 26,2 L26,11.8578644 L36.1421356,22 Z M9,15 C5.6862915,15 3,12.3137085 3,9 C3,5.6862915 5.6862915,3 9,3 C12.3137085,3 15,5.6862915 15,9 C15,12.3137085 12.3137085,15 9,15 Z M9,11 C10.1045695,11 11,10.1045695 11,9 C11,7.8954305 10.1045695,7 9,7 C7.8954305,7 7,7.8954305 7,9 C7,10.1045695 7.8954305,11 9,11 Z M39,15 C35.6862915,15 33,12.3137085 33,9 C33,5.6862915 35.6862915,3 39,3 C42.3137085,3 45,5.6862915 45,9 C45,12.3137085 42.3137085,15 39,15 Z M39,11 C40.1045695,11 41,10.1045695 41,9 C41,7.8954305 40.1045695,7 39,7 C37.8954305,7 37,7.8954305 37,9 C37,10.1045695 37.8954305,11 39,11 Z M9,45 C5.6862915,45 3,42.3137085 3,39 C3,35.6862915 5.6862915,33 9,33 C12.3137085,33 15,35.6862915 15,39 C15,42.3137085 12.3137085,45 9,45 Z M9,41 C10.1045695,41 11,40.1045695 11,39 C11,37.8954305 10.1045695,37 9,37 C7.8954305,37 7,37.8954305 7,39 C7,40.1045695 7.8954305,41 9,41 Z M39,45 C35.6862915,45 33,42.3137085 33,39 C33,35.6862915 35.6862915,33 39,33 C42.3137085,33 45,35.6862915 45,39 C45,42.3137085 42.3137085,45 39,45 Z M39,41 C40.1045695,41 41,40.1045695 41,39 C41,37.8954305 40.1045695,37 39,37 C37.8954305,37 37,37.8954305 37,39 C37,40.1045695 37.8954305,41 39,41 Z" id="list-frozen" fill="#000000" fill-rule="nonzero"></path>
    </g>
</svg>