<?xml version="1.0" encoding="UTF-8"?>
<svg width="48px" height="48px" viewBox="0 0 48 48" version="1.1" xmlns="http://www.w3.org/2000/svg" xmlns:xlink="http://www.w3.org/1999/xlink">
    <!-- Generator: Sketch 49.3 (51167) - http://www.bohemiancoding.com/sketch -->
    <title>abstract/list-vip</title>
    <desc>Created with Sketch.</desc>
    <defs></defs>
    <g id="abstract/list-vip" stroke="none" stroke-width="1" fill="none" fill-rule="evenodd">
        <path d="M23.8162862,32.107341 L32.5159056,13.1652763 C32.9769108,12.1615094 34.1643432,11.7215141 35.1681101,12.1825192 C36.171877,12.6435244 36.6118723,13.8309568 36.1508672,14.8347237 L25.8174808,37.3340612 C25.4442805,38.1466465 24.5950174,38.589765 23.7525211,38.4845074 C22.8847079,38.5954124 22.0144669,38.1233898 21.6575009,37.2779441 L12.1575009,14.7779441 C11.7278542,13.7603599 12.2044718,12.5871475 13.2220559,12.1575009 C14.2396401,11.7278542 15.4128525,12.2044718 15.8424991,13.2220559 L23.8162862,32.107341 Z M33.4718271,4 C32.3672576,4 31.4718271,3.1045695 31.4718271,2 C31.4718271,0.8954305 32.3672576,0 33.4718271,0 L42,0 C45.3137085,0 48,2.6862915 48,6 L48,42 C48,45.3137085 45.3137085,48 42,48 L6,48 C2.6862915,48 0,45.3137085 0,42 L0,6 C0,2.6862915 2.6862915,0 6,0 L13.7467125,0 C14.851282,0 15.7467125,0.8954305 15.7467125,2 C15.7467125,3.1045695 14.851282,4 13.7467125,4 L6,4 C4.8954305,4 4,4.8954305 4,6 L4,42 C4,43.1045695 4.8954305,44 6,44 L42,44 C43.1045695,44 44,43.1045695 44,42 L44,6 C44,4.8954305 43.1045695,4 42,4 L33.4718271,4 Z" id="list-vip" fill="#000000" fill-rule="nonzero"></path>
    </g>
</svg>