<?xml version="1.0" encoding="UTF-8"?>
<svg width="48px" height="48px" viewBox="0 0 48 48" version="1.1" xmlns="http://www.w3.org/2000/svg" xmlns:xlink="http://www.w3.org/1999/xlink">
    <!-- Generator: Sketch 49.3 (51167) - http://www.bohemiancoding.com/sketch -->
    <title>abstract/live</title>
    <desc>Created with Sketch.</desc>
    <defs></defs>
    <g id="abstract/live" stroke="none" stroke-width="1" fill="none" fill-rule="evenodd">
        <path d="M24,48 C12.954305,48 4,39.045695 4,28 C4,16.954305 12.954305,8 24,8 C35.045695,8 44,16.954305 44,28 C44,39.045695 35.045695,48 24,48 Z M24,44 C32.836556,44 40,36.836556 40,28 C40,19.163444 32.836556,12 24,12 C15.163444,12 8,19.163444 8,28 C8,36.836556 15.163444,44 24,44 Z M26,4 L26,5 C26,6.1045695 25.1045695,7 24,7 C22.8954305,7 22,6.1045695 22,5 L22,4 L16,4 C14.8954305,4 14,3.1045695 14,2 C14,0.8954305 14.8954305,0 16,0 L32,0 C33.1045695,0 34,0.8954305 34,2 C34,3.1045695 33.1045695,4 32,4 L26,4 Z M18.4136926,20.5852657 L24.0041179,26.1715748 L28.5883713,21.5873215 C29.3694199,20.8062729 30.6357498,20.8062729 31.4167984,21.5873215 C32.197847,22.36837 32.197847,23.6347 31.4167984,24.4157486 L25.4188522,30.4136948 C24.638007,31.19454 23.3720787,31.1947731 22.590946,30.4142155 L15.5863074,23.4147343 C14.8049712,22.6339734 14.8045048,21.3676435 15.5852657,20.5863074 C16.3660266,19.8049712 17.6323565,19.8045048 18.4136926,20.5852657 Z" id="live" fill="#000000" fill-rule="nonzero"></path>
    </g>
</svg>