<?xml version="1.0" encoding="UTF-8"?>
<svg width="48px" height="48px" viewBox="0 0 48 48" version="1.1" xmlns="http://www.w3.org/2000/svg" xmlns:xlink="http://www.w3.org/1999/xlink">
    <!-- Generator: Sketch 49.3 (51167) - http://www.bohemiancoding.com/sketch -->
    <title>abstract/manage-info</title>
    <desc>Created with Sketch.</desc>
    <defs></defs>
    <g id="abstract/manage-info" stroke="none" stroke-width="1" fill="none" fill-rule="evenodd">
        <path d="M12.9673521,0 C14.0719216,0 14.9673521,0.8954305 14.9673521,2 C14.9673521,3.1045695 14.0719216,4 12.9673521,4 L6,4 C4.8954305,4 4,4.8954305 4,6 L4,42 C4,43.1045695 4.8954305,44 6,44 L42,44 C43.1045695,44 44,43.1045695 44,42 L44,6 C44,4.8954305 43.1045695,4 42,4 L34.9673521,4 C33.8627826,4 32.9673521,3.1045695 32.9673521,2 C32.9673521,0.8954305 33.8627826,0 34.9673521,0 L42,0 C45.3137085,0 48,2.6862915 48,6 L48,42 C48,45.3137085 45.3137085,48 42,48 L6,48 C2.6862915,48 0,45.3137085 0,42 L0,6 C0,2.6862915 2.6862915,0 6,0 L12.9673521,0 Z M22,13 C22,11.8954305 22.8954305,11 24,11 C25.1045695,11 26,11.8954305 26,13 L26,33 C26,34.1045695 25.1045695,35 24,35 C22.8954305,35 22,34.1045695 22,33 L22,13 Z M24,4 C22.8954305,4 22,3.1045695 22,2 C22,0.8954305 22.8954305,0 24,0 C25.1045695,0 26,0.8954305 26,2 C26,3.1045695 25.1045695,4 24,4 Z" id="manage-info" fill="#000000" fill-rule="nonzero"></path>
    </g>
</svg>