<?xml version="1.0" encoding="UTF-8"?>
<svg width="48px" height="48px" viewBox="0 0 48 48" version="1.1" xmlns="http://www.w3.org/2000/svg" xmlns:xlink="http://www.w3.org/1999/xlink">
    <!-- Generator: Sketch 49.3 (51167) - http://www.bohemiancoding.com/sketch -->
    <title>abstract/manage-pic</title>
    <desc>Created with Sketch.</desc>
    <defs></defs>
    <g id="abstract/manage-pic" stroke="none" stroke-width="1" fill="none" fill-rule="evenodd">
        <path d="M44,21.8594202 C44,20.7548507 44.8954305,19.8594202 46,19.8594202 C47.1045695,19.8594202 48,20.7548507 48,21.8594202 L48,42 C48,45.3137085 45.3137085,48 42,48 L6,48 C2.6862915,48 0,45.3137085 0,42 L0,21.8594202 C0,20.7548507 0.8954305,19.8594202 2,19.8594202 C3.1045695,19.8594202 4,20.7548507 4,21.8594202 L4,42 C4,43.1045695 4.8954305,44 6,44 L42,44 C43.1045695,44 44,43.1045695 44,42 L44,21.8594202 Z M6,-3.55271368e-15 L42,-3.55271368e-15 C45.3137085,-3.99680289e-15 48,2.6862915 48,6 L48,9 C48,12.3137085 45.3137085,15 42,15 L6,15 C2.6862915,15 4.4408921e-16,12.3137085 0,9 L0,6 C-4.4408921e-16,2.6862915 2.6862915,-2.88657986e-15 6,-3.55271368e-15 Z M6,4 C4.8954305,4 4,4.8954305 4,6 L4,9 C4,10.1045695 4.8954305,11 6,11 L42,11 C43.1045695,11 44,10.1045695 44,9 L44,6 C44,4.8954305 43.1045695,4 42,4 L6,4 Z M16,30 C12.6862915,30 10,27.3137085 10,24 C10,20.6862915 12.6862915,18 16,18 C19.3137085,18 22,20.6862915 22,24 C22,27.3137085 19.3137085,30 16,30 Z M16,26 C17.1045695,26 18,25.1045695 18,24 C18,22.8954305 17.1045695,22 16,22 C14.8954305,22 14,22.8954305 14,24 C14,25.1045695 14.8954305,26 16,26 Z M9.83613051,40.0885378 C8.73527491,39.9980352 7.91622199,39.0322485 8.00672461,37.9313929 C8.09722723,36.8305373 9.06301389,36.0114844 10.1638695,36.101987 C16.3469264,36.6103033 20.829797,34.6984762 23.8946302,30.323469 C27.7357071,24.8403845 32.4756443,22 38,22 C39.1045695,22 40,22.8954305 40,24 C40,25.1045695 39.1045695,26 38,26 C33.8794824,26 30.3078759,28.1402679 27.1707386,32.6184882 C23.2573577,38.2047857 17.3851054,40.7091478 9.83613051,40.0885378 Z" id="manage-pic" fill="#000000" fill-rule="nonzero"></path>
    </g>
</svg>