<?xml version="1.0" encoding="UTF-8"?>
<svg width="48px" height="48px" viewBox="0 0 48 48" version="1.1" xmlns="http://www.w3.org/2000/svg" xmlns:xlink="http://www.w3.org/1999/xlink">
    <!-- Generator: Sketch 49.3 (51167) - http://www.bohemiancoding.com/sketch -->
    <title>abstract/manage-list</title>
    <desc>Created with Sketch.</desc>
    <defs></defs>
    <g id="abstract/manage-list" stroke="none" stroke-width="1" fill="none" fill-rule="evenodd">
        <path d="M30.1132266,13.4172487 C28.8012233,11.9922636 28,10.0896997 28,8 C28,3.581722 31.581722,0 36,0 C40.418278,0 44,3.581722 44,8 C44,10.2389585 43.0802329,12.2630939 41.5979284,13.7151763 C45.4196663,15.8915779 48,20.0752658 48,24.866334 C48,25.9709035 47.1045695,26.866334 46,26.866334 C44.8954305,26.866334 44,25.9709035 44,24.866334 C44,20.0235318 40.2153277,16.121912 35.5776323,16.121912 C30.9399368,16.121912 27.1552645,20.0235318 27.1552645,24.866334 C27.1552645,25.9709035 26.259834,26.866334 25.1552645,26.866334 C24.050695,26.866334 23.1552645,25.9709035 23.1552645,24.866334 C23.1552645,19.8464595 25.9879405,15.4933637 30.1132266,13.4172487 Z M44,31.7247893 C44,30.6202198 44.8954305,29.7247893 46,29.7247893 C47.1045695,29.7247893 48,30.6202198 48,31.7247893 L48,42 C48,45.3137085 45.3137085,48 42,48 L6,48 C2.6862915,48 0,45.3137085 0,42 L0,6 C0,2.6862915 2.6862915,0 6,0 L17.7175609,0 C18.8221304,0 19.7175609,0.8954305 19.7175609,2 C19.7175609,3.1045695 18.8221304,4 17.7175609,4 L6,4 C4.8954305,4 4,4.8954305 4,6 L4,42 C4,43.1045695 4.8954305,44 6,44 L42,44 C43.1045695,44 44,43.1045695 44,42 L44,31.7247893 Z M11.5719415,16 C10.467372,16 9.57194146,15.1045695 9.57194146,14 C9.57194146,12.8954305 10.467372,12 11.5719415,12 L17.8651883,12 C18.9697578,12 19.8651883,12.8954305 19.8651883,14 C19.8651883,15.1045695 18.9697578,16 17.8651883,16 L11.5719415,16 Z M11.5719415,27 C10.467372,27 9.57194146,26.1045695 9.57194146,25 C9.57194146,23.8954305 10.467372,23 11.5719415,23 L17.8651883,23 C18.9697578,23 19.8651883,23.8954305 19.8651883,25 C19.8651883,26.1045695 18.9697578,27 17.8651883,27 L11.5719415,27 Z M11.7353533,37 C10.6307838,37 9.7353533,36.1045695 9.7353533,35 C9.7353533,33.8954305 10.6307838,33 11.7353533,33 L37,33 C38.1045695,33 39,33.8954305 39,35 C39,36.1045695 38.1045695,37 37,37 L11.7353533,37 Z M36,12 C38.209139,12 40,10.209139 40,8 C40,5.790861 38.209139,4 36,4 C33.790861,4 32,5.790861 32,8 C32,10.209139 33.790861,12 36,12 Z" id="manage-list" fill="#000000" fill-rule="nonzero"></path>
    </g>
</svg>