<?xml version="1.0" encoding="UTF-8"?>
<svg width="48px" height="48px" viewBox="0 0 48 48" version="1.1" xmlns="http://www.w3.org/2000/svg" xmlns:xlink="http://www.w3.org/1999/xlink">
    <!-- Generator: Sketch 49.3 (51167) - http://www.bohemiancoding.com/sketch -->
    <title>abstract/manage-channel</title>
    <desc>Created with Sketch.</desc>
    <defs></defs>
    <g id="abstract/manage-channel" stroke="none" stroke-width="1" fill="none" fill-rule="evenodd">
        <path d="M44,36 L44,6 C44,4.8954305 43.1045695,4 42,4 L6,4 C4.8954305,4 4,4.8954305 4,6 L4,42 C4,43.1045695 4.8954305,44 6,44 L36,44 C37.1045695,44 38,44.8954305 38,46 C38,47.1045695 37.1045695,48 36,48 L6,48 C2.6862915,48 0,45.3137085 0,42 L0,6 C0,2.6862915 2.6862915,0 6,0 L42,0 C45.3137085,0 48,2.6862915 48,6 L48,36 C48,37.1045695 47.1045695,38 46,38 C44.8954305,38 44,37.1045695 44,36 Z M11,16 C9.8954305,16 9,15.1045695 9,14 C9,12.8954305 9.8954305,12 11,12 L37,12 C38.1045695,12 39,12.8954305 39,14 C39,15.1045695 38.1045695,16 37,16 L11,16 Z M11,26 C9.8954305,26 9,25.1045695 9,24 C9,22.8954305 9.8954305,22 11,22 L37,22 C38.1045695,22 39,22.8954305 39,24 C39,25.1045695 38.1045695,26 37,26 L11,26 Z M11,36 C9.8954305,36 9,35.1045695 9,34 C9,32.8954305 9.8954305,32 11,32 L25,32 C26.1045695,32 27,32.8954305 27,34 C27,35.1045695 26.1045695,36 25,36 L11,36 Z" id="manage-channel" fill="#000000" fill-rule="nonzero"></path>
    </g>
</svg>