<?xml version="1.0" encoding="UTF-8"?>
<svg width="48px" height="48px" viewBox="0 0 48 48" version="1.1" xmlns="http://www.w3.org/2000/svg" xmlns:xlink="http://www.w3.org/1999/xlink">
    <!-- Generator: Sketch 49.3 (51167) - http://www.bohemiancoding.com/sketch -->
    <title>abstract/manage-advertising</title>
    <desc>Created with Sketch.</desc>
    <defs></defs>
    <g id="abstract/manage-advertising" stroke="none" stroke-width="1" fill="none" fill-rule="evenodd">
        <path d="M26.6086957,24.0641678 C29.3334929,24.9166043 31.3043478,27.3933062 31.3043478,30.3157895 C31.3043478,33.2382728 29.3334929,35.7149746 26.6086957,36.5674112 L26.6086957,40.9263158 C26.6086957,42.0425123 25.6743334,42.9473684 24.5217391,42.9473684 C23.3691449,42.9473684 22.4347826,42.0425123 22.4347826,40.9263158 L22.4347826,36.5674112 C19.7099854,35.7149746 17.7391304,33.2382728 17.7391304,30.3157895 C17.7391304,27.3933062 19.7099854,24.9166043 22.4347826,24.0641678 L22.4347826,16.6736842 C22.4347826,15.5574877 23.3691449,14.6526316 24.5217391,14.6526316 C25.6743334,14.6526316 26.6086957,15.5574877 26.6086957,16.6736842 L26.6086957,24.0641678 Z M43.3043478,7.89574674 C46.0291451,8.74818327 48,11.2248851 48,14.1473684 C48,17.0698517 46.0291451,19.5465536 43.3043478,20.3989901 L43.3043478,45.9789474 C43.3043478,47.0951439 42.3699856,48 41.2173913,48 C40.064797,48 39.1304348,47.0951439 39.1304348,45.9789474 L39.1304348,20.3989901 C36.4056375,19.5465536 34.4347826,17.0698517 34.4347826,14.1473684 C34.4347826,11.2248851 36.4056375,8.74818327 39.1304348,7.89574674 L39.1304348,2.02105263 C39.1304348,0.904856085 40.064797,0 41.2173913,0 C42.3699856,0 43.3043478,0.904856085 43.3043478,2.02105263 L43.3043478,7.89574674 Z M8.86956522,20.3989901 L8.86956522,45.9789474 C8.86956522,47.0951439 7.93520296,48 6.7826087,48 C5.63001444,48 4.69565217,47.0951439 4.69565217,45.9789474 L4.69565217,20.3989901 C1.97085494,19.5465536 0,17.0698517 0,14.1473684 C0,11.2248851 1.97085494,8.74818327 4.69565217,7.89574674 L4.69565217,2.02105263 C4.69565217,0.904856085 5.63001444,0 6.7826087,0 C7.93520296,0 8.86956522,0.904856085 8.86956522,2.02105263 L8.86956522,7.89574674 C11.5943625,8.74818327 13.5652174,11.2248851 13.5652174,14.1473684 C13.5652174,17.0698517 11.5943625,19.5465536 8.86956522,20.3989901 Z M6.7826087,16.6736842 C8.22335152,16.6736842 9.39130435,15.5426141 9.39130435,14.1473684 C9.39130435,12.7521227 8.22335152,11.6210526 6.7826087,11.6210526 C5.34186587,11.6210526 4.17391304,12.7521227 4.17391304,14.1473684 C4.17391304,15.5426141 5.34186587,16.6736842 6.7826087,16.6736842 Z M41.2173913,16.6736842 C42.6581341,16.6736842 43.826087,15.5426141 43.826087,14.1473684 C43.826087,12.7521227 42.6581341,11.6210526 41.2173913,11.6210526 C39.7766485,11.6210526 38.6086957,12.7521227 38.6086957,14.1473684 C38.6086957,15.5426141 39.7766485,16.6736842 41.2173913,16.6736842 Z M24.5217391,32.8421053 C25.962482,32.8421053 27.1304348,31.7110352 27.1304348,30.3157895 C27.1304348,28.9205438 25.962482,27.7894737 24.5217391,27.7894737 C23.0809963,27.7894737 21.9130435,28.9205438 21.9130435,30.3157895 C21.9130435,31.7110352 23.0809963,32.8421053 24.5217391,32.8421053 Z" id="manage-advertising" fill="#000000" fill-rule="nonzero"></path>
    </g>
</svg>