<?xml version="1.0" encoding="UTF-8"?>
<svg width="48px" height="48px" viewBox="0 0 48 48" version="1.1" xmlns="http://www.w3.org/2000/svg" xmlns:xlink="http://www.w3.org/1999/xlink">
    <!-- Generator: Sketch 49.3 (51167) - http://www.bohemiancoding.com/sketch -->
    <title>abstract/manage-ad</title>
    <desc>Created with Sketch.</desc>
    <defs></defs>
    <g id="abstract/manage-ad" stroke="none" stroke-width="1" fill="none" fill-rule="evenodd">
        <path d="M33,4 C31.8954305,4 31,4.8954305 31,6 L31,42 C31,43.1045695 31.8954305,44 33,44 L42,44 C43.1045695,44 44,43.1045695 44,42 L44,6 C44,4.8954305 43.1045695,4 42,4 L33,4 Z M33,4.4408921e-16 L42,4.4408921e-16 C45.3137085,-8.8817842e-16 48,2.6862915 48,6 L48,42 C48,45.3137085 45.3137085,48 42,48 L33,48 C29.6862915,48 27,45.3137085 27,42 L27,6 C27,2.6862915 29.6862915,6.66133815e-16 33,4.4408921e-16 Z M6,0 L17,0 C20.3137085,-4.4408921e-16 23,2.6862915 23,6 L23,23 C23,26.3137085 20.3137085,29 17,29 L6,29 C2.6862915,29 4.4408921e-16,26.3137085 0,23 L0,6 C-4.4408921e-16,2.6862915 2.6862915,6.66133815e-16 6,0 Z M6,4 C4.8954305,4 4,4.8954305 4,6 L4,23 C4,24.1045695 4.8954305,25 6,25 L17,25 C18.1045695,25 19,24.1045695 19,23 L19,6 C19,4.8954305 18.1045695,4 17,4 L6,4 Z M6,33 L17,33 C20.3137085,33 23,35.6862915 23,39 L23,42 C23,45.3137085 20.3137085,48 17,48 L6,48 C2.6862915,48 4.4408921e-16,45.3137085 0,42 L0,39 C-4.4408921e-16,35.6862915 2.6862915,33 6,33 Z M6,37 C4.8954305,37 4,37.8954305 4,39 L4,42 C4,43.1045695 4.8954305,44 6,44 L17,44 C18.1045695,44 19,43.1045695 19,42 L19,39 C19,37.8954305 18.1045695,37 17,37 L6,37 Z" id="manage-ad" fill="#000000" fill-rule="nonzero"></path>
    </g>
</svg>