<?xml version="1.0" encoding="UTF-8"?>
<svg width="48px" height="48px" viewBox="0 0 48 48" version="1.1" xmlns="http://www.w3.org/2000/svg" xmlns:xlink="http://www.w3.org/1999/xlink">
    <!-- Generator: Sketch 49.3 (51167) - http://www.bohemiancoding.com/sketch -->
    <title>abstract/manage-video</title>
    <desc>Created with Sketch.</desc>
    <defs></defs>
    <g id="abstract/manage-video" stroke="none" stroke-width="1" fill="none" fill-rule="evenodd">
        <path d="M44,21.8594202 C44,20.7548507 44.8954305,19.8594202 46,19.8594202 C47.1045695,19.8594202 48,20.7548507 48,21.8594202 L48,42 C48,45.3137085 45.3137085,48 42,48 L6,48 C2.6862915,48 0,45.3137085 0,42 L0,21.8594202 C0,20.7548507 0.8954305,19.8594202 2,19.8594202 C3.1045695,19.8594202 4,20.7548507 4,21.8594202 L4,42 C4,43.1045695 4.8954305,44 6,44 L42,44 C43.1045695,44 44,43.1045695 44,42 L44,21.8594202 Z M6,0 L42,0 C45.3137085,-4.4408921e-16 48,2.6862915 48,6 L48,9 C48,12.3137085 45.3137085,15 42,15 L6,15 C2.6862915,15 4.4408921e-16,12.3137085 0,9 L0,6 C-4.4408921e-16,2.6862915 2.6862915,6.66133815e-16 6,0 Z M6,4 C4.8954305,4 4,4.8954305 4,6 L4,9 C4,10.1045695 4.8954305,11 6,11 L42,11 C43.1045695,11 44,10.1045695 44,9 L44,6 C44,4.8954305 43.1045695,4 42,4 L6,4 Z M20.3416408,38.4472136 C18.8597053,39.1881813 17.0576862,38.5875083 16.3167184,37.1055728 C16.1084353,36.6890065 16,36.2296673 16,35.763932 L16,23 C16,21.3431458 17.3431458,20 19,20 C19.4657353,20 19.9250745,20.1084353 20.3416408,20.3167184 L33.1055728,26.6986844 C34.5875083,27.4396522 35.1881813,29.2416713 34.4472136,30.7236068 C34.1569225,31.304189 33.686155,31.7749565 33.1055728,32.0652476 L20.3416408,38.4472136 Z M29.8200281,29.5 L20,25 L20,34 L29.8200281,29.5 Z" id="manage-video" fill="#000000" fill-rule="nonzero"></path>
    </g>
</svg>