<?xml version="1.0" encoding="UTF-8"?>
<svg width="48px" height="48px" viewBox="0 0 48 48" version="1.1" xmlns="http://www.w3.org/2000/svg" xmlns:xlink="http://www.w3.org/1999/xlink">
    <!-- Generator: Sketch 49.3 (51167) - http://www.bohemiancoding.com/sketch -->
    <title>abstract/manage-keyword</title>
    <desc>Created with Sketch.</desc>
    <defs></defs>
    <g id="abstract/manage-keyword" stroke="none" stroke-width="1" fill="none" fill-rule="evenodd">
        <path d="M44,31.7247893 C44,30.6202198 44.8954305,29.7247893 46,29.7247893 C47.1045695,29.7247893 48,30.6202198 48,31.7247893 L48,42 C48,45.3137085 45.3137085,48 42,48 L6,48 C2.6862915,48 0,45.3137085 0,42 L0,6 C0,2.6862915 2.6862915,0 6,0 L17.7175609,0 C18.8221304,0 19.7175609,0.8954305 19.7175609,2 C19.7175609,3.1045695 18.8221304,4 17.7175609,4 L6,4 C4.8954305,4 4,4.8954305 4,6 L4,42 C4,43.1045695 4.8954305,44 6,44 L42,44 C43.1045695,44 44,43.1045695 44,42 L44,31.7247893 Z M11.5719415,16 C10.467372,16 9.57194146,15.1045695 9.57194146,14 C9.57194146,12.8954305 10.467372,12 11.5719415,12 L17.8651883,12 C18.9697578,12 19.8651883,12.8954305 19.8651883,14 C19.8651883,15.1045695 18.9697578,16 17.8651883,16 L11.5719415,16 Z M11.5719415,27 C10.467372,27 9.57194146,26.1045695 9.57194146,25 C9.57194146,23.8954305 10.467372,23 11.5719415,23 L17.8651883,23 C18.9697578,23 19.8651883,23.8954305 19.8651883,25 C19.8651883,26.1045695 18.9697578,27 17.8651883,27 L11.5719415,27 Z M11.7353533,37 C10.6307838,37 9.7353533,36.1045695 9.7353533,35 C9.7353533,33.8954305 10.6307838,33 11.7353533,33 L37,33 C38.1045695,33 39,33.8954305 39,35 C39,36.1045695 38.1045695,37 37,37 L11.7353533,37 Z M29.8186857,24.783392 C28.258831,25.3419788 26.5414948,24.5302908 25.9829079,22.9704361 C25.8565897,22.6176923 25.7974672,22.2444073 25.8085991,21.8698935 L25.9710808,16.4034832 L22.626555,12.0765687 C21.6132857,10.7656715 21.8545608,8.88156232 23.165458,7.86829305 C23.4619028,7.63915347 23.798648,7.46757319 24.1582717,7.36242916 L29.4073466,5.82774478 L32.4889715,1.30982154 C33.4225913,-0.0589443104 35.2890437,-0.411699821 36.6578096,0.52192005 C36.9673408,0.733047808 37.2345833,1.00029035 37.4457111,1.30982154 L40.527336,5.82774478 L45.7764108,7.36242916 C47.3666888,7.82738251 48.2789448,9.49347678 47.8139914,11.0837549 C47.7088474,11.4433786 47.5372671,11.7801238 47.3081275,12.0765687 L43.9636017,16.4034832 L44.1260834,21.8698935 C44.1753094,23.5260163 42.8726622,24.9084747 41.2165394,24.9577008 C40.8420256,24.9688327 40.4687406,24.9097102 40.1159968,24.783392 L34.9673413,22.9396489 L29.8186857,24.783392 Z M34.9673413,18.690909 L40.084291,20.5232981 L39.9228099,15.0905503 L43.2467399,10.7902813 L38.0299893,9.26504757 L34.9673413,4.77494601 L31.9046932,9.26504757 L26.6879426,10.7902813 L30.0118726,15.0905503 L29.8503915,20.5232981 L34.9673413,18.690909 Z" id="manage-keyword" fill="#000000" fill-rule="nonzero"></path>
    </g>
</svg>