<?xml version="1.0" encoding="UTF-8"?>
<svg width="48px" height="48px" viewBox="0 0 48 48" version="1.1" xmlns="http://www.w3.org/2000/svg" xmlns:xlink="http://www.w3.org/1999/xlink">
    <!-- Generator: Sketch 49.3 (51167) - http://www.bohemiancoding.com/sketch -->
    <title>abstract/manage-order</title>
    <desc>Created with Sketch.</desc>
    <defs></defs>
    <g id="abstract/manage-order" stroke="none" stroke-width="1" fill="none" fill-rule="evenodd">
        <path d="M6,0 L15,0 C18.3137085,0 21,2.6862915 21,6 L21,15 C21,18.3137085 18.3137085,21 15,21 L6,21 C2.6862915,21 0,18.3137085 0,15 L0,6 C0,2.6862915 2.6862915,0 6,0 Z M6,4 C4.8954305,4 4,4.8954305 4,6 L4,15 C4,16.1045695 4.8954305,17 6,17 L15,17 C16.1045695,17 17,16.1045695 17,15 L17,6 C17,4.8954305 16.1045695,4 15,4 L6,4 Z M33,27 L42,27 C45.3137085,27 48,29.6862915 48,33 L48,42 C48,45.3137085 45.3137085,48 42,48 L33,48 C29.6862915,48 27,45.3137085 27,42 L27,33 C27,29.6862915 29.6862915,27 33,27 Z M33,31 C31.8954305,31 31,31.8954305 31,33 L31,42 C31,43.1045695 31.8954305,44 33,44 L42,44 C43.1045695,44 44,43.1045695 44,42 L44,33 C44,31.8954305 43.1045695,31 42,31 L33,31 Z M6,27 L15,27 C18.3137085,27 21,29.6862915 21,33 L21,42 C21,45.3137085 18.3137085,48 15,48 L6,48 C2.6862915,48 0,45.3137085 0,42 L0,33 C0,29.6862915 2.6862915,27 6,27 Z M6,31 C4.8954305,31 4,31.8954305 4,33 L4,42 C4,43.1045695 4.8954305,44 6,44 L15,44 C16.1045695,44 17,43.1045695 17,42 L17,33 C17,31.8954305 16.1045695,31 15,31 L6,31 Z M37.5,21 C31.7010101,21 27,16.2989899 27,10.5 C27,4.70101013 31.7010101,0 37.5,0 C43.2989899,0 48,4.70101013 48,10.5 C48,16.2989899 43.2989899,21 37.5,21 Z M37.5,17 C41.0898509,17 44,14.0898509 44,10.5 C44,6.91014913 41.0898509,4 37.5,4 C33.9101491,4 31,6.91014913 31,10.5 C31,14.0898509 33.9101491,17 37.5,17 Z" id="manage-order" fill="#000000" fill-rule="nonzero"></path>
    </g>
</svg>