<?xml version="1.0" encoding="UTF-8"?>
<svg width="48px" height="46px" viewBox="0 0 48 46" version="1.1" xmlns="http://www.w3.org/2000/svg" xmlns:xlink="http://www.w3.org/1999/xlink">
    <!-- Generator: Sketch 49.3 (51167) - http://www.bohemiancoding.com/sketch -->
    <title>abstract/manage-resource</title>
    <desc>Created with Sketch.</desc>
    <defs></defs>
    <g id="abstract/manage-resource" stroke="none" stroke-width="1" fill="none" fill-rule="evenodd">
        <path d="M2,18 C0.8954305,18 2.18012176e-16,17.1045695 0,16 C-2.18012176e-16,14.8954305 0.8954305,14 2,14 L20,14 C21.1045695,14 22,14.8954305 22,16 C22,17.1045695 21.1045695,18 20,18 L2,18 Z M2,32 C0.8954305,32 0,31.1045695 0,30 C0,28.8954305 0.8954305,28 2,28 L46,28 C47.1045695,28 48,28.8954305 48,30 C48,31.1045695 47.1045695,32 46,32 L2,32 Z M2,46 C0.8954305,46 1.78373599e-16,45.1045695 0,44 C-1.78373599e-16,42.8954305 0.8954305,42 2,42 L46,42 C47.1045695,42 48,42.8954305 48,44 C48,45.1045695 47.1045695,46 46,46 L2,46 Z M2,4 C0.8954305,4 2.18012176e-16,3.1045695 0,2 C-2.18012176e-16,0.8954305 0.8954305,3.77475828e-15 2,3.55271368e-15 L20,0 C21.1045695,-2.22044605e-16 22,0.8954305 22,2 C22,3.1045695 21.1045695,4 20,4 L2,4 Z M34,-3.55271368e-15 L42,-3.55271368e-15 C45.3137085,-4.21884749e-15 48,2.6862915 48,6 L48,14 C48,17.3137085 45.3137085,20 42,20 L34,20 C30.6862915,20 28,17.3137085 28,14 L28,6 C28,2.6862915 30.6862915,-2.88657986e-15 34,-3.55271368e-15 Z M34,4 C32.8954305,4 32,4.8954305 32,6 L32,14 C32,15.1045695 32.8954305,16 34,16 L42,16 C43.1045695,16 44,15.1045695 44,14 L44,6 C44,4.8954305 43.1045695,4 42,4 L34,4 Z" id="manage-resource" fill="#000000" fill-rule="nonzero"></path>
    </g>
</svg>