<?xml version="1.0" encoding="UTF-8"?>
<svg width="48px" height="48px" viewBox="0 0 48 48" version="1.1" xmlns="http://www.w3.org/2000/svg" xmlns:xlink="http://www.w3.org/1999/xlink">
    <!-- Generator: Sketch 50.2 (55047) - http://www.bohemiancoding.com/sketch -->
    <title>others/map-distance</title>
    <desc>Created with Sketch.</desc>
    <defs></defs>
    <g id="others/map-distance" stroke="none" stroke-width="1" fill="none" fill-rule="evenodd" stroke-linecap="round" stroke-linejoin="round">
        <rect class="fillColor" id="Rectangle-4-Copy" stroke="#000000" stroke-width="4" x="2" y="2" width="44" height="44"></rect>
        <path class="innerStrokeColor" d="M12,38 L36,28" id="Path-11-Copy-4" stroke="#000000" stroke-width="4" stroke-dasharray="2,6"></path>
        <path class="innerStrokeColor" d="M36,22 C38.6666667,18.139426 40,15.4727593 40,14 C40,11.790861 38.209139,10 36,10 C33.790861,10 32,11.790861 32,14 C32,15.4727593 33.3333333,18.139426 36,22 Z" id="Oval-6" stroke="#000000" stroke-width="4"></path>
        <path class="innerStrokeColor" d="M12,31 C14.6666667,27.139426 16,24.4727593 16,23 C16,20.790861 14.209139,19 12,19 C9.790861,19 8,20.790861 8,23 C8,24.4727593 9.33333333,27.139426 12,31 Z" id="Oval-6-Copy" stroke="#000000" stroke-width="4"></path>
    </g>
</svg>
