<?xml version="1.0" encoding="UTF-8"?>
<svg width="48px" height="48px" viewBox="0 0 48 48" version="1.1" xmlns="http://www.w3.org/2000/svg" xmlns:xlink="http://www.w3.org/1999/xlink">
    <!-- Generator: Sketch 49.3 (51167) - http://www.bohemiancoding.com/sketch -->
    <title>abstract/order-todown</title>
    <desc>Created with Sketch.</desc>
    <defs></defs>
    <g id="abstract/order-todown" stroke="none" stroke-width="1" fill="none" fill-rule="evenodd">
        <path d="M41.9851074,40.5877254 L41.9851074,31 C41.9851074,29.8954305 41.0896769,29 39.9851074,29 C38.8805379,29 37.9851074,29.8954305 37.9851074,31 L37.9851074,40.6337904 L35.5099882,37.7839958 C34.7856871,36.9500523 33.5224802,36.8611697 32.6885368,37.5854708 C31.8545934,38.3097719 31.7657107,39.5729787 32.4900118,40.4069222 L38.452143,47.2715811 C38.4769705,47.3011265 38.5027735,47.3300916 38.5295484,47.358431 C39.0919587,47.959759 39.8653928,48.1043961 40.5379646,47.9088746 C40.6638477,47.872797 40.7866831,47.8242338 40.904469,47.7633373 C41.1810481,47.6217369 41.426258,47.4175396 41.6128926,47.1609105 L47.4201417,40.3984445 C48.1397608,39.5604575 48.0438046,38.2977683 47.2058176,37.5781493 C46.3678306,36.8585303 45.1051414,36.9544864 44.3855223,37.7924735 L41.9851074,40.5877254 Z M0,6 C0,4.8954305 0.8954305,4 2,4 C3.1045695,4 4,4.8954305 4,6 L4,42 C4,43.1045695 4.8954305,44 6,44 L27,44 C28.1045695,44 29,44.8954305 29,46 C29,47.1045695 28.1045695,48 27,48 L6,48 C2.6862915,48 -5.32907052e-15,45.3137085 0,42 L0,6 Z M44,6 C44,4.8954305 44.8954305,4 46,4 C47.1045695,4 48,4.8954305 48,6 L48,27 C48,28.1045695 47.1045695,29 46,29 C44.8954305,29 44,28.1045695 44,27 L44,6 Z M12,4 C10.8954305,4 10,3.1045695 10,2 C10,0.8954305 10.8954305,0 12,0 L36,0 C37.1045695,0 38,0.8954305 38,2 C38,3.1045695 37.1045695,4 36,4 L12,4 Z M18,17 C16.8954305,17 16,16.1045695 16,15 C16,13.8954305 16.8954305,13 18,13 L30,13 C31.1045695,13 32,13.8954305 32,15 C32,16.1045695 31.1045695,17 30,17 L18,17 Z M18,27 C16.8954305,27 16,26.1045695 16,25 C16,23.8954305 16.8954305,23 18,23 L30,23 C31.1045695,23 32,23.8954305 32,25 C32,26.1045695 31.1045695,27 30,27 L18,27 Z M18,37 C16.8954305,37 16,36.1045695 16,35 C16,33.8954305 16.8954305,33 18,33 L25,33 C26.1045695,33 27,33.8954305 27,35 C27,36.1045695 26.1045695,37 25,37 L18,37 Z" id="order-todown" fill="#000000" fill-rule="nonzero"></path>
    </g>
</svg>