<?xml version="1.0" encoding="UTF-8"?>
<svg width="48px" height="48px" viewBox="0 0 48 48" version="1.1" xmlns="http://www.w3.org/2000/svg" xmlns:xlink="http://www.w3.org/1999/xlink">
    <!-- Generator: Sketch 49.3 (51167) - http://www.bohemiancoding.com/sketch -->
    <title>abstract/order</title>
    <desc>Created with Sketch.</desc>
    <defs></defs>
    <g id="abstract/order" stroke="none" stroke-width="1" fill="none" fill-rule="evenodd">
        <path d="M0,6 C0,4.8954305 0.8954305,4 2,4 C3.1045695,4 4,4.8954305 4,6 L4,42 C4,43.1045695 4.8954305,44 6,44 L42,44 C43.1045695,44 44,43.1045695 44,42 L44,6 C44,4.8954305 44.8954305,4 46,4 C47.1045695,4 48,4.8954305 48,6 L48,42 C48,45.3137085 45.3137085,48 42,48 L6,48 C2.6862915,48 0,45.3137085 0,42 L0,6 Z M12,4 C10.8954305,4 10,3.1045695 10,2 C10,0.8954305 10.8954305,0 12,0 L36,0 C37.1045695,0 38,0.8954305 38,2 C38,3.1045695 37.1045695,4 36,4 L12,4 Z M18,17 C16.8954305,17 16,16.1045695 16,15 C16,13.8954305 16.8954305,13 18,13 L30,13 C31.1045695,13 32,13.8954305 32,15 C32,16.1045695 31.1045695,17 30,17 L18,17 Z M18,27 C16.8954305,27 16,26.1045695 16,25 C16,23.8954305 16.8954305,23 18,23 L30,23 C31.1045695,23 32,23.8954305 32,25 C32,26.1045695 31.1045695,27 30,27 L18,27 Z M18,37 C16.8954305,37 16,36.1045695 16,35 C16,33.8954305 16.8954305,33 18,33 L30,33 C31.1045695,33 32,33.8954305 32,35 C32,36.1045695 31.1045695,37 30,37 L18,37 Z" id="order" fill="#000000" fill-rule="nonzero"></path>
    </g>
</svg>