<?xml version="1.0" encoding="UTF-8"?>
<svg width="48px" height="48px" viewBox="0 0 48 48" version="1.1" xmlns="http://www.w3.org/2000/svg" xmlns:xlink="http://www.w3.org/1999/xlink">
    <!-- Generator: Sketch 49.3 (51167) - http://www.bohemiancoding.com/sketch -->
    <title>abstract/orienteering</title>
    <desc>Created with Sketch.</desc>
    <defs></defs>
    <g id="abstract/orienteering" stroke="none" stroke-width="1" fill="none" fill-rule="evenodd">
        <path d="M45.7971625,27 C44.4225908,37.0811949 36.2187131,44.9894564 26,45.910314 L26,46 C26,47.1045695 25.1045695,48 24,48 C22.8954305,48 22,47.1045695 22,46 L22,45.910314 C11.7812869,44.9894564 3.57740916,37.0811949 2.20283748,27 L2,27 C0.8954305,27 0,26.1045695 0,25 C0,23.8954305 0.8954305,23 2,23 L2.02232268,23 C2.51528742,11.9806799 11.1144564,3.07063491 22,2.08968603 L22,2 C22,0.8954305 22.8954305,0 24,0 C25.1045695,0 26,0.8954305 26,2 L26,2.08968603 C36.8855436,3.07063491 45.4847126,11.9806799 45.9776769,22.9999913 L46,23 C47.1045695,23 48,23.8954305 48,25 C48,26.1045695 47.1045695,27 46,27 L45.7971625,27 Z M41.7511247,27 L34.585935,27 C33.4572118,30.9907301 30.1326564,34.0595151 26,34.8186238 L26,41.8901424 C34.0070221,41.005011 40.431144,34.8678833 41.7511247,27 Z M41.9726916,23 C41.4903276,14.1909096 34.6739489,7.06871396 26,6.10985756 L26,13.1813762 C30.8001444,14.0630927 34.510065,18.0608356 34.955157,23 L41.9726916,23 Z M6.24887532,27 C7.56885603,34.8678833 13.9929779,41.005011 22,41.8901424 L22,34.8186238 C17.8673436,34.0595151 14.5427882,30.9907301 13.414065,27 L6.24887532,27 Z M6.02730838,23 L13.044843,23 C13.489935,18.0608356 17.1998556,14.0630927 22,13.1813762 L22,6.10985756 C13.3260511,7.06871396 6.50967236,14.1909096 6.02730838,23 Z M24,31 C27.8659932,31 31,27.8659932 31,24 C31,20.1340068 27.8659932,17 24,17 C20.1340068,17 17,20.1340068 17,24 C17,27.8659932 20.1340068,31 24,31 Z" id="orienteering" fill="#000000" fill-rule="nonzero"></path>
    </g>
</svg>