<?xml version="1.0" encoding="UTF-8"?>
<svg width="48px" height="48px" viewBox="0 0 48 48" version="1.1" xmlns="http://www.w3.org/2000/svg" xmlns:xlink="http://www.w3.org/1999/xlink">
    <!-- Generator: Sketch 50.2 (55047) - http://www.bohemiancoding.com/sketch -->
    <title>others/parachute</title>
    <desc>Created with Sketch.</desc>
    <defs></defs>
    <g id="others/parachute" stroke="none" stroke-width="1" fill="none" fill-rule="evenodd" stroke-linecap="round" stroke-linejoin="round">
        <path class="fillColor" d="M16,24 C18.6666667,21.3333333 21.3333333,20 24,20 C26.6666667,20 29.3333333,21.3333333 32,24 C35.1111111,21.3333333 37.4444444,20 39,20 C40.5555556,20 42.8888889,21.3333333 46,24 C46,11.8497355 36.1502645,2 24,2 C11.8497355,2 2,11.8497355 2,24 C5.11111111,21.3333333 7.44444444,20 9,20 C10.5555556,20 12.8888889,21.3333333 16,24 Z" id="Oval-9" stroke="#000000" stroke-width="4"></path>
        <polyline id="Path-17" stroke="#000000" stroke-width="4" points="2 24 24 46 16 24"></polyline>
        <polyline id="Path-18" stroke="#000000" stroke-width="4" points="32 24 24 46 46 24"></polyline>
    </g>
</svg>
