<?xml version="1.0" encoding="UTF-8"?>
<svg width="48px" height="48px" viewBox="0 0 48 48" version="1.1" xmlns="http://www.w3.org/2000/svg" xmlns:xlink="http://www.w3.org/1999/xlink">
    <!-- Generator: Sketch 50.2 (55047) - http://www.bohemiancoding.com/sketch -->
    <title>others/people-two</title>
    <desc>Created with Sketch.</desc>
    <defs></defs>
    <g id="others/people-two" stroke="none" stroke-width="1" fill="none" fill-rule="evenodd">
        <path class="noStroke fillColor" d="M18,29 L18,46 C18,47.1045695 17.1045695,48 16,48 L10,48 C8.8954305,48 8,47.1045695 8,46 L8,29 C8,27.8954305 7.1045695,27 6,27 C4.8954305,27 4,26.1045695 4,25 L4,12 C4,10.8954305 4.8954305,10 6,10 L20,10 C21.1045695,10 22,10.8954305 22,12 L22,25 C22,26.1045695 21.1045695,27 20,27 C18.8954305,27 18,27.8954305 18,29 Z M13,0 C14.6568542,-3.04359188e-16 16,1.34314575 16,3 L16,5 C16,6.65685425 14.6568542,8 13,8 C11.3431458,8 10,6.65685425 10,5 L10,3 C10,1.34314575 11.3431458,3.04359188e-16 13,0 Z M40,31 L40,46 C40,47.1045695 39.1045695,48 38,48 L32,48 C30.8954305,48 30,47.1045695 30,46 L30,31 C30,29.8954305 29.1045695,29 28,29 C26.8954305,29 26,28.1045695 26,27 L26,14 C26,12.8954305 26.8954305,12 28,12 L42,12 C43.1045695,12 44,12.8954305 44,14 L44,27 C44,28.1045695 43.1045695,29 42,29 C40.8954305,29 40,29.8954305 40,31 Z M35,2 C36.6568542,2 38,3.34314575 38,5 L38,7 C38,8.65685425 36.6568542,10 35,10 C33.3431458,10 32,8.65685425 32,7 L32,5 C32,3.34314575 33.3431458,2 35,2 Z" id="people-two" fill="#000000" fill-rule="nonzero"></path>
    </g>
</svg>
