<?xml version="1.0" encoding="UTF-8"?>
<svg width="48px" height="48px" viewBox="0 0 48 48" version="1.1" xmlns="http://www.w3.org/2000/svg" xmlns:xlink="http://www.w3.org/1999/xlink">
    <!-- Generator: Sketch 50.2 (55047) - http://www.bohemiancoding.com/sketch -->
    <title>others/people-more</title>
    <desc>Created with Sketch.</desc>
    <defs></defs>
    <g id="others/people-more" stroke="none" stroke-width="1" fill="none" fill-rule="evenodd">
        <path class="noStroke fillColor" d="M29,29 L29,46 C29,47.1045695 28.1045695,48 27,48 L21,48 C19.8954305,48 19,47.1045695 19,46 L19,29 C19,27.8954305 18.1045695,27 17,27 C15.8954305,27 15,26.1045695 15,25 L15,12 C15,10.8954305 15.8954305,10 17,10 L31,10 C32.1045695,10 33,10.8954305 33,12 L33,25 C33,26.1045695 32.1045695,27 31,27 C29.8954305,27 29,27.8954305 29,29 Z M24,0 C25.6568542,-3.04359188e-16 27,1.34314575 27,3 L27,5 C27,6.65685425 25.6568542,8 24,8 C22.3431458,8 21,6.65685425 21,5 L21,3 C21,1.34314575 22.3431458,3.04359188e-16 24,0 Z M43,31 L43,46 C43,47.1045695 42.1045695,48 41,48 L35,48 C33.8954305,48 33,47.1045695 33,46 L33,31 C33,29.8954305 33.8954305,29 35,29 C36.1045695,29 37,28.1045695 37,27 L37,12 C37,10.8954305 37.8954305,10 39,10 L45,10 C46.1045695,10 47,10.8954305 47,12 L47,27 C47,28.1045695 46.1045695,29 45,29 C43.8954305,29 43,29.8954305 43,31 Z M38,0 C39.6568542,-3.04359188e-16 41,1.34314575 41,3 L41,5 C41,6.65685425 39.6568542,8 38,8 C36.3431458,8 35,6.65685425 35,5 L35,3 C35,1.34314575 36.3431458,3.04359188e-16 38,0 Z M5,31 C5,29.8954305 4.1045695,29 3,29 C1.8954305,29 1,28.1045695 1,27 L1,12 C1,10.8954305 1.8954305,10 3,10 L9,10 C10.1045695,10 11,10.8954305 11,12 L11,27 C11,28.1045695 11.8954305,29 13,29 C14.1045695,29 15,29.8954305 15,31 L15,46 C15,47.1045695 14.1045695,48 13,48 L7,48 C5.8954305,48 5,47.1045695 5,46 L5,31 Z M10,0 C11.6568542,3.04359188e-16 13,1.34314575 13,3 L13,5 C13,6.65685425 11.6568542,8 10,8 C8.34314575,8 7,6.65685425 7,5 L7,3 C7,1.34314575 8.34314575,-3.04359188e-16 10,0 Z" id="people-more" fill="#000000" fill-rule="nonzero"></path>
    </g>
</svg>
