<?xml version="1.0" encoding="UTF-8"?>
<svg width="48px" height="48px" viewBox="0 0 48 48" version="1.1" xmlns="http://www.w3.org/2000/svg" xmlns:xlink="http://www.w3.org/1999/xlink">
    <!-- Generator: Sketch 50.2 (55047) - http://www.bohemiancoding.com/sketch -->
    <title>others/people-three</title>
    <desc>Created with Sketch.</desc>
    <defs></defs>
    <g id="others/people-three" stroke="none" stroke-width="1" fill="none" fill-rule="evenodd">
        <path class="noStroke fillColor" d="M14,29 L14,46 C14,47.1045695 13.1045695,48 12,48 L6,48 C4.8954305,48 4,47.1045695 4,46 L4,29 C4,27.8954305 3.1045695,27 2,27 C0.8954305,27 1.3527075e-16,26.1045695 0,25 L0,12 C-1.3527075e-16,10.8954305 0.8954305,10 2,10 L16,10 C17.1045695,10 18,10.8954305 18,12 L18,25 C18,26.1045695 17.1045695,27 16,27 C14.8954305,27 14,27.8954305 14,29 Z M9,0 C10.6568542,-3.04359188e-16 12,1.34314575 12,3 L12,5 C12,6.65685425 10.6568542,8 9,8 C7.34314575,8 6,6.65685425 6,5 L6,3 C6,1.34314575 7.34314575,3.04359188e-16 9,0 Z M44,29 L44,46 C44,47.1045695 43.1045695,48 42,48 L36,48 C34.8954305,48 34,47.1045695 34,46 L34,29 C34,27.8954305 33.1045695,27 32,27 C30.8954305,27 30,26.1045695 30,25 L30,14 C30,12.8954305 30.8954305,12 32,12 L46,12 C47.1045695,12 48,12.8954305 48,14 L48,25 C48,26.1045695 47.1045695,27 46,27 C44.8954305,27 44,27.8954305 44,29 Z M39,2 C40.6568542,2 42,3.34314575 42,5 L42,7 C42,8.65685425 40.6568542,10 39,10 C37.3431458,10 36,8.65685425 36,7 L36,5 C36,3.34314575 37.3431458,2 39,2 Z M28,40.5 L28,46 C28,47.1045695 27.1045695,48 26,48 L22,48 C20.8954305,48 20,47.1045695 20,46 L20,40.5 C20,39.6715729 19.3284271,39 18.5,39 C17.6715729,39 17,38.3284271 17,37.5 L17,31 C17,29.8954305 17.8954305,29 19,29 L29,29 C30.1045695,29 31,29.8954305 31,31 L31,37.5 C31,38.3284271 30.3284271,39 29.5,39 C28.6715729,39 28,39.6715729 28,40.5 Z M24,19 C25.6568542,19 27,20.3431458 27,22 L27,24 C27,25.6568542 25.6568542,27 24,27 C22.3431458,27 21,25.6568542 21,24 L21,22 C21,20.3431458 22.3431458,19 24,19 Z" id="people-three" fill="#000000" fill-rule="nonzero"></path>
    </g>
</svg>
