<?xml version="1.0" encoding="UTF-8"?>
<svg width="48px" height="48px" viewBox="0 0 48 48" version="1.1" xmlns="http://www.w3.org/2000/svg" xmlns:xlink="http://www.w3.org/1999/xlink">
    <!-- Generator: Sketch 49.3 (51167) - http://www.bohemiancoding.com/sketch -->
    <title>abstract/pic-suggest</title>
    <desc>Created with Sketch.</desc>
    <defs></defs>
    <g id="abstract/pic-suggest" stroke="none" stroke-width="1" fill="none" fill-rule="evenodd">
        <path d="M44,15.160322 L44,6 C44,4.8954305 43.1045695,4 42,4 L6,4 C4.8954305,4 4,4.8954305 4,6 L4,28.7316459 C5.99294042,27.0284587 8.57982038,26 11.4069097,26 C13.6282477,26 15.6238047,26.585653 17.3608051,27.7158325 C17.4641641,27.2020841 17.5894609,26.6936444 17.736348,26.1915793 C20.0065272,18.4320307 27.1476893,13 35.3532623,13 C38.4225668,13 41.3773539,13.7572823 44,15.160322 Z M44,19.8955156 C41.534506,18.0307169 38.5257649,17 35.3532623,17 C28.9360951,17 23.3500136,21.2491356 21.5754187,27.3147605 C21.1952012,28.6143567 21,29.9696928 21,31.3532623 C21,32.4578318 20.1045695,33.3532623 19,33.3532623 C18.397821,33.3532623 17.8578004,33.0871303 17.4911387,32.6660669 C17.1037808,32.5935676 16.7338772,32.4061337 16.4363033,32.1041673 C15.0510839,30.6985006 13.417995,30 11.4069097,30 C7.31618644,30 4,33.3161864 4,37.4069097 L4,42 C4,43.1045695 4.8954305,44 6,44 L21.7016602,44 C22.8062297,44 23.7016602,44.8954305 23.7016602,46 C23.7016602,47.1045695 22.8062297,48 21.7016602,48 L6,48 C2.6862915,48 0,45.3137085 0,42 L0,6 C0,2.6862915 2.6862915,0 6,0 L42,0 C45.3137085,0 48,2.6862915 48,6 L48,18.9290947 C48.0000474,18.937065 48.0000474,18.9450361 48,18.9530077 L48,23.1188965 C48,24.223466 47.1045695,25.1188965 46,25.1188965 C44.8954305,25.1188965 44,24.223466 44,23.1188965 L44,19.8955156 Z M14,9 C17.3137085,9 20,11.6862915 20,15 C20,18.3137085 17.3137085,21 14,21 C10.6862915,21 8,18.3137085 8,15 C8,11.6862915 10.6862915,9 14,9 Z M14,13 C12.8954305,13 12,13.8954305 12,15 C12,16.1045695 12.8954305,17 14,17 C15.1045695,17 16,16.1045695 16,15 C16,13.8954305 15.1045695,13 14,13 Z M27.4380992,34.7923785 C26.6704679,35.5866178 25.4043217,35.6081878 24.6100824,34.8405566 C23.8158432,34.0729253 23.7942731,32.806779 24.5619044,32.0125398 L30.7459865,25.6141023 C31.9957207,24.3210492 34.1840839,25.2057386 34.1840839,27.0040217 L34.1840839,45.3663778 C34.1840839,46.4709473 33.2886534,47.3663778 32.1840839,47.3663778 C31.0795144,47.3663778 30.1840839,46.4709473 30.1840839,45.3663778 L30.1840839,31.9512113 L27.4380992,34.7923785 Z M44.5460335,37.5739993 C45.3136647,36.77976 46.579811,36.75819 47.3740502,37.5258212 C48.1682895,38.2934525 48.1898595,39.5595988 47.4222283,40.353838 L41.2381462,46.7522755 C39.988412,48.0453286 37.8000488,47.1606392 37.8000488,45.3623561 L37.8000488,27 C37.8000488,25.8954305 38.6954793,25 39.8000488,25 C40.9046183,25 41.8000488,25.8954305 41.8000488,27 L41.8000488,40.4151665 L44.5460335,37.5739993 Z" id="pic-suggest" fill="#000000" fill-rule="nonzero"></path>
    </g>
</svg>