<?xml version="1.0" encoding="UTF-8"?>
<svg width="48px" height="48px" viewBox="0 0 48 48" version="1.1" xmlns="http://www.w3.org/2000/svg" xmlns:xlink="http://www.w3.org/1999/xlink">
    <!-- Generator: Sketch 49.3 (51167) - http://www.bohemiancoding.com/sketch -->
    <title>abstract/pic-show</title>
    <desc>Created with Sketch.</desc>
    <defs></defs>
    <g id="abstract/pic-show" stroke="none" stroke-width="1" fill="none" fill-rule="evenodd">
        <path d="M36,19.1057184 C35.8677567,19.029242 35.7422408,18.936299 35.6263692,18.8268068 C33.7004533,17.0069243 31.2775377,16 28.719204,16 C23.9752459,16 19.7913115,19.5030497 18.4430176,24.5756306 C18.3268599,25.0126418 18.2330142,25.4577337 18.1621131,25.9092926 C17.9907794,27.0004931 16.9672932,27.7461925 15.8760927,27.5748588 C15.5596076,27.5251662 15.272186,27.4037909 15.0277718,27.2298712 C14.836632,27.1303014 14.6584546,26.9978969 14.5017261,26.8328765 C13.5644168,25.8459778 11.3243106,25.0129395 9.58911133,25.0129395 C6.18280971,25.0129395 4,26.9230645 4,30 L4,34 C4,35.1045695 4.8954305,36 6,36 L34,36 C35.1045695,36 36,35.1045695 36,34 L36,19.1057184 Z M36,14.0893707 L36,6 C36,4.8954305 35.1045695,4 34,4 L6,4 C4.8954305,4 4,4.8954305 4,6 L4,22.5120273 C5.54874768,21.5459151 7.46288923,21.0129395 9.58911133,21.0129395 C11.3406427,21.0129395 13.3029104,21.5032402 14.9507224,22.3289762 C17.0780032,16.2170867 22.4957308,12 28.719204,12 C31.3205297,12 33.8153273,12.7362976 36,14.0893707 Z M40,7.69848633 L42.7272727,7.69848633 C45.6393196,7.69848633 48,10.0591667 48,12.9712136 L48,42.7272727 C48,45.6393196 45.6393196,48 42.7272727,48 L13.2727273,48 C10.3606804,48 8,45.6393196 8,42.7272727 L8,40 L6,40 C2.6862915,40 4.4408921e-16,37.3137085 0,34 L0,6 C-4.4408921e-16,2.6862915 2.6862915,6.66133815e-16 6,0 L34,0 C37.3137085,2.90878432e-14 40,2.6862915 40,6 L40,7.69848633 Z M12,40 L12,42.7272727 C12,43.4301806 12.5698194,44 13.2727273,44 L42.7272727,44 C43.4301806,44 44,43.4301806 44,42.7272727 L44,12.9712136 C44,12.2683057 43.4301806,11.6984863 42.7272727,11.6984863 L40,11.6984863 L40,34 C40,37.3137085 37.3137085,40 34,40 L12,40 Z M11,8 C12.6568542,8 14,9.34314575 14,11 C14,12.6568542 12.6568542,14 11,14 C9.34314575,14 8,12.6568542 8,11 C8,9.34314575 9.34314575,8 11,8 Z" id="pic-show" fill="#000000" fill-rule="nonzero"></path>
    </g>
</svg>