<?xml version="1.0" encoding="UTF-8"?>
<svg width="48px" height="48px" viewBox="0 0 48 48" version="1.1" xmlns="http://www.w3.org/2000/svg" xmlns:xlink="http://www.w3.org/1999/xlink">
    <!-- Generator: Sketch 49.3 (51167) - http://www.bohemiancoding.com/sketch -->
    <title>abstract/profile</title>
    <desc>Created with Sketch.</desc>
    <defs></defs>
    <g id="abstract/profile" stroke="none" stroke-width="1" fill="none" fill-rule="evenodd">
        <path d="M2,10 C0.8954305,10 0,9.1045695 0,8 C0,6.8954305 0.8954305,6 2,6 L10,6 C11.1045695,6 12,6.8954305 12,8 C12,9.1045695 11.1045695,10 10,10 L2,10 Z M26,10 C24.8954305,10 24,9.1045695 24,8 C24,6.8954305 24.8954305,6 26,6 L46,6 C47.1045695,6 48,6.8954305 48,8 C48,9.1045695 47.1045695,10 46,10 L26,10 Z M2,26 C0.8954305,26 0,25.1045695 0,24 C0,22.8954305 0.8954305,22 2,22 L16,22 C17.1045695,22 18,22.8954305 18,24 C18,25.1045695 17.1045695,26 16,26 L2,26 Z M32,26 C30.8954305,26 30,25.1045695 30,24 C30,22.8954305 30.8954305,22 32,22 L46,22 C47.1045695,22 48,22.8954305 48,24 C48,25.1045695 47.1045695,26 46,26 L32,26 Z M2,42 C0.8954305,42 0,41.1045695 0,40 C0,38.8954305 0.8954305,38 2,38 L10,38 C11.1045695,38 12,38.8954305 12,40 C12,41.1045695 11.1045695,42 10,42 L2,42 Z M26,42 C24.8954305,42 24,41.1045695 24,40 C24,38.8954305 24.8954305,38 26,38 L46,38 C47.1045695,38 48,38.8954305 48,40 C48,41.1045695 47.1045695,42 46,42 L26,42 Z M18,10 C16.8954305,10 16,9.1045695 16,8 C16,6.8954305 16.8954305,6 18,6 C19.1045695,6 20,6.8954305 20,8 C20,9.1045695 19.1045695,10 18,10 Z M24,26 C22.8954305,26 22,25.1045695 22,24 C22,22.8954305 22.8954305,22 24,22 C25.1045695,22 26,22.8954305 26,24 C26,25.1045695 25.1045695,26 24,26 Z M18,42 C16.8954305,42 16,41.1045695 16,40 C16,38.8954305 16.8954305,38 18,38 C19.1045695,38 20,38.8954305 20,40 C20,41.1045695 19.1045695,42 18,42 Z" id="profile" fill="#000000" fill-rule="nonzero"></path>
    </g>
</svg>