<?xml version="1.0" encoding="UTF-8"?>
<svg width="48px" height="48px" viewBox="0 0 48 48" version="1.1" xmlns="http://www.w3.org/2000/svg" xmlns:xlink="http://www.w3.org/1999/xlink">
    <!-- Generator: Sketch 47 (45396) - http://www.bohemiancoding.com/sketch -->
    <title>qq-in</title>
    <desc>Created with Sketch.</desc>
    <defs></defs>
    <g id="【已公示】图标" stroke="none" stroke-width="1" fill="none" fill-rule="evenodd">
        <g id="图标-通用" transform="translate(-780.000000, -1298.000000)" fill-rule="nonzero" fill="#333333">
            <g id="QQ实心" transform="translate(780.000000, 1298.000000)">
                <path class="noStroke" d="M44.0888127,32.4760219 C43.7688954,27.9382782 40.8069494,24.1351004 39.0948498,22.1676585 C39.3320767,21.5960277 39.91091,18.2830131 37.6769114,16.022288 C37.6809781,15.9679763 37.6809781,15.9136646 37.6809781,15.8620685 C37.6809781,6.94680047 31.5090149,0.52851365 23.7659324,0.5 C16.02285,0.529871446 9.85088669,6.94680053 9.85088669,15.8620685 C9.85088669,15.9150224 9.85088669,15.9693341 9.85495344,16.022288 C7.62095484,18.2830131 8.20114381,21.5960277 8.43701498,22.1676585 C6.72627092,24.1351004 3.76432499,27.9382782 3.44305218,32.4773797 C3.38476216,33.6708797 3.56505454,35.4088545 4.13033209,36.1814387 C4.82167875,37.1237469 6.71813747,35.9913477 8.07371911,32.9824787 C8.45057082,34.3769319 9.32085423,36.5059511 11.29187,39.2066012 C7.9937398,39.9805431 7.05432171,43.324787 8.16318751,45.1537339 C8.94535815,46.4409216 10.7360815,47.5 13.8227409,47.5 C19.3142022,47.5 21.7393378,45.9833454 22.8224476,44.9256247 C23.0420518,44.6947999 23.3606135,44.5848187 23.7659324,44.5834609 C24.1712513,44.5834609 24.489813,44.6947999 24.7094173,44.9256247 C25.792527,45.9833454 28.2176626,47.5 33.7077683,47.5 C36.7957834,47.5 38.5851511,46.4409216 39.3673217,45.1523762 C40.4775431,43.324787 39.5367694,39.9805431 36.2413504,39.2066012 C38.2110106,36.5045934 39.0826496,34.3769319 39.4595013,32.9824787 C40.8150829,35.9927054 42.7101861,37.1237469 43.4015327,36.1814387 C43.9681659,35.4074967 44.1471027,33.6695219 44.0888127,32.4773797 L44.0888127,32.4760219 Z" id="qq-in"></path>
            </g>
        </g>
    </g>
</svg>
