<?xml version="1.0" encoding="UTF-8"?>
<svg width="48px" height="48px" viewBox="0 0 48 48" version="1.1" xmlns="http://www.w3.org/2000/svg" xmlns:xlink="http://www.w3.org/1999/xlink">
    <!-- Generator: Sketch 48.2 (47327) - http://www.bohemiancoding.com/sketch -->
    <title>qq</title>
    <desc>Created with Sketch.</desc>
    <defs></defs>
    <g id="图标-通用" stroke="none" stroke-width="1" fill="none" fill-rule="evenodd" transform="translate(-660.000000, -1298.000000)">
        <g id="QQ" transform="translate(660.000000, 1298.000000)" fill="#333333" fill-rule="nonzero">
            <path class="noStroke" d="M36.8118233,22.4405605 C37.0137185,21.9540662 37.5063426,19.1344793 35.6050672,17.2104579 C35.6085282,17.1642351 35.6085282,17.1180124 35.6085282,17.0741008 C35.6085282,9.4866387 30.3557935,4.02426694 23.7659361,4 C17.1760787,4.02542251 11.923344,9.48663875 11.923344,17.0741008 C11.923344,17.119168 11.923344,17.1653907 11.9268051,17.2104579 C10.0255297,19.1344793 10.5193075,21.9540662 10.720049,22.4405605 C9.26409657,24.1149791 6.74329153,27.3517262 6.46986786,31.2147913 C6.42025933,32.2305359 6.57369966,33.7096634 7.05478693,34.3671819 C7.64316707,35.1691463 9.25717449,34.2054023 10.410861,31.6446627 C10.7315859,32.8314314 11.4722526,34.6433627 13.1497128,36.9417882 C10.3427935,37.6004622 9.54328874,40.4466272 10.4870043,42.0031778 C11.1526815,43.0986566 12.6767013,44 15.3036455,44 C19.9772296,44 22.0411748,42.7092301 22.9629703,41.8090423 C23.1498675,41.6125957 23.4209839,41.5189946 23.7659361,41.5178391 C24.1108884,41.5178391 24.3820048,41.6125957 24.568902,41.8090423 C25.4906975,42.7092301 27.5546427,44 32.2270731,44 C34.855171,44 36.3780372,43.0986566 37.0437143,42.0020223 C37.9885835,40.4466272 37.1879251,37.6004622 34.3833132,36.9417882 C36.0596197,34.6422071 36.8014401,32.8314314 37.122165,31.6446627 C38.2758515,34.2065578 39.8887053,35.1691463 40.4770854,34.3671819 C40.9593263,33.7085079 41.111613,32.2293803 41.0620044,31.2147913 C40.7897344,27.3517261 38.2689294,24.1149791 36.8118233,22.4405605 Z M15.3036455,48 C11.6081841,48 8.6206525,46.6344703 7.06655547,44.0769497 C6.02487192,42.3588121 5.85078102,40.3673203 6.376922,38.5410361 C5.43623017,38.2934053 4.55002504,37.7151656 3.82661001,36.7291458 C2.71479469,35.2095898 2.37430666,33.0738054 2.47984969,30.932382 C2.73616201,27.3110745 4.2024256,24.2504879 6.475822,21.3071129 C6.40615926,19.5163776 6.85086086,17.5146139 7.96451373,15.7913793 C8.5442654,6.81273109 15.1825532,0.0330885256 23.7806659,2.71208594e-05 C32.350203,0.0315841636 38.9878011,6.81235067 39.5673821,15.7916872 C40.6802423,17.5142454 41.1256339,19.5161637 41.0563912,21.3067089 C43.3297451,24.2488529 44.7968125,27.3112953 45.0521004,30.9323283 L45.0620044,31.125072 C45.1458917,33.148061 44.7989722,35.2352907 43.7021821,36.7333499 C42.9802241,37.7173816 42.0949684,38.2946015 41.1549087,38.541763 C41.6809788,40.3685173 41.5063246,42.3602444 40.4630533,44.0776235 C38.9113435,46.6339054 35.9243109,48 32.2270731,48 C28.6352184,48 25.8493149,47.3442473 23.7659188,46.1596171 C21.6823868,47.3442793 18.896197,48 15.3036455,48 Z" id="qq"></path>
        </g>
    </g>
</svg>
