<?xml version="1.0" encoding="UTF-8"?>
<svg width="48px" height="48px" viewBox="0 0 48 48" version="1.1" xmlns="http://www.w3.org/2000/svg" xmlns:xlink="http://www.w3.org/1999/xlink">
    <!-- Generator: Sketch 50.2 (55047) - http://www.bohemiancoding.com/sketch -->
    <title>others/radiation</title>
    <desc>Created with Sketch.</desc>
    <defs></defs>
    <g id="others/radiation" stroke="none" stroke-width="1" fill="none" fill-rule="evenodd">
        <path class="fillColor" d="M13.0036657,44.0562323 C5.95153025,39.98468 2.00637088,32.5983341 2,25.0015606 L2.04918306,25.0299529 L16.0023481,25.013251 C16.0082332,27.7720728 17.4424543,30.4531606 20.0036657,31.9318767 L13.0036657,44.0562323 Z M34.9093501,44.1144741 L34.9581484,44.0299529 L27.9960301,31.9378066 C29.1776517,31.2589537 30.2014461,30.268803 30.931869,29.0036735 C31.6622919,27.7385439 32.0078903,26.3568366 32.0049833,24.9940959 L45.9581484,24.977394 L46.0069467,24.8928728 C46.0295052,28.667756 45.0799797,32.4984269 43.0562246,36.0036735 C41.0324696,39.50892 38.189774,42.2465687 34.9093501,44.1144741 Z M13.0000031,5.94899636 C19.5821874,2.15612698 27.9515303,1.87956226 35.0036657,5.95111457 L28.0036657,18.0754702 C25.4424543,16.5967541 22.4034536,16.6952261 20.0113013,18.0695404 L13.0491831,5.97739401 L13,5.94899816 L13.0000031,5.94899636 Z" id="Combined-Shape" stroke="#000000" stroke-width="4" stroke-linecap="round" stroke-linejoin="round" transform="translate(24.003670, 23.557237) scale(1, -1) translate(-24.003670, -23.557237) "></path>
        <circle class="fillColor" id="Oval-2" fill="#000000" cx="24" cy="22" r="3"></circle>
    </g>
</svg>
