<?xml version="1.0" encoding="UTF-8"?>
<svg width="48px" height="48px" viewBox="0 0 48 48" version="1.1" xmlns="http://www.w3.org/2000/svg" xmlns:xlink="http://www.w3.org/1999/xlink">
    <!-- Generator: Sketch 49.3 (51167) - http://www.bohemiancoding.com/sketch -->
    <title>abstract/report-basics</title>
    <desc>Created with Sketch.</desc>
    <defs></defs>
    <g id="abstract/report-basics" stroke="none" stroke-width="1" fill="none" fill-rule="evenodd">
        <path d="M6,4 C4.8954305,4 4,4.8954305 4,6 L4,12 C4,13.1045695 4.8954305,14 6,14 L42,14 C43.1045695,14 44,13.1045695 44,12 L44,6 C44,4.8954305 43.1045695,4 42,4 L6,4 Z M6,0 L42,0 C45.3137085,-6.66133815e-16 48,2.6862915 48,6 L48,12 C48,15.3137085 45.3137085,18 42,18 L6,18 C2.6862915,18 6.66133815e-16,15.3137085 0,12 L0,6 C-3.33066907e-16,2.6862915 2.6862915,6.66133815e-16 6,0 Z M44,24.0515792 C44,22.9470097 44.8954305,22.0515792 46,22.0515792 C47.1045695,22.0515792 48,22.9470097 48,24.0515792 L48,42 C48,45.3137085 45.3137085,48 42,48 L6,48 C2.6862915,48 0,45.3137085 0,42 L0,24.0515792 C0,22.9470097 0.8954305,22.0515792 2,22.0515792 C3.1045695,22.0515792 4,22.9470097 4,24.0515792 L4,42 C4,43.1045695 4.8954305,44 6,44 L42,44 C43.1045695,44 44,43.1045695 44,42 L44,24.0515792 Z M10,23 L19,23 C20.1045695,23 21,23.8954305 21,25 L21,39 C21,40.1045695 20.1045695,41 19,41 L10,41 C8.8954305,41 8,40.1045695 8,39 L8,25 C8,23.8954305 8.8954305,23 10,23 Z M12,37 L17,37 L17,27 L12,27 L12,37 Z M27,25 L33,25 C34.1045695,25 35,25.8954305 35,27 C35,28.1045695 34.1045695,29 33,29 L27,29 C25.8954305,29 25,28.1045695 25,27 C25,25.8954305 25.8954305,25 27,25 Z M27,34 L38,34 C39.1045695,34 40,34.8954305 40,36 C40,37.1045695 39.1045695,38 38,38 L27,38 C25.8954305,38 25,37.1045695 25,36 C25,34.8954305 25.8954305,34 27,34 Z M9,11 C7.8954305,11 7,10.1045695 7,9 C7,7.8954305 7.8954305,7 9,7 C10.1045695,7 11,7.8954305 11,9 C11,10.1045695 10.1045695,11 9,11 Z M16,11 C14.8954305,11 14,10.1045695 14,9 C14,7.8954305 14.8954305,7 16,7 C17.1045695,7 18,7.8954305 18,9 C18,10.1045695 17.1045695,11 16,11 Z M23,11 C21.8954305,11 21,10.1045695 21,9 C21,7.8954305 21.8954305,7 23,7 C24.1045695,7 25,7.8954305 25,9 C25,10.1045695 24.1045695,11 23,11 Z" id="report-basics" fill="#000000" fill-rule="nonzero"></path>
    </g>
</svg>