<?xml version="1.0" encoding="UTF-8"?>
<svg width="48px" height="48px" viewBox="0 0 48 48" version="1.1" xmlns="http://www.w3.org/2000/svg" xmlns:xlink="http://www.w3.org/1999/xlink">
    <!-- Generator: Sketch 50.2 (55047) - http://www.bohemiancoding.com/sketch -->
    <title>others/report</title>
    <desc>Created with Sketch.</desc>
    <defs></defs>
    <g id="others/report" stroke="none" stroke-width="1" fill="none" fill-rule="evenodd" stroke-linecap="round" stroke-linejoin="round">
        <path class="fillColor" d="M37,15 L37,36 C43,38.6666667 46,42 46,46 L2,46 C2,42 5,38.6666667 11,36 L11,15" id="Combined-Shape" stroke="#000000" stroke-width="4"></path>
        <path class="fillColor" d="M37,15 C37,7.82029825 31.1797017,2 24,2 C16.8202983,2 11,7.82029825 11,15" id="Oval-11" stroke="#000000" stroke-width="4"></path>
        <path d="M43,10 L46,8" id="Path-23" stroke="#000000" stroke-width="4"></path>
        <path d="M5,10 L2,8 L5,10 Z" id="Path-23-Copy" stroke="#000000" stroke-width="4"></path>
        <path d="M43,24 L46,26" id="Path-24" stroke="#000000" stroke-width="4"></path>
        <path d="M5,24 L2,26 L5,24 Z" id="Path-24-Copy" stroke="#000000" stroke-width="4"></path>
        <path class="innerStrokeColor" d="M28,14 C22.6666667,14 20,16.3333333 20,21 C20,25.6666667 22.6666667,28 28,28" id="Path-25" stroke="#000000" stroke-width="4"></path>
    </g>
</svg>
