<?xml version="1.0" encoding="UTF-8"?>
<svg width="48px" height="48px" viewBox="0 0 48 48" version="1.1" xmlns="http://www.w3.org/2000/svg" xmlns:xlink="http://www.w3.org/1999/xlink">
    <!-- Generator: Sketch 49.3 (51167) - http://www.bohemiancoding.com/sketch -->
    <title>abstract/resource-lock</title>
    <desc>Created with Sketch.</desc>
    <defs></defs>
    <g id="abstract/resource-lock" stroke="none" stroke-width="1" fill="none" fill-rule="evenodd">
        <path d="M34.009279,30 L38.9994444,30 C38.928706,27.8426637 38.2044882,27 36.5026236,27 C34.7851566,27 34.0956098,27.7876946 34.009279,30 Z M43.0018283,30.0832655 C45.838642,30.5600966 48,33.0276422 48,36 L48,42 C48,45.3137085 45.3137085,48 42,48 L32,48 C28.6862915,48 26,45.3137085 26,42 L26,36 C26,33.3873117 27.6699357,31.1646578 30.0006708,30.3411744 C30.0474248,25.8515106 32.1941915,23 36.5026236,23 C40.7138517,23 42.9047681,25.8107454 43.0018283,30.0832655 Z M44,16 L4,16 L4,42 C4,43.1045695 4.8954305,44 6,44 L21.7016602,44 C22.8062297,44 23.7016602,44.8954305 23.7016602,46 C23.7016602,47.1045695 22.8062297,48 21.7016602,48 L6,48 C2.6862915,48 0,45.3137085 0,42 L0,6 C0,2.6862915 2.6862915,0 6,0 L42,0 C45.3137085,0 48,2.6862915 48,6 L48,23.1188965 C48,24.223466 47.1045695,25.1188965 46,25.1188965 C44.8954305,25.1188965 44,24.223466 44,23.1188965 L44,16 Z M44,12 L44,6 C44,4.8954305 43.1045695,4 42,4 L6,4 C4.8954305,4 4,4.8954305 4,6 L4,12 L44,12 Z M10,26 C8.8954305,26 8,25.1045695 8,24 C8,22.8954305 8.8954305,22 10,22 L25,22 C26.1045695,22 27,22.8954305 27,24 C27,25.1045695 26.1045695,26 25,26 L10,26 Z M10,36 C8.8954305,36 8,35.1045695 8,34 C8,32.8954305 8.8954305,32 10,32 L16.5714286,32 C17.6759981,32 18.5714286,32.8954305 18.5714286,34 C18.5714286,35.1045695 17.6759981,36 16.5714286,36 L10,36 Z M32,34 C30.8954305,34 30,34.8954305 30,36 L30,42 C30,43.1045695 30.8954305,44 32,44 L42,44 C43.1045695,44 44,43.1045695 44,42 L44,36 C44,34.8954305 43.1045695,34 42,34 L32,34 Z" id="resource-lock" fill="#000000" fill-rule="nonzero"></path>
    </g>
</svg>