<?xml version="1.0" encoding="UTF-8"?>
<svg width="48px" height="48px" viewBox="0 0 48 48" version="1.1" xmlns="http://www.w3.org/2000/svg" xmlns:xlink="http://www.w3.org/1999/xlink">
    <!-- Generator: Sketch 50.2 (55047) - http://www.bohemiancoding.com/sketch -->
    <title>weather/sandstorm</title>
    <desc>Created with Sketch.</desc>
    <defs></defs>
    <g id="weather/sandstorm" stroke="none" stroke-width="1" fill="none" fill-rule="evenodd" stroke-linecap="round" stroke-linejoin="round">
        <path d="M2.85352854,22 C2.30077111,20.4361054 2,18.7531771 2,17 C2,8.71572875 8.71572875,2 17,2 C23.9267933,2 29.7569769,6.69514477 31.481679,13.0765628 C32.8387832,12.3880399 34.3740758,12 36,12 C41.5228475,12 46,16.4771525 46,22" id="Combined-Shape-Copy-4" stroke="#000000" stroke-width="4"></path>
        <path d="M4,28 L34,28" id="Path-31-Copy-7" stroke="#000000" stroke-width="4"></path>
        <path d="M12,36 L41,36" id="Path-31-Copy-8" stroke="#000000" stroke-width="4"></path>
        <path d="M2,36 L4,36" id="Path-31-Copy-10" stroke="#000000" stroke-width="4"></path>
        <path d="M14,20 L16,20" id="Path-31-Copy-11" stroke="#000000" stroke-width="4"></path>
        <path d="M17,46 L19,46" id="Path-31-Copy-13" stroke="#000000" stroke-width="4"></path>
        <path d="M24,20 L26,20" id="Path-31-Copy-12" stroke="#000000" stroke-width="4"></path>
        <path d="M27,46 L33,46" id="Path-31-Copy-14" stroke="#000000" stroke-width="4"></path>
        <path d="M41,46 C43.7614237,46 46,43.7614237 46,41 C46,38.2385763 43.7614237,36 41,36" id="Oval-13" stroke="#000000" stroke-width="4"></path>
        <path d="M34,28 C36.209139,28 38,26.209139 38,24 C38,21.790861 36.209139,20 34,20" id="Oval-13-Copy" stroke="#000000" stroke-width="4"></path>
    </g>
</svg>