<?xml version="1.0" encoding="UTF-8"?>
<svg width="48px" height="48px" viewBox="0 0 48 48" version="1.1" xmlns="http://www.w3.org/2000/svg" xmlns:xlink="http://www.w3.org/1999/xlink">
    <!-- Generator: Sketch 49.3 (51167) - http://www.bohemiancoding.com/sketch -->
    <title>abstract/schedule</title>
    <desc>Created with Sketch.</desc>
    <defs></defs>
    <g id="abstract/schedule" stroke="none" stroke-width="1" fill="none" fill-rule="evenodd">
        <path d="M38.0087891,9 C36.9042196,9 36.0087891,8.1045695 36.0087891,7 C36.0087891,5.8954305 36.9042196,5 38.0087891,5 L42.3333333,5 C45.4798435,5 48,7.61515127 48,10.804878 L48,42.195122 C48,45.3848487 45.4798435,48 42.3333333,48 L5.66666667,48 C2.52015646,48 0,45.3848487 0,42.195122 L0,10.804878 C0,7.61515127 2.52015646,5 5.66666667,5 L10.0152525,5 C11.119822,5 12.0152525,5.8954305 12.0152525,7 C12.0152525,8.1045695 11.119822,9 10.0152525,9 L5.66666667,9 C4.76308871,9 4,9.79185259 4,10.804878 L4,42.195122 C4,43.2081474 4.76308871,44 5.66666667,44 L42.3333333,44 C43.2369113,44 44,43.2081474 44,42.195122 L44,10.804878 C44,9.79185259 43.2369113,9 42.3333333,9 L38.0087891,9 Z M22,9 C20.8954305,9 20,8.1045695 20,7 C20,5.8954305 20.8954305,5 22,5 L26,5 C27.1045695,5 28,5.8954305 28,7 C28,8.1045695 27.1045695,9 26,9 L22,9 Z M18,10 C18,11.1045695 17.1045695,12 16,12 C14.8954305,12 14,11.1045695 14,10 L14,2 C14,0.8954305 14.8954305,0 16,0 C17.1045695,0 18,0.8954305 18,2 L18,10 Z M34,10 C34,11.1045695 33.1045695,12 32,12 C30.8954305,12 30,11.1045695 30,10 L30,2 C30,0.8954305 30.8954305,0 32,0 C33.1045695,0 34,0.8954305 34,2 L34,10 Z M12,17 L28,17 C29.1045695,17 30,17.8954305 30,19 C30,20.1045695 29.1045695,21 28,21 L12,21 C10.8954305,21 10,20.1045695 10,19 C10,17.8954305 10.8954305,17 12,17 Z M12,29 C10.8954305,29 10,28.1045695 10,27 C10,25.8954305 10.8954305,25 12,25 C13.1045695,25 14,25.8954305 14,27 C14,28.1045695 13.1045695,29 12,29 Z M12,37 C10.8954305,37 10,36.1045695 10,35 C10,33.8954305 10.8954305,33 12,33 C13.1045695,33 14,33.8954305 14,35 C14,36.1045695 13.1045695,37 12,37 Z M28,29 C26.8954305,29 26,28.1045695 26,27 C26,25.8954305 26.8954305,25 28,25 C29.1045695,25 30,25.8954305 30,27 C30,28.1045695 29.1045695,29 28,29 Z M28,37 C26.8954305,37 26,36.1045695 26,35 C26,33.8954305 26.8954305,33 28,33 C29.1045695,33 30,33.8954305 30,35 C30,36.1045695 29.1045695,37 28,37 Z M20,29 C18.8954305,29 18,28.1045695 18,27 C18,25.8954305 18.8954305,25 20,25 C21.1045695,25 22,25.8954305 22,27 C22,28.1045695 21.1045695,29 20,29 Z M20,37 C18.8954305,37 18,36.1045695 18,35 C18,33.8954305 18.8954305,33 20,33 C21.1045695,33 22,33.8954305 22,35 C22,36.1045695 21.1045695,37 20,37 Z M36,21 C34.8954305,21 34,20.1045695 34,19 C34,17.8954305 34.8954305,17 36,17 C37.1045695,17 38,17.8954305 38,19 C38,20.1045695 37.1045695,21 36,21 Z M36,29 C34.8954305,29 34,28.1045695 34,27 C34,25.8954305 34.8954305,25 36,25 C37.1045695,25 38,25.8954305 38,27 C38,28.1045695 37.1045695,29 36,29 Z M36,37 C34.8954305,37 34,36.1045695 34,35 C34,33.8954305 34.8954305,33 36,33 C37.1045695,33 38,33.8954305 38,35 C38,36.1045695 37.1045695,37 36,37 Z" id="schedule" fill="#000000" fill-rule="nonzero"></path>
    </g>
</svg>