<?xml version="1.0" encoding="UTF-8"?>
<svg width="48px" height="48px" viewBox="0 0 48 48" version="1.1" xmlns="http://www.w3.org/2000/svg" xmlns:xlink="http://www.w3.org/1999/xlink">
    <!-- Generator: Sketch 49.3 (51167) - http://www.bohemiancoding.com/sketch -->
    <title>abstract/search-words</title>
    <desc>Created with Sketch.</desc>
    <defs></defs>
    <g id="abstract/search-words" stroke="none" stroke-width="1" fill="none" fill-rule="evenodd">
        <path d="M24.0219957,28.3033035 L28.166254,33.2850312 C28.8726595,34.1341867 28.7569378,35.3952181 27.9077822,36.1016235 C27.0586267,36.808029 25.7975954,36.6923073 25.0911899,35.8431518 L20.9674859,30.8861319 C19.6358238,31.5970211 18.1149723,32 16.5,32 C11.2532949,32 7,27.7467051 7,22.5 C7,17.2532949 11.2532949,13 16.5,13 C21.7467051,13 26,17.2532949 26,22.5 C26,24.6852814 25.262152,26.6982292 24.0219957,28.3033035 Z M36,12 L39,12 C40.1045695,12 41,12.8954305 41,14 C41,15.1045695 40.1045695,16 39,16 L36,16 C34.8954305,16 34,15.1045695 34,14 C34,12.8954305 34.8954305,12 36,12 Z M32,19 L39,19 C40.1045695,19 41,19.8954305 41,21 C41,22.1045695 40.1045695,23 39,23 L32,23 C30.8954305,23 30,22.1045695 30,21 C30,19.8954305 30.8954305,19 32,19 Z M32,26 L39,26 C40.1045695,26 41,26.8954305 41,28 C41,29.1045695 40.1045695,30 39,30 L32,30 C30.8954305,30 30,29.1045695 30,28 C30,26.8954305 30.8954305,26 32,26 Z M36,33 L39,33 C40.1045695,33 41,33.8954305 41,35 C41,36.1045695 40.1045695,37 39,37 L36,37 C34.8954305,37 34,36.1045695 34,35 C34,33.8954305 34.8954305,33 36,33 Z M16.5,28 C19.5375661,28 22,25.5375661 22,22.5 C22,19.4624339 19.5375661,17 16.5,17 C13.4624339,17 11,19.4624339 11,22.5 C11,25.5375661 13.4624339,28 16.5,28 Z M16.0004252,44 C17.1049947,44 18.0004252,44.8954305 18.0004252,46 C18.0004252,47.1045695 17.1049947,48 16.0004252,48 L6,48 C2.6862915,48 4.4408921e-16,45.3137085 0,42 L0,6 C-4.4408921e-16,2.6862915 2.6862915,6.66133815e-16 6,0 L42,0 C45.3137085,-4.4408921e-16 48,2.6862915 48,6 L48,42 C48,45.3137085 45.3137085,48 42,48 L35.97791,48 C34.8733405,48 33.97791,47.1045695 33.97791,46 C33.97791,44.8954305 34.8733405,44 35.97791,44 L42,44 C43.1045695,44 44,43.1045695 44,42 L44,6 C44,4.8954305 43.1045695,4 42,4 L6,4 C4.8954305,4 4,4.8954305 4,6 L4,42 C4,43.1045695 4.8954305,44 6,44 L16.0004252,44 Z" id="search_words" fill="#000000"></path>
    </g>
</svg>