<?xml version="1.0" encoding="UTF-8"?>
<svg width="48px" height="48px" viewBox="0 0 48 48" version="1.1" xmlns="http://www.w3.org/2000/svg" xmlns:xlink="http://www.w3.org/1999/xlink">
    <!-- Generator: Sketch 49.3 (51167) - http://www.bohemiancoding.com/sketch -->
    <title>abstract/search-advertiser</title>
    <desc>Created with Sketch.</desc>
    <defs></defs>
    <g id="abstract/search-advertiser" stroke="none" stroke-width="1" fill="none" fill-rule="evenodd">
        <path d="M20.7406366,44 C21.8452061,44 22.7406366,44.8954305 22.7406366,46 C22.7406366,47.1045695 21.8452061,48 20.7406366,48 L6,48 C2.6862915,48 0,45.3137085 0,42 L0,6 C0,2.6862915 2.6862915,0 6,0 L42,0 C45.3137085,0 48,2.6862915 48,6 L48,26.0179219 C48,27.1224914 47.1045695,28.0179219 46,28.0179219 C44.8954305,28.0179219 44,27.1224914 44,26.0179219 L44,6 C44,4.8954305 43.1045695,4 42,4 L6,4 C4.8954305,4 4,4.8954305 4,6 L4,42 C4,43.1045695 4.8954305,44 6,44 L20.7406366,44 Z M10.5,10 L37.5,10 C38.8807119,10 40,11.1192881 40,12.5 C40,13.8807119 38.8807119,15 37.5,15 L10.5,15 C9.11928813,15 8,13.8807119 8,12.5 C8,11.1192881 9.11928813,10 10.5,10 Z M10.5,20 L37.5,20 C38.8807119,20 40,21.1192881 40,22.5 C40,23.8807119 38.8807119,25 37.5,25 L10.5,25 C9.11928813,25 8,23.8807119 8,22.5 C8,21.1192881 9.11928813,20 10.5,20 Z M37,44 C32.581722,44 29,40.418278 29,36 C29,31.581722 32.581722,28 37,28 C41.418278,28 45,31.581722 45,36 C45,40.418278 41.418278,44 37,44 Z M37,40 C39.209139,40 41,38.209139 41,36 C41,33.790861 39.209139,32 37,32 C34.790861,32 33,33.790861 33,36 C33,38.209139 34.790861,40 37,40 Z M40.5138981,43.3384697 C39.7746817,42.5177182 39.8407789,41.2531145 40.6615303,40.5138981 C41.4822818,39.7746817 42.7468855,39.8407789 43.4861019,40.6615303 L47.0166549,44.5815009 C47.7558713,45.4022523 47.6897741,46.6668561 46.8690227,47.4060725 C46.0482712,48.1452888 44.7836675,48.0791916 44.0444511,47.2584402 L40.5138981,43.3384697 Z M10.5,30 L22.5,30 C23.8807119,30 25,31.1192881 25,32.5 C25,33.8807119 23.8807119,35 22.5,35 L10.5,35 C9.11928813,35 8,33.8807119 8,32.5 C8,31.1192881 9.11928813,30 10.5,30 Z" id="search-advertiser" fill="#000000" fill-rule="nonzero"></path>
    </g>
</svg>