<?xml version="1.0" encoding="UTF-8"?>
<svg width="48px" height="48px" viewBox="0 0 48 48" version="1.1" xmlns="http://www.w3.org/2000/svg" xmlns:xlink="http://www.w3.org/1999/xlink">
    <!-- Generator: Sketch 50.2 (55047) - http://www.bohemiancoding.com/sketch -->
    <title>editors/selected</title>
    <desc>Created with Sketch.</desc>
    <defs></defs>
    <g id="editors/selected" stroke="none" stroke-width="1" fill="none" fill-rule="evenodd" stroke-linecap="round" stroke-linejoin="round">
        <rect class="fillColor" id="Rectangle" stroke="#000000" stroke-width="4" x="2" y="2" width="8" height="8"></rect>
        <rect class="fillColor" id="Rectangle-Copy-3" stroke="#000000" stroke-width="4" x="2" y="20" width="8" height="8"></rect>
        <rect class="fillColor" id="Rectangle-Copy-6" stroke="#000000" stroke-width="4" x="38" y="20" width="8" height="8"></rect>
        <rect class="fillColor" id="Rectangle-Copy-7" stroke="#000000" stroke-width="4" x="20" y="38" width="8" height="8"></rect>
        <rect class="fillColor" id="Rectangle-Copy-4" stroke="#000000" stroke-width="4" x="2" y="38" width="8" height="8"></rect>
        <rect class="fillColor" id="Rectangle-Copy" stroke="#000000" stroke-width="4" x="38" y="2" width="8" height="8"></rect>
        <rect class="fillColor" id="Rectangle-Copy-2" stroke="#000000" stroke-width="4" x="20" y="2" width="8" height="8"></rect>
        <rect class="fillColor" id="Rectangle-Copy-5" stroke="#000000" stroke-width="4" x="38" y="38" width="8" height="8"></rect>
        <path d="M6,38 L6,28" id="Path-255-Copy-2" stroke="#000000" stroke-width="4"></path>
        <path d="M42,38 L42,28" id="Path-255-Copy-5" stroke="#000000" stroke-width="4"></path>
        <path d="M6,20 L6,10" id="Path-255-Copy-4" stroke="#000000" stroke-width="4"></path>
        <path d="M42,20 L42,10" id="Path-255-Copy-6" stroke="#000000" stroke-width="4"></path>
        <path d="M10,6 L20,6" id="Path-255" stroke="#000000" stroke-width="4"></path>
        <path d="M10,42 L20,42" id="Path-255-Copy-7" stroke="#000000" stroke-width="4"></path>
        <path d="M28,6 L38,6" id="Path-255-Copy" stroke="#000000" stroke-width="4"></path>
        <path d="M28,42 L38,42" id="Path-255-Copy-3" stroke="#000000" stroke-width="4"></path>
    </g>
</svg>
