<?xml version="1.0" encoding="UTF-8"?>
<svg width="48px" height="47px" viewBox="0 0 48 47" version="1.1" xmlns="http://www.w3.org/2000/svg" xmlns:xlink="http://www.w3.org/1999/xlink">
    <!-- Generator: Sketch 49.3 (51167) - http://www.bohemiancoding.com/sketch -->
    <title>abstract/setup-user</title>
    <desc>Created with Sketch.</desc>
    <defs></defs>
    <g id="abstract/setup-user" stroke="none" stroke-width="1" fill="none" fill-rule="evenodd">
        <path d="M26.0074554,28.364859 C25.8630937,28.1973813 25.7442598,28.0029264 25.6593707,27.7851891 C25.258147,26.7560665 25.7671597,25.5965417 26.7962824,25.1953181 C30.2376004,23.8536528 32.6368515,20.7853208 33.00972,17.1394383 C33.0166016,17.0721504 33.0204903,16.4652425 33.0149169,15.6796204 C33.0133897,15.4643443 33.0113519,15.2381437 33.00867,14.9756082 C33.0017731,14.341069 32.9993419,14.1060145 32.9993419,13.9911384 C32.9993419,8.47318501 28.5261569,4 23.0082036,4 C17.4902502,4 13.0170652,8.47318501 13.0170652,13.9911384 C13.0170652,14.1003695 13.0148241,14.3339251 13.008444,14.970234 C13.0059657,15.2334745 13.0040735,15.4616751 13.0026575,15.6786942 C12.9974975,16.4695483 13.001129,17.0827375 13.0074718,17.1472619 C13.3729667,20.8654139 15.84353,23.9658703 19.3840873,25.2642473 C20.4211251,25.644545 20.9535181,26.7935225 20.5732203,27.8305603 C20.2657635,28.6689673 19.4558878,29.1775319 18.6089317,29.1406338 C10.0659436,30.8331297 4,37.2510967 4,44.5926963 C4,45.6972658 3.1045695,46.5926963 2,46.5926963 C0.8954305,46.5926963 0,45.6972658 0,44.5926963 C0,36.547354 5.53439342,29.5488244 13.6197358,26.4325435 C11.0564149,24.1997699 9.37334931,21.0654338 9.02665867,17.5385764 C8.99923114,17.2595583 8.99591324,16.6993177 9.00274265,15.6525965 C9.00418706,15.4312162 9.00610955,15.1993644 9.00862124,14.9325773 C9.01504006,14.2890261 9.01706522,14.0779788 9.01706522,13.9911384 C9.01706522,6.26404601 15.2811112,0 23.0082036,0 C30.7352959,0 36.9993419,6.26404601 36.9993419,13.9911384 C36.9993419,14.0818809 37.0015226,14.2927191 37.0084613,14.934749 C37.0111823,15.201112 37.0132556,15.4312476 37.0148163,15.6512441 C37.0222097,16.6934104 37.018601,17.2566107 36.9889639,17.5464 C36.6293466,21.0627137 34.9397028,24.1969088 32.373826,26.431552 C34.4625295,27.2368398 36.4052005,28.3101485 38.1372498,29.6185369 C39.0186161,30.2843201 39.1933807,31.5385325 38.5275975,32.4198988 C37.8618143,33.3012651 36.6076018,33.4760297 35.7262355,32.8102465 C33.3198636,30.9924755 30.3978511,29.7106699 27.2170716,29.1068827 C26.7169238,29.0119428 26.2958923,28.7384222 26.0074554,28.364859 Z M28,36 L46,36 C47.1045695,36 48,36.8954305 48,38 C48,39.1045695 47.1045695,40 46,40 L28,40 C26.8954305,40 26,39.1045695 26,38 C26,36.8954305 26.8954305,36 28,36 Z M28,43 L46,43 C47.1045695,43 48,43.8954305 48,45 C48,46.1045695 47.1045695,47 46,47 L28,47 C26.8954305,47 26,46.1045695 26,45 C26,43.8954305 26.8954305,43 28,43 Z" id="setup-user" fill="#000000" fill-rule="nonzero"></path>
    </g>
</svg>