<?xml version="1.0" encoding="UTF-8"?>
<svg width="48px" height="48px" viewBox="0 0 48 48" version="1.1" xmlns="http://www.w3.org/2000/svg" xmlns:xlink="http://www.w3.org/1999/xlink">
    <!-- Generator: Sketch 49.3 (51167) - http://www.bohemiancoding.com/sketch -->
    <title>abstract/setup-words</title>
    <desc>Created with Sketch.</desc>
    <defs></defs>
    <g id="abstract/setup-words" stroke="none" stroke-width="1" fill="none" fill-rule="evenodd">
        <path d="M25.5782876,34.8302041 L30.865111,24.0571727 C29.7116025,22.8841165 29,21.2751601 29,19.5 C29,15.9101491 31.9101491,13 35.5,13 C39.0898509,13 42,15.9101491 42,19.5 C42,23.0898509 39.0898509,26 35.5,26 C35.1292234,26 34.7656977,25.9689553 34.4118803,25.9093235 L28.3520419,38.2575382 C28.1119832,38.746709 27.6987225,39.0941873 27.2225221,39.2623063 C26.7497411,39.4475611 26.2066472,39.453966 25.7032642,39.2376384 L20.3822322,36.9509374 L15.2501404,46.8057127 C14.9231519,47.4336046 14.3096142,47.8154104 13.6532317,47.8743336 C13.4355545,47.9555839 13.1999216,48 12.9539148,48 L6,48 C2.6862915,48 5.99520433e-15,45.3137085 0,42 L0,6 C-4.4408921e-16,2.6862915 2.6862915,6.66133815e-16 6,0 L42,0 C45.3137085,-4.4408921e-16 48,2.6862915 48,6 L48,42 C48,45.3137085 45.3137085,48 42,48 L37.073767,48 C35.9691975,48 35.073767,47.1045695 35.073767,46 C35.073767,44.8954305 35.9691975,44 37.073767,44 L42,44 C43.1045695,44 44,43.1045695 44,42 L44,6 C44,4.8954305 43.1045695,4 42,4 L6,4 C4.8954305,4 4,4.8954305 4,6 L4,42 C4,43.1045695 4.8954305,44 6,44 L12.2013708,44 L17.3694,34.0762166 C17.418608,33.9817261 17.4743055,33.8928086 17.5356618,33.809726 C17.5579696,33.7343952 17.5849471,33.6595728 17.6167334,33.5856078 C18.0528528,32.5707809 19.2290773,32.1016459 20.2439041,32.5377653 L25.5782876,34.8302041 Z M35.5,22 C36.8807119,22 38,20.8807119 38,19.5 C38,18.1192881 36.8807119,17 35.5,17 C34.1192881,17 33,18.1192881 33,19.5 C33,20.8807119 34.1192881,22 35.5,22 Z" id="setup-words" fill="#000000" fill-rule="nonzero"></path>
    </g>
</svg>