<?xml version="1.0" encoding="UTF-8"?>
<svg width="48px" height="48px" viewBox="0 0 48 48" version="1.1" xmlns="http://www.w3.org/2000/svg" xmlns:xlink="http://www.w3.org/1999/xlink">
    <!-- Generator: Sketch 47 (45396) - http://www.bohemiancoding.com/sketch -->
    <title>shangqiao</title>
    <desc>Created with Sketch.</desc>
    <defs></defs>
    <g id="【已公示】图标" stroke="none" stroke-width="1" fill="none" fill-rule="evenodd">
        <g id="图标-通用" transform="translate(-540.000000, -1438.000000)" fill-rule="nonzero" fill="#333333">
            <g id="商桥" transform="translate(539.000000, 1438.000000)">
                <path class="noStroke" d="M17.248919,41.2179213 C22.9005378,32.367691 31.1200473,27.0176954 41.7894458,25.2437097 C41.75486,23.6677237 41.5197321,22.1369753 41.1255922,20.6760474 C29.4818452,22.0553466 20.9489531,28.501516 15.3556476,40.1915718 C15.9553021,40.5707192 16.5867479,40.9140817 17.248919,41.2179213 Z M21.1856564,42.5117549 C24.5707569,43.1989884 27.8482862,42.7929676 30.8806474,41.641527 C31.5604098,41.3834093 32.1634675,41.1084388 32.6799516,40.8365472 C32.9745106,40.681483 33.1643179,40.5691643 33.2397251,40.5199629 L34.0764321,39.974032 L39.1302693,41.8098332 L39.2640208,41.8639557 C40.4606303,42.3991728 41.6094796,42.6530822 42.6126681,42.7174278 C42.1361382,42.3540685 41.7340877,41.9695033 41.4018805,41.5763252 C41.1733576,41.3058608 41.001232,41.0605519 40.8785886,40.8528428 C40.4494932,40.2597976 40.1253178,39.6217418 39.9019618,38.949607 C39.3159045,37.1860118 39.4495515,35.3864979 40.0027436,33.685735 C40.1603383,33.2012175 40.3231121,32.8134616 40.4580632,32.5409455 C40.879932,31.4800994 41.1940398,30.4227189 41.4112977,29.3752626 C32.7164328,31.0564534 26.0056626,35.4153066 21.1856564,42.5117549 Z M12.1898413,37.5626087 C18.3059707,25.3727086 27.6886985,18.3861301 40.1837195,16.7623569 L41.3361992,16.1441006 C41.8498277,15.8685608 42.2826442,15.4729776 42.643663,14.9771259 C42.9236475,14.5925732 43.1438056,14.1709591 43.3056917,13.7503809 C43.3982051,13.5100322 43.4465809,13.3413966 43.4773114,13.205434 C44.0104756,11.1283374 43.6281211,9.51533063 42.669452,8.21660019 C42.2820672,7.69180137 41.9108078,7.35835186 41.7070049,7.22160343 C39.0840237,5.41198731 37.0180815,5.71218768 35.1185395,7.33717326 C34.7518934,7.65082505 34.4276994,7.98996323 34.1538192,8.3264591 C33.9980166,8.51788201 33.9013395,8.65357336 33.869022,8.7043552 L32.9798155,10.1016043 L31.4412961,9.48845549 C26.9083798,7.68194434 22.9724957,7.70038712 19.7641756,8.78470887 C18.9919518,9.04569873 18.4852203,9.29178347 18.2744143,9.4227719 L16.5614947,10.4871276 L15.511391,8.76543412 C14.6910009,7.42036682 13.7948765,6.60485124 12.8400755,6.1936479 C11.5522408,5.63901718 10.0825223,5.80606278 8.60563912,6.47195752 C8.1460514,6.6791757 7.79965321,6.88058217 7.61115005,7.00804352 C4.23189102,10.0034643 4.34116257,12.3805917 6.50441373,14.8027743 C6.86547352,15.2070514 7.25671598,15.5701496 7.64614796,15.8818161 C7.87125231,16.0619695 8.03478677,16.1779249 8.10428239,16.222445 L9.47624612,17.1013498 L8.89282515,18.6226578 C6.30832063,25.3619209 7.71378516,32.7497301 12.1898413,37.5626087 Z M3.52102297,17.4672404 C-0.0341779048,13.4864979 -0.228732901,8.55517618 5.05334099,3.93059672 L5.19390584,3.81828551 C5.56759804,3.54631607 6.17030414,3.18221201 6.96151714,2.82547115 C9.36686968,1.74094961 11.9357041,1.44898045 14.4222611,2.5198639 C15.7078678,3.07353509 16.8702077,3.9683157 17.8869583,5.20928224 C18.0743857,5.1379171 18.2732769,5.06631644 18.4834561,4.99528181 C22.2013942,3.73872352 26.6187786,3.61078255 31.5171049,5.25656391 C31.8061585,4.94554835 32.1398077,4.62142701 32.5183208,4.29762352 C35.6973955,1.57804658 39.7228235,0.993114914 43.9558418,3.91373677 C44.4925975,4.27329614 45.1981868,4.90702662 45.8876508,5.84105893 C47.5285673,8.06404509 48.1998291,10.8958411 47.3704967,14.1199602 C47.1862467,14.9836426 46.7369598,16.1508847 45.8773679,17.331516 C45.5288933,17.8101385 45.1357362,18.2496771 44.6957013,18.6415884 C44.7825154,18.9127281 44.8707547,19.2082184 44.9583296,19.5269561 C46.1880433,24.0026269 46.1880433,29.0201747 44.1369044,34.1141108 L44.0510827,34.29935 C44.0067033,34.3835803 43.9099988,34.6050455 43.8065878,34.9229778 C43.4943874,35.8828229 43.4219655,36.8579599 43.6978607,37.6881982 C43.8004366,37.9968753 43.9512225,38.2865769 44.1584383,38.5610537 L44.2687262,38.7071405 L44.3506639,38.87082 C44.3339009,38.837334 44.3656093,38.886254 44.4572718,38.9947396 C44.6629731,39.2381938 44.9536503,39.4976363 45.3452322,39.7529734 C45.7468227,40.0148368 46.2240025,40.2508444 46.7859887,40.4506665 L46.9275305,40.5071561 C47.1603356,40.610518 47.444668,40.7648403 47.7479651,40.9893682 C48.4892977,41.5381696 49.0055756,42.2282848 48.9999639,43.2648356 C48.9930766,44.5370092 48.167636,45.3841197 46.9103973,45.9387586 C46.3140839,46.201826 45.5574964,46.4275583 44.5158262,46.6452046 C44.4229984,46.6601086 44.2864477,46.6771952 44.109434,46.6925632 C42.2758714,46.8517504 40.0450352,46.5810874 37.6991374,45.5457013 L34.5238598,44.3922849 C33.9379724,44.699865 33.1918751,45.0425775 32.3005953,45.381012 C27.2113128,47.3135016 21.5040712,47.5278829 15.6945692,44.9052732 C5.79115319,40.4345293 1.41429574,29.0196689 4.66530385,18.6082286 C4.29775843,18.2830352 3.90962395,17.9023552 3.52102297,17.4672404 Z" id="shangqiao"></path>
            </g>
        </g>
    </g>
</svg>
