<?xml version="1.0" encoding="UTF-8"?>
<svg width="48px" height="48px" viewBox="0 0 48 48" version="1.1" xmlns="http://www.w3.org/2000/svg" xmlns:xlink="http://www.w3.org/1999/xlink">
    <!-- Generator: Sketch 47 (45396) - http://www.bohemiancoding.com/sketch -->
    <title>shangqiao-in</title>
    <desc>Created with Sketch.</desc>
    <defs></defs>
    <g id="【已公示】图标" stroke="none" stroke-width="1" fill="none" fill-rule="evenodd">
        <g id="图标-通用" transform="translate(-660.000000, -1438.000000)" fill-rule="nonzero" fill="#333333">
            <g id="商桥实心" transform="translate(660.000000, 1438.000000)">
                <path class="noStroke" d="M44.18575,27.189323 C30.7563369,28.8301643 20.5351675,34.4234746 13.6601939,43.9431103 C13.3206415,43.7618287 12.9891127,43.5721841 12.6656337,43.3745635 C19.4240714,29.7997842 29.7425913,22.5110563 43.8012168,21.3223147 C44.1151325,22.9199162 44.3313408,24.9264734 44.18575,27.189323 Z M43.527394,31.3107587 C43.2950079,32.2097502 42.9965934,33.1304327 42.6199698,34.0657649 C42.6199698,34.0657649 40.6047516,37.8905638 42.9222762,40.960343 C42.9222762,40.960343 43.7788334,42.6714106 46.7511976,43.7282762 C46.7511976,43.7282762 49.9250768,45.1374304 44.6855499,46.2445362 C44.6855499,46.2445362 41.8642714,46.6975076 38.4888095,45.187738 L34.0553429,43.5772858 C34.0553429,43.5772858 26.7488225,48.3446118 17.4721342,45.5183574 C23.463028,37.6619213 32.1101348,32.9332526 43.527394,31.3107587 Z M42.6231758,17.4147726 C27.7995866,18.9202613 16.6826501,26.8048084 9.43530822,40.9000036 C3.23724091,35.0131504 1.5242271,25.5154702 4.63346714,17.4079253 C4.63346714,17.4079253 -4.63642874,11.4694626 3.92813064,3.97099014 C3.92813064,3.97099014 10.9813607,-1.16228011 15.6162749,6.43687505 C15.6162749,6.43687505 22.0145979,2.4611532 31.7378858,6.33619231 C31.7378858,6.33619231 36.2217143,-0.709443664 43.224515,4.1218457 C43.224515,4.1218457 47.5068285,6.99046173 45.9954317,12.8785493 C45.9954317,12.8785493 45.3405246,15.9484634 42.6199698,17.4079253 C42.6199698,17.4079253 42.6210573,17.4102186 42.6231758,17.4147726 Z" id="shangqiao-in"></path>
            </g>
        </g>
    </g>
</svg>
