<?xml version="1.0" encoding="UTF-8"?>
<svg width="48px" height="48px" viewBox="0 0 48 48" version="1.1" xmlns="http://www.w3.org/2000/svg" xmlns:xlink="http://www.w3.org/1999/xlink">
    <!-- Generator: Sketch 50.2 (55047) - http://www.bohemiancoding.com/sketch -->
    <title>weather/snow</title>
    <desc>Created with Sketch.</desc>
    <defs></defs>
    <g id="weather/snow" stroke="none" stroke-width="1" fill="none" fill-rule="evenodd" stroke-linecap="round" stroke-linejoin="round">
        <path d="M8,29.0010986 C4.35665989,26.2644796 2,21.9074535 2,17 C2,8.71572875 8.71572875,2 17,2 C23.9267933,2 29.7569769,6.69514477 31.481679,13.0765628 C32.8387832,12.3880399 34.3740758,12 36,12 C41.5228475,12 46,16.4771525 46,22 C46,26.1006381 43.5318096,29.6247994 40,31.1679126" id="Combined-Shape-Copy-2" stroke="#000000" stroke-width="4"></path>
        <path d="M16,28 L16,29" id="Path-29-Copy-6" stroke="#000000" stroke-width="4"></path>
        <path d="M16,42 L16,43" id="Path-29-Copy-11" stroke="#000000" stroke-width="4"></path>
        <path d="M20,35 L20,36" id="Path-29-Copy-9" stroke="#000000" stroke-width="4"></path>
        <path d="M12,35 L12,36" id="Path-29-Copy-9" stroke="#000000" stroke-width="4"></path>
        <path d="M24,28 L24,29" id="Path-29-Copy-7" stroke="#000000" stroke-width="4"></path>
        <path d="M24,42 L24,43" id="Path-29-Copy-12" stroke="#000000" stroke-width="4"></path>
        <path d="M28,35 L28,36" id="Path-29-Copy-10" stroke="#000000" stroke-width="4"></path>
        <path d="M36,35 L36,36" id="Path-29-Copy-10" stroke="#000000" stroke-width="4"></path>
        <path d="M32,28 L32,29" id="Path-29-Copy-8" stroke="#000000" stroke-width="4"></path>
        <path d="M32,42 L32,43" id="Path-29-Copy-13" stroke="#000000" stroke-width="4"></path>
    </g>
</svg>