<?xml version="1.0" encoding="UTF-8"?>
<svg width="46px" height="48px" viewBox="0 0 46 48" version="1.1" xmlns="http://www.w3.org/2000/svg" xmlns:xlink="http://www.w3.org/1999/xlink">
    <!-- Generator: Sketch 49.3 (51167) - http://www.bohemiancoding.com/sketch -->
    <title>abstract/sound-market</title>
    <desc>Created with Sketch.</desc>
    <defs></defs>
    <g id="abstract/sound-market" stroke="none" stroke-width="1" fill="none" fill-rule="evenodd">
        <path d="M23.0714286,0 L23.0952381,0 C24.1998076,-2.02906125e-16 25.0952381,0.8954305 25.0952381,2 L25.0952381,46 C25.0952381,47.1045695 24.1998076,48 23.0952381,48 L23.0714286,48 C21.9668591,48 21.0714286,47.1045695 21.0714286,46 L21.0714286,2 C21.0714286,0.8954305 21.9668591,2.02906125e-16 23.0714286,0 Z M12.7857143,10.2857143 L12.8095238,10.2857143 C13.9140933,10.2857143 14.8095238,11.1811448 14.8095238,12.2857143 L14.8095238,39.1428571 C14.8095238,40.2474266 13.9140933,41.1428571 12.8095238,41.1428571 L12.7857143,41.1428571 C11.6811448,41.1428571 10.7857143,40.2474266 10.7857143,39.1428571 L10.7857143,12.2857143 C10.7857143,11.1811448 11.6811448,10.2857143 12.7857143,10.2857143 Z M33.3571429,10.2857143 L33.3809524,10.2857143 C34.4855219,10.2857143 35.3809524,11.1811448 35.3809524,12.2857143 L35.3809524,39.1428571 C35.3809524,40.2474266 34.4855219,41.1428571 33.3809524,41.1428571 L33.3571429,41.1428571 C32.2525734,41.1428571 31.3571429,40.2474266 31.3571429,39.1428571 L31.3571429,12.2857143 C31.3571429,11.1811448 32.2525734,10.2857143 33.3571429,10.2857143 Z M43.6428571,17.1428571 L43.6666667,17.1428571 C44.7712362,17.1428571 45.6666667,18.0382876 45.6666667,19.1428571 L45.6666667,28.8571429 C45.6666667,29.9617124 44.7712362,30.8571429 43.6666667,30.8571429 L43.6428571,30.8571429 C42.5382876,30.8571429 41.6428571,29.9617124 41.6428571,28.8571429 L41.6428571,19.1428571 C41.6428571,18.0382876 42.5382876,17.1428571 43.6428571,17.1428571 Z M2.5,17.1428571 L2.52380952,17.1428571 C3.62837902,17.1428571 4.52380952,18.0382876 4.52380952,19.1428571 L4.52380952,28.8571429 C4.52380952,29.9617124 3.62837902,30.8571429 2.52380952,30.8571429 L2.5,30.8571429 C1.3954305,30.8571429 0.5,29.9617124 0.5,28.8571429 L0.5,19.1428571 C0.5,18.0382876 1.3954305,17.1428571 2.5,17.1428571 Z" id="sound-market" fill="#000000" fill-rule="nonzero"></path>
    </g>
</svg>