<?xml version="1.0" encoding="UTF-8"?>
<svg width="48px" height="48px" viewBox="0 0 48 48" version="1.1" xmlns="http://www.w3.org/2000/svg" xmlns:xlink="http://www.w3.org/1999/xlink">
    <!-- Generator: Sketch 50.2 (55047) - http://www.bohemiancoding.com/sketch -->
    <title>weather/sunny</title>
    <desc>Created with Sketch.</desc>
    <defs></defs>
    <g id="weather/sunny" stroke="none" stroke-width="1" fill="none" fill-rule="evenodd" stroke-linecap="round" stroke-linejoin="round">
        <path class="fillColor" d="M17,46 C8.71572875,46 2,39.2842712 2,31 C2,22.7157288 8.71572875,16 17,16 C23.9267933,16 29.7569769,20.6951448 31.481679,27.0765628 C32.8387832,26.3880399 34.3740758,26 36,26 C41.5228475,26 46,30.4771525 46,36 C46,41.5228475 41.5228475,46 36,46 L17,46 Z" id="Combined-Shape" stroke="#000000" stroke-width="4"></path>
        <path class="innerFillColor" d="M19,16.1618708 C19.8305188,12.6295818 23.0020841,10 26.7878212,10 C31.2060992,10 34.7878212,13.581722 34.7878212,18 C34.7878212,21.0527703 33.0779081,23.7061689 30.563589,25.0546888 C28.5418158,20.3763739 24.2066447,16.9314598 19,16.1618708 Z" id="Combined-Shape" stroke="#000000" stroke-width="4"></path>
        <path d="M26.0208153,2 L26.0208153,4 M37.3345238,6.6862915 L35.9203102,8.10050506 M42.0208153,18 L40.0208153,18 M14.7071068,6.6862915 L16.1213203,8.10050506" id="Path-28" stroke="#000000" stroke-width="4"></path>
    </g>
</svg>
