<?xml version="1.0" encoding="UTF-8"?>
<svg width="48px" height="48px" viewBox="0 0 48 48" version="1.1" xmlns="http://www.w3.org/2000/svg" xmlns:xlink="http://www.w3.org/1999/xlink">
    <!-- Generator: Sketch 49.3 (51167) - http://www.bohemiancoding.com/sketch -->
    <title>abstract/technology</title>
    <desc>Created with Sketch.</desc>
    <defs></defs>
    <g id="abstract/technology" stroke="none" stroke-width="1" fill="none" fill-rule="evenodd">
        <path d="M6,0 L42,0 C45.3137085,0 48,2.6862915 48,6 L48,42 C48,45.3137085 45.3137085,48 42,48 L6,48 C2.6862915,48 0,45.3137085 0,42 L0,6 C0,2.6862915 2.6862915,0 6,0 Z M6,4 C4.8954305,4 4,4.8954305 4,6 L4,42 C4,43.1045695 4.8954305,44 6,44 L42,44 C43.1045695,44 44,43.1045695 44,42 L44,6 C44,4.8954305 43.1045695,4 42,4 L6,4 Z M4,10 L44,10 L44,14 L4,14 L4,10 Z M31.572197,33.5995077 L36.1714384,28.9105777 L31.5997792,24.4280692 C30.8110783,23.6547486 30.7986102,22.3884801 31.5719308,21.5997792 C32.3452514,20.8110784 33.61152,20.7986102 34.4002208,21.5719308 L40.4002208,27.4549264 C41.1890277,28.228351 41.2013775,29.4948281 40.4278029,30.2834879 L34.4278029,36.4004923 C33.6543324,37.1890461 32.3880615,37.2012735 31.5995077,36.427803 C30.8109539,35.6543324 30.7987265,34.3880615 31.572197,33.5995077 Z M16.4278029,24.4004923 L11.8285616,29.0894223 L16.4002208,33.5719308 C17.1889216,34.3452514 17.2013898,35.61152 16.4280692,36.4002208 C15.6547486,37.1889217 14.38848,37.2013898 13.5997792,36.4280692 L7.59977917,30.5450736 C6.81097228,29.771649 6.79862249,28.5051719 7.57219703,27.7165121 L13.572197,21.5995077 C14.3456676,20.8109539 15.6119385,20.7987265 16.4004923,21.572197 C17.1890461,22.3456676 17.2012735,23.6119385 16.4278029,24.4004923 Z M24.1026201,22.3675845 C24.4518935,21.3196905 25.5845215,20.7533466 26.6324155,21.1026201 C27.6803095,21.4518935 28.2466534,22.5845215 27.8973799,23.6324155 L23.8973799,35.6332589 C23.5481065,36.6811529 22.4154785,37.2474967 21.3675845,36.8982233 C20.3196905,36.5489498 19.7533466,35.4163218 20.1026201,34.3684278 L24.1026201,22.3675845 Z" id="technology" fill="#000000"></path>
    </g>
</svg>