<?xml version="1.0" encoding="UTF-8"?>
<svg width="48px" height="50px" viewBox="0 0 48 50" version="1.1" xmlns="http://www.w3.org/2000/svg" xmlns:xlink="http://www.w3.org/1999/xlink">
    <!-- Generator: Sketch 48.2 (47327) - http://www.bohemiancoding.com/sketch -->
    <title>thirtyjin</title>
    <desc>Created with Sketch.</desc>
    <defs></defs>
    <g id="Symbols" stroke="none" stroke-width="1" fill="none" fill-rule="evenodd">
        <g id="thirtyjin" fill="#000000">
            <g class="noStroke" id="Combined-Shape">
                <path d="M8,1 L46,1 C47.1045695,1 48,1.8954305 48,3 L48,47 C48,48.8531213 45.6975909,49.7097246 44.486354,48.3072397 L6.48635398,4.30723974 C5.36721465,3.0113942 6.28778257,1 8,1 Z M12.3698985,5 L44,41.624328 L44,5 L12.3698985,5 Z" fill-rule="nonzero"></path>
                <path d="M48,3 L48,47 C48,48.1045695 47.1045695,49 46,49 L8,49 C6.28778257,49 5.36721465,46.9886058 6.48635398,45.6927603 L44.486354,1.69276026 C45.6975909,0.290275394 48,1.14687866 48,3 Z M12.3698985,45 L44,45 L44,8.37567197 L12.3698985,45 Z"></path>
                <path d="M48,3 L48,47 C48,48.486764 46.435375,49.4537555 45.1055728,48.7888544 L1.10557281,26.7888544 C-0.36852427,26.0518058 -0.36852427,23.9481942 1.10557281,23.2111456 L45.1055728,1.21114562 C46.435375,0.546244525 48,1.51323596 48,3 Z M44,6.23606798 L6.47213595,25 L44,43.763932 L44,6.23606798 Z"></path>
            </g>
        </g>
    </g>
</svg>
