<?xml version="1.0" encoding="UTF-8"?>
<svg width="48px" height="48px" viewBox="0 0 48 48" version="1.1" xmlns="http://www.w3.org/2000/svg" xmlns:xlink="http://www.w3.org/1999/xlink">
    <!-- Generator: Sketch 49.3 (51167) - http://www.bohemiancoding.com/sketch -->
    <title>abstract/tool-center</title>
    <desc>Created with Sketch.</desc>
    <defs></defs>
    <g id="abstract/tool-center" stroke="none" stroke-width="1" fill="none" fill-rule="evenodd">
        <path d="M37,24 L44,24 L44,12 C44,10.8954305 43.1045695,10 42,10 L32.9673521,10 C31.8627826,10 30.9673521,9.1045695 30.9673521,8 C30.9673521,6.8954305 31.8627826,6 32.9673521,6 L42,6 C45.3137085,6 48,8.6862915 48,12 L48,42 C48,45.3137085 45.3137085,48 42,48 L6,48 C2.6862915,48 0,45.3137085 0,42 L0,12 C0,8.6862915 2.6862915,6 6,6 L14.9673521,6 C16.0719216,6 16.9673521,6.8954305 16.9673521,8 C16.9673521,9.1045695 16.0719216,10 14.9673521,10 L6,10 C4.8954305,10 4,10.8954305 4,12 L4,24 L11,24 L11,22 C11,20.8954305 11.8954305,20 13,20 L19,20 C20.1045695,20 21,20.8954305 21,22 L21,24 L27,24 L27,22 C27,20.8954305 27.8954305,20 29,20 L35,20 C36.1045695,20 37,20.8954305 37,22 L37,24 Z M37,28 L37,30 C37,31.1045695 36.1045695,32 35,32 L29,32 C27.8954305,32 27,31.1045695 27,30 L27,28 L21,28 L21,30 C21,31.1045695 20.1045695,32 19,32 L13,32 C11.8954305,32 11,31.1045695 11,30 L11,28 L4,28 L4,42 C4,43.1045695 4.8954305,44 6,44 L42,44 C43.1045695,44 44,43.1045695 44,42 L44,28 L37,28 Z M15,4 C13.8954305,4 13,3.1045695 13,2 C13,0.8954305 13.8954305,0 15,0 L33,0 C34.1045695,0 35,0.8954305 35,2 C35,3.1045695 34.1045695,4 33,4 L15,4 Z M15,28 L17,28 L17,24 L15,24 L15,28 Z M31,28 L33,28 L33,24 L31,24 L31,28 Z" id="tool-center" fill="#000000" fill-rule="nonzero"></path>
    </g>
</svg>