<?xml version="1.0" encoding="UTF-8"?>
<svg width="48px" height="48px" viewBox="0 0 48 48" version="1.1" xmlns="http://www.w3.org/2000/svg" xmlns:xlink="http://www.w3.org/1999/xlink">
    <!-- Generator: Sketch 49.3 (51167) - http://www.bohemiancoding.com/sketch -->
    <title>abstract/trace</title>
    <desc>Created with Sketch.</desc>
    <defs></defs>
    <g id="abstract/trace" stroke="none" stroke-width="1" fill="none" fill-rule="evenodd">
        <path d="M41.9765625,8.71148377 L26.352446,24.3356003 C25.5713974,25.1166489 24.3050674,25.1166489 23.5240189,24.3356003 C22.7429703,23.5545517 22.7429703,22.2882217 23.5240189,21.5071732 L39.031192,6 L32,6 C30.8954305,6 30,5.1045695 30,4 C30,2.8954305 30.8954305,2 32,2 L43.9765625,2 C45.081132,2 45.9765625,2.8954305 45.9765625,4 L45.9765625,16.0578613 C45.9765625,17.1624308 45.081132,18.0578613 43.9765625,18.0578613 C42.871993,18.0578613 41.9765625,17.1624308 41.9765625,16.0578613 L41.9765625,8.71148377 Z M24,0 C25.1045695,0 26,0.8954305 26,2 C26,3.1045695 25.1045695,4 24,4 C12.954305,4 4,12.954305 4,24 C4,35.045695 12.954305,44 24,44 C35.045695,44 44,35.045695 44,24 C44,22.8954305 44.8954305,22 46,22 C47.1045695,22 48,22.8954305 48,24 C48,37.254834 37.254834,48 24,48 C10.745166,48 0,37.254834 0,24 C0,10.745166 10.745166,0 24,0 Z M22.4983085,12.0158073 C23.5942651,11.8781371 24.5943171,12.6549817 24.7319872,13.7509382 C24.8696574,14.8468948 24.0928128,15.8469468 22.9968563,15.9846169 C19.0194378,16.4842461 15.9996728,19.8826353 15.9996728,23.9295394 C15.9996728,28.3521694 19.5849228,31.9374194 24.0075528,31.9374194 C28.057247,31.9374194 31.4571612,28.9135866 31.9534127,24.9327444 C32.0900506,23.8366587 33.0893706,23.0588726 34.1854563,23.1955106 C35.281542,23.3321485 36.0593281,24.3314685 35.9226901,25.4275542 C35.1775774,31.4047179 30.0811327,35.9374194 24.0075528,35.9374194 C17.3757838,35.9374194 11.9996728,30.5613084 11.9996728,23.9295394 C11.9996728,17.8601431 16.5262685,12.7659936 22.4983085,12.0158073 Z" id="trace" fill="#000000" fill-rule="nonzero"></path>
    </g>
</svg>