<?xml version="1.0" encoding="UTF-8"?>
<svg width="48px" height="48px" viewBox="0 0 48 48" version="1.1" xmlns="http://www.w3.org/2000/svg" xmlns:xlink="http://www.w3.org/1999/xlink">
    <!-- Generator: Sketch 50.2 (55047) - http://www.bohemiancoding.com/sketch -->
    <title>others/umbrella2</title>
    <desc>Created with Sketch.</desc>
    <defs></defs>
    <g id="others/umbrella2" stroke="none" stroke-width="1" fill="none" fill-rule="evenodd" stroke-linecap="round" stroke-linejoin="round">
        <path class="fillColor" d="M16,28 C18.6666667,25.3333333 21.3333333,24 24,24 C26.6666667,24 29.3333333,25.3333333 32,28 C35.1111111,25.3333333 37.4444444,24 39,24 C40.5555556,24 42.8888889,25.3333333 46,28 C46,15.8497355 36.1502645,6 24,6 C11.8497355,6 2,15.8497355 2,28 C5.11111111,25.3333333 7.44444444,24 9,24 C10.5555556,24 12.8888889,25.3333333 16,28 Z" id="Oval-9" stroke="#000000" stroke-width="4"></path>
        <path d="M24,24 L24,40 C24,43.3137085 26.6862915,46 30,46 C33.3137085,46 36,43.3137085 36,40" id="Oval" stroke="#000000" stroke-width="4"></path>
        <path d="M24,2 L24,6" id="Path-3" stroke="#000000" stroke-width="4"></path>
    </g>
</svg>
