<?xml version="1.0" encoding="UTF-8"?>
<svg width="48px" height="48px" viewBox="0 0 48 48" version="1.1" xmlns="http://www.w3.org/2000/svg" xmlns:xlink="http://www.w3.org/1999/xlink">
    <!-- Generator: Sketch 50.2 (55047) - http://www.bohemiancoding.com/sketch -->
    <title>others/unlike</title>
    <desc>Created with Sketch.</desc>
    <defs></defs>
    <g id="others/unlike" stroke="none" stroke-width="1" fill="none" fill-rule="evenodd" stroke-linecap="round" stroke-linejoin="round">
        <path d="M26.0031712,42.6094077 C25.4194815,43.0200412 24.7517578,43.4835719 24,44 C20,41.3333333 16.6666667,38.6666667 14,36 C10,32 2,24.627417 2,16 C2,9.372583 7.372583,4 14,4 C18.1739415,4 21.8501569,6.13101867 24,9.36440975 C26.1498431,6.13101867 29.8260585,4 34,4 C40.627417,4 46,9.372583 46,16 C46,19.2125685 44.8907404,22.2511449 43.2917993,25.0063866" id="like" stroke="#000000" stroke-width="4"></path>
        <path d="M31,39 L40,30" id="Path-5" stroke="#000000" stroke-width="4"></path>
        <path d="M31,30 L40,39" id="Path-6" stroke="#000000" stroke-width="4"></path>
    </g>
</svg>