<?xml version="1.0" encoding="UTF-8"?>
<svg width="48px" height="48px" viewBox="0 0 48 48" version="1.1" xmlns="http://www.w3.org/2000/svg" xmlns:xlink="http://www.w3.org/1999/xlink">
    <!-- Generator: Sketch 50.2 (55047) - http://www.bohemiancoding.com/sketch -->
    <title>others/USB</title>
    <desc>Created with Sketch.</desc>
    <defs></defs>
    <g id="others/USB" stroke="none" stroke-width="1" fill="none" fill-rule="evenodd" stroke-linecap="round" stroke-linejoin="round">
        <path class="fillColor" d="M13,20 C15.209139,20 17,18.209139 17,16 C17,13.790861 15.209139,12 13,12 C10.790861,12 9,13.790861 9,16 C9,18.209139 10.790861,20 13,20 Z" id="Oval-8" stroke="#000000" stroke-width="4"></path>
        <path class="fillColor" d="M37,27 C39.209139,27 41,25.209139 41,23 C41,20.790861 39.209139,19 37,19 C34.790861,19 33,20.790861 33,23 C33,25.209139 34.790861,27 37,27 Z" id="Oval-8-Copy-3" stroke="#000000" stroke-width="4"></path>
        <polyline id="Path-2" stroke="#000000" stroke-width="4" points="20 7 25 2 30 7"></polyline>
        <polyline id="Path-3" stroke="#000000" stroke-width="4" points="25 39 13 27 13 20"></polyline>
        <polyline id="Path-4" stroke="#000000" stroke-width="4" points="37 27 37 34 25 46"></polyline>
        <path d="M25,3 L25,46" id="Path-5" stroke="#000000" stroke-width="4"></path>
    </g>
</svg>
