<?xml version="1.0" encoding="UTF-8"?>
<svg width="47px" height="48px" viewBox="0 0 47 48" version="1.1" xmlns="http://www.w3.org/2000/svg" xmlns:xlink="http://www.w3.org/1999/xlink">
    <!-- Generator: Sketch 50.2 (55047) - http://www.bohemiancoding.com/sketch -->
    <title>base/notice</title>
    <desc>Created with Sketch.</desc>
    <defs></defs>
    <g id="base/notice" stroke="none" stroke-width="1" fill="none" fill-rule="evenodd" stroke-linecap="round" stroke-linejoin="round">
        <path class="fillColor" d="M24,2 L24,46 C20,46 15.6666667,42 11,34 L6,34 C3.790861,34 2,32.209139 2,30 L2,18 C2,15.790861 3.790861,14 6,14 L11,14 C15.6666667,6 20,2 24,2 Z" id="Path-127" stroke="#000000" stroke-width="4"></path>
        <path d="M31,11.3087606 C34.6768056,14.5168404 37,19.2371146 37,24.5 C37,29.7628854 34.6768056,34.4831596 31,37.6912394" id="Combined-Shape" stroke="#000000" stroke-width="4"></path>
        <path d="M33,2.08727165 C40.2166255,6.7075484 45,14.7951657 45,24 C45,33.2048343 40.2166255,41.2924516 33,45.9127283" id="Combined-Shape" stroke="#000000" stroke-width="4"></path>
    </g>
</svg>
