<?xml version="1.0" encoding="UTF-8"?>
<svg width="48px" height="48px" viewBox="0 0 48 48" version="1.1" xmlns="http://www.w3.org/2000/svg" xmlns:xlink="http://www.w3.org/1999/xlink">
    <!-- Generator: Sketch 47 (45396) - http://www.bohemiancoding.com/sketch -->
    <title>wechat</title>
    <desc>Created with Sketch.</desc>
    <defs></defs>
    <g id="【已公示】图标" stroke="none" stroke-width="1" fill="none" fill-rule="evenodd">
        <g id="图标-通用" transform="translate(-900.000000, -1298.000000)" fill-rule="nonzero" fill="#333333">
            <g id="微信" transform="translate(900.000000, 1298.000000)">
                <path class="noStroke" d="M18.4840351,34.994326 C18.3229452,34.9981066 18.1615906,35 18,35 C15.8081518,35 13.6682039,34.6514542 11.6596545,33.9802644 L6.02848079,36.4908623 C5.45982964,36.832391 4.77310826,36.9365639 4.12060386,36.7692948 C2.78313858,36.4264363 1.97685043,35.0642648 2.31970887,33.7267995 L2.37574271,33.5447449 L3.99455072,29.0574559 C1.43917425,26.2492905 0,22.7292576 0,19 C0,10.0996316 8.11386465,3 18,3 C26.3734358,3 33.5923349,8.11972371 35.5074026,15.2636344 C42.5974273,16.5234057 48,22.152623 48,29 C48,31.5556535 47.2399679,34.0076256 45.8364096,36.1427538 L47.2115245,41.0132255 C47.5866845,42.3419919 46.8136338,43.7232973 45.4848674,44.0984573 C44.9258112,44.2562996 44.3292376,44.2145271 43.7976333,43.980316 L38.8211909,41.7878246 C36.8509819,42.5827064 34.7066715,43 32.5,43 C26.3392941,43 20.9763815,39.7453775 18.4840351,34.994326 Z M17.1526757,30.9783634 C17.0520634,30.3326355 17,29.6721873 17,29 C17,21.6058845 23.2997687,15.6322263 31.2213202,15.0470454 C29.309052,10.3553457 24.0924699,7 18,7 C10.2130234,7 4,12.4363954 4,19 C4,22.0255121 5.31516751,24.8857534 7.67052057,27.0930094 L8.63088862,27.9929926 L7.35921721,31.518029 L11.5210696,29.6625121 L12.2950248,29.9595997 C13.8200255,30.544981 15.458509,30.8915902 17.1526757,30.9783634 Z M41.3569969,35.461177 L42.044015,34.5748078 C43.3158535,32.9339218 44,31.0107223 44,29 C44,23.5330555 38.9003126,19 32.5,19 C26.0996874,19 21,23.5330555 21,29 C21,34.4669445 26.0996874,39 32.5,39 C34.4407607,39 36.3067004,38.5816563 37.9710691,37.7956129 L38.7963245,37.4058637 L42.4969874,39.0362798 L41.8671198,36.8053733 L41.3569969,35.461177 Z M11.7670453,16.1999998 C10.5149907,16.1999998 9.5,15.2597978 9.5,14.0999999 C9.5,12.940202 10.5149907,12 11.7670453,12 C13.0190998,12 14.0340905,12.940202 14.0340905,14.0999999 C14.0340905,15.2597978 13.0190998,16.1999998 11.7670453,16.1999998 Z M22.7670453,16.1999998 C21.5149907,16.1999998 20.5,15.2597978 20.5,14.0999999 C20.5,12.940202 21.5149907,12 22.7670453,12 C24.0190998,12 25.0340905,12.940202 25.0340905,14.0999999 C25.0340905,15.2597978 24.0190998,16.1999998 22.7670453,16.1999998 Z M27.6111111,28.8 C26.4451767,28.8 25.5,27.949341 25.5,26.9 C25.5,25.850659 26.4451767,25 27.6111111,25 C28.7770456,25 29.7222223,25.850659 29.7222223,26.9 C29.7222223,27.949341 28.7770456,28.8 27.6111111,28.8 Z M37.1111111,28.8 C35.9451767,28.8 35,27.949341 35,26.9 C35,25.850659 35.9451767,25 37.1111111,25 C38.2770456,25 39.2222223,25.850659 39.2222223,26.9 C39.2222223,27.949341 38.2770456,28.8 37.1111111,28.8 Z" id="wechat"></path>
            </g>
        </g>
    </g>
</svg>
