<?xml version="1.0" encoding="UTF-8"?>
<svg width="30px" height="30px" viewBox="0 0 30 30" version="1.1" xmlns="http://www.w3.org/2000/svg" xmlns:xlink="http://www.w3.org/1999/xlink">
    <!-- Generator: Sketch 46.1 (44463) - http://www.bohemiancoding.com/sketch -->
    <title>成功特殊</title>
    <desc>Created with Sketch.</desc>
    <defs></defs>
    <g id="【未公示】" stroke="none" stroke-width="1" fill="none" fill-rule="evenodd">
        <g id="【供序章用规范】组件-图标-魏博嘉" transform="translate(-460.000000, -1375.000000)" fill-rule="nonzero" fill="#333333">
            <path d="M475,1404 C482.731986,1404 489,1397.73199 489,1390 C489,1382.26801 482.731986,1376 475,1376 C467.268014,1376 461,1382.26801 461,1390 C461,1397.73199 467.268014,1404 475,1404 Z M475,1405 C466.715729,1405 460,1398.28427 460,1390 C460,1381.71573 466.715729,1375 475,1375 C483.284271,1375 490,1381.71573 490,1390 C490,1398.28427 483.284271,1405 475,1405 Z M473.484796,1396.0722 L468,1390.1239 L469.022936,1389.07281 L473.484796,1393.96368 L482.049022,1385 L483.12,1386.07794 L473.484796,1396.0722 Z" id="成功特殊"></path>
        </g>
    </g>
</svg>