<?xml version="1.0" encoding="UTF-8"?>
<svg width="14px" height="14px" viewBox="0 0 14 14" version="1.1" xmlns="http://www.w3.org/2000/svg" xmlns:xlink="http://www.w3.org/1999/xlink">
    <!-- Generator: Sketch 46.1 (44463) - http://www.bohemiancoding.com/sketch -->
    <title>下载14</title>
    <desc>Created with Sketch.</desc>
    <defs></defs>
    <g id="【未公示】" stroke="none" stroke-width="1" fill="none" fill-rule="evenodd">
        <path d="M7.50215122,10.7599916 L7.50215122,10.8000002 L6.50215122,10.8000002 L6.50215122,10.7666175 L3,7.26446628 L3.70710678,6.5573595 L6.50215122,9.35240394 L6.50215122,0 L7.50215122,0 L7.50215122,9.41172557 L10.3635521,6.55032469 L11.0706589,7.25743147 L7.53512498,10.7929654 L7.50215122,10.7599916 Z M0.874257483,8 L0.874257483,13 L13.1138622,13 L13.1138622,8 L13.1162183,8 C14.1680604,8 13.9883424,8.33977723 13.9883424,8.7477726 L13.9883424,13.2522274 C13.9883424,13.6652108 13.5996205,14 13.1133229,14 L0.875242206,14 C0.39198226,14 0.000222669318,13.6602228 0.000222669318,13.2522274 L0.000222669318,8.7477726 C0.000222669318,8.3347892 -0.0375565237,8 0.871074802,8 L0.874257483,8 Z" id="下载14" fill="#333333"></path>
    </g>
</svg>