<?xml version="1.0" encoding="UTF-8"?>
<svg width="30px" height="30px" viewBox="0 0 30 30" version="1.1" xmlns="http://www.w3.org/2000/svg" xmlns:xlink="http://www.w3.org/1999/xlink">
    <!-- Generator: Sketch 46.1 (44463) - http://www.bohemiancoding.com/sketch -->
    <title>警告特殊</title>
    <desc>Created with Sketch.</desc>
    <defs></defs>
    <g id="【未公示】" stroke="none" stroke-width="1" fill="none" fill-rule="evenodd">
        <g id="【供序章用规范】组件-图标-魏博嘉" transform="translate(-460.000000, -1274.000000)" fill-rule="nonzero" fill="#333333">
            <path d="M475,1303 C482.731986,1303 489,1296.73199 489,1289 C489,1281.26801 482.731986,1275 475,1275 C467.268014,1275 461,1281.26801 461,1289 C461,1296.73199 467.268014,1303 475,1303 Z M475,1304 C466.715729,1304 460,1297.28427 460,1289 C460,1280.71573 466.715729,1274 475,1274 C483.284271,1274 490,1280.71573 490,1289 C490,1297.28427 483.284271,1304 475,1304 Z M474,1287 L476,1287 L476,1295 L474,1295 L474,1287 Z M474,1283 L476,1283 L476,1285 L474,1285 L474,1283 Z" id="警告特殊" transform="translate(475.000000, 1289.000000) scale(1, -1) translate(-475.000000, -1289.000000) "></path>
        </g>
    </g>
</svg>