<?xml version="1.0" encoding="UTF-8"?>
<svg width="30px" height="30px" viewBox="0 0 30 30" version="1.1" xmlns="http://www.w3.org/2000/svg" xmlns:xlink="http://www.w3.org/1999/xlink">
    <!-- Generator: Sketch 46.1 (44463) - http://www.bohemiancoding.com/sketch -->
    <title>信息特殊</title>
    <desc>Created with Sketch.</desc>
    <defs></defs>
    <g id="【未公示】" stroke="none" stroke-width="1" fill="none" fill-rule="evenodd">
        <g id="【供序章用规范】组件-图标-魏博嘉" transform="translate(-460.000000, -1424.000000)" fill-rule="nonzero" fill="#333333">
            <path d="M475,1453 C482.731986,1453 489,1446.73199 489,1439 C489,1431.26801 482.731986,1425 475,1425 C467.268014,1425 461,1431.26801 461,1439 C461,1446.73199 467.268014,1453 475,1453 Z M475,1454 C466.715729,1454 460,1447.28427 460,1439 C460,1430.71573 466.715729,1424 475,1424 C483.284271,1424 490,1430.71573 490,1439 C490,1447.28427 483.284271,1454 475,1454 Z M474,1437 L476,1437 L476,1445 L474,1445 L474,1437 Z M474,1433 L476,1433 L476,1435 L474,1435 L474,1433 Z" id="信息特殊"></path>
        </g>
    </g>
</svg>