<?xml version="1.0" encoding="UTF-8"?>
<svg width="12px" height="12px" viewBox="0 0 12 12" version="1.1" xmlns="http://www.w3.org/2000/svg" xmlns:xlink="http://www.w3.org/1999/xlink">
    <!-- Generator: Sketch 46.1 (44463) - http://www.bohemiancoding.com/sketch -->
    <title>加载12</title>
    <desc>Created with Sketch.</desc>
    <defs></defs>
    <g id="【未公示】" stroke="none" stroke-width="1" fill="none" fill-rule="evenodd">
        <g id="【供序章用规范】组件-图标-魏博嘉" transform="translate(-160.000000, -2342.000000)" fill-rule="nonzero" fill="#333333">
            <g id="加载12" transform="translate(159.000000, 2341.000000)">
                <path d="M7.0494202,12.5494202 C10.0869863,12.5494202 12.5494202,10.0869863 12.5494202,7.0494202 C12.5494202,4.01185408 10.0869863,1.5494202 7.0494202,1.5494202 C4.01185408,1.5494202 1.5494202,4.01185408 1.5494202,7.0494202 C1.5494202,8.80250749 2.3758299,10.4191537 3.75141296,11.4512824 L4.35157722,10.6514057 C3.22508223,9.80617294 2.5494202,8.48442359 2.5494202,7.0494202 C2.5494202,4.56413883 4.56413883,2.5494202 7.0494202,2.5494202 C9.53470158,2.5494202 11.5494202,4.56413883 11.5494202,7.0494202 C11.5494202,9.53470158 9.53470158,11.5494202 7.0494202,11.5494202 L7.0494202,12.5494202 Z" transform="translate(7.049420, 7.049420) rotate(250.000000) translate(-7.049420, -7.049420) "></path>
            </g>
        </g>
    </g>
</svg>