<?xml version="1.0" encoding="UTF-8"?>
<svg width="12px" height="12px" viewBox="0 0 12 12" version="1.1" xmlns="http://www.w3.org/2000/svg" xmlns:xlink="http://www.w3.org/1999/xlink">
    <!-- Generator: Sketch 46.1 (44463) - http://www.bohemiancoding.com/sketch -->
    <title>服务市场12</title>
    <desc>Created with Sketch.</desc>
    <defs></defs>
    <g id="【未公示】" stroke="none" stroke-width="1" fill="none" fill-rule="evenodd">
        <path d="M2.14439891,3 C2.24739071,2.60853995 2.43962206,2.13844582 2.75691587,1.66767543 C3.45871595,0.626411172 4.54283169,0 6.04411282,0 C7.54778603,0 8.61998543,0.62909896 9.29749209,1.67519522 C9.60045515,2.14298181 9.78037334,2.60967054 9.87425693,3 L10.9975267,3 C11.5511774,3 12,3.4463114 12,3.99754465 L12,11.0024554 C12,11.553384 11.544239,12 10.9975267,12 L1.00247329,12 C0.448822582,12 0,11.5536886 0,11.0024554 L0,3.99754465 C0,3.44661595 0.455760956,3 1.00247329,3 L2.14439891,3 Z M3.07935395,3 L8.94754266,3 C8.86118659,2.74404308 8.74309699,2.49012824 8.58893994,2.25210384 C8.07416958,1.45727866 7.26383382,0.981824763 6.04411282,0.981824763 C4.82199973,0.981824763 3.99449065,1.45996645 3.45553095,2.25962363 C3.29655186,2.49550169 3.17245427,2.74670638 3.07935395,3 Z M1,5.00292933 L1,9.99707067 C1,10.5621186 1.44565467,11 1.99539757,11 L10.0046024,11 C10.5443356,11 11,10.5509732 11,9.99707067 L11,5.00292933 C11,4.43788135 10.5543453,4 10.0046024,4 L1.99539757,4 C1.4556644,4 1,4.44902676 1,5.00292933 Z M3,5 L4,5 L4,6 L3,6 L3,5 Z M8,5 L9,5 L9,6 L8,6 L8,5 Z" id="服务市场12" fill="#333333"></path>
    </g>
</svg>