<?xml version="1.0" encoding="UTF-8"?>
<svg width="12px" height="12px" viewBox="0 0 12 12" version="1.1" xmlns="http://www.w3.org/2000/svg" xmlns:xlink="http://www.w3.org/1999/xlink">
    <!-- Generator: Sketch 46.1 (44463) - http://www.bohemiancoding.com/sketch -->
    <title>客户端下载12</title>
    <desc>Created with Sketch.</desc>
    <defs></defs>
    <g id="【未公示】" stroke="none" stroke-width="1" fill="none" fill-rule="evenodd">
        <path d="M5,0 L6,0 L6,5 L5,5 L5,0 Z M12,6 L12,7 L0,7 L0,6 L12,6 Z M5,8 L6,8 L6,12 L5,12 L5,8 Z M0,0 L4,0 L4,5 L0,5 L0,0 Z M1,1 L1,4 L3,4 L3,1 L1,1 Z M0,8 L4,8 L4,12 L0,12 L0,8 Z M1,9 L1,11 L3,11 L3,9 L1,9 Z M7,8 L12,8 L12,12 L7,12 L7,8 Z M8,9 L8,11 L11,11 L11,9 L8,9 Z M7,0 L12,0 L12,5 L7,5 L7,0 Z M8,1 L8,4 L11,4 L11,1 L8,1 Z" id="客户端下载12" fill="#333333"></path>
    </g>
</svg>