<?xml version="1.0" encoding="UTF-8"?>
<svg width="24px" height="24px" viewBox="0 0 24 24" version="1.1" xmlns="http://www.w3.org/2000/svg" xmlns:xlink="http://www.w3.org/1999/xlink">
    <!-- Generator: Sketch 46.1 (44463) - http://www.bohemiancoding.com/sketch -->
    <title>客户端下载特殊</title>
    <desc>Created with Sketch.</desc>
    <defs></defs>
    <g id="【未公示】" stroke="none" stroke-width="1" fill="none" fill-rule="evenodd">
        <path d="M10,0 L12,0 L12,10 L10,10 L10,0 Z M24,12 L24,14 L0,14 L0,12 L24,12 Z M10,16 L12,16 L12,24 L10,24 L10,16 Z M0,0 L8,0 L8,10 L0,10 L0,0 Z M2,2 L2,8 L6,8 L6,2 L2,2 Z M0,16 L8,16 L8,24 L0,24 L0,16 Z M2,18 L2,22 L6,22 L6,18 L2,18 Z M14,16 L24,16 L24,24 L14,24 L14,16 Z M16,18 L16,22 L22,22 L22,18 L16,18 Z M14,0 L24,0 L24,10 L14,10 L14,0 Z M16,2 L16,8 L22,8 L22,2 L16,2 Z" id="客户端下载特殊" fill="#333333"></path>
    </g>
</svg>