<?xml version="1.0" encoding="UTF-8"?>
<svg width="12px" height="12px" viewBox="0 0 12 12" version="1.1" xmlns="http://www.w3.org/2000/svg" xmlns:xlink="http://www.w3.org/1999/xlink">
    <!-- Generator: Sketch 46.1 (44463) - http://www.bohemiancoding.com/sketch -->
    <title>疑问12</title>
    <desc>Created with Sketch.</desc>
    <defs></defs>
    <g id="【未公示】" stroke="none" stroke-width="1" fill="none" fill-rule="evenodd">
        <path d="M6,1 C3.23887006,1 1,3.23887006 1,6 C1,8.76100893 3.23893952,11 6,11 C8.76093946,11 11,8.76093946 11,6 C11,3.23893952 8.76100893,1 6,1 Z M6,0 C9.3132,0 12,2.6866 12,6 C12,9.3132 9.3132,12 6,12 C2.6866,12 0,9.3132 0,6 C0,2.6866 2.6866,0 6,0 Z M6.02057404,2.57142857 C5.28000262,2.57142857 4.70400262,2.79771429 4.29257404,3.25028571 C3.88114547,3.68228571 3.6857169,4.25828571 3.6857169,4.97828571 L4.49828833,4.97828571 C4.49828833,4.47428571 4.61143119,4.08342857 4.8377169,3.79542857 C5.08457404,3.456 5.46514547,3.29142857 5.97943119,3.29142857 C6.41143119,3.29142857 6.75085976,3.40457143 6.98743119,3.65142857 C7.2137169,3.87771429 7.33714547,4.19657143 7.33714547,4.608 C7.33714547,4.896 7.23428833,5.16342857 7.02857404,5.42057143 C6.96685976,5.50285714 6.84343119,5.62628571 6.67885976,5.79085714 C6.12343119,6.28457143 5.78400262,6.67542857 5.64000262,6.984 C5.51657404,7.24114286 5.45485976,7.53942857 5.45485976,7.87885714 L5.45485976,8.11542857 L6.2777169,8.11542857 L6.2777169,7.87885714 C6.2777169,7.60114286 6.33943119,7.35428571 6.47314547,7.128 C6.57600262,6.94285714 6.73028833,6.75771429 6.95657404,6.56228571 C7.40914547,6.16114286 7.68685976,5.89371429 7.7897169,5.77028571 C8.04685976,5.43085714 8.18057404,5.02971429 8.18057404,4.56685714 C8.18057404,3.94971429 7.98514547,3.46628571 7.60457404,3.11657143 C7.20343119,2.74628571 6.67885976,2.57142857 6.02057404,2.57142857 Z M5.86628833,8.83542857 C5.69143119,8.83542857 5.54743119,8.88685714 5.42400262,9.01028571 C5.30057404,9.12342857 5.24914547,9.26742857 5.24914547,9.44228571 C5.24914547,9.61714286 5.30057404,9.76114286 5.42400262,9.88457143 C5.54743119,9.99771429 5.69143119,10.0594286 5.86628833,10.0594286 C6.04114547,10.0594286 6.18514547,9.99771429 6.30857404,9.88457143 C6.43200262,9.77142857 6.4937169,9.62742857 6.4937169,9.44228571 C6.4937169,9.26742857 6.43200262,9.12342857 6.31885976,9.01028571 C6.19543119,8.88685714 6.04114547,8.83542857 5.86628833,8.83542857 Z" id="疑问12" fill="#333333" fill-rule="nonzero"></path>
    </g>
</svg>