<?xml version="1.0" encoding="UTF-8"?>
<svg width="14px" height="14px" viewBox="0 0 14 14" version="1.1" xmlns="http://www.w3.org/2000/svg" xmlns:xlink="http://www.w3.org/1999/xlink">
    <!-- Generator: Sketch 46.1 (44463) - http://www.bohemiancoding.com/sketch -->
    <title>消息14</title>
    <desc>Created with Sketch.</desc>
    <defs></defs>
    <g id="【未公示】" stroke="none" stroke-width="1" fill="none" fill-rule="evenodd">
        <path d="M13.5478847,4.37542899 C12.8048898,2.29641129 11.4096059,1.03964017 11.3506223,0.987911057 C11.1513668,0.810554098 10.8455444,0.827304477 10.6676023,1.02535308 C10.4896602,1.22340169 10.5065127,1.52737181 10.7057682,1.70423611 C10.7181597,1.71556725 11.9751543,2.84720318 12.6363653,4.69713481 C13.0214934,5.77408568 13.1260777,6.87764009 12.9481356,7.97676059 C12.7226102,9.36654943 12.0410772,10.7627428 10.9213804,12.1269134 C10.7528559,12.3328446 10.7835868,12.6358294 10.9907729,12.8033332 C11.0804874,12.8762466 11.1885414,12.911718 11.2960996,12.911718 C11.4363715,12.911718 11.5756521,12.8516137 11.6713145,12.7348537 C12.8995609,11.238158 13.650982,9.6887479 13.9032732,8.12948463 C14.1074852,6.8692649 13.9880311,5.60608922 13.5478847,4.37542899 L13.5478847,4.37542899 Z M11.4324062,6.69732718 C11.3074998,4.79221784 9.88098932,3.56599153 9.82002309,3.51475507 C9.61680234,3.34281736 9.31147556,3.36695761 9.13849009,3.56944014 C8.96550463,3.77192267 8.99028764,4.07540013 9.19350839,4.24733785 C9.20540424,4.25719101 10.3682235,5.25679455 10.4668599,6.75989478 C10.532287,7.75851299 10.1080018,8.76599906 9.2058999,9.75525676 C9.02647085,9.9518274 9.04134066,10.2562902 9.23960481,10.4341398 C9.33229329,10.5178917 9.44827782,10.5587823 9.56426234,10.5587823 C9.696108,10.5587823 9.827458,10.5055752 9.92262479,10.400639 C11.0076253,9.21136209 11.5151815,7.96542945 11.4324062,6.69732718 L11.4324062,6.69732718 Z M6.93527978,12.4762081 C6.93527978,12.6717934 6.78707734,12.9161519 6.68546696,13.008279 C5.46515115,12.0347864 3.27482801,9.18032462 3.24211443,9.15076513 C3.24211443,9.15076513 3.24211443,9.15027247 3.24161877,9.15027247 C3.15339122,9.05518943 3.02699783,8.99508513 2.88672595,8.99508513 L1.45129354,8.99508513 C1.18462827,8.99508513 0.967529027,8.77930083 0.967529027,8.51474336 L0.967529027,5.00997278 C0.967529027,4.74492265 1.18462827,4.52913835 1.45129354,4.52913835 L3.2525233,4.52913835 C3.35016839,4.52913835 3.44037857,4.50007152 3.51671027,4.4508057 C3.60047687,4.43553329 3.68077385,4.39858392 3.74917498,4.33847962 C3.77841894,4.31286139 5.61236228,1.82395206 6.68447564,0.988896374 C6.78559035,1.07905283 6.93527978,1.32439662 6.93527978,1.52145991 L6.93527978,12.4762081 Z M7.06662978,0.0957070186 C6.75535507,-0.0565243718 6.42326263,-0.0259795621 6.1561017,0.178966258 C5.17865946,0.928792071 3.59799857,3.18713736 3.16578273,3.5674695 L1.45129354,3.5674695 C0.650802055,3.5674695 0,4.21482241 0,5.00997278 L0,8.51425071 C0,9.30989373 0.650802055,9.95675398 1.45129354,9.95675398 L2.69688803,9.95675398 C3.27681065,10.4765084 5.06416192,12.9590132 6.15114509,13.8147605 C6.30678245,13.9374324 6.48522018,14 6.66960583,14 C6.79847752,14 6.93032318,13.9689625 7.05919487,13.9073803 C7.52461995,13.6837134 7.90280881,13.0417798 7.90280881,12.4762081 L7.90280881,1.52145991 C7.90280881,0.960322197 7.52759392,0.320851826 7.06662978,0.0957070186 L7.06662978,0.0957070186 Z" id="消息14" fill="#333333"></path>
    </g>
</svg>