<?xml version="1.0" encoding="UTF-8"?>
<svg width="96px" height="96px" viewBox="0 0 96 96" version="1.1" xmlns="http://www.w3.org/2000/svg" xmlns:xlink="http://www.w3.org/1999/xlink">
    <!-- Generator: Sketch 41.1 (35376) - http://www.bohemiancoding.com/sketch -->
    <title>arrows-right</title>
    <desc>Created with Sketch.</desc>
    <defs></defs>
    <g id="Page-1" stroke="none" stroke-width="1" fill="none" fill-rule="evenodd">
        <g id="Desktop-HD" transform="translate(-480.000000, -1056.000000)" fill="#000000">
            <g id="arrows-right" transform="translate(480.000000, 1056.000000)">
                <path d="M46.2603431,40.2464366 L38.4928868,48 L46.2603431,55.7535634 C48.6055852,58.0946109 48.6089857,61.8935994 46.2679382,64.2388416 C43.9268908,66.5840838 40.1279024,66.587484 37.7826603,64.2464364 L25.7611586,52.2464366 C23.4129472,49.9024252 23.4129472,46.0975749 25.7611586,43.7535634 L37.7826603,31.7535634 C40.1279024,29.412516 43.9268908,29.4159164 46.2679382,31.7611586 C48.6089857,34.1064008 48.6055852,37.9053892 46.2603431,40.2464366 Z M70.2603432,40.2464366 L62.4928866,48 L70.2603432,55.7535634 C72.6055854,58.0946109 72.6089856,61.8935994 70.267938,64.2388416 C67.926891,66.5840838 64.1279022,66.587484 61.78266,64.2464364 L49.7611586,52.2464366 C47.4129472,49.9024252 47.4129472,46.0975749 49.7611586,43.7535634 L61.78266,31.7535634 C64.1279022,29.412516 67.926891,29.4159164 70.267938,31.7611586 C72.6089856,34.1064008 72.6055854,37.9053892 70.2603432,40.2464366 Z" id="Combined-Shape" transform="translate(48.010751, 48.000000) scale(-1, 1) translate(-48.010751, -48.000000) "></path>
            </g>
        </g>
    </g>
</svg>