<?xml version="1.0" encoding="UTF-8"?>
<svg width="96px" height="96px" viewBox="0 0 96 96" version="1.1" xmlns="http://www.w3.org/2000/svg" xmlns:xlink="http://www.w3.org/1999/xlink">
    <!-- Generator: Sketch 41.1 (35376) - http://www.bohemiancoding.com/sketch -->
    <title>arrow-right</title>
    <desc>Created with Sketch.</desc>
    <defs></defs>
    <g id="Page-1" stroke="none" stroke-width="1" fill="none" fill-rule="evenodd">
        <g id="Desktop-HD" transform="translate(-480.000000, -480.000000)" fill="#000000">
            <g id="arrow-right" transform="translate(480.000000, 480.000000)">
                <path d="M43.2393188,7.71565647 C44.5582886,6.48291016 46.4474228,5.96026611 48.2070923,5.96026611 C49.844959,5.96026611 51.3779297,6.48175049 52.5067749,7.28833008 C53.2390137,7.85736084 53.9810919,8.48593815 54.7008582,9.20570445 L80.1819023,34.6867487 C82.5180893,37.0229357 82.5287843,40.7999483 80.1693023,43.15943 C77.8261565,45.5025758 74.0045915,45.4800005 71.6966213,43.1720301 L54.2070923,25.4609452 L54.2070923,83.9444633 C54.2070923,87.2808557 51.5439034,90.0397339 48.2070923,90.0397339 C44.8933838,90.0397339 42.2070923,87.2858435 42.2070923,83.9444633 L42.2070923,25.4570923 L24.7008582,43.1720301 C22.3646714,45.508217 18.5876587,45.5189118 16.2281769,43.15943 C13.8850312,40.8162843 13.9076066,36.994719 16.2155769,34.6867487 L41.6966211,9.20570445 C42.2497309,8.65259469 42.6959839,8.19158936 43.2393188,7.71565647 Z" id="Combined-Shape" transform="translate(48.207092, 48.000000) rotate(90.000000) translate(-48.207092, -48.000000) "></path>
            </g>
        </g>
    </g>
</svg>