<?xml version="1.0" encoding="UTF-8"?>
<svg width="96px" height="96px" viewBox="0 0 96 96" version="1.1" xmlns="http://www.w3.org/2000/svg" xmlns:xlink="http://www.w3.org/1999/xlink">
    <!-- Generator: Sketch 41.1 (35376) - http://www.bohemiancoding.com/sketch -->
    <title>arrow-left</title>
    <desc>Created with Sketch.</desc>
    <defs></defs>
    <g id="Page-1" stroke="none" stroke-width="1" fill="none" fill-rule="evenodd">
        <g id="Desktop-HD" transform="translate(-96.000000, -480.000000)" fill="#000000">
            <g id="arrow-left" transform="translate(96.000000, 480.000000)">
                <path d="M43.2037956,7.80181964 C44.3152458,6.62042315 46.2341057,6.00622479 47.9937752,6.00622479 C49.6316419,6.00622479 51.5599968,6.33252032 52.7497551,7.35986407 C53.4746696,7.95532306 53.9893309,8.50662669 54.7090972,9.22639299 L80.1901412,34.7074373 C82.5263282,37.0436242 82.5370232,40.8206368 80.1775412,43.1801186 C77.8343954,45.5232643 74.0128304,45.500689 71.7048602,43.1927186 L54.2303459,25.7454842 L54.2303459,83.9651518 C54.2303459,87.3015442 51.5521423,89.9937752 48.2153312,89.9937752 C44.9016227,89.9937752 42.2153312,87.306532 42.2153312,83.9651518 L42.2153312,25.9080406 L24.7090972,43.1927186 C22.3729103,45.5289056 18.5958976,45.5396003 16.2364159,43.1801186 C13.8932701,40.8369728 13.9158455,37.0154076 16.2238158,34.7074373 L41.7048601,9.22639299 C42.2579698,8.67328323 42.6569206,8.34899981 43.2037956,7.80181964 Z" id="Combined-Shape" transform="translate(48.215331, 48.000000) scale(-1, 1) rotate(90.000000) translate(-48.215331, -48.000000) "></path>
            </g>
        </g>
    </g>
</svg>