<?xml version="1.0" encoding="UTF-8"?>
<svg width="96px" height="96px" viewBox="0 0 96 96" version="1.1" xmlns="http://www.w3.org/2000/svg" xmlns:xlink="http://www.w3.org/1999/xlink">
    <!-- Generator: Sketch 41.1 (35376) - http://www.bohemiancoding.com/sketch -->
    <title>circle_del</title>
    <desc>Created with Sketch.</desc>
    <defs></defs>
    <g id="Page-1" stroke="none" stroke-width="1" fill="none" fill-rule="evenodd">
        <g id="Desktop-HD" transform="translate(-96.000000, -288.000000)" fill="#000000">
            <g id="circle_del" transform="translate(96.000000, 288.000000)">
                <path d="M57.1941296,47.2891692 L65.6981034,55.7931431 C68.0060742,58.1011135 68.0313768,61.9199508 65.6915958,64.2597318 C63.3355026,66.6158256 59.5611942,66.6024264 57.2250073,64.2662394 L48.7210333,55.7622655 L40.2170594,64.2662394 C37.8808724,66.6024264 34.106564,66.6158256 31.7504706,64.2597318 C29.4106897,61.9199508 29.4359927,58.1011135 31.7439631,55.7931431 L40.247937,47.2891692 L31.7439631,38.7851953 C29.4359927,36.4772249 29.4106897,32.6583874 31.7504706,30.3186065 C34.106564,27.962513 37.8808724,27.975912 40.2170594,30.3120989 L48.7210333,38.8160729 L57.2250073,30.3120989 C59.5611942,27.975912 63.3355026,27.962513 65.6915958,30.3186065 C68.0313768,32.6583874 68.0060742,36.4772249 65.6981034,38.7851953 L57.1941296,47.2891692 Z M48,96 C21.490332,96 0,74.509668 0,48 C0,21.490332 21.490332,0 48,0 C74.509668,0 96,21.490332 96,48 C96,74.509668 74.509668,96 48,96 Z M48,84 C67.882251,84 84,67.882251 84,48 C84,28.117749 67.882251,12 48,12 C28.117749,12 12,28.117749 12,48 C12,67.882251 28.117749,84 48,84 Z" id="Combined-Shape"></path>
            </g>
        </g>
    </g>
</svg>