<?xml version="1.0" encoding="UTF-8"?>
<svg width="96px" height="96px" viewBox="0 0 96 96" version="1.1" xmlns="http://www.w3.org/2000/svg" xmlns:xlink="http://www.w3.org/1999/xlink">
    <!-- Generator: Sketch 41.1 (35376) - http://www.bohemiancoding.com/sketch -->
    <title>circle_wenhao</title>
    <desc>Created with Sketch.</desc>
    <defs></defs>
    <g id="Page-1" stroke="none" stroke-width="1" fill="none" fill-rule="evenodd">
        <g id="Desktop-HD" transform="translate(-1248.000000, -288.000000)" fill="#000000">
            <g id="circle_wenhao" transform="translate(1248.000000, 288.000000)">
                <path d="M48,84 C67.882251,84 84,67.882251 84,48 C84,28.117749 67.882251,12 48,12 C28.117749,12 12,28.117749 12,48 C12,67.882251 28.117749,84 48,84 Z M48,96 C21.490332,96 0,74.509668 0,48 C0,21.490332 21.490332,0 48,0 C74.509668,0 96,21.490332 96,48 C96,74.509668 74.509668,96 48,96 Z M48.6075456,57.4870588 C48.6075456,57.4870588 51.4225746,57.4870588 51.4225746,55.2847059 C51.4225746,52.6870588 52.2696334,51.2188235 54.6413981,49.6941176 C59.5543393,46.6447059 60.1190454,46.2494117 61.4743392,45.0070588 C63.8461038,42.8047059 64.9755156,40.1505883 64.9755156,36.7058824 C64.9755156,28.9129412 58.4813981,24 48.0908099,24 C41.5966923,24 36.5708099,25.92 33.2955158,29.6470588 C31.1496334,32.0188235 30.5647076,33.4305883 30.0000017,37.4964706 C30.0000017,37.4964706 29.9791276,41.3270198 34.6043718,42.1835294 C39.2296159,43.040039 41.2013981,38.6077881 41.2013981,38.6077881 C41.4272805,36.8571998 41.766104,36.8188235 42.3308099,35.9152941 C43.4037511,34.1647059 45.2672805,33.2611765 47.808457,33.2611765 C51.1966923,33.2611765 53.1731629,34.8423529 53.1731629,37.4964706 C53.1731629,39.36 52.2696334,40.5458824 49.5025746,42.1835294 C45.4931629,44.6117647 45.0413981,44.9505883 43.686104,46.5317647 C41.8790452,48.7341176 41.2013981,50.9929412 41.2013981,54.8894117 C41.2013981,57.4870588 43.686104,57.4870588 43.686104,57.4870588 L48.6075456,57.4870588 Z M46.6931629,61.327059 C43.3794544,61.327059 40.6931629,63.9902478 40.6931629,67.327059 C40.6931629,70.6407672 43.3563518,73.327059 46.6931629,73.327059 C50.0068714,73.327059 52.6931629,70.6638696 52.6931629,67.327059 C52.6931629,64.0133502 50.0299739,61.327059 46.6931629,61.327059 Z" id="Oval-24"></path>
            </g>
        </g>
    </g>
</svg>